<svg xmlns="http://www.w3.org/2000/svg" width="64" height="64" viewBox="0 0 64 64"><path d="M52.723 41.864c-1.78-2.538-2.643-5.39-2.643-8.582 0-2.878.812-5.547 2.485-7.954.89-1.31 2.355-2.8 4.396-4.527-1.334-1.647-2.668-2.93-4.003-3.845-2.407-1.675-5.154-2.512-8.202-2.512-1.818 0-4.043.445-6.646 1.308-2.525.89-4.357 1.31-5.51 1.31-.875 0-2.642-.367-5.31-1.152-2.683-.76-4.96-1.15-6.804-1.15-4.41 0-8.06 1.856-10.924 5.546-2.904 3.742-4.356 8.53-4.356 14.365 0 6.227 1.897 12.663 5.665 19.36C14.693 60.678 18.55 64 22.45 64c1.308 0 2.996-.444 5.076-1.31 2.08-.862 3.898-1.28 5.468-1.28 1.662 0 3.598.418 5.796 1.23 2.342.836 4.134 1.228 5.39 1.228 3.284 0 6.58-2.512 9.878-7.535 2.17-3.192 3.74-6.41 4.735-9.603-2.276-.706-4.29-2.328-6.07-4.866z"/><path d="M39.64 12.14c1.623-1.62 2.813-3.374 3.585-5.31.732-1.91 1.112-3.664 1.112-5.234 0-.105-.013-.236-.026-.366C44.3 1.073 44.3.942 44.3.837c-.026-.08-.053-.21-.092-.42-.04-.208-.078-.365-.104-.417-4.514 1.046-7.72 2.93-9.616 5.678-1.923 2.773-2.917 6.07-2.996 9.89 1.713-.156 3.048-.365 4.003-.653 1.374-.472 2.76-1.388 4.148-2.774z"/></svg>