<svg xmlns="http://www.w3.org/2000/svg" width="64" height="64" viewBox="0 0 64 64"><path d="M32 23c-7.18 0-13 5.82-13 12.999C19 43.182 24.82 49 32 49s13-5.818 13-13.001C45 28.82 39.18 23 32 23zm0 20.55a7.499 7.499 0 0 1-7.5-7.5c0-4.142 3.356-7.5 7.5-7.5 4.143 0 7.5 3.357 7.5 7.5 0 4.139-3.357 7.5-7.5 7.5z"/><path d="M60 14H45.999L40 6H24l-6 8H4c-2.2 0-4 1.8-4 4v36c0 2.199 1.8 4 4 4h56c2.199 0 4-1.8 4-4V18c0-2.2-1.801-4-4-4zM32 53.75c-9.804 0-17.75-7.947-17.75-17.751 0-9.802 7.946-17.75 17.75-17.75 9.803 0 17.749 7.948 17.749 17.75 0 9.804-7.946 17.751-17.749 17.751zM60 23.5h-8v-4h8v4z"/></svg>