<svg xmlns="http://www.w3.org/2000/svg" width="32" height="32" viewBox="0 0 32 32"><path d="M16 28C9.383 28 4 22.618 4 16 4 9.383 9.383 4 16 4s12 5.383 12 12c0 6.618-5.383 12-12 12zm-5.849-4.185A9.657 9.657 0 0 0 16 25.768a9.699 9.699 0 0 0 3.423-.622 47.086 47.086 0 0 0-1.954-7.28c-4.286 1.391-6.496 4.512-7.318 5.949zm9.51-6.47a49.573 49.573 0 0 1 1.825 6.73 9.75 9.75 0 0 0 4.163-6.571 20.238 20.238 0 0 0-3.583-.338 15.803 15.803 0 0 0-2.405.179zM6.231 16c0 2.289.808 4.503 2.279 6.261 1.195-1.866 3.739-4.951 8.153-6.453a38.704 38.704 0 0 0-.633-1.404c-3.801 1.094-7.691 1.365-9.796 1.426l-.003.17zm15.906-1.062c1.156 0 2.367.104 3.604.312a9.683 9.683 0 0 0-1.992-5.188c-1.286 1.468-3.158 2.684-5.571 3.621.228.492.456 1.013.679 1.551a17.81 17.81 0 0 1 3.28-.296zM11.37 7.404a9.766 9.766 0 0 0-4.831 6.174c1.87-.079 5.208-.342 8.44-1.202-1.474-2.618-2.853-4.204-3.609-4.972zm2.25-.876c.925 1.034 2.226 2.712 3.552 5.152 2.245-.836 3.93-1.923 5.016-3.23A9.763 9.763 0 0 0 16 6.231c-.801.001-1.6.1-2.38.297z"/></svg>