<svg xmlns="http://www.w3.org/2000/svg" width="64" height="64" viewBox="0 0 64 64"><path d="M32 64C14.355 64 0 49.645 0 32S14.355 0 32 0s32 14.355 32 32-14.355 32-32 32zm4.13-28.027c-8.454 2.544-15.33 8.076-21.016 16.91l-.25.39.365.286c4.852 3.777 10.652 5.775 16.774 5.775 3.32 0 6.618-.618 9.806-1.836l.39-.15-.07-.41c-1.298-7.55-3.056-14.306-5.374-20.656l-.165-.45-.46.138zm12.982-1.738c-2.694 0-5.27.187-7.65.557l-.603.093.2.576c2.08 5.96 3.824 12.37 5.18 19.06l.15.74.63-.417C53.7 50.42 58.112 43.36 59.12 35.475l.062-.502-.502-.067c-3.394-.445-6.615-.67-9.568-.67zm-17-7.723c-7.12 2.15-15.673 3.394-26.918 3.91l-.468.02-.016.47c-.005.143-.015.283-.024.424-.015.22-.03.44-.03.664 0 6.467 2.324 12.757 6.542 17.71l.432.507.375-.55c6.22-9.115 13.604-14.806 22.573-17.394l.55-.16-.224-.527c-.79-1.858-1.484-3.387-2.188-4.812l-.19-.386-.413.124zM52.418 14.66c-4.304 4.36-9.263 7.646-15.156 10.05l-.492.202.225.483c.742 1.6 1.496 3.365 2.304 5.4l.15.377.4-.062c2.697-.42 5.546-.623 8.707-.623 3.013 0 6.336.19 10.16.58l.59.06-.032-.59c-.312-5.856-2.42-11.334-6.1-15.84l-.36-.44-.396.403zm-32.73-7.05c-7.42 3.754-12.674 10.548-14.41 18.64l-.14.643.658-.03c9.947-.445 17.7-1.596 24.396-3.622l.606-.18-.31-.55c-2.793-4.99-6.12-9.82-10.178-14.77l-.258-.315-.364.183zM32 4.665c-2.296 0-4.626.31-6.924.918l-.808.214.562.618c3.667 4.036 7.046 8.986 10.043 14.713l.215.41.43-.175c5.59-2.305 10.288-5.342 14.36-9.285l.398-.387-.42-.36C44.873 7.03 38.532 4.666 32 4.665z"/></svg>