<svg xmlns="http://www.w3.org/2000/svg" width="64" height="64" viewBox="0 0 64 64"><path d="M32.002 64c-17.645 0-32-14.354-32-32 0-17.645 14.355-32 32-32 17.646 0 32 14.355 32 32 0 17.646-14.355 32-32 32zM16.405 52.841a25.75 25.75 0 0 0 15.597 5.208c3.127 0 6.195-.558 9.127-1.659-1.284-6.855-3.035-13.383-5.209-19.416-11.43 3.712-17.323 12.032-19.515 15.867zm25.361-17.257c1.968 5.597 3.603 11.629 4.864 17.95 5.987-4.075 9.999-10.402 11.104-17.523-3.304-.599-6.518-.902-9.557-.902a42.27 42.27 0 0 0-6.411.475zM5.953 31.999a25.99 25.99 0 0 0 6.078 16.695c3.186-4.976 9.97-13.204 21.74-17.208a99.602 99.602 0 0 0-1.689-3.742c-10.136 2.914-20.509 3.637-26.122 3.801-.004.161-.007.307-.007.454zm42.413-2.832c3.084 0 6.314.28 9.608.832a25.813 25.813 0 0 0-5.309-13.833c-3.431 3.911-8.424 7.155-14.859 9.652a107.133 107.133 0 0 1 1.812 4.138 47.738 47.738 0 0 1 8.748-.789zM19.654 9.078C13.227 12.55 8.571 18.506 6.771 25.542c4.987-.211 13.889-.912 22.509-3.206-3.93-6.982-7.608-11.212-9.626-13.258zm6-2.335c2.466 2.756 5.935 7.229 9.474 13.74 5.986-2.231 10.479-5.127 13.373-8.617a26.03 26.03 0 0 0-16.499-5.915 25.958 25.958 0 0 0-6.348.792z"/></svg>