<svg xmlns="http://www.w3.org/2000/svg" width="64" height="64" viewBox="0 0 64 64"><path d="M56.956 20.895c0-4.618-1.76-8.333-4.61-11.143.5-1.592 1.157-5.128-.67-9.66 0 0-3.24-1.014-10.555 3.822-2.862-.72-5.92-1.064-8.965-1.064-3.353 0-6.753.42-9.918 1.282C14.684-.953 11.357.086 11.357.086c-2.174 5.37-.834 9.35-.42 10.338-2.57 2.72-4.114 6.206-4.114 10.456 0 3.23.37 6.106 1.28 8.623l.943 2.13c2.558 4.692 7.582 7.73 16.515 8.68-1.262.843-2.575 2.266-3.086 4.688-1.73.817-7.2 2.813-10.48-2.75 0 0-1.843-3.336-5.36-3.587 0 0-3.416-.047-.232 2.095 0 0 2.275 1.07 3.86 5.056 0 0 2.05 6.817 11.968 4.636v7.034s-.22 2.49-2.524 3.322c0 0-1.364.913.1 1.448 0 0 6.414.508 6.414-4.664V49.9s-.26-3.045 1.248-4.088v12.604s-.095 3-1.676 4.13c0 0-1.053 1.88 1.26 1.363 0 0 4.41-.618 4.604-5.723l.103-12.752h1.06l.1 12.752c.216 5.088 4.623 5.72 4.623 5.72 2.306.518 1.246-1.36 1.246-1.36-1.576-1.13-1.682-4.132-1.682-4.132V45.913c1.51 1.172 1.263 3.985 1.263 3.985v7.688c0 5.172 6.4 4.664 6.4 4.664 1.47-.54.108-1.45.108-1.45-2.312-.83-2.522-3.32-2.522-3.32V47.414c0-3.918-1.674-5.985-3.308-7.087 9.533-.924 14.095-3.98 16.21-8.698-.042.082.756-2.11.756-2.11.725-2.503.945-5.4.945-8.623h-.004z"/></svg>