<svg xmlns="http://www.w3.org/2000/svg" width="64" height="64" viewBox="0 0 64 64"><path d="M56.266 28.06v-7.69H50.14v7.69h-7.733v6.127h7.733v7.69h6.126v-7.69H64V28.06M38.372 29.485H19.574v6.82H32.02c-1 6.574-6.837 8.924-11.64 8.924-7.32 0-13.057-5.792-13.057-13.184 0-7.443 5.743-13.273 13.075-13.273 5.478 0 8.847 3.505 8.88 3.54l.566.605 4.76-4.927-.493-.545c-.204-.225-5.107-5.507-13.9-5.507C9.257 11.938 0 21.103 0 31.95c0 9.673 7.833 20.112 20.49 20.112 10.99 0 18.665-7.53 18.665-18.312 0-1.09-.14-3.62-.552-4.036l-.23-.23z"/></svg>