<svg xmlns="http://www.w3.org/2000/svg" width="32" height="32" viewBox="0 0 32 32"><path d="M25.1 14.522v-2.883h-2.297v2.883h-2.901v2.298h2.901v2.884H25.1V16.82H28v-2.298zM18.389 15.057H11.34v2.558h4.667c-.375 2.466-2.563 3.346-4.365 3.346-2.746 0-4.896-2.171-4.896-4.942 0-2.792 2.153-4.978 4.903-4.978 2.054 0 3.318 1.313 3.33 1.328l.212.226 1.786-1.847-.185-.205c-.077-.084-1.916-2.065-5.213-2.065C7.471 8.477 4 11.913 4 15.981c0 3.627 2.937 7.542 7.684 7.542 4.121 0 6.999-2.824 6.999-6.867 0-.409-.052-1.357-.206-1.514l-.088-.085z"/></svg>