<svg xmlns="http://www.w3.org/2000/svg" width="64" height="64" viewBox="0 0 64 64"><path d="M38.353 30.033l-.088-.087H19.88v5.926h12.71c-.798 7.42-7.14 10.064-12.39 10.064-7.716 0-13.762-6.102-13.762-13.89 0-7.84 6.053-13.98 13.78-13.98 5.83 0 9.348 3.716 9.383 3.754l.217.23 4.146-4.29-.187-.207c-.05-.054-4.98-5.43-13.748-5.43C9.17 12.123 0 21.203 0 31.95c0 9.583 7.766 19.926 20.31 19.926 10.866 0 18.455-7.442 18.455-18.098 0-1.96-.268-3.6-.412-3.745zM64 28.498h-7.855v-7.81h-5.222v7.81H43.07v5.223h7.853v7.81h5.222v-7.81H64"/></svg>