<svg xmlns="http://www.w3.org/2000/svg" width="32" height="32" viewBox="0 0 32 32"><path d="M25.23 14.151h-2.09c.152.592.244 1.211.244 1.849a7.389 7.389 0 0 1-7.385 7.385A7.386 7.386 0 0 1 8.614 16c0-.637.088-1.257.245-1.849H6.768v10.157c0 .509.413.922.922.922h16.618a.922.922 0 0 0 .922-.921V14.151zm0-6.46a.924.924 0 0 0-.922-.923h-2.773a.923.923 0 0 0-.922.923v2.769c0 .51.413.925.923.925h2.771a.925.925 0 0 0 .922-.925l.001-2.769zM16 11.386a4.615 4.615 0 1 0 0 9.228 4.614 4.614 0 1 0 0-9.228M25.23 28H6.77A2.77 2.77 0 0 1 4 25.23V6.769A2.77 2.77 0 0 1 6.77 4h18.46C26.762 4 28 5.24 28 6.769V25.23A2.768 2.768 0 0 1 25.23 28"/></svg>