<svg xmlns="http://www.w3.org/2000/svg" width="32" height="32" viewBox="0 0 32 32"><path d="M20.85 4h-9.7A7.156 7.156 0 0 0 4 11.15v9.7A7.156 7.156 0 0 0 11.15 28h9.7a7.156 7.156 0 0 0 7.149-7.15v-9.7A7.155 7.155 0 0 0 20.85 4zm4.736 16.85a4.736 4.736 0 0 1-4.736 4.736h-9.7a4.736 4.736 0 0 1-4.736-4.736v-9.7a4.736 4.736 0 0 1 4.736-4.736h9.7a4.735 4.735 0 0 1 4.735 4.736l.001 9.7z"/><path d="M16 9.794c-3.423 0-6.206 2.783-6.206 6.206s2.783 6.206 6.206 6.206 6.206-2.783 6.206-6.206S19.423 9.794 16 9.794zm0 9.997a3.791 3.791 0 1 1-.001-7.583A3.791 3.791 0 0 1 16 19.791zM22.218 8.354a1.487 1.487 0 1 1-1.487 1.487c0-.821.556-1.487 1.487-1.487z"/></svg>