<svg xmlns="http://www.w3.org/2000/svg" width="64" height="64" viewBox="0 0 64 64"><path d="M56.614 27.071h-5.572c.406 1.578.652 3.229.652 4.929 0 10.873-8.828 19.691-19.695 19.691-10.874 0-19.695-8.818-19.695-19.691 0-1.699.235-3.35.652-4.929H7.382v27.086a2.458 2.458 0 0 0 2.458 2.457h44.315c1.355 0 2.457-1.1 2.457-2.456V27.072l.002-.001zm0-17.228a2.46 2.46 0 0 0-2.458-2.458h-7.394a2.46 2.46 0 0 0-2.459 2.458v7.385a2.464 2.464 0 0 0 2.46 2.463h7.391a2.465 2.465 0 0 0 2.458-2.463V9.843h.002zM32 19.694c-6.802 0-12.314 5.506-12.314 12.306 0 6.792 5.514 12.306 12.314 12.306S44.306 38.792 44.306 32c0-6.8-5.506-12.306-12.306-12.306M56.614 64H7.385A7.386 7.386 0 0 1 0 56.614V7.385A7.386 7.386 0 0 1 7.385 0h49.229A7.383 7.383 0 0 1 64 7.385v49.229A7.383 7.383 0 0 1 56.614 64"/></svg>