<svg xmlns="http://www.w3.org/2000/svg" width="64" height="64" viewBox="0 0 64 64"><path d="M0 8.198v47.604h64V8.197H0zm56.86 4.433L33.663 35.9c-.44.44-.855.72-1.66.72-.81 0-1.223-.28-1.66-.72C29.77 35.33 7.14 12.63 7.14 12.63h49.72zM4.33 16.004l16.165 16.13L4.332 48.335V16.002zM7.24 51.41L23.5 35.14c.596.594 2.75 2.72 3.584 3.547 1.338 1.337 2.957 2.227 4.917 2.227s3.58-.89 4.918-2.226c.83-.827 2.986-2.953 3.58-3.547L56.76 51.414H7.242v-.003zm52.43-3.078l-16.168-16.2 16.17-16.13v32.33h-.002z"/></svg>