<svg xmlns="http://www.w3.org/2000/svg" width="64" height="64" viewBox="0 0 64 64"><path fill="#010002" d="M19.63 2.25S18.67 0 17.212 0c-1.458 0-2.208.667-2.708 1.125-.5.46-8.874 7.333-8.874 7.333s-2.416 2.126-2.248 6.125c.167 4 .958 9.708 5 17.625 4.043 7.917 14.126 20 20.5 24.248 0 0 5.916 4.545 11.418 6.376 1.593.532 4.792 1.168 5.54 1.168.75 0 2.083 0 3.625-1.124 1.542-1.126 10.29-8.17 10.29-8.17s2.167-1.914-.332-4.162c-2.5-2.25-10.083-7.253-11.708-8.588-1.626-1.33-3.957-.75-4.957.168s-2.764 2.397-3 2.584c-.32.25-1.207 1.06-2.208.666-1.275-.5-6.5-3.333-11.334-9.958-4.833-6.624-5.354-8.79-6.083-11.124-.208-.668-.042-1.417.668-1.918.71-.5 3.375-2.71 3.375-2.71s1.71-1.707 1-3.707C24.463 13.96 19.63 2.25 19.63 2.25z"/></svg>