<svg xmlns="http://www.w3.org/2000/svg" width="64" height="64" viewBox="0 0 64 64"><path fill="#010002" d="M19.629 2.25S18.672 0 17.213 0c-1.458 0-2.208.667-2.708 1.125-.5.459-8.874 7.333-8.874 7.333s-2.417 2.126-2.249 6.125c.167 4 .958 9.708 5 17.625 4.043 7.917 14.126 20 20.5 24.248 0 0 5.916 4.545 11.418 6.376 1.593.532 4.792 1.168 5.54 1.168.751 0 2.083 0 3.625-1.124 1.542-1.126 10.291-8.169 10.291-8.169s2.166-1.915-.333-4.163c-2.501-2.251-10.083-7.253-11.708-8.588-1.626-1.33-3.957-.749-4.957.168s-2.764 2.397-3.001 2.584c-.318.25-1.206 1.059-2.207.666-1.275-.501-6.501-3.333-11.334-9.958-4.833-6.624-5.354-8.791-6.083-11.124-.208-.668-.042-1.417.668-1.918.708-.5 3.374-2.709 3.374-2.709s1.709-1.708 1-3.708C24.463 13.96 19.629 2.25 19.629 2.25z"/></svg>