<svg xmlns="http://www.w3.org/2000/svg" width="64" height="64" viewBox="0 0 64 64"><path d="M32.77 3C17.594 3 9.54 13.192 9.54 24.292c0 5.154 2.74 11.577 7.136 13.622.67.312 1.02.174 1.17-.473.124-.484.718-2.872.983-3.983.08-.357.046-.662-.25-1.016-1.45-1.755-2.607-5-2.607-8.02 0-7.757 5.873-15.257 15.876-15.257 8.645 0 14.692 5.88 14.692 14.307 0 9.517-4.804 16.104-11.058 16.104-3.448 0-6.035-2.85-5.21-6.36.997-4.18 2.917-8.696 2.917-11.704 0-2.706-1.454-4.96-4.443-4.96-3.535 0-6.366 3.65-6.366 8.544 0 3.115 1.054 5.215 1.054 5.215s-3.49 14.745-4.124 17.49c-1.087 4.653.136 12.193.25 12.856.056.352.452.472.666.175.34-.458 4.55-6.757 5.732-11.314l2.185-8.36c1.158 2.187 4.5 4.038 8.066 4.038 10.6 0 18.256-9.762 18.256-21.88C54.462 11.7 44.972 3 32.772 3z"/></svg>