<svg xmlns="http://www.w3.org/2000/svg" width="64" height="64" viewBox="0 0 64 64"><path d="M32.853 0C16.103 0 7.216 11.246 7.216 23.495c0 5.687 3.024 12.774 7.874 15.03.738.345 1.126.193 1.29-.52.137-.536.793-3.17 1.086-4.398.088-.395.05-.73-.275-1.12-1.6-1.937-2.878-5.518-2.878-8.85 0-8.56 6.48-16.836 17.518-16.836 9.538 0 16.212 6.487 16.212 15.787 0 10.5-5.3 17.77-12.2 17.77-3.806 0-6.66-3.145-5.75-7.02 1.1-4.612 3.22-9.594 3.22-12.913 0-2.986-1.605-5.475-4.905-5.475-3.9 0-7.024 4.028-7.024 9.43 0 3.437 1.162 5.755 1.162 5.755s-3.85 16.27-4.55 19.3c-1.2 5.136.15 13.456.275 14.187.062.388.5.52.736.193.375-.506 5.02-7.457 6.325-12.486l2.41-9.226c1.277 2.412 4.964 4.455 8.9 4.455 11.697 0 20.145-10.77 20.145-24.144C56.785 9.6 46.313 0 32.855 0h-.002z"/></svg>