<svg xmlns="http://www.w3.org/2000/svg" width="64" height="64" viewBox="0 0 64 64"><path d="M32.852 0C16.102 0 7.214 11.246 7.214 23.495c0 5.687 3.024 12.775 7.874 15.032.738.345 1.127.19 1.29-.52.138-.537.793-3.172 1.086-4.398.088-.395.05-.73-.275-1.122-1.6-1.938-2.88-5.52-2.88-8.85 0-8.56 6.48-16.836 17.52-16.836 9.54 0 16.212 6.487 16.212 15.787 0 10.5-5.3 17.77-12.2 17.77-3.806 0-6.66-3.145-5.75-7.02 1.1-4.613 3.22-9.595 3.22-12.915 0-2.985-1.606-5.474-4.904-5.474-3.9 0-7.025 4.03-7.025 9.43 0 3.438 1.163 5.755 1.163 5.755s-3.85 16.27-4.55 19.3c-1.2 5.135.15 13.455.274 14.187.062.388.5.52.736.193.375-.507 5.02-7.457 6.325-12.486l2.412-9.225c1.276 2.412 4.963 4.454 8.9 4.454 11.697 0 20.145-10.772 20.145-24.144C56.785 9.6 46.312 0 32.854 0h-.002z"/></svg>