<svg xmlns="http://www.w3.org/2000/svg" width="64" height="64" viewBox="0 0 64 64"><path d="M32.772 3C17.592 3 9.538 13.192 9.538 24.292c0 5.154 2.74 11.577 7.136 13.622.67.312 1.02.174 1.17-.472.124-.486.718-2.873.983-3.985.08-.358.046-.662-.25-1.016-1.45-1.755-2.607-5-2.607-8.02 0-7.757 5.873-15.257 15.876-15.257 8.645 0 14.692 5.88 14.692 14.307 0 9.516-4.803 16.104-11.057 16.104-3.448 0-6.034-2.85-5.21-6.36.997-4.18 2.918-8.696 2.918-11.704 0-2.706-1.454-4.96-4.444-4.96-3.535 0-6.366 3.65-6.366 8.544 0 3.115 1.054 5.215 1.054 5.215s-3.49 14.744-4.124 17.49c-1.087 4.653.136 12.193.25 12.856.056.352.452.472.666.175.34-.458 4.55-6.757 5.732-11.314l2.185-8.36c1.158 2.186 4.5 4.037 8.066 4.037 10.6 0 18.256-9.76 18.256-21.88C54.462 11.7 44.97 3 32.774 3h-.002z"/></svg>