<svg xmlns="http://www.w3.org/2000/svg" width="32" height="32" viewBox="0 0 32 32"><path d="M26.75 18.344c.166-.803.25-1.585.25-2.344 0-1.49-.289-2.915-.867-4.274s-1.359-2.531-2.344-3.516-2.156-1.764-3.516-2.344A10.822 10.822 0 0 0 16 5c-.76 0-1.542.083-2.344.251A5.84 5.84 0 0 0 10 4c-1.657 0-3.07.585-4.242 1.757S4 8.344 4 10c0 1.354.417 2.572 1.25 3.656A11.48 11.48 0 0 0 5 16c0 1.489.289 2.914.867 4.273.578 1.358 1.359 2.53 2.344 3.516.984.983 2.156 1.765 3.516 2.343s2.783.867 4.273.867c.761 0 1.542-.084 2.344-.25A5.847 5.847 0 0 0 22 28c1.656 0 3.07-.586 4.242-1.758C27.413 25.069 28 23.655 28 22a5.854 5.854 0 0 0-1.25-3.656zm-4.938 2.32c-.344.609-.805 1.097-1.383 1.461s-1.216.643-1.914.836a8.211 8.211 0 0 1-2.188.289c-1.76 0-3.275-.342-4.546-1.024s-1.906-1.502-1.906-2.461c0-.469.132-.858.398-1.172.266-.312.659-.469 1.18-.469.303 0 .583.084.844.251.26.165.5.366.719.602.219.234.455.468.711.703.255.234.594.435 1.015.601a3.84 3.84 0 0 0 1.43.252c.677 0 1.224-.134 1.641-.398.416-.267.624-.603.624-1.008 0-.417-.165-.73-.499-.938-.229-.146-.812-.335-1.75-.563l-2.281-.563a9.567 9.567 0 0 1-1.61-.508 5.287 5.287 0 0 1-1.25-.757 2.94 2.94 0 0 1-.875-1.181c-.198-.474-.296-1.027-.296-1.664 0-.761.174-1.429.523-2.007a3.768 3.768 0 0 1 1.391-1.359 7.223 7.223 0 0 1 1.867-.735 8.755 8.755 0 0 1 2.062-.242c1 0 1.948.12 2.844.359.896.239 1.635.591 2.218 1.055s.875.982.875 1.555c0 .469-.148.869-.445 1.203-.296.334-.688.501-1.179.501-.271 0-.521-.062-.75-.188s-.438-.275-.625-.453a10.517 10.517 0 0 0-.595-.522c-.208-.172-.489-.321-.843-.445a3.578 3.578 0 0 0-1.203-.188c-1.5 0-2.25.399-2.25 1.202 0 .178.039.333.117.469.078.135.165.245.258.328.094.084.249.167.469.251.218.082.401.143.547.179.146.037.375.091.687.164l1.625.375c.51.114.966.234 1.367.36.4.124.83.302 1.289.531s.839.483 1.141.765c.303.282.555.639.758 1.071s.305.908.305 1.43c-.001.758-.173 1.443-.517 2.052z"/></svg>