<svg xmlns="http://www.w3.org/2000/svg" width="64" height="64" viewBox="0 0 64 64"><path d="M60.667 38.25c.443-2.14.667-4.224.667-6.25 0-3.972-.77-7.77-2.313-11.396-1.54-3.625-3.623-6.75-6.248-9.375-2.624-2.626-5.75-4.71-9.375-6.25C39.77 3.437 35.975 2.666 32 2.666c-2.027 0-4.11.222-6.25.667C22.86 1.11 19.61 0 16 0 11.583 0 7.813 1.56 4.688 4.686 1.562 7.81 0 11.583 0 16c0 3.61 1.11 6.86 3.333 9.75-.444 2.138-.666 4.22-.666 6.25 0 3.97.77 7.77 2.312 11.395 1.54 3.623 3.624 6.748 6.25 9.375 2.624 2.623 5.75 4.707 9.374 6.248C24.23 60.56 28.027 61.33 32 61.33c2.03 0 4.11-.223 6.25-.665C41.14 62.887 44.39 64 48 64c4.416 0 8.188-1.562 11.312-4.688S64 52.416 64 48c-.003-3.612-1.112-6.86-3.333-9.75zM47.5 44.437c-.916 1.626-2.147 2.925-3.688 3.896-1.54.97-3.242 1.714-5.104 2.23-1.86.512-3.805.77-5.834.77-4.694 0-8.735-.912-12.124-2.73-3.39-1.82-5.083-4.007-5.083-6.562 0-1.25.354-2.29 1.062-3.124.707-.833 1.756-1.25 3.145-1.25.807 0 1.555.223 2.25.666.693.444 1.333.98 1.916 1.606.585.625 1.216 1.247 1.897 1.875.68.625 1.584 1.157 2.708 1.602 1.125.446 2.396.67 3.813.67 1.805 0 3.262-.355 4.375-1.063 1.11-.71 1.665-1.605 1.665-2.688 0-1.11-.44-1.946-1.33-2.5-.61-.39-2.168-.892-4.668-1.502l-6.083-1.5c-1.667-.39-3.098-.84-4.293-1.354-1.195-.513-2.307-1.187-3.333-2.02-1.027-.834-1.805-1.882-2.333-3.147-.527-1.263-.79-2.742-.79-4.437 0-2.03.464-3.81 1.394-5.354.93-1.542 2.168-2.75 3.71-3.626 1.54-.875 3.202-1.528 4.98-1.958 1.776-.43 3.61-.646 5.5-.646 2.666 0 5.194.32 7.582.958 2.388.64 4.36 1.576 5.915 2.812 1.555 1.237 2.334 2.62 2.334 4.145 0 1.25-.394 2.32-1.188 3.208-.788.89-1.836 1.337-3.142 1.337-.723 0-1.39-.167-2-.5-.61-.332-1.167-.735-1.667-1.208-.5-.47-1.028-.938-1.585-1.395-.554-.458-1.306-.854-2.248-1.188-.946-.335-2.015-.5-3.208-.5-4 0-6 1.068-6 3.207 0 .473.105.89.312 1.25.21.36.44.653.688.875.25.223.666.444 1.25.667.583.222 1.07.38 1.46.478.388.098 1 .244 1.832.438l4.332 1c1.362.306 2.576.625 3.646.958 1.07.334 2.216.806 3.438 1.418 1.222.61 2.236 1.29 3.04 2.04.81.752 1.48 1.704 2.022 2.856.544 1.154.812 2.423.812 3.813 0 2.027-.458 3.853-1.373 5.477z"/></svg>