<svg xmlns="http://www.w3.org/2000/svg" width="64" height="64" viewBox="0 0 64 64"><path d="M46.074 25.61l10.312-7.986L48.77 8.11C45.202 3.62 40.092.79 34.383.14c-5.705-.652-11.324.962-15.81 4.534-4.497 3.58-7.327 8.69-7.968 14.388-.648 5.707.963 11.322 4.537 15.815l2.797 3.51L7.61 46.36l7.635 9.533c3.576 4.488 8.686 7.316 14.38 7.96.823.097 1.66.144 2.483.144 4.874 0 9.48-1.615 13.33-4.672 4.49-3.58 7.323-8.69 7.972-14.395.65-5.695-.96-11.31-4.54-15.807l-2.798-3.515zM14.58 19.514c.52-4.637 2.824-8.795 6.484-11.707 3.652-2.91 8.182-4.23 12.865-3.69 4.646.527 8.803 2.83 11.71 6.487l5.01 6.257-.25.195-6.817 5.427-3.695-4.643-1.216-1.528c-.225-.282-.488-.52-.742-.767-.945-.926-2.06-1.64-3.312-2.038-.53-.17-1.082-.287-1.648-.352-.242-.027-.482-.003-.723-.01-1.497-.044-2.946.27-4.243.965-.455.24-.895.516-1.303.84-1.72 1.368-2.806 3.314-3.106 5.482-.01.075-.04.144-.047.22-.264 2.26.373 4.485 1.793 6.27l2.61 3.277 7.59 9.533c.08.1.134.21.202.313.584.88.857 1.912.736 2.97-.13 1.18-.716 2.237-1.645 2.978-.07.058-.148.095-.22.146-.767.54-1.644.814-2.58.807-.16-.004-.317.008-.483-.012-1.182-.132-2.238-.716-2.975-1.645l-.44-.557-.157-.197h-.01c-.28-.353-.646-.808-1.053-1.315-1.852-2.31-4.604-5.753-4.604-5.753l-.417-.522-3.623-4.55c-2.91-3.656-4.22-8.228-3.692-12.875zM49.44 44.48c-.53 4.643-2.835 8.805-6.49 11.717-3.663 2.912-8.18 4.215-12.87 3.688-4.635-.527-8.793-2.828-11.707-6.484l-5.012-6.26c.088-.064.17-.13.244-.19l6.83-5.43 5.01 6.255c.268.336.576.627.885.914 1.31 1.222 2.95 2.013 4.77 2.22.327.04 1.776 0 1.976-.027.324-.037 1.326-.258 1.508-.314.342-.108.674-.25 1.002-.4.14-.065 1.326-.712 1.744-1.044 1.77-1.41 2.882-3.42 3.13-5.656.227-1.98-.28-3.92-1.365-5.573-.143-.217-.258-.447-.42-.652l-5.07-6.368-5.13-6.44c-.75-.946-1.09-2.127-.95-3.33.018-.162.064-.314.1-.472.223-1.015.748-1.896 1.574-2.552.945-.75 2.09-1.088 3.322-.95.3.034.592.097.873.186.844.27 1.588.777 2.148 1.482l7.398 9.305.005-.004 2.8 3.516c2.908 3.656 4.22 8.225 3.693 12.86z"/></svg>