<svg xmlns="http://www.w3.org/2000/svg" width="64" height="64" viewBox="0 0 64 64"><path d="M20.127 58.007A37.152 37.152 0 0 1 0 52.102a26.348 26.348 0 0 0 19.434-5.43c-5.745-.109-10.598-3.91-12.26-9.124.798.147 1.623.236 2.46.236 1.203 0 2.365-.162 3.473-.46C7.093 36.114 2.57 30.81 2.57 24.452v-.168c1.77.98 3.796 1.573 5.945 1.642a13.118 13.118 0 0 1-5.84-10.933c0-2.404.65-4.662 1.778-6.6 6.48 7.95 16.155 13.173 27.06 13.72a13.612 13.612 0 0 1-.337-2.99c0-7.25 5.881-13.13 13.137-13.13a13.12 13.12 0 0 1 9.58 4.143 26.329 26.329 0 0 0 8.338-3.183 13.199 13.199 0 0 1-5.771 7.264A26.224 26.224 0 0 0 64 12.151a26.835 26.835 0 0 1-6.555 6.798c.027.562.043 1.13.043 1.695 0 17.35-13.213 37.364-37.361 37.363"/></svg>