<svg xmlns="http://www.w3.org/2000/svg" style="display: none;"> <symbol id="fi-arrow-bottom" viewBox="0 0 64 64"><g> <path d="M48.27 16.853L32 33.12 15.732 16.853l-7.014 7.014L32 47.148l23.28-23.282"/> </g></symbol> <symbol id="fi-arrow-left" viewBox="0 0 64 64"><g> <path d="M47.15 15.73l-7.015-7.01L16.85 32l23.285 23.28 7.015-7.01L30.88 32"/> </g></symbol> <symbol id="fi-arrow-right" viewBox="0 0 64 64"><g> <path d="M23.866 8.72l-7.017 7.01L33.12 32 16.85 48.27l7.017 7.01L47.147 32"/> </g></symbol> <symbol id="fi-arrow-top" viewBox="0 0 64 64"><g> <path d="M32 16.852L8.717 40.135l7.014 7.013L32 30.88l16.27 16.268 7.01-7.013"/> </g></symbol> <symbol id="fi-baby" viewBox="0 0 64 64"><g> <path d="M31.996 17.856c4.933 0 8.93-4 8.93-8.93s-4-8.928-8.93-8.928-8.93 3.997-8.93 8.928c0 4.928 4 8.93 8.928 8.93m9.677 19.166v-6.85l7.69 7.686c1.204 1.197 3.147 1.197 4.347 0 1.2-1.2 1.2-3.147 0-4.348-.982-1.242-11.92-12.066-12.44-12.587-.78-.78-2.06-1.207-3.32-1.207H26.06c-1.266 0-2.545.425-3.326 1.206-.52.52-11.457 11.346-12.44 12.587-1.196 1.2-1.196 3.143 0 4.344 1.2 1.2 3.147 1.197 4.345 0l7.685-7.688v6.85H41.67M27.928 49.452L20.572 42.1s-3.354 3.355-4.21 4.205c-.85.855-1.78 2.824-1.78 3.715 0 .967.336 2.563 1.266 3.49 1.04 1.038 8.54 8.543 9.573 9.58 1.22 1.213 3.19 1.213 4.41 0 1.215-1.22 1.215-3.19 0-4.41-.924-.92-5.564-5.56-5.564-5.56m15.36 0l-5.564 5.56c-1.214 1.218-1.214 3.19 0 4.41 1.218 1.21 3.19 1.21 4.407 0 1.03-1.04 8.53-8.544 9.57-9.58.93-.928 1.266-2.524 1.266-3.49 0-.89-.932-2.858-1.78-3.714-.855-.85-4.212-4.205-4.212-4.205l-7.354 7.356"/> </g></symbol> <symbol id="fi-blivesta" viewBox="0 0 64 64"><g> <path d="M35.094 0l-15.97 15.965 15.97 15.963-16.037 16.037L35.094 64H64V0H35.094zm14.5 54.812l-8.07-8.062 8.07-8.066 8.062 8.066-8.062 8.062zm0-29.777l-8.07-8.062 8.07-8.064 8.062 8.06-8.062 8.06z"/> </g></symbol> <symbol id="fi-bus" viewBox="0 0 64 64"><g> <path d="M58.58 30.9s-1.296-12.8-1.83-17.887c-.6-5.664-1.905-7.316-5.885-9.195C45.145 1.12 38.742 0 32 0S18.853 1.12 13.133 3.82c-3.98 1.878-5.287 3.53-5.884 9.194C6.713 18.102 5.42 30.9 5.42 30.9v25.27h4.713s-.056 3.174-.056 4.262c0 1.97 1.597 3.568 3.564 3.568 1.975 0 3.57-1.602 3.57-3.568V56.17h29.583v4.262c0 1.97 1.597 3.566 3.565 3.566 1.97 0 3.564-1.6 3.564-3.568 0-1.09-.055-4.262-.055-4.262h4.713v-25.27zM21.036 4.8H43.11c.897 0 1.62.726 1.62 1.62 0 .893-.724 1.618-1.62 1.618H21.037c-.896 0-1.618-.726-1.618-1.618 0-.896.72-1.62 1.616-1.62zm-7.384 43.012c-1.96 0-3.555-1.592-3.555-3.553 0-1.965 1.594-3.555 3.553-3.555 1.965 0 3.556 1.59 3.556 3.553 0 1.96-1.59 3.552-3.555 3.552h.004zm36.705 0c-1.96 0-3.55-1.592-3.55-3.553 0-1.965 1.59-3.555 3.55-3.555 1.965 0 3.555 1.59 3.555 3.553 0 1.96-1.59 3.552-3.555 3.552zm1.29-16.717H12.572c-1.458 0-2.522-1.173-2.422-2.6.417-5.687.75-8.894 1.444-14.6.147-1.216 1.2-2.09 2.775-2.09h35.32c1.572 0 2.617.972 2.773 2.187.762 6.007 1.028 8.65 1.456 14.467.122 1.644-1.003 2.633-2.277 2.633h.003z"/> </g></symbol> <symbol id="fi-camera" viewBox="0 0 64 64"><g> <path d="M32 23c-7.18 0-13 5.82-13 13s5.82 13 13 13 13-5.82 13-13-5.82-13-13-13zm0 20.55c-4.142 0-7.5-3.357-7.5-7.5s3.357-7.5 7.5-7.5 7.5 3.357 7.5 7.5c0 4.14-3.357 7.5-7.5 7.5z"/> <path d="M60 14H46l-6-8H24l-6 8H4c-2.2 0-4 1.8-4 4v36c0 2.2 1.8 4 4 4h56c2.2 0 4-1.8 4-4V18c0-2.2-1.8-4-4-4zM32 53.75c-9.803 0-17.75-7.947-17.75-17.75S22.197 18.25 32 18.25 49.75 26.197 49.75 36 41.803 53.75 32 53.75zM60 23.5h-8v-4h8v4z"/> </g></symbol> <symbol id="fi-car" viewBox="0 0 64 64"><g> <path d="M15.2 47.73v5.082c0 2.79-2.253 5.047-5.03 5.047-2.773 0-5.04-2.26-5.04-5.05l.01-5.083H0v-16.51c0-3.592 2.44-6.627 5.754-7.525L11.66 9.67c.838-2.08 2.86-3.53 5.25-3.53h30.195c2.385 0 4.396 1.45 5.26 3.53l5.895 14.023c3.3.9 5.74 3.936 5.74 7.527v16.51h-5.126v5.082c0 2.79-2.255 5.047-5.03 5.047-2.79 0-5.044-2.258-5.044-5.05l.013-5.08H15.2M53.21 23.4l-5.063-12.116c-.22-.603-.8-1.056-1.502-1.056H17.368c-.683 0-1.29.453-1.515 1.056L10.807 23.4H53.21m4.96 9.72c0-2.32-1.883-4.22-4.197-4.22-2.326 0-4.22 1.9-4.22 4.22 0 2.34 1.894 4.224 4.22 4.224 2.314 0 4.197-1.883 4.196-4.224m-48.13 4.225c2.32 0 4.22-1.883 4.22-4.223 0-2.32-1.9-4.22-4.22-4.22-2.318 0-4.21 1.9-4.21 4.22 0 2.34 1.892 4.224 4.21 4.223"/> </g></symbol> <symbol id="fi-cross" viewBox="0 0 64 64"><g> <path d="M55.28 15.725L48.27 8.71 32 24.98 15.73 8.71l-7.013 7.015L24.993 32 8.718 48.275l7.01 7.014L32 39.02l16.268 16.27 7.013-7.015L39.007 32"/> </g></symbol> <symbol id="fi-dog" viewBox="0 0 64 64"><g> <path d="M62.464 13.482L40.896 3.208c-1.332-.635-2.42.052-2.42 1.526V22.09l-30.87.01-3.81-2.164c-1.223-.69-2.77-.265-3.466.955-.69 1.225-.265 2.773.957 3.467l6.01 3.45v28.83c0 2.425 1.964 4.394 4.392 4.394 2.42 0 4.387-1.97 4.387-4.392l-.004-14.83h26.14v14.83c0 2.424 1.968 4.393 4.386 4.393 2.425 0 4.394-1.97 4.394-4.392V22.68l7.473-.006c1.477-.004 3.188-1.098 3.81-2.436l1.475-3.17c.62-1.34.04-2.95-1.29-3.586z"/> </g></symbol> <symbol id="fi-dribbble" viewBox="0 0 64 64"><g> <path d="M32 64C14.355 64 0 49.645 0 32S14.355 0 32 0s32 14.355 32 32-14.355 32-32 32zm4.13-28.027c-8.454 2.544-15.33 8.076-21.016 16.91l-.25.39.365.286c4.852 3.777 10.652 5.775 16.774 5.775 3.32 0 6.618-.618 9.806-1.836l.39-.15-.07-.41c-1.298-7.55-3.056-14.306-5.374-20.656l-.165-.45-.46.138zm12.982-1.738c-2.694 0-5.27.187-7.65.557l-.603.093.2.576c2.08 5.96 3.824 12.37 5.18 19.06l.15.74.63-.417C53.7 50.42 58.112 43.36 59.12 35.475l.062-.502-.502-.067c-3.394-.445-6.615-.67-9.568-.67zm-17-7.723c-7.12 2.15-15.673 3.394-26.918 3.91l-.468.02-.016.47c-.005.143-.015.283-.024.424-.015.22-.03.44-.03.664 0 6.467 2.324 12.757 6.542 17.71l.432.507.375-.55c6.22-9.115 13.604-14.806 22.573-17.394l.55-.16-.224-.527c-.79-1.858-1.484-3.387-2.188-4.812l-.19-.386-.413.124zM52.418 14.66c-4.304 4.36-9.263 7.646-15.156 10.05l-.492.202.225.483c.742 1.6 1.496 3.365 2.304 5.4l.15.377.4-.062c2.697-.42 5.546-.623 8.707-.623 3.013 0 6.336.19 10.16.58l.59.06-.032-.59c-.312-5.856-2.42-11.334-6.1-15.84l-.36-.44-.396.403zm-32.73-7.05c-7.42 3.754-12.674 10.548-14.41 18.64l-.14.643.658-.03c9.947-.445 17.7-1.596 24.396-3.622l.606-.18-.31-.55c-2.793-4.99-6.12-9.82-10.178-14.77l-.258-.315-.364.183zM32 4.665c-2.296 0-4.626.31-6.924.918l-.808.214.562.618c3.667 4.036 7.046 8.986 10.043 14.713l.215.41.43-.175c5.59-2.305 10.288-5.342 14.36-9.285l.398-.387-.42-.36C44.873 7.03 38.532 4.666 32 4.665z"/> </g></symbol> <symbol id="fi-facebook" viewBox="0 0 64 64"><g> <path d="M47.2 1.613L39.313 1.6c-8.858 0-14.583 5.873-14.583 14.963v6.9h-7.927c-.685 0-1.24.554-1.24 1.24v9.994c0 .686.555 1.24 1.24 1.24h7.928V61.16c0 .686.556 1.24 1.24 1.24h10.344c.684 0 1.24-.557 1.24-1.24V35.938h9.27c.685 0 1.24-.556 1.24-1.24l.002-9.996c0-.45-.242-1.24-1.24-1.24h-9.272v-5.85c0-2.81.67-4.236 4.33-4.236l5.313-.002c.685 0 1.238-.556 1.238-1.24v-9.28c0-.685-.553-1.24-1.236-1.24z"/> </g></symbol> <symbol id="fi-github" viewBox="0 0 64 64"><g> <path d="M56.956 20.895c0-4.618-1.76-8.333-4.61-11.143.5-1.592 1.157-5.128-.67-9.66 0 0-3.24-1.014-10.555 3.822-2.862-.72-5.92-1.064-8.965-1.064-3.353 0-6.753.42-9.918 1.282C14.684-.953 11.357.086 11.357.086c-2.174 5.37-.834 9.35-.42 10.338-2.57 2.72-4.114 6.206-4.114 10.456 0 3.23.37 6.106 1.28 8.623l.943 2.13c2.558 4.692 7.582 7.728 16.515 8.68-1.262.842-2.575 2.265-3.086 4.687-1.73.816-7.2 2.812-10.48-2.75 0 0-1.843-3.337-5.36-3.588 0 0-3.416-.047-.232 2.095 0 0 2.275 1.07 3.86 5.056 0 0 2.05 6.817 11.968 4.635v7.035s-.22 2.49-2.524 3.322c0 0-1.364.913.1 1.448 0 0 6.414.508 6.414-4.664V49.9s-.26-3.045 1.248-4.088v12.604s-.095 3-1.676 4.13c0 0-1.053 1.88 1.26 1.363 0 0 4.41-.618 4.604-5.723l.103-12.752h1.06l.1 12.752c.215 5.088 4.622 5.72 4.622 5.72 2.306.518 1.246-1.36 1.246-1.36-1.575-1.13-1.68-4.132-1.68-4.132V45.913c1.508 1.172 1.262 3.985 1.262 3.985v7.688c0 5.172 6.4 4.664 6.4 4.664 1.468-.54.108-1.45.108-1.45-2.312-.83-2.523-3.32-2.523-3.32V47.413c0-3.918-1.674-5.985-3.307-7.087 9.533-.924 14.094-3.98 16.21-8.698-.042.082.755-2.11.755-2.11.726-2.503.946-5.4.946-8.623z"/> </g></symbol> <symbol id="fi-googlePlus" viewBox="0 0 64 64"><g> <path d="M38.353 30.033l-.088-.087H19.88v5.926h12.71c-.798 7.42-7.14 10.064-12.39 10.064-7.716 0-13.762-6.102-13.762-13.89 0-7.84 6.053-13.98 13.78-13.98 5.83 0 9.348 3.716 9.383 3.754l.217.23 4.146-4.29-.187-.207c-.05-.054-4.98-5.43-13.748-5.43C9.17 12.123 0 21.203 0 31.95c0 9.583 7.766 19.926 20.31 19.926 10.866 0 18.455-7.442 18.455-18.098 0-1.96-.268-3.6-.412-3.745zM64 28.498h-7.855v-7.81h-5.222v7.81H43.07v5.223h7.853v7.81h5.222v-7.81H64"/> </g></symbol> <symbol id="fi-handicappe" viewBox="0 0 64 64"><g> <path d="M57.29 50.35v-.002c-.007-.006-.012-.008-.016-.016l-9.984-16.51c-.583-.988-1.645-1.64-2.873-1.637l-14.74-.09V28.78l10.107.032c1.432.004 2.592-1.154 2.598-2.588.002-1.43-1.158-2.593-2.59-2.597l-10.114-.032V18.54c0-3.27-2.68-5.924-5.953-5.924-3.25 0-5.89 2.62-5.922 5.862l-.008.004L17.73 32.6c.032 4.98 3.352 7.918 9.143 7.725h16.685l7.97 13.38.006-.003c.01.016.02.037.026.055.943 1.582 2.988 2.104 4.566 1.16 1.58-.94 2.105-2.985 1.163-4.567zM23.72 11.494h.003c3.172 0 5.744-2.573 5.744-5.747C29.467 2.575 26.893 0 23.72 0c-3.177 0-5.75 2.575-5.75 5.747 0 3.173 2.572 5.747 5.75 5.747z"/> <path d="M27.076 59.625c-9.09 0-16.46-7.367-16.46-16.457 0-4.758 2.023-9.053 5.254-12.057l.025-5.52c-5.806 3.694-9.652 10.19-9.652 17.58C6.243 54.674 15.57 64 27.076 64c9.02 0 16.708-5.736 19.6-13.762l-3.23-5.34c-.87 8.276-7.868 14.727-16.37 14.727z"/> </g></symbol> <symbol id="fi-heart" viewBox="0 0 64 64"><g> <path d="M32 60.334c-62.43-34.054-17.28-76.393 0-47.88 17.277-28.512 62.434 13.826 0 47.88z"/> </g></symbol> <symbol id="fi-home" viewBox="0 0 64 64"><g> <path d="M60.8 37.34L32 14.984 3.2 37.34v-9.11L32 5.87l28.8 22.356v9.114zm-7.2-.812V58.13H39.2v-14.4H24.8v14.4H10.4v-21.6L32 20.33l21.6 16.2v-.002z"/> </g></symbol> <symbol id="fi-instagram" viewBox="0 0 64 64"><g> <path d="M54.307 27.533h-5.05c.368 1.43.59 2.926.59 4.467 0 9.854-8 17.846-17.848 17.846-9.855 0-17.85-7.992-17.85-17.846 0-1.54.214-3.036.59-4.467H9.69V52.08c0 1.23.997 2.227 2.228 2.227h40.16c1.228 0 2.227-.996 2.227-2.226V27.535zm0-15.613c0-1.23-.998-2.227-2.228-2.227h-6.7c-1.23 0-2.23.998-2.23 2.227v6.693c0 1.23 1 2.232 2.23 2.232h6.698c1.228 0 2.227-1.004 2.227-2.232V11.92zM32 20.848c-6.164 0-11.16 4.99-11.16 11.152 0 6.155 4.997 11.152 11.16 11.152 6.162 0 11.152-4.997 11.152-11.152 0-6.162-4.99-11.152-11.153-11.152M54.305 61H9.693C5.997 61 3 58.003 3 54.307V9.693C3 5.998 5.997 3 9.693 3h44.613C58.008 3 61 5.998 61 9.693v44.613C61 58.003 58.008 61 54.307 61"/> </g></symbol> <symbol id="fi-mail" viewBox="0 0 64 64"><g> <path d="M0 8.198v47.604h64V8.197H0zm56.86 4.433L33.663 35.9c-.44.44-.855.72-1.66.72-.81 0-1.223-.28-1.66-.72C29.77 35.33 7.14 12.63 7.14 12.63h49.72zM4.33 16.004l16.165 16.13L4.332 48.335V16.002zM7.24 51.41L23.5 35.14c.596.594 2.75 2.72 3.584 3.547 1.338 1.337 2.957 2.227 4.917 2.227s3.58-.89 4.918-2.226c.83-.827 2.986-2.953 3.58-3.547L56.76 51.414H7.242v-.003zm52.43-3.078l-16.168-16.2 16.17-16.13v32.33h-.002z"/> </g></symbol> <symbol id="fi-pinterest" viewBox="0 0 64 64"><g> <path d="M32.772 3C17.592 3 9.538 13.192 9.538 24.292c0 5.154 2.74 11.577 7.136 13.622.67.312 1.02.174 1.17-.472.124-.486.718-2.873.983-3.985.08-.358.046-.662-.25-1.016-1.45-1.755-2.607-5-2.607-8.02 0-7.757 5.873-15.257 15.876-15.257 8.645 0 14.692 5.88 14.692 14.307 0 9.516-4.803 16.104-11.057 16.104-3.448 0-6.034-2.85-5.21-6.36.997-4.18 2.918-8.696 2.918-11.704 0-2.706-1.454-4.96-4.444-4.96-3.535 0-6.366 3.65-6.366 8.544 0 3.115 1.054 5.215 1.054 5.215s-3.49 14.744-4.124 17.49c-1.087 4.653.136 12.193.25 12.856.056.352.452.472.666.175.34-.458 4.55-6.757 5.732-11.314l2.185-8.36c1.158 2.186 4.5 4.037 8.066 4.037 10.6 0 18.256-9.76 18.256-21.88C54.462 11.7 44.97 3 32.774 3h-.002z"/> </g></symbol> <symbol id="fi-star" viewBox="0 0 64 64"><g> <path d="M32 1.134l7.555 23.25H64L44.225 38.75 51.777 62 32 47.63 12.223 62l7.554-23.25L0 24.384h24.447"/> </g></symbol> <symbol id="fi-sumally" viewBox="0 0 64 64"><g> <path d="M46.074 25.61l10.312-7.986L48.77 8.11C45.202 3.62 40.092.79 34.383.14c-5.705-.652-11.324.962-15.81 4.534-4.497 3.58-7.327 8.69-7.968 14.388-.648 5.707.963 11.322 4.537 15.815l2.797 3.51L7.61 46.36l7.635 9.533c3.576 4.488 8.686 7.316 14.38 7.96.823.097 1.66.144 2.483.144 4.874 0 9.48-1.615 13.33-4.672 4.49-3.58 7.323-8.69 7.972-14.395.65-5.695-.96-11.31-4.54-15.807l-2.798-3.515zM14.58 19.514c.52-4.637 2.824-8.795 6.484-11.707 3.652-2.91 8.182-4.23 12.865-3.69 4.646.527 8.803 2.83 11.71 6.487l5.01 6.257-.25.195-6.817 5.427-3.695-4.643-1.216-1.528c-.225-.282-.488-.52-.742-.767-.945-.926-2.06-1.64-3.312-2.038-.53-.17-1.082-.287-1.648-.352-.242-.027-.482-.003-.723-.01-1.497-.044-2.946.27-4.243.965-.455.24-.895.516-1.303.84-1.72 1.368-2.806 3.314-3.106 5.482-.01.075-.04.144-.047.22-.264 2.26.373 4.485 1.793 6.27l2.61 3.277 7.59 9.533c.08.1.134.21.202.313.584.88.857 1.912.736 2.97-.13 1.18-.716 2.237-1.645 2.978-.07.058-.148.095-.22.146-.767.54-1.644.814-2.58.807-.16-.004-.317.008-.483-.012-1.182-.132-2.238-.716-2.975-1.645l-.44-.557-.157-.197h-.01c-.28-.353-.646-.808-1.053-1.315-1.852-2.31-4.604-5.753-4.604-5.753l-.417-.522-3.623-4.55c-2.91-3.656-4.22-8.228-3.692-12.875zM49.44 44.48c-.53 4.643-2.835 8.805-6.49 11.717-3.663 2.912-8.18 4.215-12.87 3.688-4.635-.527-8.793-2.828-11.707-6.484l-5.012-6.26c.088-.064.17-.13.244-.19l6.83-5.43 5.01 6.255c.268.336.576.627.885.914 1.31 1.222 2.95 2.013 4.77 2.22.327.04 1.776 0 1.976-.027.324-.037 1.326-.258 1.508-.314.342-.108.674-.25 1.002-.4.14-.065 1.326-.712 1.744-1.044 1.77-1.41 2.882-3.42 3.13-5.656.227-1.98-.28-3.92-1.365-5.573-.143-.217-.258-.447-.42-.652l-5.07-6.368-5.13-6.44c-.75-.946-1.09-2.127-.95-3.33.018-.162.064-.314.1-.472.223-1.015.748-1.896 1.574-2.552.945-.75 2.09-1.088 3.322-.95.3.034.592.097.873.186.844.27 1.588.777 2.148 1.482l7.398 9.305.005-.004 2.8 3.516c2.908 3.656 4.22 8.225 3.693 12.86z"/> </g></symbol> <symbol id="fi-train" viewBox="0 0 64 64"><g> <path d="M19.95 49.555c-3.593-.503-6.49-3.86-6.49-7.647V13.44c0-4.25 3.438-7.725 7.726-7.725h21.63c4.247 0 7.725 3.478 7.725 7.726v28.467c0 3.863-2.817 7.068-6.487 7.61L53.823 64H48.26l-6.682-9.85H22.382L15.702 64h-5.524l9.77-14.445m8.885-44.998c1.235 0 2.278-1.004 2.278-2.28C31.11 1.005 30.07 0 28.835 0c-1.274 0-2.278 1.004-2.278 2.277 0 1.24 1.004 2.28 2.278 2.28m8.612-2.28C37.446 1.004 36.44 0 35.166 0S32.89 1.004 32.89 2.277c0 1.236 1.003 2.28 2.277 2.28s2.278-1.04 2.278-2.28M21.533 45.77c1.97 0 3.592-1.584 3.592-3.554s-1.583-3.592-3.592-3.592c-1.97 0-3.592 1.583-3.592 3.592 0 1.97 1.623 3.554 3.594 3.554m24.528-3.554c0-1.97-1.622-3.592-3.593-3.592-1.97 0-3.554 1.583-3.554 3.592 0 1.97 1.583 3.554 3.553 3.554s3.593-1.584 3.593-3.554m-3.787-15.373c2.01 0 3.63-1.622 3.63-3.63v-5.947c0-2.01-1.62-3.632-3.63-3.632h-20.51c-2.01 0-3.632 1.623-3.632 3.632v5.986c0 2.008 1.622 3.63 3.632 3.63h20.508m-5.754-14.91c.502 0 .928-.385.928-.926v-3.09c0-.502-.426-.89-.928-.89h-9.04c-.502 0-.926.387-.926.89v3.09c0 .502.424.927.926.927h9.04"/> </g></symbol> <symbol id="fi-twitter" viewBox="0 0 64 64"><g> <path d="M20.127 58.007C12.715 58.007 5.81 55.83 0 52.102c1.026.12 2.067.19 3.134.19 6.15 0 11.81-2.103 16.3-5.62-5.745-.11-10.598-3.91-12.26-9.124.798.147 1.623.236 2.46.236 1.203 0 2.365-.162 3.473-.46C7.093 36.114 2.57 30.81 2.57 24.452v-.168c1.77.98 3.796 1.573 5.945 1.642-3.527-2.352-5.84-6.378-5.84-10.933 0-2.404.65-4.662 1.778-6.6 6.48 7.95 16.155 13.173 27.06 13.72-.216-.958-.337-1.963-.337-2.99 0-7.25 5.88-13.13 13.136-13.13 3.77 0 7.19 1.595 9.58 4.143 2.986-.588 5.812-1.683 8.338-3.183-.98 3.06-3.06 5.636-5.77 7.264 2.648-.316 5.184-1.02 7.54-2.066-1.77 2.637-3.99 4.947-6.554 6.8.027.56.043 1.13.043 1.694 0 17.35-13.214 37.364-37.364 37.364"/> </g></symbol></svg>