<svg xmlns="http://www.w3.org/2000/svg" style="display: none;"> <symbol id="fi-arrow-bottom" viewBox="0 0 64 64"><g> <path d="M32 51.447l32-32-6.893-6.895L32 37.656 6.895 12.552 0 19.447"/> </g></symbol> <symbol id="fi-arrow-left" viewBox="0 0 64 64"><g> <path d="M12.55 32l32.004 32 6.896-6.894L26.343 32 51.45 6.894 44.554 0"/> </g></symbol> <symbol id="fi-arrow-right" viewBox="0 0 64 64"><g> <path d="M51.45 32L19.448 0 12.55 6.894 37.657 32 12.55 57.106 19.448 64"/> </g></symbol> <symbol id="fi-arrow-top" viewBox="0 0 64 64"><g> <path d="M32 12.552L0 44.554l6.893 6.894L32 26.344l25.107 25.104L64 44.554"/> </g></symbol> <symbol id="fi-baby" viewBox="0 0 64 64"><g> <path d="M31.996 17.856c4.933 0 8.93-4 8.93-8.93s-4-8.928-8.93-8.928-8.93 3.997-8.93 8.928c0 4.928 4 8.93 8.928 8.93m9.677 19.166v-6.85l7.69 7.686c1.204 1.197 3.147 1.197 4.347 0 1.2-1.2 1.2-3.147 0-4.348-.982-1.242-11.92-12.066-12.44-12.587-.78-.78-2.06-1.207-3.32-1.207H26.06c-1.266 0-2.545.425-3.326 1.206-.52.52-11.457 11.346-12.44 12.587-1.196 1.2-1.196 3.143 0 4.344 1.2 1.2 3.147 1.197 4.345 0l7.685-7.688v6.85H41.67M27.928 49.452L20.572 42.1s-3.354 3.355-4.21 4.205c-.85.855-1.78 2.824-1.78 3.715 0 .967.336 2.563 1.266 3.49 1.04 1.038 8.54 8.543 9.573 9.58 1.22 1.213 3.19 1.213 4.41 0 1.215-1.22 1.215-3.19 0-4.41-.924-.92-5.564-5.56-5.564-5.56m15.36 0l-5.564 5.56c-1.214 1.218-1.214 3.19 0 4.41 1.218 1.21 3.19 1.21 4.407 0 1.03-1.04 8.53-8.544 9.57-9.58.93-.928 1.266-2.524 1.266-3.49 0-.89-.932-2.858-1.78-3.714-.855-.85-4.212-4.205-4.212-4.205l-7.354 7.356"/> </g></symbol> <symbol id="fi-blivesta" viewBox="0 0 64 64"><g> <path d="M35.094 0l-15.97 15.965 15.97 15.963-16.037 16.037L35.094 64H64V0H35.094zm14.5 54.812l-8.07-8.062 8.07-8.066 8.062 8.066-8.062 8.062zm0-29.777l-8.07-8.062 8.07-8.064 8.062 8.06-8.062 8.06z"/> </g></symbol> <symbol id="fi-bus" viewBox="0 0 64 64"><g> <path d="M58.58 30.9s-1.296-12.8-1.83-17.887c-.6-5.664-1.905-7.316-5.885-9.195C45.145 1.12 38.742 0 32 0S18.853 1.12 13.133 3.82c-3.98 1.878-5.287 3.53-5.884 9.194C6.713 18.102 5.42 30.9 5.42 30.9v25.27h4.713s-.056 3.174-.056 4.262c0 1.97 1.597 3.568 3.564 3.568 1.975 0 3.57-1.602 3.57-3.568V56.17h29.583v4.262c0 1.97 1.597 3.566 3.565 3.566 1.97 0 3.564-1.6 3.564-3.568 0-1.09-.055-4.262-.055-4.262h4.713v-25.27zM21.036 4.8H43.11c.897 0 1.62.726 1.62 1.62 0 .893-.724 1.618-1.62 1.618H21.037c-.896 0-1.618-.726-1.618-1.618 0-.896.72-1.62 1.616-1.62zm-7.384 43.012c-1.96 0-3.555-1.592-3.555-3.553 0-1.965 1.594-3.555 3.553-3.555 1.965 0 3.556 1.59 3.556 3.553 0 1.96-1.59 3.552-3.555 3.552h.004zm36.705 0c-1.96 0-3.55-1.592-3.55-3.553 0-1.965 1.59-3.555 3.55-3.555 1.965 0 3.555 1.59 3.555 3.553 0 1.96-1.59 3.552-3.555 3.552zm1.29-16.717H12.572c-1.458 0-2.522-1.173-2.422-2.6.417-5.687.75-8.894 1.444-14.6.147-1.216 1.2-2.09 2.775-2.09h35.32c1.572 0 2.617.972 2.773 2.187.762 6.007 1.028 8.65 1.456 14.467.122 1.644-1.003 2.633-2.277 2.633h.003z"/> </g></symbol> <symbol id="fi-car" viewBox="0 0 64 64"><g> <path d="M15.2 47.73v5.082c0 2.79-2.253 5.047-5.03 5.047-2.773 0-5.04-2.26-5.04-5.05l.01-5.083H0v-16.51c0-3.592 2.44-6.627 5.754-7.525L11.66 9.67c.838-2.08 2.86-3.53 5.25-3.53h30.195c2.385 0 4.396 1.45 5.26 3.53l5.895 14.023c3.3.9 5.74 3.936 5.74 7.527v16.51h-5.126v5.082c0 2.79-2.255 5.047-5.03 5.047-2.79 0-5.044-2.258-5.044-5.05l.013-5.08H15.2M53.21 23.4l-5.063-12.116c-.22-.603-.8-1.056-1.502-1.056H17.368c-.683 0-1.29.453-1.515 1.056L10.807 23.4H53.21m4.96 9.72c0-2.32-1.883-4.22-4.197-4.22-2.326 0-4.22 1.9-4.22 4.22 0 2.34 1.894 4.224 4.22 4.224 2.314 0 4.197-1.883 4.196-4.224m-48.13 4.225c2.32 0 4.22-1.883 4.22-4.223 0-2.32-1.9-4.22-4.22-4.22-2.318 0-4.21 1.9-4.21 4.22 0 2.34 1.892 4.224 4.21 4.223"/> </g></symbol> <symbol id="fi-dog" viewBox="0 0 64 64"><g> <path d="M62.464 13.482L40.896 3.208c-1.332-.635-2.42.052-2.42 1.526V22.09l-30.87.01-3.81-2.164c-1.223-.69-2.77-.265-3.466.955-.69 1.225-.265 2.773.957 3.467l6.01 3.45v28.83c0 2.425 1.964 4.394 4.392 4.394 2.42 0 4.387-1.97 4.387-4.392l-.004-14.83h26.14v14.83c0 2.424 1.968 4.393 4.386 4.393 2.425 0 4.394-1.97 4.394-4.392V22.68l7.473-.006c1.477-.004 3.188-1.098 3.81-2.436l1.475-3.17c.62-1.34.04-2.95-1.29-3.586z"/> </g></symbol> <symbol id="fi-dribbble" viewBox="0 0 64 64"><g> <path d="M32 64C14.325 64 0 49.68 0 32 0 14.33 14.325 0 32 0s32 14.33 32 32c0 17.672-14.324 32-32 32zm26.2-28.645c-6.286-.823-11.85-.883-16.81-.113 2.047 5.855 3.77 12.17 5.12 18.826 6.28-4.156 10.693-10.896 11.69-18.713zm-16.722 21.28c-1.276-7.422-3.017-14.083-5.267-20.246-8.395 2.526-14.934 7.93-20.412 16.437 4.475 3.486 10.084 5.582 16.207 5.582 3.34 0 6.52-.647 9.474-1.775zM5.584 32c0 6.536 2.393 12.498 6.32 17.11 6.703-9.825 14.252-14.943 22.494-17.322-.677-1.594-1.382-3.172-2.142-4.712-7.36 2.224-16.08 3.386-26.62 3.87-.012.355-.052.697-.052 1.054zm.597-5.555c8.32-.374 16.45-1.295 23.894-3.546-2.836-5.066-6.164-9.82-9.968-14.463-7.013 3.548-12.228 10.11-13.924 18.007zM32 5.592c-2.32 0-4.55.32-6.688.887 3.668 4.035 7.012 8.954 9.96 14.587 5.142-2.12 9.853-5.042 13.978-9.037C44.61 8.028 38.595 5.593 32 5.593zm20.453 9.69c-4.315 4.37-9.25 7.625-15.086 10.006.8 1.723 1.555 3.517 2.28 5.342 5.923-.92 12.173-.712 18.7-.045-.308-5.792-2.455-11.09-5.894-15.303z"/> </g></symbol> <symbol id="fi-github" viewBox="0 0 64 64"><g> <path d="M56.956 20.895c0-4.618-1.76-8.333-4.61-11.143.5-1.592 1.157-5.128-.67-9.66 0 0-3.24-1.014-10.555 3.822-2.862-.72-5.92-1.064-8.965-1.064-3.353 0-6.753.42-9.918 1.282C14.684-.953 11.357.086 11.357.086c-2.174 5.37-.834 9.35-.42 10.338-2.57 2.72-4.114 6.206-4.114 10.456 0 3.23.37 6.106 1.28 8.623l.943 2.13c2.558 4.692 7.582 7.728 16.515 8.68-1.262.842-2.575 2.265-3.086 4.687-1.73.816-7.2 2.812-10.48-2.75 0 0-1.843-3.337-5.36-3.588 0 0-3.416-.047-.232 2.095 0 0 2.275 1.07 3.86 5.056 0 0 2.05 6.817 11.968 4.635v7.035s-.22 2.49-2.524 3.322c0 0-1.364.913.1 1.448 0 0 6.414.508 6.414-4.664V49.9s-.26-3.045 1.248-4.088v12.604s-.095 3-1.676 4.13c0 0-1.053 1.88 1.26 1.363 0 0 4.41-.618 4.604-5.723l.103-12.752h1.06l.1 12.752c.215 5.088 4.622 5.72 4.622 5.72 2.306.518 1.246-1.36 1.246-1.36-1.575-1.13-1.68-4.132-1.68-4.132V45.913c1.508 1.172 1.262 3.985 1.262 3.985v7.688c0 5.172 6.4 4.664 6.4 4.664 1.468-.54.108-1.45.108-1.45-2.312-.83-2.523-3.32-2.523-3.32V47.413c0-3.918-1.674-5.985-3.307-7.087 9.533-.924 14.094-3.98 16.21-8.698-.042.082.755-2.11.755-2.11.726-2.503.946-5.4.946-8.623z"/> </g></symbol> <symbol id="fi-google" viewBox="0 0 64 64"><g> <path d="M36.827 40.752c-.68-.91-1.43-1.758-2.25-2.54-.82-.78-1.642-1.493-2.46-2.134-.82-.64-1.57-1.257-2.25-1.847-.68-.59-1.23-1.204-1.654-1.846-.423-.64-.634-1.294-.634-1.96 0-.924.294-1.79.883-2.598.59-.807 1.31-1.588 2.154-2.346s1.69-1.584 2.537-2.48c.846-.898 1.562-2.083 2.154-3.56.59-1.474.885-3.16.885-5.057 0-2.257-.5-4.424-1.5-6.5-1-2.077-2.41-3.692-4.23-4.847h5.19L40.842 0H24.038c-2.384 0-4.783.254-7.19.77-3.563.794-6.563 2.607-9 5.44-2.436 2.834-3.654 6.045-3.654 9.635 0 3.795 1.367 6.948 4.097 9.46 2.73 2.513 6.007 3.77 9.828 3.77.768 0 1.666-.063 2.69-.19-.05.205-.14.48-.27.826-.127.35-.23.624-.308.83-.076.205-.142.454-.192.75-.05.294-.076.596-.076.903 0 1.69.82 3.604 2.462 5.73-1.95.053-3.87.227-5.77.52-1.896.296-3.883.758-5.96 1.386-2.077.627-3.937 1.536-5.577 2.728s-2.872 2.606-3.692 4.25c-.95 1.896-1.423 3.627-1.423 5.19 0 1.717.384 3.276 1.152 4.674.77 1.396 1.757 2.538 2.96 3.422 1.204.884 2.598 1.628 4.175 2.233 1.575.6 3.14 1.03 4.69 1.287 1.55.255 3.082.383 4.596.383 6.87 0 12.256-1.68 16.152-5.036 3.59-3.13 5.385-6.743 5.385-10.847 0-1.462-.21-2.827-.635-4.097-.42-1.267-.97-2.357-1.65-3.264zM22.003 26.77c-1.31 0-2.55-.33-3.73-1-1.18-.665-2.18-1.53-3-2.595-.82-1.064-1.538-2.264-2.154-3.597-.616-1.333-1.07-2.666-1.366-4-.294-1.333-.442-2.603-.442-3.808 0-2.463.654-4.578 1.963-6.348 1.308-1.77 3.153-2.654 5.54-2.654 1.69 0 3.224.524 4.595 1.576 1.37 1.05 2.45 2.385 3.23 4 .78 1.615 1.385 3.287 1.807 5.02.423 1.73.635 3.365.635 4.904 0 2.562-.56 4.62-1.672 6.174-1.12 1.55-2.92 2.327-5.407 2.327zm10.633 28.88v.003c-.704 1.207-1.66 2.147-2.864 2.826-1.207.68-2.496 1.178-3.867 1.497-1.37.32-2.813.482-4.327.482-1.64 0-3.27-.194-4.884-.58-1.615-.384-3.16-.967-4.635-1.75-1.476-.778-2.67-1.858-3.58-3.23-.91-1.368-1.364-2.93-1.364-4.67 0-1.542.347-2.91 1.04-4.118.692-1.204 1.577-2.166 2.653-2.883 1.075-.722 2.333-1.312 3.77-1.772 1.435-.462 2.82-.78 4.15-.96 1.335-.182 2.694-.27 4.08-.27.845 0 1.485.024 1.92.075.154.104.546.37 1.175.808.627.437 1.05.73 1.27.887.217.15.614.444 1.19.882.577.435.987.763 1.23.98.242.217.595.544 1.06.978.46.437.8.813 1.018 1.136.22.32.488.71.81 1.172.32.463.544.903.673 1.326.127.424.25.885.365 1.385.115.5.173 1.02.173 1.56-.002 1.618-.35 3.027-1.057 4.232z"/> <path d="M54.154 9.847V0H49.23v9.847h-9.844v4.924h9.844v9.846h4.922V14.77h9.846V9.848"/> </g></symbol> <symbol id="fi-handicappe" viewBox="0 0 64 64"><g> <path d="M57.29 50.35v-.002c-.007-.006-.012-.008-.016-.016l-9.984-16.51c-.583-.988-1.645-1.64-2.873-1.637l-14.74-.09V28.78l10.107.032c1.432.004 2.592-1.154 2.598-2.588.002-1.43-1.158-2.593-2.59-2.597l-10.114-.032V18.54c0-3.27-2.68-5.924-5.953-5.924-3.25 0-5.89 2.62-5.922 5.862l-.008.004L17.73 32.6c.032 4.98 3.352 7.918 9.143 7.725h16.685l7.97 13.38.006-.003c.01.016.02.037.026.055.943 1.582 2.988 2.104 4.566 1.16 1.58-.94 2.105-2.985 1.163-4.567zM23.72 11.494h.003c3.172 0 5.744-2.573 5.744-5.747C29.467 2.575 26.893 0 23.72 0c-3.177 0-5.75 2.575-5.75 5.747 0 3.173 2.572 5.747 5.75 5.747z"/> <path d="M27.076 59.625c-9.09 0-16.46-7.367-16.46-16.457 0-4.758 2.023-9.053 5.254-12.057l.025-5.52c-5.806 3.694-9.652 10.19-9.652 17.58C6.243 54.674 15.57 64 27.076 64c9.02 0 16.708-5.736 19.6-13.762l-3.23-5.34c-.87 8.276-7.868 14.727-16.37 14.727z"/> </g></symbol> <symbol id="fi-heart" viewBox="0 0 64 64"><g> <path d="M32 60.334c-62.43-34.054-17.28-76.393 0-47.88 17.277-28.512 62.434 13.826 0 47.88z"/> </g></symbol> <symbol id="fi-home" viewBox="0 0 64 64"><g> <path d="M64 37.934l-32-24.84-32 24.84V27.81L32 2.967l32 24.84v10.126zm-8-.903v24.003H40v-16H24v16H8v-24l24-18 24 18z"/> </g></symbol> <symbol id="fi-mail" viewBox="0 0 64 64"><g> <path d="M0 8.198v47.604h64V8.197H0zm56.86 4.433L33.663 35.9c-.44.44-.855.72-1.66.72-.81 0-1.223-.28-1.66-.72C29.77 35.33 7.14 12.63 7.14 12.63h49.72zM4.33 16.004l16.165 16.13L4.332 48.335V16.002zM7.24 51.41L23.5 35.14c.596.594 2.75 2.72 3.584 3.547 1.338 1.337 2.957 2.227 4.917 2.227s3.58-.89 4.918-2.226c.83-.827 2.986-2.953 3.58-3.547L56.76 51.414H7.242v-.003zm52.43-3.078l-16.168-16.2 16.17-16.13v32.33h-.002z"/> </g></symbol> <symbol id="fi-pinterest" viewBox="0 0 64 64"><g> <path d="M32.853 0C16.103 0 7.216 11.246 7.216 23.495c0 5.687 3.024 12.774 7.874 15.03.738.345 1.126.193 1.29-.52.137-.536.793-3.17 1.086-4.398.088-.395.05-.73-.275-1.12-1.6-1.937-2.878-5.518-2.878-8.85 0-8.56 6.48-16.836 17.518-16.836 9.538 0 16.212 6.487 16.212 15.787 0 10.5-5.3 17.77-12.2 17.77-3.806 0-6.66-3.145-5.75-7.02 1.1-4.612 3.22-9.594 3.22-12.913 0-2.986-1.605-5.475-4.905-5.475-3.9 0-7.024 4.028-7.024 9.43 0 3.437 1.162 5.755 1.162 5.755s-3.85 16.27-4.55 19.3c-1.2 5.136.15 13.456.275 14.187.062.388.5.52.736.193.375-.506 5.02-7.457 6.325-12.486l2.41-9.226c1.277 2.412 4.964 4.455 8.9 4.455 11.697 0 20.145-10.77 20.145-24.144C56.785 9.6 46.313 0 32.855 0h-.002z"/> </g></symbol> <symbol id="fi-star" viewBox="0 0 64 64"><g> <path d="M32 1.134l7.555 23.25H64L44.225 38.75 51.777 62 32 47.63 12.223 62l7.554-23.25L0 24.384h24.447"/> </g></symbol> <symbol id="fi-train" viewBox="0 0 64 64"><g> <path d="M19.95 49.555c-3.593-.503-6.49-3.86-6.49-7.647V13.44c0-4.25 3.438-7.725 7.726-7.725h21.63c4.247 0 7.725 3.478 7.725 7.726v28.467c0 3.863-2.817 7.068-6.487 7.61L53.823 64H48.26l-6.682-9.85H22.382L15.702 64h-5.524l9.77-14.445m8.885-44.998c1.235 0 2.278-1.004 2.278-2.28C31.11 1.005 30.07 0 28.835 0c-1.274 0-2.278 1.004-2.278 2.277 0 1.24 1.004 2.28 2.278 2.28m8.612-2.28C37.446 1.004 36.44 0 35.166 0S32.89 1.004 32.89 2.277c0 1.236 1.003 2.28 2.277 2.28s2.278-1.04 2.278-2.28M21.533 45.77c1.97 0 3.592-1.584 3.592-3.554s-1.583-3.592-3.592-3.592c-1.97 0-3.592 1.583-3.592 3.592 0 1.97 1.623 3.554 3.594 3.554m24.528-3.554c0-1.97-1.622-3.592-3.593-3.592-1.97 0-3.554 1.583-3.554 3.592 0 1.97 1.583 3.554 3.553 3.554s3.593-1.584 3.593-3.554m-3.787-15.373c2.01 0 3.63-1.622 3.63-3.63v-5.947c0-2.01-1.62-3.632-3.63-3.632h-20.51c-2.01 0-3.632 1.623-3.632 3.632v5.986c0 2.008 1.622 3.63 3.632 3.63h20.508m-5.754-14.91c.502 0 .928-.385.928-.926v-3.09c0-.502-.426-.89-.928-.89h-9.04c-.502 0-.926.387-.926.89v3.09c0 .502.424.927.926.927h9.04"/> </g></symbol> <symbol id="fi-twitter" viewBox="0 0 64 64"><g> <path d="M20.127 58.007C12.715 58.007 5.81 55.83 0 52.102c1.026.12 2.067.19 3.134.19 6.15 0 11.81-2.103 16.3-5.62-5.745-.11-10.598-3.91-12.26-9.124.798.147 1.623.236 2.46.236 1.203 0 2.365-.162 3.473-.46C7.093 36.114 2.57 30.81 2.57 24.452v-.168c1.77.98 3.796 1.573 5.945 1.642-3.527-2.352-5.84-6.378-5.84-10.933 0-2.404.65-4.662 1.778-6.6 6.48 7.95 16.155 13.173 27.06 13.72-.216-.958-.337-1.963-.337-2.99 0-7.25 5.88-13.13 13.136-13.13 3.77 0 7.19 1.595 9.58 4.143 2.986-.588 5.812-1.683 8.338-3.183-.98 3.06-3.06 5.636-5.77 7.264 2.648-.316 5.184-1.02 7.54-2.066-1.77 2.637-3.99 4.947-6.554 6.8.027.56.043 1.13.043 1.694 0 17.35-13.214 37.364-37.364 37.364"/> </g></symbol></svg>