<svg xmlns="http://www.w3.org/2000/svg" width="64" height="64" viewBox="0 0 64 64"><path d="M31.996 17.856c4.933 0 8.93-4 8.93-8.93s-4-8.928-8.93-8.928-8.93 3.997-8.93 8.928c0 4.928 4 8.93 8.928 8.93m9.677 19.166v-6.85l7.69 7.686c1.204 1.197 3.147 1.197 4.347 0 1.2-1.2 1.2-3.147 0-4.348-.982-1.242-11.92-12.066-12.44-12.587-.78-.78-2.06-1.207-3.32-1.207H26.06c-1.266 0-2.545.425-3.326 1.206-.52.52-11.457 11.346-12.44 12.587-1.196 1.2-1.196 3.143 0 4.344 1.2 1.2 3.147 1.197 4.345 0l7.685-7.688v6.85H41.67M27.928 49.452L20.572 42.1s-3.354 3.355-4.21 4.205c-.85.855-1.78 2.824-1.78 3.715 0 .967.336 2.563 1.266 3.49 1.04 1.038 8.54 8.543 9.573 9.58 1.22 1.213 3.19 1.213 4.41 0 1.215-1.22 1.215-3.19 0-4.41-.924-.92-5.564-5.56-5.564-5.56m15.36 0l-5.564 5.56c-1.214 1.218-1.214 3.19 0 4.41 1.218 1.21 3.19 1.21 4.407 0 1.03-1.04 8.53-8.544 9.57-9.58.93-.928 1.266-2.524 1.266-3.49 0-.89-.932-2.858-1.78-3.714-.855-.85-4.212-4.205-4.212-4.205l-7.354 7.356"/></svg>