<svg xmlns="http://www.w3.org/2000/svg" width="64" height="64" viewBox="0 0 64 64"><path d="M58.58 30.9s-1.296-12.8-1.83-17.887c-.6-5.664-1.904-7.316-5.885-9.195C45.145 1.12 38.742 0 32 0S18.853 1.12 13.133 3.82c-3.98 1.878-5.287 3.53-5.884 9.194C6.713 18.102 5.42 30.9 5.42 30.9v25.27h4.713s-.056 3.174-.056 4.262c0 1.97 1.597 3.568 3.564 3.568 1.975 0 3.57-1.602 3.57-3.568V56.17h29.583v4.262c0 1.97 1.598 3.566 3.564 3.566 1.97 0 3.564-1.6 3.564-3.568 0-1.09-.054-4.262-.054-4.262h4.713v-25.27.002zM21.036 4.8H43.11c.896 0 1.62.726 1.62 1.62 0 .893-.725 1.618-1.62 1.618H21.036c-.896 0-1.618-.726-1.618-1.618 0-.896.72-1.62 1.616-1.62zM13.65 48.56c-2.37 0-4.3-1.928-4.3-4.3 0-2.377 1.93-4.3 4.3-4.3 2.377 0 4.302 1.923 4.302 4.298 0 2.372-1.924 4.3-4.302 4.3h.004-.003zm36.707 0c-2.373 0-4.297-1.928-4.297-4.3 0-2.377 1.924-4.3 4.297-4.3 2.377 0 4.3 1.923 4.3 4.298 0 2.372-1.923 4.3-4.3 4.3zm1.29-17.465H12.57c-1.458 0-2.522-1.173-2.422-2.6.417-5.687.75-8.894 1.444-14.6.147-1.216 1.2-2.09 2.775-2.09h35.32c1.57 0 2.616.972 2.772 2.187.762 6.007 1.028 8.65 1.456 14.467.123 1.644-1.002 2.633-2.276 2.633h.004v.002z"/></svg>