<svg xmlns="http://www.w3.org/2000/svg" width="64" height="64" viewBox="0 0 64 64"><path d="M32 23c-7.18 0-13 5.82-13 13 0 7.182 5.82 13 13 13s13-5.818 13-13c0-7.18-5.82-13-13-13zm0 20.55c-4.142 0-7.5-3.356-7.5-7.5 0-4.142 3.356-7.5 7.5-7.5 4.143 0 7.5 3.357 7.5 7.5 0 4.14-3.357 7.5-7.5 7.5z"/><path d="M60 14H46l-6-8H24l-6 8H4c-2.2 0-4 1.8-4 4v36c0 2.2 1.8 4 4 4h56c2.2 0 4-1.8 4-4V18c0-2.2-1.8-4-4-4zM32 53.75c-9.804 0-17.75-7.947-17.75-17.75S22.196 18.25 32 18.25c9.803 0 17.75 7.947 17.75 17.75S41.802 53.75 32 53.75zM60 23.5h-8v-4h8v4z"/></svg>