<svg xmlns="http://www.w3.org/2000/svg" width="64" height="64" viewBox="0 0 64 64"><path d="M58.382 24.73l4.408-.234-1.628-5.635-5.36-.014-3.437-8.177c-.864-2.08-2.587-3.53-4.972-3.53H16.33c-2.39 0-3.832 1.45-4.67 3.53l-3.444 8.176-5.444.015-1.628 5.636 4.47.24C2.375 25.68 0 28.675 0 32.215l2 16.51h3.14l-.01 3.083c0 2.79 2.7 5.05 6.04 5.05 3.286 0 6.03-2.258 6.03-5.047v-3.085h29.612L46.8 51.81c0 2.792 2.406 5.05 6.044 5.05 3.362 0 6.03-2.258 6.03-5.047V48.73H62l2-16.51c0-3.546-2.38-6.547-5.618-7.49zM10.04 38.77c-2.55 0-4.632-2.072-4.632-4.646 0-2.553 2.082-4.643 4.63-4.643 2.553 0 4.643 2.09 4.643 4.642 0 2.573-2.09 4.646-4.64 4.646zm32.304 6.72H21.657l-1.306-7.822h23.3l-1.306 7.82zM10.812 24.4l.066-.172 4.974-11.944c.225-.603.832-1.056 1.515-1.056h29.276c.703 0 1.282.453 1.502 1.056l3.933 9.41L53.12 24.4H10.812zm43.163 14.366c-2.56 0-4.643-2.072-4.643-4.646 0-2.553 2.083-4.643 4.643-4.643 2.545 0 4.616 2.09 4.616 4.643 0 2.573-2.07 4.646-4.615 4.646z"/></svg>