<svg xmlns="http://www.w3.org/2000/svg" width="64" height="64" viewBox="0 0 64 64"><path d="M15.2 47.73v5.082c0 2.79-2.253 5.047-5.03 5.047-2.773 0-5.04-2.26-5.04-5.052l.01-5.082H0v-16.51c0-3.592 2.44-6.627 5.754-7.525L11.66 9.67c.838-2.08 2.86-3.53 5.25-3.53h30.195c2.385 0 4.396 1.45 5.26 3.53l5.895 14.023c3.3.9 5.74 3.936 5.74 7.527v16.51h-5.126v5.082c0 2.79-2.255 5.047-5.03 5.047-2.79 0-5.044-2.26-5.044-5.05l.013-5.082H15.2M53.21 23.4l-5.063-12.116c-.22-.603-.8-1.056-1.502-1.056H17.368c-.683 0-1.29.453-1.515 1.056L10.807 23.4H53.21m5.38 9.72c0-2.553-2.07-4.643-4.616-4.643-2.56 0-4.642 2.09-4.642 4.643 0 2.573 2.083 4.646 4.642 4.646 2.546 0 4.617-2.072 4.617-4.646m-48.55 4.647c2.55 0 4.64-2.07 4.64-4.645 0-2.553-2.09-4.643-4.64-4.643s-4.632 2.09-4.632 4.642c0 2.573 2.082 4.646 4.63 4.645"/></svg>