<svg xmlns="http://www.w3.org/2000/svg" width="64" height="64" viewBox="0 0 64 64"><path d="M62.464 13.482L40.896 3.208c-1.332-.635-2.42.052-2.42 1.526V22.09l-30.87.01-3.81-2.164c-1.223-.69-2.77-.265-3.466.955-.69 1.225-.265 2.773.957 3.467l6.01 3.45v28.83c0 2.426 1.964 4.395 4.392 4.395 2.42 0 4.387-1.97 4.387-4.393l-.004-14.83h26.14v14.83c0 2.423 1.97 4.392 4.387 4.392 2.426 0 4.395-1.97 4.395-4.393V22.68l7.473-.006c1.477-.004 3.188-1.098 3.81-2.436l1.476-3.17c.62-1.34.04-2.95-1.29-3.586z"/></svg>