<svg xmlns="http://www.w3.org/2000/svg" width="64" height="64" viewBox="0 0 64 64"><path d="M32.002 64c-17.645 0-32-14.354-32-32 0-17.645 14.355-32 32-32 17.646 0 32 14.355 32 32 0 17.646-14.355 32-32 32zM16.405 52.84c4.536 3.41 9.92 5.21 15.597 5.21 3.127 0 6.195-.56 9.127-1.66-1.285-6.855-3.036-13.383-5.21-19.416-11.43 3.712-17.323 12.032-19.515 15.867zm25.36-17.256c1.97 5.597 3.604 11.63 4.865 17.95 5.987-4.075 10-10.402 11.104-17.523-3.304-.598-6.518-.9-9.557-.9-2.204-.002-4.358.16-6.41.474zM5.954 32c0 6.106 2.153 12.008 6.078 16.694C15.218 43.718 22 35.49 33.77 31.486c-.537-1.26-1.103-2.515-1.688-3.742-10.136 2.914-20.51 3.637-26.122 3.8-.004.162-.007.308-.007.455zm42.413-2.833c3.084 0 6.314.28 9.608.832-.385-5.045-2.21-9.803-5.31-13.834-3.43 3.91-8.423 7.155-14.858 9.652.61 1.313 1.218 2.7 1.812 4.138 2.8-.523 5.74-.79 8.748-.79zM19.654 9.077C13.227 12.55 8.57 18.508 6.77 25.543c4.988-.21 13.89-.912 22.51-3.206-3.93-6.982-7.608-11.212-9.626-13.258zm6-2.334c2.466 2.756 5.935 7.23 9.474 13.74 5.986-2.23 10.48-5.127 13.373-8.617C43.85 8.048 38.01 5.95 32.003 5.95c-2.135.002-4.266.267-6.348.793z"/></svg>