<svg xmlns="http://www.w3.org/2000/svg" width="64" height="64" viewBox="0 0 64 64"><path d="M32 64C14.355 64 0 49.645 0 32S14.355 0 32 0s32 14.355 32 32-14.355 32-32 32zm3.764-27.493c-7.898 2.495-14.36 7.71-19.752 15.945l-.26.397.38.284c4.62 3.48 10.108 5.314 15.873 5.314 3.077 0 6.143-.55 9.11-1.637l.397-.145-.074-.42c-1.234-7.072-2.883-13.43-5.043-19.43l-.164-.46-.466.152zm13.09-1.827c-2.413 0-4.728.152-6.88.456l-.61.087.2.582c1.896 5.506 3.506 11.42 4.785 17.572l.155.756.633-.443c5.965-4.184 9.985-10.685 11.034-17.838l.074-.514-.515-.064c-3.13-.394-6.118-.592-8.878-.592v-.002h.003zM31.86 27.168c-6.9 2.036-15.1 3.222-25.806 3.733l-.452.023-.03.45c-.018.257-.03.44-.03.627 0 6.023 2.104 11.934 5.92 16.64l.425.526.386-.555c6-8.603 13.072-14.048 21.62-16.645l.542-.165-.226-.52c-.626-1.46-1.197-2.716-1.747-3.846l-.19-.387-.412.12zm20.215-11.533c-4.085 4.04-8.745 7.126-14.244 9.434l-.482.202.217.477c.636 1.395 1.267 2.877 1.93 4.532l.146.373.398-.06c2.565-.377 5.272-.56 8.27-.56 2.843 0 5.947.168 9.49.517l.603.06-.044-.603c-.393-5.258-2.303-10.21-5.525-14.325l-.35-.45-.407.4zM19.733 8.58c-6.77 3.55-11.67 9.83-13.447 17.227l-.158.66.676-.034c9.186-.444 16.396-1.506 22.69-3.344l.617-.18-.317-.56c-2.625-4.613-5.71-9.076-9.43-13.642l-.262-.322-.366.194zM32 5.55c-1.954 0-3.942.233-5.91.693l-.828.193.562.637c3.35 3.8 6.453 8.377 9.224 13.606l.218.41.428-.18c5.102-2.156 9.416-4.936 13.19-8.5l.418-.396-.44-.366C44.112 7.716 38.125 5.55 32 5.548z"/></svg>