<svg xmlns="http://www.w3.org/2000/svg" width="32" height="32" viewBox="0 0 32 32"><path d="M16 27C9.935 27 5 22.067 5 16 5 9.935 9.935 5 16 5c6.066 0 11 4.935 11 11 0 6.067-4.934 11-11 11zm-5.362-3.836A8.859 8.859 0 0 0 16 24.953c1.075 0 2.13-.191 3.138-.568a42.956 42.956 0 0 0-1.792-6.675c-3.929 1.275-5.954 4.137-6.708 5.454zm8.718-5.93a45.7 45.7 0 0 1 1.673 6.167 8.924 8.924 0 0 0 3.814-6.022 18.372 18.372 0 0 0-3.283-.311 14.353 14.353 0 0 0-2.204.166zM7.045 16c0 2.098.741 4.128 2.088 5.739 1.096-1.711 3.428-4.538 7.475-5.916-.186-.433-.38-.864-.582-1.287-3.483 1.003-7.049 1.252-8.979 1.308L7.045 16zm14.58-.973c1.061 0 2.17.095 3.304.286a8.858 8.858 0 0 0-1.826-4.755c-1.179 1.345-2.895 2.46-5.106 3.319.209.451.419.928.623 1.421.96-.181 1.97-.271 3.005-.271zm-9.869-6.906a8.952 8.952 0 0 0-4.429 5.66c1.715-.073 4.774-.314 7.737-1.103-1.351-2.4-2.615-3.854-3.308-4.557zm2.062-.804c.848.948 2.041 2.487 3.256 4.724 2.058-.767 3.602-1.763 4.598-2.961A8.946 8.946 0 0 0 16 7.046c-.734 0-1.466.091-2.182.271z"/></svg>