<svg xmlns="http://www.w3.org/2000/svg" width="32" height="32" viewBox="0 0 32 32"><path d="M24.92 12.183c0-1.586-.604-2.864-1.585-3.83.172-.547.398-1.763-.229-3.321 0 0-1.114-.348-3.628 1.315a12.695 12.695 0 0 0-3.081-.366c-1.154 0-2.322.143-3.409.44-2.596-1.747-3.74-1.391-3.74-1.391-.748 1.847-.287 3.215-.145 3.554-.883.936-1.414 2.133-1.414 3.594 0 1.111.128 2.099.44 2.964l.325.732c.879 1.614 2.606 2.655 5.677 2.983-.434.289-.885.779-1.062 1.612-.594.28-2.475.966-3.603-.944 0 0-.633-1.148-1.842-1.235 0 0-1.174-.017-.08.722 0 0 .782.367 1.326 1.738 0 0 .705 2.342 4.114 1.593v2.417s-.076.857-.867 1.143c0 0-.469.312.034.497 0 0 2.205.174 2.205-1.604v-2.643s-.09-1.047.429-1.404v4.332s-.032 1.031-.576 1.421c0 0-.362.646.433.468 0 0 1.517-.211 1.584-1.967l.035-4.383h.363l.033 4.383c.076 1.748 1.59 1.967 1.59 1.967.793.179.429-.468.429-.468-.54-.389-.579-1.421-.579-1.421v-4.297c.52.402.436 1.369.436 1.369v2.643c0 1.777 2.2 1.604 2.2 1.604.505-.186.036-.498.036-.498-.793-.286-.867-1.143-.867-1.143v-3.461c0-1.346-.574-2.056-1.137-2.435 3.277-.318 4.845-1.368 5.572-2.99-.015.027.26-.726.26-.726.25-.859.325-1.855.325-2.963h-.002z"/></svg>