<svg xmlns="http://www.w3.org/2000/svg" width="32" height="32" viewBox="0 0 32 32"><path d="M26.182 11.836c0-1.731-.66-3.125-1.729-4.179.188-.597.434-1.923-.251-3.623 0 0-1.216-.379-3.958 1.435a13.838 13.838 0 0 0-3.362-.399c-1.258 0-2.532.156-3.719.48-2.832-1.906-4.08-1.518-4.08-1.518-.815 2.015-.312 3.507-.158 3.877-.964 1.021-1.542 2.328-1.542 3.921 0 1.212.139 2.29.48 3.234l.354.799c.959 1.76 2.843 2.897 6.193 3.254-.474.316-.966.85-1.158 1.759-.648.305-2.7 1.054-3.93-1.031 0 0-.691-1.251-2.01-1.346 0 0-1.281-.018-.087.786 0 0 .853.4 1.447 1.896 0 0 .769 2.556 4.488 1.738v2.637s-.083.936-.946 1.247c0 0-.512.342.037.543 0 0 2.405.189 2.405-1.75v-2.884s-.098-1.141.468-1.532v4.726s-.035 1.125-.629 1.55c0 0-.395.705.473.511 0 0 1.654-.231 1.727-2.146l.039-4.782h.397l.037 4.782c.082 1.907 1.734 2.146 1.734 2.146.865.194.468-.511.468-.511-.591-.424-.631-1.55-.631-1.55v-4.687c.566.438.474 1.493.474 1.493v2.883c0 1.939 2.4 1.749 2.4 1.749.551-.202.04-.543.04-.543-.866-.312-.946-1.246-.946-1.246V21.78c0-1.47-.627-2.244-1.24-2.658 3.574-.347 5.285-1.491 6.078-3.261-.016.03.283-.792.283-.792.273-.938.355-2.024.355-3.233h-.001z"/></svg>