<svg xmlns="http://www.w3.org/2000/svg" width="64" height="64" viewBox="0 0 64 64"><path d="M36.827 40.752c-.68-.91-1.43-1.758-2.25-2.54-.82-.78-1.642-1.493-2.46-2.134-.82-.64-1.57-1.257-2.25-1.847-.68-.59-1.23-1.204-1.654-1.846-.423-.64-.634-1.294-.634-1.96 0-.924.294-1.79.883-2.598.59-.807 1.31-1.588 2.154-2.346s1.69-1.584 2.537-2.48c.846-.898 1.562-2.083 2.154-3.56.59-1.474.885-3.16.885-5.057 0-2.257-.5-4.424-1.5-6.5-1-2.077-2.41-3.692-4.23-4.847h5.19L40.842 0H24.038c-2.384 0-4.783.254-7.19.77-3.563.794-6.563 2.607-9 5.44-2.436 2.834-3.654 6.045-3.654 9.635 0 3.795 1.367 6.948 4.097 9.46 2.73 2.513 6.007 3.77 9.828 3.77.768 0 1.666-.063 2.69-.19-.05.205-.14.48-.27.826-.127.35-.23.624-.308.83-.076.205-.142.454-.192.75-.05.294-.076.596-.076.903 0 1.69.82 3.604 2.462 5.73-1.95.053-3.87.227-5.77.52-1.896.296-3.883.758-5.96 1.386-2.077.627-3.937 1.536-5.577 2.728s-2.872 2.606-3.692 4.25c-.95 1.896-1.423 3.627-1.423 5.19 0 1.717.384 3.276 1.152 4.674.77 1.396 1.757 2.538 2.96 3.422 1.204.884 2.598 1.628 4.175 2.233 1.575.6 3.14 1.03 4.69 1.287 1.55.255 3.082.383 4.596.383 6.87 0 12.256-1.68 16.152-5.036 3.59-3.13 5.385-6.743 5.385-10.847 0-1.462-.21-2.827-.635-4.097-.42-1.267-.97-2.357-1.65-3.264zM22.003 26.77c-1.31 0-2.55-.33-3.73-1-1.18-.665-2.18-1.53-3-2.595-.82-1.064-1.538-2.264-2.154-3.597-.616-1.333-1.07-2.666-1.366-4-.294-1.333-.442-2.603-.442-3.808 0-2.463.654-4.578 1.963-6.348 1.308-1.77 3.153-2.654 5.54-2.654 1.69 0 3.224.524 4.595 1.576 1.37 1.05 2.45 2.385 3.23 4 .78 1.615 1.385 3.287 1.807 5.02.423 1.73.635 3.365.635 4.904 0 2.562-.56 4.62-1.672 6.174-1.12 1.55-2.92 2.327-5.407 2.327zm10.633 28.88v.003c-.704 1.207-1.66 2.147-2.864 2.826-1.207.68-2.496 1.178-3.867 1.497-1.37.32-2.813.482-4.327.482-1.64 0-3.27-.194-4.884-.58-1.615-.384-3.16-.967-4.635-1.75-1.476-.778-2.67-1.858-3.58-3.23-.91-1.368-1.364-2.93-1.364-4.67 0-1.542.347-2.91 1.04-4.118.692-1.204 1.577-2.166 2.653-2.883 1.075-.722 2.333-1.312 3.77-1.772 1.435-.462 2.82-.78 4.15-.96 1.335-.182 2.694-.27 4.08-.27.845 0 1.485.024 1.92.075.154.104.546.37 1.175.808.627.437 1.05.73 1.27.887.217.15.614.444 1.19.882.577.435.987.763 1.23.98.242.217.595.544 1.06.978.46.437.8.813 1.018 1.136.22.32.488.71.81 1.172.32.463.544.903.673 1.326.127.424.25.885.365 1.385.115.5.173 1.02.173 1.56-.002 1.618-.35 3.027-1.057 4.232z"/><path d="M54.154 9.847V0H49.23v9.847h-9.844v4.924h9.844v9.846h4.922V14.77h9.846V9.848"/></svg>