<svg xmlns="http://www.w3.org/2000/svg" width="64" height="64" viewBox="0 0 64 64"><path d="M56.266 28.06v-7.69H50.14v7.69h-7.733v6.127h7.733v7.69h6.126v-7.69H64V28.06zM38.372 29.485H19.574v6.82H32.02c-.999 6.574-6.837 8.924-11.639 8.924-7.322 0-13.058-5.791-13.058-13.183 0-7.443 5.743-13.273 13.075-13.273 5.478 0 8.847 3.505 8.88 3.541l.566.604 4.761-4.927-.494-.546c-.205-.225-5.108-5.507-13.9-5.507C9.256 11.938 0 21.103 0 31.951c0 9.672 7.833 20.111 20.49 20.111 10.989 0 18.665-7.531 18.665-18.312 0-1.091-.139-3.62-.552-4.036l-.231-.229z"/></svg>