<svg xmlns="http://www.w3.org/2000/svg" width="64" height="64" viewBox="0 0 64 64"><path d="M57.29 50.35v-.002c-.007-.006-.013-.008-.017-.016l-9.983-16.51c-.583-.988-1.646-1.64-2.873-1.637l-14.74-.09V28.78l10.107.032c1.432.004 2.592-1.154 2.598-2.588.002-1.43-1.157-2.593-2.59-2.597l-10.114-.032V18.54c0-3.27-2.68-5.924-5.953-5.924-3.25 0-5.89 2.62-5.922 5.862l-.008.004L17.73 32.6c.032 4.98 3.352 7.918 9.143 7.726H43.56l7.968 13.38.007-.003c.01.016.02.037.026.055.943 1.582 2.988 2.104 4.566 1.16 1.58-.94 2.104-2.986 1.164-4.568zM23.72 11.494h.003c3.172 0 5.744-2.573 5.744-5.747C29.467 2.575 26.893 0 23.72 0c-3.177 0-5.75 2.575-5.75 5.747 0 3.173 2.572 5.747 5.75 5.747z"/><path d="M27.076 59.625c-9.09 0-16.46-7.367-16.46-16.457 0-4.758 2.023-9.053 5.254-12.057l.025-5.52c-5.806 3.694-9.652 10.19-9.652 17.58C6.243 54.674 15.57 64 27.076 64c9.02 0 16.708-5.736 19.6-13.762l-3.23-5.34c-.87 8.276-7.868 14.727-16.37 14.727z"/></svg>