<svg xmlns="http://www.w3.org/2000/svg" width="64" height="64" viewBox="0 0 64 64"><path d="M63.988 20.07c-.185-6.42-3.152-11.695-7.352-14.926-5.399-4.15-12.841-4.92-19.031-.382-2.043 1.5-3.953 3.577-5.605 6.304-1.654-2.728-3.562-4.805-5.606-6.304C20.204.224 12.763.993 7.363 5.144 3.163 8.374.196 13.65.011 20.07c-.099 3.41.421 7.219 2.291 11.061 2.941 6.044 16.743 19.48 29.586 31.081.036.034.069.072.105.106l.007-.006.006.006c.036-.034.069-.072.105-.106 12.843-11.601 26.645-25.037 29.586-31.081 1.87-3.842 2.39-7.651 2.291-11.061z"/></svg>