<svg xmlns="http://www.w3.org/2000/svg" width="64" height="64" viewBox="0 0 64 64"><path d="M56.614 27.07h-5.572c.406 1.58.652 3.23.652 4.93 0 10.873-8.828 19.69-19.695 19.69-10.875 0-19.696-8.817-19.696-19.69 0-1.7.235-3.35.652-4.93H7.382v27.087c0 1.357 1.1 2.457 2.458 2.457h44.315c1.355 0 2.457-1.1 2.457-2.456V27.072h.002zm0-17.227c0-1.357-1.102-2.458-2.458-2.458h-7.394c-1.357 0-2.46 1.1-2.46 2.458v7.385c0 1.357 1.103 2.463 2.46 2.463h7.392c1.356 0 2.458-1.107 2.458-2.462V9.843h.002zM32 19.693c-6.802 0-12.314 5.507-12.314 12.307 0 6.792 5.514 12.306 12.314 12.306S44.306 38.792 44.306 32c0-6.8-5.506-12.306-12.306-12.306M56.614 64H7.384C3.308 64 0 60.693 0 56.614V7.384C0 3.31 3.307 0 7.385 0h49.23C60.697 0 64 3.308 64 7.385v49.23C64 60.692 60.698 64 56.614 64"/></svg>