<svg xmlns="http://www.w3.org/2000/svg" width="64" height="64" viewBox="0 0 64 64"><path d="M54.307 27.533h-5.05c.368 1.43.59 2.926.59 4.467 0 9.854-8 17.846-17.848 17.846-9.855 0-17.85-7.992-17.85-17.846 0-1.54.214-3.036.59-4.467H9.69V52.08c0 1.23.997 2.227 2.228 2.227h40.16c1.23 0 2.227-.996 2.227-2.226V27.535h.002zm0-15.613c0-1.23-.998-2.227-2.228-2.227h-6.7c-1.23 0-2.23.998-2.23 2.227v6.693c0 1.23.998 2.232 2.23 2.232h6.697c1.23 0 2.227-1.004 2.227-2.232V11.92h.003zM32 20.848c-6.164 0-11.16 4.99-11.16 11.152 0 6.155 4.997 11.152 11.16 11.152 6.162 0 11.152-4.997 11.152-11.152 0-6.162-4.99-11.152-11.152-11.152M54.307 61H9.693C5.997 61 3 58.003 3 54.307V9.693C3 5.998 5.997 3 9.693 3h44.614C58.007 3 61 5.998 61 9.693v44.614C61 58.003 58.008 61 54.307 61"/></svg>