<svg xmlns="http://www.w3.org/2000/svg" width="64" height="64" viewBox="0 0 64 64"><path fill="#010002" d="M21.736 5.225S20.876 3.2 19.562 3.2c-1.313 0-1.988.6-2.438 1.013-.45.413-7.987 6.6-7.987 6.6s-2.175 1.913-2.024 5.512c.15 3.6.862 8.738 4.5 15.863 3.64 7.125 12.713 18 18.45 21.824 0 0 5.326 4.09 10.277 5.74 1.434.477 4.312 1.05 4.986 1.05.676 0 1.875 0 3.263-1.013 1.387-1.015 9.262-7.352 9.262-7.352s1.95-1.725-.3-3.75c-2.25-2.024-9.075-6.525-10.538-7.726-1.463-1.2-3.562-.675-4.462.15-.9.826-2.487 2.158-2.7 2.325-.287.225-1.086.954-1.987.6-1.147-.45-5.85-3-10.2-8.962s-4.82-7.912-5.476-10.012c-.188-.6-.04-1.275.6-1.726.637-.45 3.037-2.438 3.037-2.438s1.538-1.538.9-3.338c-.64-1.798-4.99-12.337-4.99-12.337z"/></svg>