<svg xmlns="http://www.w3.org/2000/svg" width="32" height="32" viewBox="0 0 32 32"><path d="M11.363 4.844S11.004 4 10.453 4c-.542 0-.823.25-1.011.422S6.115 7.175 6.115 7.175s-.912.797-.843 2.297c.059 1.5.353 3.635 1.875 6.609 1.512 2.967 5.297 7.5 7.688 9.094 0 0 2.216 1.7 4.278 2.391.598.19 1.795.434 2.075.434.282 0 .785 0 1.359-.42.585-.424 3.865-3.062 3.865-3.062s.805-.725-.129-1.568c-.938-.844-3.783-2.719-4.393-3.213-.609-.501-1.478-.281-1.853.059-.374.342-1.042.904-1.125.973-.122.094-.456.4-.831.246-.48-.188-2.438-1.252-4.253-3.736-1.806-2.484-2.005-3.295-2.275-4.172a.611.611 0 0 1 .246-.717c.27-.188 1.266-1.018 1.266-1.018s.645-.635.375-1.385-2.077-5.143-2.077-5.143z"/></svg>