<svg xmlns="http://www.w3.org/2000/svg" width="64" height="64" viewBox="0 0 64 64"><path d="M32.852 0C16.102 0 7.214 11.246 7.214 23.495c0 5.687 3.024 12.775 7.874 15.032.738.345 1.127.191 1.29-.521.138-.536.793-3.171 1.086-4.397.088-.394.05-.73-.275-1.121-1.6-1.938-2.878-5.519-2.878-8.85 0-8.561 6.48-16.836 17.519-16.836 9.54 0 16.212 6.487 16.212 15.787 0 10.501-5.301 17.771-12.201 17.771-3.805 0-6.66-3.145-5.75-7.02 1.101-4.613 3.22-9.595 3.22-12.915 0-2.985-1.605-5.474-4.903-5.474-3.901 0-7.025 4.028-7.025 9.429 0 3.438 1.163 5.755 1.163 5.755s-3.85 16.271-4.55 19.3c-1.2 5.135.149 13.455.274 14.187.062.388.5.521.736.193.375-.507 5.021-7.457 6.325-12.486l2.411-9.224c1.276 2.412 4.963 4.454 8.9 4.454 11.697 0 20.145-10.771 20.145-24.143C56.785 9.6 46.312 0 32.854 0h-.002z"/></svg>