<svg xmlns="http://www.w3.org/2000/svg" width="32" height="32" viewBox="0 0 32 32"><path d="M16.319 4c-6.281 0-9.614 4.217-9.614 8.811 0 2.133 1.134 4.791 2.953 5.638.276.129.422.07.483-.196.052-.2.298-1.188.407-1.648a.438.438 0 0 0-.104-.421c-.6-.727-1.078-2.069-1.078-3.318 0-3.21 2.43-6.313 6.569-6.313 3.578 0 6.079 2.433 6.079 5.92 0 3.938-1.987 6.664-4.575 6.664-1.427 0-2.497-1.18-2.156-2.633.413-1.729 1.207-3.598 1.207-4.842 0-1.12-.602-2.054-1.838-2.054-1.463 0-2.635 1.511-2.635 3.536 0 1.289.437 2.158.437 2.158s-1.444 6.102-1.706 7.237c-.45 1.926.056 5.046.103 5.32.023.146.188.195.275.072.141-.19 1.883-2.797 2.372-4.683l.904-3.458c.479.904 1.861 1.67 3.338 1.67 4.386 0 7.554-4.039 7.554-9.054C25.295 7.6 21.367 4 16.319 4z"/></svg>