<svg xmlns="http://www.w3.org/2000/svg" width="32" height="32" viewBox="0 0 32 32"><path d="M27 24.57l-5.647-5.648a8.892 8.892 0 0 0 1.522-4.984C22.875 9.01 18.867 5 13.938 5 9.01 5 5 9.01 5 13.938c0 4.929 4.01 8.938 8.938 8.938a8.887 8.887 0 0 0 4.984-1.522L24.568 27 27 24.57zm-13.062-4.445a6.194 6.194 0 0 1-6.188-6.188 6.195 6.195 0 0 1 6.188-6.188 6.195 6.195 0 0 1 6.188 6.188 6.195 6.195 0 0 1-6.188 6.188zm3.755-7.217h-2.726v-2.725h-2.062v2.725H10.18v2.062h2.725v2.725h2.062V14.97h2.726v-2.062z"/></svg>