<svg xmlns="http://www.w3.org/2000/svg" width="64" height="64" viewBox="0 0 64 64"><path d="M63.51 33.317a5.607 5.607 0 0 0-7.404-2.831l-2.695 1.208-6.913-15.45 2.697-1.205a5.605 5.605 0 0 0 2.826-7.404 5.599 5.599 0 0 0-7.402-2.828l-2.695 1.207-1.206-2.699A5.603 5.603 0 0 0 33.315.49a5.602 5.602 0 0 0-2.828 7.402l1.207 2.698-15.451 6.911-1.205-2.697a5.605 5.605 0 0 0-7.403-2.831 5.606 5.606 0 0 0-2.829 7.404l1.207 2.693-2.695 1.211a5.6 5.6 0 0 0-2.827 7.4 5.604 5.604 0 0 0 7.403 2.828l2.697-1.208 6.907 15.452L14.8 48.96a5.604 5.604 0 0 0 4.575 10.233l2.696-1.207 1.207 2.697c1.264 2.826 4.578 4.09 7.404 2.826a5.6 5.6 0 0 0 2.825-7.399l-1.203-2.699 15.451-6.908 1.205 2.688a5.598 5.598 0 0 0 7.402 2.835 5.601 5.601 0 0 0 2.828-7.404l-1.206-2.692 2.693-1.211a5.6 5.6 0 0 0 2.833-7.402zM27.729 43.18l-6.912-15.454 15.451-6.907L43.18 36.27l-15.451 6.91z"/></svg>