<svg xmlns="http://www.w3.org/2000/svg" width="64" height="64" viewBox="0 0 64 64"><path d="M63.51 33.317c-1.263-2.825-4.577-4.093-7.404-2.83l-2.695 1.207-6.912-15.45 2.697-1.205c2.824-1.267 4.09-4.58 2.826-7.405-1.26-2.826-4.574-4.094-7.4-2.828l-2.696 1.207-1.206-2.7C39.453.49 36.14-.773 33.315.49c-2.826 1.262-4.09 4.574-2.828 7.402l1.207 2.698-15.45 6.91-1.206-2.696c-1.265-2.83-4.578-4.09-7.403-2.83-2.827 1.263-4.09 4.577-2.83 7.403l1.208 2.693-2.695 1.21C.493 24.546-.772 27.855.49 30.68c1.26 2.825 4.58 4.092 7.404 2.83l2.697-1.21L17.5 47.754 14.8 48.96c-2.825 1.263-4.09 4.58-2.827 7.402 1.264 2.827 4.578 4.093 7.402 2.83l2.696-1.206 1.208 2.697c1.264 2.826 4.578 4.09 7.404 2.826 2.823-1.264 4.088-4.576 2.825-7.4l-1.203-2.7 15.45-6.907 1.206 2.688c1.264 2.834 4.575 4.1 7.402 2.836 2.826-1.26 4.093-4.576 2.828-7.404l-1.206-2.692 2.693-1.21c2.83-1.267 4.097-4.578 2.833-7.403zM27.73 43.18l-6.913-15.454 15.45-6.907 6.913 15.45-15.45 6.91z"/></svg>