<svg xmlns="http://www.w3.org/2000/svg" width="32" height="32" viewBox="0 0 32 32"><path d="M27.816 16.494a2.103 2.103 0 0 0-2.776-1.062l-1.011.453-2.593-5.795 1.012-.451a2.102 2.102 0 0 0 1.06-2.777c-.473-1.06-1.716-1.535-2.775-1.06l-1.011.452-.452-1.011a2.102 2.102 0 0 0-2.777-1.059c-1.06.473-1.534 1.715-1.06 2.775l.452 1.011-5.794 2.592-.452-1.01a2.101 2.101 0 1 0-3.837 1.714l.452 1.01-1.01.454a2.1 2.1 0 1 0 1.716 3.835l1.011-.452 2.59 5.794-1.011.453c-1.06.474-1.534 1.717-1.06 2.775a2.1 2.1 0 0 0 2.775 1.062l1.011-.453.453 1.011a2.101 2.101 0 0 0 3.836-1.714l-.451-1.012 5.794-2.591.452 1.009c.474 1.062 1.716 1.536 2.775 1.062a2.099 2.099 0 0 0 1.061-2.775l-.452-1.01 1.01-.454c1.062-.475 1.537-1.716 1.062-2.776zm-13.418 3.698l-2.592-5.795 5.793-2.591 2.593 5.795-5.794 2.591z"/></svg>