<svg xmlns="http://www.w3.org/2000/svg" width="32" height="32" viewBox="0 0 32 32"><path d="M26.832 16.453a1.93 1.93 0 0 0-2.546-.974l-.927.416-2.377-5.312.928-.413c.972-.436 1.406-1.575.972-2.545a1.924 1.924 0 0 0-2.544-.972l-.926.415-.414-.928c-.436-.971-1.574-1.406-2.546-.971-.972.434-1.406 1.572-.972 2.543l.415.927-5.311 2.376-.414-.926a1.927 1.927 0 0 0-3.518 1.572l.415.926-.926.417a1.923 1.923 0 0 0-.972 2.542 1.924 1.924 0 0 0 2.544.973l.927-.415 2.374 5.311-.927.415a1.926 1.926 0 1 0 1.572 3.519l.927-.416.416.927c.435.972 1.573 1.406 2.545.972.971-.435 1.406-1.572.971-2.543l-.413-.928 5.311-2.375.414.925a1.925 1.925 0 1 0 3.517-1.569l-.414-.926.926-.417c.973-.437 1.408-1.573.973-2.546zm-12.3 3.389l-2.376-5.311 5.311-2.375 2.375 5.313-5.31 2.373z"/></svg>