<svg xmlns="http://www.w3.org/2000/svg" width="64" height="64" viewBox="0 0 64 64"><path d="M47.02 25.97l10.003-7.745-8-9.992C45.403 3.676 40.215.803 34.42.143 33.59.05 32.743 0 31.91 0c-4.953 0-9.633 1.64-13.532 4.745-4.563 3.634-7.435 8.82-8.086 14.602-.657 5.79.98 11.49 4.605 16.05l2.1 2.633-10.017 7.732 8.02 10.014c3.63 4.557 8.812 7.425 14.59 8.078.823.096 1.67.146 2.52.146 4.943 0 9.623-1.64 13.53-4.742 4.56-3.635 7.433-8.822 8.09-14.607.66-5.782-.977-11.478-4.606-16.04l-2.1-2.64zM22 9.3c2.86-2.277 6.276-3.48 9.885-3.48.62 0 1.254.036 1.88.107 4.244.482 8.046 2.588 10.708 5.934l4.245 5.308-5.33 4.242-4.157-5.225c-.206-.257-.437-.483-.67-.708l-.13-.124c-1.066-1.045-2.277-1.788-3.595-2.207-.57-.183-1.17-.31-1.784-.38-.126-.016-.253-.02-.378-.02l-.697-.002c-1.552 0-3 .355-4.3 1.052-.532.28-.995.58-1.416.914-1.847 1.468-3.043 3.578-3.368 5.923-.024.09-.044.18-.05.253-.286 2.448.403 4.862 1.942 6.796l9.89 12.42c.02.027.035.058.053.085l.096.152c.455.685.648 1.457.56 2.236-.1.884-.538 1.68-1.264 2.253-.05.028-.1.06-.14.09-.573.402-1.216.604-1.922.604h-.1-.164c-.038 0-.076 0-.12-.004-.888-.1-1.68-.54-2.23-1.233l-.432-.545-.453-.556-5.196-6.49-3.917-4.916c-2.64-3.315-3.84-7.457-3.386-11.673l.014-.106c.474-4.236 2.58-8.037 5.926-10.7zm-1.367 33.294l4.253 5.312c.295.37.62.68.955.99 1.453 1.355 3.244 2.19 5.17 2.405.118.017.36.024.645.024.452 0 1.287-.02 1.5-.05.37-.04 1.396-.265 1.642-.34.4-.126.772-.288 1.093-.435.168-.078 1.397-.746 1.887-1.134 1.92-1.53 3.125-3.71 3.395-6.133.243-2.114-.268-4.205-1.48-6.05-.042-.067-.08-.136-.122-.2-.104-.172-.207-.342-.334-.502l-9.89-12.417c-.568-.717-.823-1.61-.718-2.52.008-.07.028-.14.045-.207l.036-.15c.173-.79.57-1.437 1.18-1.922.62-.49 1.327-.74 2.102-.74.136 0 .272.007.41.022.223.025.446.073.66.14.642.206 1.202.592 1.618 1.12l7.176 9.022.68.846 2.04 2.56c2.66 3.344 3.858 7.52 3.376 11.757l-.02.196c-.526 4.168-2.62 7.896-5.91 10.52-2.86 2.273-6.286 3.477-9.907 3.477-.615 0-1.242-.035-1.86-.104-4.24-.482-8.04-2.59-10.705-5.932l-4.252-5.31 5.335-4.244z"/></svg>