<svg xmlns="http://www.w3.org/2000/svg" width="64" height="64" viewBox="0 0 64 64"><path d="M19.95 49.555c-3.593-.503-6.49-3.86-6.49-7.646V13.44c0-4.25 3.438-7.725 7.726-7.725h21.63c4.246 0 7.725 3.478 7.725 7.726v28.467c0 3.862-2.817 7.067-6.487 7.61L53.823 64H48.26l-6.682-9.85H22.382L15.702 64h-5.524l9.77-14.445m8.885-44.998c1.235 0 2.278-1.004 2.278-2.28C31.11 1.005 30.07 0 28.835 0c-1.274 0-2.278 1.004-2.278 2.277 0 1.24 1.004 2.28 2.277 2.28m8.612-2.28C37.445 1.004 36.44 0 35.167 0S32.89 1.004 32.89 2.277c0 1.236 1.003 2.28 2.277 2.28s2.278-1.04 2.278-2.28M21.533 45.77c1.97 0 3.592-1.584 3.592-3.554s-1.583-3.592-3.592-3.592c-1.97 0-3.592 1.583-3.592 3.592 0 1.97 1.623 3.554 3.593 3.554m24.53-3.554c0-1.97-1.624-3.592-3.595-3.592-1.97 0-3.553 1.583-3.553 3.592 0 1.97 1.583 3.554 3.553 3.554s3.594-1.584 3.594-3.554m-3.787-15.373c2.01 0 3.63-1.622 3.63-3.63v-5.947c0-2.01-1.62-3.632-3.63-3.632h-20.51c-2.01 0-3.63 1.623-3.63 3.632v5.986c0 2.008 1.62 3.63 3.63 3.63h20.508m-5.753-14.91c.502 0 .93-.385.93-.926v-3.09c0-.502-.428-.89-.93-.89h-9.04c-.502 0-.926.387-.926.89v3.09c0 .502.424.927.926.927h9.04"/></svg>