<svg xmlns="http://www.w3.org/2000/svg" width="64" height="64" viewBox="0 0 64 64"><path d="M20.127 58.007C12.715 58.007 5.81 55.83 0 52.102c1.026.12 2.067.19 3.134.19 6.15 0 11.81-2.103 16.3-5.62-5.745-.11-10.598-3.91-12.26-9.124.798.147 1.623.236 2.46.236 1.203 0 2.365-.162 3.473-.46C7.093 36.114 2.57 30.81 2.57 24.452v-.168c1.77.98 3.796 1.573 5.945 1.642-3.527-2.352-5.84-6.378-5.84-10.933 0-2.404.65-4.662 1.778-6.6 6.48 7.95 16.155 13.173 27.06 13.72-.216-.958-.337-1.963-.337-2.99 0-7.25 5.88-13.13 13.136-13.13 3.77 0 7.19 1.595 9.58 4.143 2.986-.588 5.812-1.683 8.338-3.183-.98 3.06-3.06 5.636-5.77 7.264 2.648-.316 5.184-1.02 7.54-2.066-1.77 2.637-3.99 4.947-6.554 6.8.027.56.043 1.13.043 1.694 0 17.35-13.214 37.364-37.364 37.364"/></svg>