<svg xmlns="http://www.w3.org/2000/svg" width="32" height="32" viewBox="0 0 32 32"><path d="M11.548 25.753c-2.78 0-5.369-.815-7.548-2.216a9.87 9.87 0 0 0 7.288-2.036 4.925 4.925 0 0 1-4.598-3.422c.3.058.609.089.924.089.45 0 .886-.06 1.303-.171a4.927 4.927 0 0 1-3.952-4.826v-.065a4.9 4.9 0 0 0 2.229.616 4.917 4.917 0 0 1-2.191-4.1c0-.899.245-1.747.667-2.474a13.98 13.98 0 0 0 10.148 5.144 4.926 4.926 0 0 1 8.391-4.49 9.952 9.952 0 0 0 3.128-1.193 4.946 4.946 0 0 1-2.165 2.724A9.89 9.89 0 0 0 28 8.558a10.126 10.126 0 0 1-2.457 2.549c.01.211.015.424.015.637 0 6.503-4.955 14.01-14.01 14.009"/></svg>