<svg xmlns="http://www.w3.org/2000/svg" width="32" height="32" viewBox="0 0 32 32"><path d="M22.396 21.104H21.2v-.707c0-.299.298-.597.596-.597h.103c.302 0 .603.298.603.597v.707h-.106zM17.795 19.6c-.298 0-.6.2-.6.498v3.405c0 .298.205.5.6.5.301 0 .602-.202.602-.5v-3.5c-.002-.203-.301-.403-.602-.403zm7.406-1.9v6.497c0 1.604-1.402 2.803-3.003 2.803H9.797c-1.6 0-2.998-1.3-2.998-2.803V17.7c0-1.599 1.301-2.802 2.998-2.802H22.1c1.699 0 3.101 1.204 3.101 2.802zm-14.502 7.204v-6.809H12.2v-.992H8.1v.992h1.299v6.899l1.3-.09zm4.501-5.8h-1.203v4.492c0 .204-.197.301-.397.301-.101 0-.302-.097-.302-.395v-4.506h-1.3V23.8c0 .298 0 .696.301.899.602.398 1.698-.096 1.901-.697v.795h1v-5.693zm4.098 4.098V20.2c0-1.203-.901-1.899-1.998-.902v-2.299h-1.302v7.799h1.001l.104-.495c1.4 1.295 2.195.397 2.195-1.101zm3.997-.402h-.99v.703c0 .298-.205.5-.509.5h-.198c-.302 0-.494-.202-.494-.5v-1.401h2.191v-2.396c-.193-1.104-1.697-1.309-2.492-.706-.203.202-.408.405-.5.706-.103.3-.207.691-.207 1.294v1.8c0 3.096 3.5 2.705 3.199 0zm-4.9-9.801c.107.203.201.3.303.399.104.104.301.104.501.104.204 0 .298-.104.504-.203.097-.097.3-.3.396-.498v.498H21.5V7.301h-1.104v4.698c0 .301-.192.502-.494.502-.301 0-.498-.201-.498-.502V7.4h-1.198v5.101c.093.197.093.3.189.498zm-4.297-3.397c0-.6 0-1 .103-1.401.097-.3.301-.599.499-.798a1.66 1.66 0 0 1 .999-.301c.3 0 .598.098.803.2.197.101.396.3.498.498.104.203.195.401.301.603 0 .199.102.5.102.998V11c0 .602 0 .999-.102 1.202 0 .299-.104.496-.301.698a1.237 1.237 0 0 1-.498.498 1.86 1.86 0 0 1-.803.201c-.298 0-.599 0-.8-.099-.199-.103-.397-.203-.5-.399a5.108 5.108 0 0 1-.299-.703c-.102-.299-.102-.7-.102-1.197l.1-1.599zm1.102 2.397c0 .301.301.603.601.603.301 0 .596-.302.596-.603V8.798c0-.301-.295-.599-.596-.599-.3 0-.601.298-.601.599v3.201zM11.3 13.6h1.3V9.001L14.2 5h-1.503L11.9 8.001 10.999 5H9.6l1.7 4.001V13.6z"/></svg>