<svg xmlns="http://www.w3.org/2000/svg" style="display: none;"> <symbol id="icon-ban" viewBox="0 0 64 64"><g> <path fill="" stroke="" d="M32 0C14.355 0 0 14.355 0 32s14.355 32 32 32 32-14.355 32-32S49.646 0 32 0zm0 8c5.175 0 9.969 1.652 13.893 4.449L12.449 45.894A23.861 23.861 0 0 1 8 32C8 18.766 18.767 8 32 8zm0 48c-5.176 0-9.97-1.652-13.895-4.449L51.55 18.106A23.853 23.853 0 0 1 56 32c0 13.233-10.767 24-24 24z"/> </g></symbol> <symbol id="icon-camera" viewBox="0 0 64 64"><g> <path fill="" stroke="" d="M32 23c-7.18 0-13 5.82-13 12.999C19 43.182 24.82 49 32 49s13-5.818 13-13.001C45 28.82 39.18 23 32 23zm0 20.55a7.499 7.499 0 0 1-7.5-7.5c0-4.142 3.356-7.5 7.5-7.5 4.143 0 7.5 3.357 7.5 7.5 0 4.139-3.357 7.5-7.5 7.5z"/> <path fill="" stroke="" d="M60 14H45.999L40 6H24l-6 8H4c-2.2 0-4 1.8-4 4v36c0 2.199 1.8 4 4 4h56c2.199 0 4-1.8 4-4V18c0-2.2-1.801-4-4-4zM32 53.75c-9.804 0-17.75-7.947-17.75-17.751 0-9.802 7.946-17.75 17.75-17.75 9.803 0 17.749 7.948 17.749 17.75 0 9.804-7.946 17.751-17.749 17.751zM60 23.5h-8v-4h8v4z"/> </g></symbol> <symbol id="icon-caret-bottom" viewBox="0 0 64 64"><g> <path fill="" stroke="" d="M64 15.997L32.008 48.003 0 15.997z"/> </g></symbol> <symbol id="icon-caret-left" viewBox="0 0 64 64"><g> <path fill="" stroke="" d="M48.003 64L15.997 32.008 48.003 0z"/> </g></symbol> <symbol id="icon-caret-right" viewBox="0 0 64 64"><g> <path fill="" stroke="" d="M15.997 0l32.006 31.992L15.997 64z"/> </g></symbol> <symbol id="icon-caret-top" viewBox="0 0 64 64"><g> <path fill="" stroke="" d="M0 48.003l31.992-32.006L64 48.003z"/> </g></symbol> <symbol id="icon-check-bold" viewBox="0 0 64 64"><g> <path fill="" stroke="" d="M24.529 56.174L64 16.705l-8.88-8.878-30.591 30.59L8.873 22.766 0 31.643z"/> </g></symbol> <symbol id="icon-check-thin" viewBox="0 0 64 64"><g> <path fill="" stroke="" d="M.009 28.819l3.218-3.218 21.302 21.296L60.77 10.659l3.222 3.221-39.463 39.461z"/> </g></symbol> <symbol id="icon-check" viewBox="0 0 64 64"><g> <path fill="" stroke="" d="M.008 30.254l6.047-6.046 18.46 18.453L57.939 9.238l6.053 6.049-39.477 39.475z"/> </g></symbol> <symbol id="icon-chevron-bottom-bold" viewBox="0 0 64 64"><g> <path fill="" stroke="" d="M32.008 33.53l22.324-22.32 9.639 9.64-31.963 31.959L.031 20.833l9.641-9.641z"/> </g></symbol> <symbol id="icon-chevron-bottom-thin" viewBox="0 0 64 64"><g> <path fill="" stroke="" d="M.021 18.003l3.984-3.983L32 42.016l27.997-27.994 3.982 3.981L32 49.98z"/> </g></symbol> <symbol id="icon-chevron-bottom" viewBox="0 0 64 64"><g> <path fill="" stroke="" d="M32.008 37.787l25.18-25.178 6.811 6.81-31.991 31.989L.001 19.402l6.813-6.81z"/> </g></symbol> <symbol id="icon-chevron-left-bold" viewBox="0 0 64 64"><g> <path fill="" stroke="" d="M30.471 32.007l22.32 22.325-9.641 9.639-31.958-31.964L43.168.03l9.641 9.641z"/> </g></symbol> <symbol id="icon-chevron-left-thin" viewBox="0 0 64 64"><g> <path fill="" stroke="" d="M45.997.021l3.983 3.984L21.984 32l27.995 27.998-3.982 3.981L14.02 32z"/> </g></symbol> <symbol id="icon-chevron-left" viewBox="0 0 64 64"><g> <path fill="" stroke="" d="M26.213 32.008l25.178 25.18-6.81 6.811-31.989-31.991L44.598.001l6.81 6.813z"/> </g></symbol> <symbol id="icon-chevron-right-bold" viewBox="0 0 64 64"><g> <path fill="" stroke="" d="M33.529 31.994L11.209 9.669 20.85.03l31.959 31.964-31.976 31.977-9.641-9.641z"/> </g></symbol> <symbol id="icon-chevron-right-thin" viewBox="0 0 64 64"><g> <path fill="" stroke="" d="M18.003 63.979l-3.983-3.985L42.017 32 14.022 4.001l3.981-3.98L49.98 32z"/> </g></symbol> <symbol id="icon-chevron-right" viewBox="0 0 64 64"><g> <path fill="" stroke="" d="M37.787 31.992L12.609 6.812l6.81-6.811 31.989 31.991-32.006 32.007-6.81-6.813z"/> </g></symbol> <symbol id="icon-chevron-top-bold" viewBox="0 0 64 64"><g> <path fill="" stroke="" d="M31.993 30.47L9.669 52.79.031 43.151l31.962-31.959 31.978 31.975-9.642 9.641z"/> </g></symbol> <symbol id="icon-chevron-top-thin" viewBox="0 0 64 64"><g> <path fill="" stroke="" d="M63.979 45.997l-3.985 3.983L32 21.985 4.002 49.979.021 45.997 32 14.02z"/> </g></symbol> <symbol id="icon-chevron-top" viewBox="0 0 64 64"><g> <path fill="" stroke="" d="M31.992 26.213L6.811 51.391l-6.81-6.81 31.991-31.989 32.007 32.005-6.813 6.811z"/> </g></symbol> <symbol id="icon-clock" viewBox="0 0 64 64"><g> <path fill="" stroke="" d="M31.66-.283c-17.645 0-32 14.355-32 32s14.355 32 32 32 32-14.355 32-32c-.001-17.645-14.355-32-32-32zm0 56c-13.234 0-24-10.767-24-24 0-13.234 10.766-24 24-24 13.233 0 24 10.766 24 24-.001 13.233-10.767 24-24 24z"/> <path fill="" stroke="" d="M28.66 28.717h-8.573v6l14.573-.006V13.5h-6z"/> </g></symbol> <symbol id="icon-cross-bold" viewBox="0 0 64 64"><g> <path fill="" stroke="" d="M64 9.639L54.371.001 32.014 22.353 9.661 0 .021 9.639 22.387 32 .026 54.361 9.658 64l22.356-22.354L54.369 64 64 54.361 41.641 32z"/> </g></symbol> <symbol id="icon-cross-thin" viewBox="0 0 64 64"><g> <path fill="" stroke="" d="M.007 60.02L28.044 32 .035 3.996 4.018.013 32.014 28.01 60.021.006l3.976 3.979L35.984 32l28.007 28.009-3.975 3.979L32.014 35.99 3.984 64z"/> </g></symbol> <symbol id="icon-cross" viewBox="0 0 64 64"><g> <path fill="" stroke="" d="M.032 57.184L25.216 32 .068 6.857 6.88.047l25.134 25.135L57.225-.024l6.801 6.808L38.812 32l25.17 25.174-6.803 6.808-25.165-25.164L6.837 63.993z"/> </g></symbol> <symbol id="icon-css3" viewBox="0 0 64 64"><g> <path fill="" stroke="" d="M9.521 3.04L7.385 13.792h43.728l-1.375 6.914H5.973l-2.1 10.751h43.731l-2.463 12.272-17.593 5.828-15.276-5.828 1.05-5.322H2.57L0 51.294l25.268 9.666 29.103-9.666L64 3.04z"/> </g></symbol> <symbol id="icon-dribbble" viewBox="0 0 64 64"><g> <path fill="" stroke="" d="M32.002 64c-17.645 0-32-14.354-32-32 0-17.645 14.355-32 32-32 17.646 0 32 14.355 32 32 0 17.646-14.355 32-32 32zM16.405 52.841a25.75 25.75 0 0 0 15.597 5.208c3.127 0 6.195-.558 9.127-1.659-1.284-6.855-3.035-13.383-5.209-19.416-11.43 3.712-17.323 12.032-19.515 15.867zm25.361-17.257c1.968 5.597 3.603 11.629 4.864 17.95 5.987-4.075 9.999-10.402 11.104-17.523-3.304-.599-6.518-.902-9.557-.902a42.27 42.27 0 0 0-6.411.475zM5.953 31.999a25.99 25.99 0 0 0 6.078 16.695c3.186-4.976 9.97-13.204 21.74-17.208a99.602 99.602 0 0 0-1.689-3.742c-10.136 2.914-20.509 3.637-26.122 3.801-.004.161-.007.307-.007.454zm42.413-2.832c3.084 0 6.314.28 9.608.832a25.813 25.813 0 0 0-5.309-13.833c-3.431 3.911-8.424 7.155-14.859 9.652a107.133 107.133 0 0 1 1.812 4.138 47.738 47.738 0 0 1 8.748-.789zM19.654 9.078C13.227 12.55 8.571 18.506 6.771 25.542c4.987-.211 13.889-.912 22.509-3.206-3.93-6.982-7.608-11.212-9.626-13.258zm6-2.335c2.466 2.756 5.935 7.229 9.474 13.74 5.986-2.231 10.479-5.127 13.373-8.617a26.03 26.03 0 0 0-16.499-5.915 25.958 25.958 0 0 0-6.348.792z"/> </g></symbol> <symbol id="icon-dropbox" viewBox="0 0 64 64"><g> <path fill="" stroke="" d="M18.847 47.615L32 36.656 13 24.923.001 35.347zM32 36.653l13.191 10.962 18.81-12.268-13-10.424z"/> <path fill="" stroke="" d="M32.078 39.041v-.08l-.038.04-.04-.04v.08L18.847 49.963l-5.655-3.693v4.152L32 61.692v.039l.04-.039.038.039v-.039l18.846-11.27V46.27l-5.655 3.693zM.001 14.538L13 24.923 32 13.23 18.847 2.269zM45.191 2.269L32 13.23l19.001 11.693 13-10.385z"/> </g></symbol> <symbol id="icon-externalLink" viewBox="0 0 64 64"><g> <path fill="" stroke="" d="M56 56H8V8h15.334V0H0v64h64V38.5h-8z"/> <path fill="" stroke="" d="M38.334 0l9.651 9.651-21.856 21.856 6.364 6.363 21.856-21.855L64 25.667V0z"/> </g></symbol> <symbol id="icon-facebook" viewBox="0 0 64 64"><g> <path fill="" stroke="" d="M49.311.013L39.691 0C30.367 0 24.34 6.182 24.34 15.75v7.262h-9.65v13.132h9.65l-.012 27.855H37.83l.007-27.855h11.079l-.016-13.13H37.839v-6.157c0-2.96.703-4.46 4.558-4.46l6.882-.002.032-12.382z"/> </g></symbol> <symbol id="icon-file" viewBox="0 0 64 64"><g> <path fill="" stroke="" d="M29.858 0H8v64h48V26.089H29.858z"/> <path fill="" stroke="" d="M38.888 0h-.03v17.089H56v-.006z"/> </g></symbol> <symbol id="icon-github" viewBox="0 0 64 64"><g> <path fill="" stroke="" d="M56.956 20.895c0-4.618-1.761-8.333-4.61-11.143.5-1.592 1.157-5.128-.67-9.66 0 0-3.24-1.014-10.555 3.822-2.863-.72-5.92-1.064-8.966-1.064-3.353 0-6.753.42-9.918 1.282C14.684-.953 11.356.086 11.356.086c-2.173 5.37-.833 9.35-.42 10.338-2.57 2.72-4.113 6.206-4.113 10.456 0 3.23.37 6.106 1.28 8.623l.943 2.13c2.558 4.692 7.582 7.729 16.515 8.68-1.263.843-2.576 2.266-3.087 4.688-1.73.816-7.2 2.812-10.48-2.75 0 0-1.843-3.337-5.36-3.588 0 0-3.416-.047-.232 2.095 0 0 2.275 1.07 3.86 5.056 0 0 2.05 6.817 11.968 4.636v7.034s-.22 2.49-2.524 3.322c0 0-1.364.913.1 1.448 0 0 6.414.508 6.414-4.664V49.9s-.26-3.045 1.248-4.088v12.604s-.095 3-1.676 4.13c0 0-1.053 1.88 1.26 1.363 0 0 4.41-.617 4.604-5.722l.103-12.752h1.06l.101 12.752c.216 5.088 4.623 5.72 4.623 5.72 2.306.518 1.246-1.36 1.246-1.36-1.575-1.13-1.681-4.132-1.681-4.132V45.913c1.509 1.172 1.263 3.985 1.263 3.985v7.688c0 5.172 6.399 4.664 6.399 4.664 1.469-.54.108-1.45.108-1.45-2.312-.83-2.522-3.319-2.522-3.319V47.413c0-3.918-1.674-5.985-3.308-7.087 9.533-.924 14.095-3.98 16.21-8.698-.042.082.756-2.11.756-2.11.725-2.503.945-5.4.945-8.623h-.003z"/> </g></symbol> <symbol id="icon-googlePlus" viewBox="0 0 64 64"><g> <path fill="" stroke="" d="M56.266 28.06v-7.69H50.14v7.69h-7.733v6.127h7.733v7.69h6.126v-7.69H64V28.06zM38.372 29.485H19.574v6.82H32.02c-.999 6.574-6.837 8.924-11.639 8.924-7.322 0-13.058-5.791-13.058-13.183 0-7.443 5.743-13.273 13.075-13.273 5.478 0 8.847 3.505 8.88 3.541l.566.604 4.761-4.927-.494-.546c-.205-.225-5.108-5.507-13.9-5.507C9.256 11.938 0 21.103 0 31.951c0 9.672 7.833 20.111 20.49 20.111 10.989 0 18.665-7.531 18.665-18.312 0-1.091-.139-3.62-.552-4.036l-.231-.229z"/> </g></symbol> <symbol id="icon-hamburger-thin" viewBox="0 0 64 64"><g> <path fill="" stroke="" d="M.004 8h63.998v5.627H.004zM.004 29.187h63.998v5.626H.004zM.004 50.373h63.998V56H.004z"/> </g></symbol> <symbol id="icon-hamburger" viewBox="0 0 64 64"><g> <path fill="" stroke="" d="M.003 6.191L0 15.818l63.996-.013L64 6.182zM.003 48.192L0 57.819l63.996-.015.004-9.623zM.003 27.175L0 36.803l63.996-.016.004-9.622z"/> </g></symbol> <symbol id="icon-heart" viewBox="0 0 64 64"><g> <path fill="" stroke="" d="M63.988 20.07c-.185-6.42-3.152-11.695-7.352-14.926-5.399-4.15-12.841-4.92-19.031-.382-2.043 1.5-3.953 3.577-5.605 6.304-1.654-2.728-3.562-4.805-5.606-6.304C20.204.224 12.763.993 7.363 5.144 3.163 8.374.196 13.65.011 20.07c-.099 3.41.421 7.219 2.291 11.061 2.941 6.044 16.743 19.48 29.586 31.081.036.034.069.072.105.106l.007-.006.006.006c.036-.034.069-.072.105-.106 12.843-11.601 26.645-25.037 29.586-31.081 1.87-3.842 2.39-7.651 2.291-11.061z"/> </g></symbol> <symbol id="icon-home" viewBox="0 0 64 64"><g> <path fill="" stroke="" d="M64 37.933l-32-24.84-32 24.84V27.811L32 2.967l32 24.84v10.126zm-8-.903v24.003H40V45.034H24v15.999H8v-24l24-18 24 18v-.003z"/> </g></symbol> <symbol id="icon-html5" viewBox="0 0 64 64"><g> <path fill="" stroke="" d="M3.84 0l5.119 57.521L31.919 64l23.121-6.479L60.16 0H3.84zm45.2 18.76H22.08l.6 7.24h25.76l-2 21.759-14.36 3.961v.039h-.161l-14.48-4-.88-11.119h7l.52 5.601 7.84 2.119 7.88-2.119.88-9.12h-24.48l-1.88-21.36h35.36l-.639 6.999z"/> </g></symbol> <symbol id="icon-instagram" viewBox="0 0 64 64"><g> <path fill="" stroke="" d="M56.614 27.071h-5.572c.406 1.578.652 3.229.652 4.929 0 10.873-8.828 19.691-19.695 19.691-10.874 0-19.695-8.818-19.695-19.691 0-1.699.235-3.35.652-4.929H7.382v27.086a2.458 2.458 0 0 0 2.458 2.457h44.315c1.355 0 2.457-1.1 2.457-2.456V27.072l.002-.001zm0-17.228a2.46 2.46 0 0 0-2.458-2.458h-7.394a2.46 2.46 0 0 0-2.459 2.458v7.385a2.464 2.464 0 0 0 2.46 2.463h7.391a2.465 2.465 0 0 0 2.458-2.463V9.843h.002zM32 19.694c-6.802 0-12.314 5.506-12.314 12.306 0 6.792 5.514 12.306 12.314 12.306S44.306 38.792 44.306 32c0-6.8-5.506-12.306-12.306-12.306M56.614 64H7.385A7.386 7.386 0 0 1 0 56.614V7.385A7.386 7.386 0 0 1 7.385 0h49.229A7.383 7.383 0 0 1 64 7.385v49.229A7.383 7.383 0 0 1 56.614 64"/> </g></symbol> <symbol id="icon-location" viewBox="0 0 64 64"><g> <path fill="" stroke="" d="M63.992.009L63.994 0l-.011.014L0 27.349l32.324 4.329L36.651 64 63.987.019 64 .005z"/> </g></symbol> <symbol id="icon-mail" viewBox="0 0 64 64"><g> <path fill="" stroke="" d="M0 55.924V8.076l64-.001v47.849H0zm8.758-5.278H55.24l-14.872-14.88L32 44.156l-8.371-8.389L8.758 50.646zm-3.536-3.708l14.771-14.807L5.222 17.394v29.544zM44.004 32.13l14.775 14.806.003-29.545L44.004 32.13zm-12.001 4.62l23.335-23.352-46.678-.002L32.003 36.75z"/> </g></symbol> <symbol id="icon-mobile" viewBox="0 0 64 64"><g> <path fill="" stroke="" d="M45.464 0H18.536a4.657 4.657 0 0 0-4.657 4.662v54.682A4.655 4.655 0 0 0 18.536 64h26.928a4.658 4.658 0 0 0 4.657-4.656V4.662A4.66 4.66 0 0 0 45.464 0zM32.002 59.398a2.974 2.974 0 0 1 0-5.948 2.974 2.974 0 0 1 0 5.948zm14.63-10.188H17.37V7.866h29.262V49.21zM36.896 5.212h-9.605V2.975h9.605v2.237z"/> </g></symbol> <symbol id="icon-phone" viewBox="0 0 64 64"><g> <path fill="#010002" stroke="" d="M19.629 2.25S18.672 0 17.213 0c-1.458 0-2.208.667-2.708 1.125-.5.459-8.874 7.333-8.874 7.333s-2.417 2.126-2.249 6.125c.167 4 .958 9.708 5 17.625 4.043 7.917 14.126 20 20.5 24.248 0 0 5.916 4.545 11.418 6.376 1.593.532 4.792 1.168 5.54 1.168.751 0 2.083 0 3.625-1.124 1.542-1.126 10.291-8.169 10.291-8.169s2.166-1.915-.333-4.163c-2.501-2.251-10.083-7.253-11.708-8.588-1.626-1.33-3.957-.749-4.957.168s-2.764 2.397-3.001 2.584c-.318.25-1.206 1.059-2.207.666-1.275-.501-6.501-3.333-11.334-9.958-4.833-6.624-5.354-8.791-6.083-11.124-.208-.668-.042-1.417.668-1.918.708-.5 3.374-2.709 3.374-2.709s1.709-1.708 1-3.708C24.463 13.96 19.629 2.25 19.629 2.25z"/> </g></symbol> <symbol id="icon-pin" viewBox="0 0 64 64"><g> <path fill="" stroke="" d="M32.002 0C19.738 0 9.564 9.945 9.794 22.207c.086 4.589 2.091 8.216 3.93 11.71.704 1.336 18.223 30.054 18.223 30.054V64l.005-.018.006.018v-.027l18.998-30.188c1.185-2.042 2.308-5.152 2.308-5.152.616-2.035.945-4.191.945-6.423C54.208 9.943 44.268 0 32.002 0zm-.001 32.058c-6.261 0-11.336-5.076-11.336-11.339s5.075-11.34 11.336-11.34 11.341 5.077 11.341 11.34c.001 6.261-5.079 11.339-11.341 11.339z"/> </g></symbol> <symbol id="icon-pinterest" viewBox="0 0 64 64"><g> <path fill="" stroke="" d="M32.852 0C16.102 0 7.214 11.246 7.214 23.495c0 5.687 3.024 12.775 7.874 15.032.738.345 1.127.191 1.29-.521.138-.536.793-3.171 1.086-4.397.088-.394.05-.73-.275-1.121-1.6-1.938-2.878-5.519-2.878-8.85 0-8.561 6.48-16.836 17.519-16.836 9.54 0 16.212 6.487 16.212 15.787 0 10.501-5.301 17.771-12.201 17.771-3.805 0-6.66-3.145-5.75-7.02 1.101-4.613 3.22-9.595 3.22-12.915 0-2.985-1.605-5.474-4.903-5.474-3.901 0-7.025 4.028-7.025 9.429 0 3.438 1.163 5.755 1.163 5.755s-3.85 16.271-4.55 19.3c-1.2 5.135.149 13.455.274 14.187.062.388.5.521.736.193.375-.507 5.021-7.457 6.325-12.486l2.411-9.224c1.276 2.412 4.963 4.454 8.9 4.454 11.697 0 20.145-10.771 20.145-24.143C56.785 9.6 46.312 0 32.854 0h-.002z"/> </g></symbol> <symbol id="icon-search-minus" viewBox="0 0 64 64"><g> <path fill="" stroke="" d="M47.57 40.5A25.846 25.846 0 0 0 52 26C52 11.664 40.337 0 26 0 11.664 0 0 11.664 0 26s11.664 26 26 26a25.845 25.845 0 0 0 14.499-4.43L56.928 64 64 56.93 47.57 40.5zM26 44c-9.925 0-18-8.074-18-18 0-9.925 8.075-18 18-18s18 8.075 18 18c0 9.926-8.075 18-18 18z"/> <path fill="" stroke="" d="M15.069 22.869h21.856v6H15.069z"/> </g></symbol> <symbol id="icon-search-plus" viewBox="0 0 64 64"><g> <path fill="" stroke="" d="M64 56.93L47.57 40.5A25.846 25.846 0 0 0 52 26C52 11.664 40.337 0 26 0 11.664 0 0 11.664 0 26s11.664 26 26 26a25.845 25.845 0 0 0 14.499-4.43L56.928 64 64 56.93zM26 44c-9.925 0-18-8.074-18-18 0-9.925 8.075-18 18-18s18 8.075 18 18c0 9.926-8.075 18-18 18z"/> <path fill="" stroke="" d="M36.926 23.005h-7.928v-7.928h-6v7.928h-7.929v6h7.929v7.929h6v-7.929h7.928z"/> </g></symbol> <symbol id="icon-search" viewBox="0 0 64 64"><g> <path fill="" stroke="" d="M64 56.93L47.57 40.5A25.846 25.846 0 0 0 52 26C52 11.664 40.337 0 26 0 11.664 0 0 11.664 0 26s11.664 26 26 26a25.852 25.852 0 0 0 14.499-4.429L56.928 64 64 56.93zM26 44c-9.925 0-18-8.074-18-18 0-9.925 8.075-18 18-18s18 8.075 18 18c0 9.926-8.075 18-18 18z"/> </g></symbol> <symbol id="icon-skype" viewBox="0 0 64 64"><g> <path fill="" stroke="" d="M60.667 38.25c.443-2.14.667-4.224.667-6.25a28.82 28.82 0 0 0-2.313-11.396c-1.542-3.625-3.624-6.75-6.249-9.375-2.624-2.625-5.749-4.708-9.375-6.25A28.834 28.834 0 0 0 32 2.667c-2.027 0-4.111.222-6.25.667C22.861 1.111 19.611 0 16 0 11.583 0 7.813 1.561 4.688 4.686 1.562 7.811 0 11.583 0 15.999c0 3.611 1.111 6.86 3.333 9.75a30.713 30.713 0 0 0-.666 6.25c0 3.972.77 7.771 2.312 11.396 1.542 3.623 3.625 6.748 6.25 9.375 2.625 2.623 5.75 4.707 9.375 6.248A28.815 28.815 0 0 0 32 61.33c2.029 0 4.111-.223 6.251-.665C41.139 62.887 44.389 64 48 64c4.416 0 8.188-1.562 11.312-4.688S64 52.416 64 47.999c-.003-3.611-1.112-6.858-3.333-9.749zm-13.166 6.187c-.917 1.626-2.148 2.925-3.689 3.896-1.54.971-3.242 1.714-5.104 2.229-1.86.513-3.805.77-5.834.77-4.694 0-8.735-.911-12.124-2.729-3.389-1.821-5.083-4.007-5.083-6.562 0-1.25.354-2.292 1.062-3.125.708-.833 1.757-1.25 3.146-1.25.807 0 1.555.223 2.25.666a9.917 9.917 0 0 1 1.916 1.606 35.87 35.87 0 0 0 1.896 1.875c.68.625 1.584 1.157 2.708 1.602 1.125.446 2.396.669 3.813.669 1.805 0 3.262-.354 4.375-1.062 1.111-.71 1.665-1.605 1.665-2.688 0-1.111-.441-1.946-1.33-2.5-.61-.391-2.168-.892-4.668-1.502l-6.083-1.501c-1.667-.389-3.098-.84-4.293-1.353a14.054 14.054 0 0 1-3.333-2.021 7.885 7.885 0 0 1-2.334-3.146c-.527-1.264-.791-2.743-.791-4.438 0-2.029.465-3.811 1.395-5.354a10.087 10.087 0 0 1 3.709-3.625 19.143 19.143 0 0 1 4.979-1.958 23.255 23.255 0 0 1 5.5-.646c2.667 0 5.195.32 7.583.958 2.388.639 4.36 1.576 5.915 2.812 1.555 1.237 2.334 2.619 2.334 4.145 0 1.25-.395 2.319-1.189 3.208-.788.891-1.836 1.337-3.142 1.337-.723 0-1.39-.167-2-.5a7.938 7.938 0 0 1-1.667-1.208 31.286 31.286 0 0 0-1.585-1.395c-.554-.458-1.306-.854-2.248-1.188-.946-.334-2.015-.5-3.208-.5-4 0-6 1.069-6 3.208 0 .473.105.889.312 1.25.209.361.439.653.688.875.25.223.666.444 1.25.667.583.223 1.07.382 1.459.479.389.098 1 .244 1.833.438l4.332 1c1.362.306 2.576.625 3.646.958 1.07.334 2.216.806 3.438 1.418 1.222.611 2.236 1.291 3.041 2.041.808.751 1.48 1.703 2.021 2.855.544 1.154.812 2.423.812 3.813.001 2.026-.458 3.852-1.373 5.476z"/> </g></symbol> <symbol id="icon-slack" viewBox="0 0 64 64"><g> <path fill="" stroke="" d="M63.51 33.317a5.607 5.607 0 0 0-7.404-2.831l-2.695 1.208-6.913-15.45 2.697-1.205a5.605 5.605 0 0 0 2.826-7.404 5.599 5.599 0 0 0-7.402-2.828l-2.695 1.207-1.206-2.699A5.603 5.603 0 0 0 33.315.49a5.602 5.602 0 0 0-2.828 7.402l1.207 2.698-15.451 6.911-1.205-2.697a5.605 5.605 0 0 0-7.403-2.831 5.606 5.606 0 0 0-2.829 7.404l1.207 2.693-2.695 1.211a5.6 5.6 0 0 0-2.827 7.4 5.604 5.604 0 0 0 7.403 2.828l2.697-1.208 6.907 15.452L14.8 48.96a5.604 5.604 0 0 0 4.575 10.233l2.696-1.207 1.207 2.697c1.264 2.826 4.578 4.09 7.404 2.826a5.6 5.6 0 0 0 2.825-7.399l-1.203-2.699 15.451-6.908 1.205 2.688a5.598 5.598 0 0 0 7.402 2.835 5.601 5.601 0 0 0 2.828-7.404l-1.206-2.692 2.693-1.211a5.6 5.6 0 0 0 2.833-7.402zM27.729 43.18l-6.912-15.454 15.451-6.907L43.18 36.27l-15.451 6.91z"/> </g></symbol> <symbol id="icon-star" viewBox="0 0 64 64"><g> <path fill="" stroke="" d="M32 1.134l7.555 23.25H64L44.225 38.75 51.777 62 32 47.63 12.223 62l7.554-23.25L0 24.384h24.447L32 1.134z"/> </g></symbol> <symbol id="icon-sumally" viewBox="0 0 64 64"><g> <path fill="" stroke="" d="M47.021 25.97l10.002-7.745-8-9.992C45.402 3.676 40.215.803 34.421.144A22.04 22.04 0 0 0 31.908 0c-4.953 0-9.633 1.641-13.532 4.745-4.563 3.634-7.435 8.819-8.086 14.602a21.688 21.688 0 0 0 4.605 16.049l2.099 2.634-10.016 7.732 8.02 10.014c3.63 4.557 8.812 7.425 14.59 8.078.823.096 1.671.146 2.519.146 4.944 0 9.624-1.641 13.53-4.742 4.561-3.635 7.434-8.822 8.09-14.607.662-5.783-.976-11.479-4.605-16.042l-2.101-2.639zM22 9.301c2.859-2.278 6.276-3.482 9.885-3.482.621 0 1.254.037 1.879.108a15.882 15.882 0 0 1 10.709 5.934l4.245 5.307-5.329 4.242-4.158-5.225a7.64 7.64 0 0 0-.672-.708l-.129-.124c-1.066-1.045-2.277-1.788-3.595-2.207a9.273 9.273 0 0 0-1.784-.381 3.23 3.23 0 0 0-.379-.02l-.697-.001c-1.552 0-3 .355-4.301 1.052-.531.28-.994.579-1.415.914a9.142 9.142 0 0 0-3.367 5.923 1.619 1.619 0 0 0-.051.253 9.143 9.143 0 0 0 1.943 6.796l9.89 12.421c.021.026.035.057.053.084l.096.152a3.31 3.31 0 0 1-.704 4.49c-.05.029-.099.062-.14.091a3.27 3.27 0 0 1-1.921.604h-.101-.163c-.038 0-.076 0-.12-.004a3.301 3.301 0 0 1-2.231-1.233l-.431-.545-.453-.556-5.195-6.49-3.917-4.916a15.889 15.889 0 0 1-3.386-11.673l.013-.106A15.835 15.835 0 0 1 22 9.301zm-1.367 33.293l4.253 5.312c.295.37.62.681.955.991 1.452 1.354 3.243 2.188 5.169 2.404.118.016.359.023.645.023.452 0 1.287-.02 1.5-.049.369-.041 1.396-.266 1.642-.342a9.357 9.357 0 0 0 1.093-.434c.168-.077 1.397-.745 1.887-1.133a9.083 9.083 0 0 0 3.395-6.133c.243-2.114-.268-4.205-1.479-6.051-.043-.066-.082-.135-.123-.199a4.703 4.703 0 0 0-.334-.502l-9.89-12.418a3.398 3.398 0 0 1-.718-2.519c.008-.072.028-.14.045-.208l.036-.149c.174-.791.571-1.438 1.182-1.923a3.311 3.311 0 0 1 2.101-.741 3.432 3.432 0 0 1 1.069.164 3.35 3.35 0 0 1 1.619 1.118l7.176 9.023.681.846 2.038 2.56a15.882 15.882 0 0 1 3.377 11.757l-.021.195a15.916 15.916 0 0 1-5.908 10.519c-2.861 2.274-6.287 3.478-9.908 3.478-.615 0-1.242-.035-1.86-.104a15.895 15.895 0 0 1-10.705-5.931l-4.252-5.311 5.335-4.243z"/> </g></symbol> <symbol id="icon-twitter" viewBox="0 0 64 64"><g> <path fill="" stroke="" d="M20.127 58.007A37.152 37.152 0 0 1 0 52.102a26.348 26.348 0 0 0 19.434-5.43c-5.745-.109-10.598-3.91-12.26-9.124.798.147 1.623.236 2.46.236 1.203 0 2.365-.162 3.473-.46C7.093 36.114 2.57 30.81 2.57 24.452v-.168c1.77.98 3.796 1.573 5.945 1.642a13.118 13.118 0 0 1-5.84-10.933c0-2.404.65-4.662 1.778-6.6 6.48 7.95 16.155 13.173 27.06 13.72a13.612 13.612 0 0 1-.337-2.99c0-7.25 5.881-13.13 13.137-13.13a13.12 13.12 0 0 1 9.58 4.143 26.329 26.329 0 0 0 8.338-3.183 13.199 13.199 0 0 1-5.771 7.264A26.224 26.224 0 0 0 64 12.151a26.835 26.835 0 0 1-6.555 6.798c.027.562.043 1.13.043 1.695 0 17.35-13.213 37.364-37.361 37.363"/> </g></symbol></svg>