<svg xmlns="http://www.w3.org/2000/svg" style="display: none;"> <symbol id="fi-arrow-bottom" viewBox="0 0 64 64"><g> <path d="M48.27 16.853L32 33.12 15.732 16.853l-7.014 7.014L32 47.148l23.28-23.282"/> </g></symbol> <symbol id="fi-arrow-left" viewBox="0 0 64 64"><g> <path d="M47.15 15.73l-7.015-7.01L16.85 32l23.285 23.28 7.015-7.01L30.88 32"/> </g></symbol> <symbol id="fi-arrow-right" viewBox="0 0 64 64"><g> <path d="M23.866 8.72l-7.017 7.01L33.12 32 16.85 48.27l7.017 7.01L47.147 32"/> </g></symbol> <symbol id="fi-arrow-top" viewBox="0 0 64 64"><g> <path d="M32 16.852L8.717 40.135l7.014 7.013L32 30.88l16.27 16.268 7.01-7.013"/> </g></symbol> <symbol id="fi-baby" viewBox="0 0 64 64"><g> <path d="M31.996 17.856c4.933 0 8.93-4 8.93-8.93s-4-8.928-8.93-8.928-8.93 3.997-8.93 8.928c0 4.928 4 8.93 8.928 8.93m9.677 19.166v-6.85l7.69 7.686c1.204 1.197 3.147 1.197 4.347 0 1.2-1.2 1.2-3.147 0-4.348-.982-1.242-11.92-12.066-12.44-12.587-.78-.78-2.06-1.207-3.32-1.207H26.06c-1.266 0-2.545.425-3.326 1.206-.52.52-11.457 11.346-12.44 12.587-1.196 1.2-1.196 3.143 0 4.344 1.2 1.2 3.147 1.197 4.345 0l7.685-7.688v6.85H41.67M27.928 49.452L20.572 42.1s-3.354 3.355-4.21 4.205c-.85.855-1.78 2.824-1.78 3.715 0 .967.336 2.563 1.266 3.49 1.04 1.038 8.54 8.543 9.573 9.58 1.22 1.213 3.19 1.213 4.41 0 1.215-1.22 1.215-3.19 0-4.41-.924-.92-5.564-5.56-5.564-5.56m15.36 0l-5.564 5.56c-1.214 1.218-1.214 3.19 0 4.41 1.218 1.21 3.19 1.21 4.407 0 1.03-1.04 8.53-8.544 9.57-9.58.93-.928 1.266-2.524 1.266-3.49 0-.89-.932-2.858-1.78-3.714-.855-.85-4.212-4.205-4.212-4.205l-7.354 7.356"/> </g></symbol> <symbol id="fi-blivesta" viewBox="0 0 64 64"><g> <path d="M35.094 0l-15.97 15.965 15.97 15.963-16.037 16.037L35.094 64H64V0H35.094zm14.5 54.812l-8.07-8.062 8.07-8.066 8.062 8.066-8.062 8.062zm0-29.777l-8.07-8.062 8.07-8.064 8.062 8.06-8.062 8.06z"/> </g></symbol> <symbol id="fi-bus" viewBox="0 0 64 64"><g> <path d="M58.58 30.9s-1.296-12.8-1.83-17.887c-.6-5.664-1.904-7.316-5.885-9.195C45.145 1.12 38.742 0 32 0S18.853 1.12 13.133 3.82c-3.98 1.878-5.287 3.53-5.884 9.194C6.713 18.102 5.42 30.9 5.42 30.9v25.27h4.713s-.056 3.174-.056 4.262c0 1.97 1.597 3.568 3.564 3.568 1.975 0 3.57-1.602 3.57-3.568V56.17h29.583v4.262c0 1.97 1.598 3.566 3.564 3.566 1.97 0 3.564-1.6 3.564-3.568 0-1.09-.054-4.262-.054-4.262h4.713v-25.27.002zM21.036 4.8H43.11c.896 0 1.62.726 1.62 1.62 0 .893-.725 1.618-1.62 1.618H21.036c-.896 0-1.618-.726-1.618-1.618 0-.896.72-1.62 1.616-1.62zM13.65 48.56c-2.37 0-4.3-1.928-4.3-4.3 0-2.377 1.93-4.3 4.3-4.3 2.377 0 4.302 1.923 4.302 4.298 0 2.372-1.924 4.3-4.302 4.3h.004-.003zm36.707 0c-2.373 0-4.297-1.928-4.297-4.3 0-2.377 1.924-4.3 4.297-4.3 2.377 0 4.3 1.923 4.3 4.298 0 2.372-1.923 4.3-4.3 4.3zm1.29-17.465H12.57c-1.458 0-2.522-1.173-2.422-2.6.417-5.687.75-8.894 1.444-14.6.147-1.216 1.2-2.09 2.775-2.09h35.32c1.57 0 2.616.972 2.772 2.187.762 6.007 1.028 8.65 1.456 14.467.123 1.644-1.002 2.633-2.276 2.633h.004v.002z"/> </g></symbol> <symbol id="fi-camera" viewBox="0 0 64 64"><g> <path d="M32 23c-7.18 0-13 5.82-13 13s5.82 13 13 13 13-5.82 13-13-5.82-13-13-13zm0 20.55c-4.142 0-7.5-3.357-7.5-7.5s3.357-7.5 7.5-7.5 7.5 3.357 7.5 7.5c0 4.14-3.357 7.5-7.5 7.5z"/> <path d="M60 14H46l-6-8H24l-6 8H4c-2.2 0-4 1.8-4 4v36c0 2.2 1.8 4 4 4h56c2.2 0 4-1.8 4-4V18c0-2.2-1.8-4-4-4zM32 53.75c-9.803 0-17.75-7.947-17.75-17.75S22.197 18.25 32 18.25 49.75 26.197 49.75 36 41.803 53.75 32 53.75zM60 23.5h-8v-4h8v4z"/> </g></symbol> <symbol id="fi-car" viewBox="0 0 64 64"><g> <path d="M15.2 47.73v5.082c0 2.79-2.253 5.047-5.03 5.047-2.773 0-5.04-2.26-5.04-5.052l.01-5.082H0v-16.51c0-3.592 2.44-6.627 5.754-7.525L11.66 9.67c.838-2.08 2.86-3.53 5.25-3.53h30.195c2.385 0 4.396 1.45 5.26 3.53l5.895 14.023c3.3.9 5.74 3.936 5.74 7.527v16.51h-5.126v5.082c0 2.79-2.255 5.047-5.03 5.047-2.79 0-5.044-2.26-5.044-5.05l.013-5.082H15.2M53.21 23.4l-5.063-12.116c-.22-.603-.8-1.056-1.502-1.056H17.368c-.683 0-1.29.453-1.515 1.056L10.807 23.4H53.21m5.38 9.72c0-2.553-2.07-4.643-4.616-4.643-2.56 0-4.642 2.09-4.642 4.643 0 2.573 2.083 4.646 4.642 4.646 2.546 0 4.617-2.072 4.617-4.646m-48.55 4.647c2.55 0 4.64-2.07 4.64-4.645 0-2.553-2.09-4.643-4.64-4.643s-4.632 2.09-4.632 4.642c0 2.573 2.082 4.646 4.63 4.645"/> </g></symbol> <symbol id="fi-cross" viewBox="0 0 64 64"><g> <path d="M55.28 15.725L48.27 8.71 32 24.98 15.73 8.71l-7.013 7.015L24.993 32 8.718 48.275l7.01 7.014L32 39.02l16.268 16.27 7.013-7.015L39.007 32"/> </g></symbol> <symbol id="fi-dog" viewBox="0 0 64 64"><g> <path d="M62.464 13.482L40.896 3.208c-1.332-.635-2.42.052-2.42 1.526V22.09l-30.87.01-3.81-2.164c-1.223-.69-2.77-.265-3.466.955-.69 1.225-.265 2.773.957 3.467l6.01 3.45v28.83c0 2.426 1.964 4.395 4.392 4.395 2.42 0 4.387-1.97 4.387-4.393l-.004-14.83h26.14v14.83c0 2.423 1.97 4.392 4.387 4.392 2.426 0 4.395-1.97 4.395-4.393V22.68l7.473-.006c1.477-.004 3.188-1.098 3.81-2.436l1.476-3.17c.62-1.34.04-2.95-1.29-3.586z"/> </g></symbol> <symbol id="fi-dribbble" viewBox="0 0 64 64"><g> <path d="M32 64C14.355 64 0 49.645 0 32S14.355 0 32 0s32 14.355 32 32-14.355 32-32 32zm3.764-27.493c-7.898 2.495-14.36 7.71-19.752 15.945l-.26.397.38.284c4.62 3.48 10.108 5.314 15.873 5.314 3.077 0 6.143-.55 9.11-1.637l.397-.145-.074-.42c-1.234-7.072-2.883-13.43-5.043-19.43l-.164-.46-.466.152zm13.09-1.827c-2.413 0-4.728.152-6.88.456l-.61.087.2.582c1.896 5.506 3.506 11.42 4.785 17.572l.155.756.633-.443c5.965-4.184 9.985-10.685 11.034-17.838l.074-.514-.515-.064c-3.13-.394-6.118-.592-8.878-.592v-.002h.003zM31.86 27.168c-6.9 2.036-15.1 3.222-25.806 3.733l-.452.023-.03.45c-.018.257-.03.44-.03.627 0 6.023 2.104 11.934 5.92 16.64l.425.526.386-.555c6-8.603 13.072-14.048 21.62-16.645l.542-.165-.226-.52c-.626-1.46-1.197-2.716-1.747-3.846l-.19-.387-.412.12zm20.215-11.533c-4.085 4.04-8.745 7.126-14.244 9.434l-.482.202.217.477c.636 1.395 1.267 2.877 1.93 4.532l.146.373.398-.06c2.565-.377 5.272-.56 8.27-.56 2.843 0 5.947.168 9.49.517l.603.06-.044-.603c-.393-5.258-2.303-10.21-5.525-14.325l-.35-.45-.407.4zM19.733 8.58c-6.77 3.55-11.67 9.83-13.447 17.227l-.158.66.676-.034c9.186-.444 16.396-1.506 22.69-3.344l.617-.18-.317-.56c-2.625-4.613-5.71-9.076-9.43-13.642l-.262-.322-.366.194zM32 5.55c-1.954 0-3.942.233-5.91.693l-.828.193.562.637c3.35 3.8 6.453 8.377 9.224 13.606l.218.41.428-.18c5.102-2.156 9.416-4.936 13.19-8.5l.418-.396-.44-.366C44.112 7.716 38.125 5.55 32 5.548z"/> </g></symbol> <symbol id="fi-facebook" viewBox="0 0 64 64"><g> <path d="M47.2 1.613L39.313 1.6c-8.858 0-14.583 5.873-14.583 14.963v6.9h-7.927c-.685 0-1.24.554-1.24 1.24v9.994c0 .686.555 1.24 1.24 1.24h7.928V61.16c0 .686.556 1.24 1.24 1.24h10.344c.684 0 1.238-.558 1.238-1.24V35.938h9.27c.687 0 1.242-.556 1.242-1.24l.002-9.995c0-.45-.242-1.24-1.24-1.24h-9.27v-5.85c0-2.81.667-4.236 4.33-4.236l5.31-.002c.686 0 1.24-.556 1.24-1.24V2.853c0-.684-.554-1.24-1.237-1.24z"/> </g></symbol> <symbol id="fi-github" viewBox="0 0 64 64"><g> <path d="M56.956 20.895c0-4.618-1.76-8.333-4.61-11.143.5-1.592 1.157-5.128-.67-9.66 0 0-3.24-1.014-10.555 3.822-2.862-.72-5.92-1.064-8.965-1.064-3.353 0-6.753.42-9.918 1.282C14.684-.953 11.357.086 11.357.086c-2.174 5.37-.834 9.35-.42 10.338-2.57 2.72-4.114 6.206-4.114 10.456 0 3.23.37 6.106 1.28 8.623l.943 2.13c2.558 4.692 7.582 7.73 16.515 8.68-1.262.843-2.575 2.266-3.086 4.688-1.73.817-7.2 2.813-10.48-2.75 0 0-1.843-3.336-5.36-3.587 0 0-3.416-.047-.232 2.095 0 0 2.275 1.07 3.86 5.056 0 0 2.05 6.817 11.968 4.636v7.034s-.22 2.49-2.524 3.322c0 0-1.364.913.1 1.448 0 0 6.414.508 6.414-4.664V49.9s-.26-3.045 1.248-4.088v12.604s-.095 3-1.676 4.13c0 0-1.053 1.88 1.26 1.363 0 0 4.41-.618 4.604-5.723l.103-12.752h1.06l.1 12.752c.216 5.088 4.623 5.72 4.623 5.72 2.306.518 1.246-1.36 1.246-1.36-1.576-1.13-1.682-4.132-1.682-4.132V45.913c1.51 1.172 1.263 3.985 1.263 3.985v7.688c0 5.172 6.4 4.664 6.4 4.664 1.47-.54.108-1.45.108-1.45-2.312-.83-2.522-3.32-2.522-3.32V47.414c0-3.918-1.674-5.985-3.308-7.087 9.533-.924 14.095-3.98 16.21-8.698-.042.082.756-2.11.756-2.11.725-2.503.945-5.4.945-8.623h-.004z"/> </g></symbol> <symbol id="fi-googlePlus" viewBox="0 0 64 64"><g> <path d="M56.266 28.06v-7.69H50.14v7.69h-7.733v6.127h7.733v7.69h6.126v-7.69H64V28.06M38.372 29.485H19.574v6.82H32.02c-1 6.574-6.837 8.924-11.64 8.924-7.32 0-13.057-5.792-13.057-13.184 0-7.443 5.743-13.273 13.075-13.273 5.478 0 8.847 3.505 8.88 3.54l.566.605 4.76-4.927-.493-.545c-.204-.225-5.107-5.507-13.9-5.507C9.257 11.938 0 21.103 0 31.95c0 9.673 7.833 20.112 20.49 20.112 10.99 0 18.665-7.53 18.665-18.312 0-1.09-.14-3.62-.552-4.036l-.23-.23z"/> </g></symbol> <symbol id="fi-handicappe" viewBox="0 0 64 64"><g> <path d="M57.29 50.35v-.002c-.007-.006-.013-.008-.017-.016l-9.983-16.51c-.583-.988-1.646-1.64-2.873-1.637l-14.74-.09V28.78l10.107.032c1.432.004 2.592-1.154 2.598-2.588.002-1.43-1.157-2.593-2.59-2.597l-10.114-.032V18.54c0-3.27-2.68-5.924-5.953-5.924-3.25 0-5.89 2.62-5.922 5.862l-.008.004L17.73 32.6c.032 4.98 3.352 7.918 9.143 7.726H43.56l7.968 13.38.007-.003c.01.016.02.037.026.055.943 1.582 2.988 2.104 4.566 1.16 1.58-.94 2.104-2.986 1.164-4.568zM23.72 11.494h.003c3.172 0 5.744-2.573 5.744-5.747C29.467 2.575 26.893 0 23.72 0c-3.177 0-5.75 2.575-5.75 5.747 0 3.173 2.572 5.747 5.75 5.747z"/> <path d="M27.076 59.625c-9.09 0-16.46-7.367-16.46-16.457 0-4.758 2.023-9.053 5.254-12.057l.025-5.52c-5.806 3.694-9.652 10.19-9.652 17.58C6.243 54.674 15.57 64 27.076 64c9.02 0 16.708-5.736 19.6-13.762l-3.23-5.34c-.87 8.276-7.868 14.727-16.37 14.727z"/> </g></symbol> <symbol id="fi-heart" viewBox="0 0 64 64"><g> <path d="M32 60.334c-62.43-34.054-17.28-76.393 0-47.88 17.277-28.512 62.434 13.826 0 47.88z"/> </g></symbol> <symbol id="fi-home" viewBox="0 0 64 64"><g> <path d="M60.8 37.34L32 14.984 3.2 37.34v-9.11L32 5.87l28.8 22.356v9.114zm-7.2-.813V58.13H39.2v-14.4H24.8v14.4H10.4v-21.6L32 20.33l21.6 16.2v-.003z"/> </g></symbol> <symbol id="fi-instagram" viewBox="0 0 64 64"><g> <path d="M54.307 27.533h-5.05c.368 1.43.59 2.926.59 4.467 0 9.854-8 17.846-17.848 17.846-9.855 0-17.85-7.992-17.85-17.846 0-1.54.214-3.036.59-4.467H9.69V52.08c0 1.23.997 2.227 2.228 2.227h40.16c1.23 0 2.227-.996 2.227-2.226V27.535h.002zm0-15.613c0-1.23-.998-2.227-2.228-2.227h-6.7c-1.23 0-2.23.998-2.23 2.227v6.693c0 1.23.998 2.232 2.23 2.232h6.697c1.23 0 2.227-1.004 2.227-2.232V11.92h.003zM32 20.848c-6.164 0-11.16 4.99-11.16 11.152 0 6.155 4.997 11.152 11.16 11.152 6.162 0 11.152-4.997 11.152-11.152 0-6.162-4.99-11.152-11.152-11.152M54.307 61H9.693C5.997 61 3 58.003 3 54.307V9.693C3 5.998 5.997 3 9.693 3h44.614C58.007 3 61 5.998 61 9.693v44.614C61 58.003 58.008 61 54.307 61"/> </g></symbol> <symbol id="fi-mail" viewBox="0 0 64 64"><g> <path d="M0 55.924V8.076h64v47.848H0zm8.758-5.278H55.24l-14.872-14.88-3.186 3.158c-1.55 1.55-3.293 2.333-5.182 2.333-1.888 0-3.63-.784-5.18-2.33l-3.19-3.16-14.872 14.88zm-3.536-3.708l14.77-14.807-14.77-14.736v29.544zM44.004 32.13L58.78 46.935l.002-29.545-14.778 14.74zm-13.3 3.374c.383.386.676.57 1.3.57.618 0 .91-.184 1.298-.57l22.036-22.106-46.678-.002s21.657 21.722 22.044 22.108z"/> </g></symbol> <symbol id="fi-pinterest" viewBox="0 0 64 64"><g> <path d="M32.77 3C17.594 3 9.54 13.192 9.54 24.292c0 5.154 2.74 11.577 7.136 13.622.67.312 1.02.174 1.17-.473.124-.484.718-2.872.983-3.983.08-.357.046-.662-.25-1.016-1.45-1.755-2.607-5-2.607-8.02 0-7.757 5.873-15.257 15.876-15.257 8.645 0 14.692 5.88 14.692 14.307 0 9.517-4.804 16.104-11.058 16.104-3.448 0-6.035-2.85-5.21-6.36.997-4.18 2.917-8.696 2.917-11.704 0-2.706-1.454-4.96-4.443-4.96-3.535 0-6.366 3.65-6.366 8.544 0 3.115 1.054 5.215 1.054 5.215s-3.49 14.745-4.124 17.49c-1.087 4.653.136 12.193.25 12.856.056.352.452.472.666.175.34-.458 4.55-6.757 5.732-11.314l2.185-8.36c1.158 2.187 4.5 4.038 8.066 4.038 10.6 0 18.256-9.762 18.256-21.88C54.462 11.7 44.972 3 32.772 3z"/> </g></symbol> <symbol id="fi-star" viewBox="0 0 64 64"><g> <path d="M32 1.134l7.555 23.25H64L44.225 38.75 51.777 62 32 47.63 12.223 62l7.554-23.25L0 24.384h24.447L32 1.134z"/> </g></symbol> <symbol id="fi-sumally" viewBox="0 0 64 64"><g> <path d="M47.02 25.97l10.003-7.745-8-9.992C45.403 3.676 40.215.803 34.42.143 33.59.05 32.743 0 31.91 0c-4.953 0-9.633 1.64-13.532 4.745-4.563 3.634-7.435 8.82-8.086 14.602-.657 5.79.98 11.49 4.605 16.05l2.1 2.633-10.017 7.732 8.02 10.014c3.63 4.557 8.812 7.425 14.59 8.078.823.096 1.67.146 2.52.146 4.943 0 9.623-1.64 13.53-4.742 4.56-3.635 7.433-8.822 8.09-14.607.66-5.782-.977-11.478-4.606-16.04l-2.1-2.64zM22 9.3c2.86-2.277 6.276-3.48 9.885-3.48.62 0 1.254.036 1.88.107 4.244.482 8.046 2.588 10.708 5.934l4.245 5.308-5.33 4.242-4.157-5.225c-.206-.257-.437-.483-.67-.708l-.13-.124c-1.066-1.045-2.277-1.788-3.595-2.207-.57-.183-1.17-.31-1.784-.38-.126-.016-.253-.02-.378-.02l-.697-.002c-1.552 0-3 .355-4.3 1.052-.532.28-.995.58-1.416.914-1.847 1.468-3.043 3.578-3.368 5.923-.024.09-.044.18-.05.253-.286 2.448.403 4.862 1.942 6.796l9.89 12.42c.02.027.035.058.053.085l.096.152c.455.685.648 1.457.56 2.236-.1.884-.538 1.68-1.264 2.253-.05.028-.1.06-.14.09-.573.402-1.216.604-1.922.604h-.1-.164c-.038 0-.076 0-.12-.004-.888-.1-1.68-.54-2.23-1.233l-.432-.545-.453-.556-5.196-6.49-3.917-4.916c-2.64-3.315-3.84-7.457-3.386-11.673l.014-.106c.474-4.236 2.58-8.037 5.926-10.7zm-1.367 33.294l4.253 5.312c.295.37.62.68.955.99 1.453 1.355 3.244 2.19 5.17 2.405.118.017.36.024.645.024.452 0 1.287-.02 1.5-.05.37-.04 1.396-.265 1.642-.34.4-.126.772-.288 1.093-.435.168-.078 1.397-.746 1.887-1.134 1.92-1.53 3.125-3.71 3.395-6.133.243-2.114-.268-4.205-1.48-6.05-.042-.067-.08-.136-.122-.2-.104-.172-.207-.342-.334-.502l-9.89-12.417c-.568-.717-.823-1.61-.718-2.52.008-.07.028-.14.045-.207l.036-.15c.173-.79.57-1.437 1.18-1.922.62-.49 1.327-.74 2.102-.74.136 0 .272.007.41.022.223.025.446.073.66.14.642.206 1.202.592 1.618 1.12l7.176 9.022.68.846 2.04 2.56c2.66 3.344 3.858 7.52 3.376 11.757l-.02.196c-.526 4.168-2.62 7.896-5.91 10.52-2.86 2.273-6.286 3.477-9.907 3.477-.615 0-1.242-.035-1.86-.104-4.24-.482-8.04-2.59-10.705-5.932l-4.252-5.31 5.335-4.244z"/> </g></symbol> <symbol id="fi-train" viewBox="0 0 64 64"><g> <path d="M19.95 49.555c-3.593-.503-6.49-3.86-6.49-7.646V13.44c0-4.25 3.438-7.725 7.726-7.725h21.63c4.246 0 7.725 3.478 7.725 7.726v28.467c0 3.862-2.817 7.067-6.487 7.61L53.823 64H48.26l-6.682-9.85H22.382L15.702 64h-5.524l9.77-14.445m8.885-44.998c1.235 0 2.278-1.004 2.278-2.28C31.11 1.005 30.07 0 28.835 0c-1.274 0-2.278 1.004-2.278 2.277 0 1.24 1.004 2.28 2.277 2.28m8.612-2.28C37.445 1.004 36.44 0 35.167 0S32.89 1.004 32.89 2.277c0 1.236 1.003 2.28 2.277 2.28s2.278-1.04 2.278-2.28M21.533 45.77c1.97 0 3.592-1.584 3.592-3.554s-1.583-3.592-3.592-3.592c-1.97 0-3.592 1.583-3.592 3.592 0 1.97 1.623 3.554 3.593 3.554m24.53-3.554c0-1.97-1.624-3.592-3.595-3.592-1.97 0-3.553 1.583-3.553 3.592 0 1.97 1.583 3.554 3.553 3.554s3.594-1.584 3.594-3.554m-3.787-15.373c2.01 0 3.63-1.622 3.63-3.63v-5.947c0-2.01-1.62-3.632-3.63-3.632h-20.51c-2.01 0-3.63 1.623-3.63 3.632v5.986c0 2.008 1.62 3.63 3.63 3.63h20.508m-5.753-14.91c.502 0 .93-.385.93-.926v-3.09c0-.502-.428-.89-.93-.89h-9.04c-.502 0-.926.387-.926.89v3.09c0 .502.424.927.926.927h9.04"/> </g></symbol> <symbol id="fi-twitter" viewBox="0 0 64 64"><g> <path d="M20.127 58.007C12.715 58.007 5.81 55.83 0 52.102c1.026.12 2.067.19 3.134.19 6.15 0 11.81-2.103 16.3-5.62-5.745-.11-10.598-3.91-12.26-9.124.798.147 1.623.236 2.46.236 1.203 0 2.365-.162 3.473-.46C7.093 36.114 2.57 30.81 2.57 24.452v-.168c1.77.98 3.796 1.573 5.945 1.642-3.527-2.352-5.84-6.378-5.84-10.933 0-2.404.65-4.662 1.778-6.6 6.48 7.95 16.155 13.173 27.06 13.72-.216-.958-.337-1.963-.337-2.99 0-7.25 5.88-13.13 13.137-13.13 3.77 0 7.19 1.595 9.58 4.143 2.985-.588 5.812-1.683 8.338-3.183-.98 3.06-3.06 5.636-5.77 7.264 2.647-.316 5.185-1.02 7.54-2.066-1.77 2.637-3.99 4.947-6.555 6.8.027.56.043 1.13.043 1.694 0 17.35-13.213 37.364-37.36 37.363"/> </g></symbol></svg>