<svg xmlns="http://www.w3.org/2000/svg" style="display: none;"> <symbol id="icon-apps" viewBox="0 0 32 32"><g> <path d="M6 11h5V6H6v5zm7.5 15h5v-5h-5v5zM6 26h5v-5H6v5zm0-7.5h5v-5H6v5zm7.5 0h5v-5h-5v5zM21 6v5h5V6h-5zm-7.5 5h5V6h-5v5zm7.5 7.5h5v-5h-5v5zm0 7.5h5v-5h-5v5z"/> </g></symbol> <symbol id="icon-arrow-bottom" viewBox="0 0 32 32"><g> <path d="M14.496 5.975l-.001 14.287-6.366-6.367L6 16.021l10.003 10.004L26 16.029 23.871 13.9l-6.366 6.368V5.977z"/> </g></symbol> <symbol id="icon-arrow-left" viewBox="0 0 32 32"><g> <path d="M26.025 14.496l-14.286-.001 6.366-6.366L15.979 6 5.975 16.003 15.971 26l2.129-2.129-6.367-6.366h14.29z"/> </g></symbol> <symbol id="icon-arrow-right" viewBox="0 0 32 32"><g> <path d="M5.975 17.504l14.287.001-6.367 6.366L16.021 26l10.004-10.003L16.029 6l-2.128 2.129 6.367 6.366H5.977z"/> </g></symbol> <symbol id="icon-arrow-top" viewBox="0 0 32 32"><g> <path d="M17.504 26.025l.001-14.287 6.366 6.367L26 15.979 15.997 5.975 6 15.971 8.129 18.1l6.366-6.368v14.291z"/> </g></symbol> <symbol id="icon-ban" viewBox="0 0 32 32"><g> <path d="M16 5C9.935 5 5 9.934 5 16c0 6.067 4.935 11 11 11s11-4.933 11-11c0-6.066-4.935-11-11-11zm0 2.75c1.777 0 3.427.569 4.775 1.53L9.279 20.778A8.214 8.214 0 0 1 7.75 16c0-4.549 3.701-8.25 8.25-8.25zm0 16.5a8.2 8.2 0 0 1-4.775-1.53l11.494-11.497A8.205 8.205 0 0 1 24.25 16c0 4.547-3.701 8.25-8.25 8.25z"/> </g></symbol> <symbol id="icon-camera" viewBox="0 0 32 32"><g> <path d="M16 12.906a4.47 4.47 0 0 0 0 8.938 4.47 4.47 0 0 0 4.469-4.469A4.47 4.47 0 0 0 16 12.906zm0 7.063a2.577 2.577 0 1 1-.002-5.154A2.577 2.577 0 0 1 16 19.969z"/> <path d="M25.625 9.812h-4.812l-2.062-2.75h-5.5l-2.062 2.75H6.375C5.618 9.812 5 10.43 5 11.188v12.375c0 .756.618 1.375 1.375 1.375h19.25c.757 0 1.375-.617 1.375-1.375V11.188c0-.758-.618-1.376-1.375-1.376zM16 23.477a6.103 6.103 0 1 1 .001-12.205A6.103 6.103 0 0 1 16 23.477zm9.625-10.399h-2.75v-1.375h2.75v1.375z"/> </g></symbol> <symbol id="icon-caret-bottom" viewBox="0 0 32 32"><g> <path d="M24 11.305l-7.997 11.39L8 11.305z"/> </g></symbol> <symbol id="icon-caret-left" viewBox="0 0 32 32"><g> <path d="M20.697 24L9.303 16.003 20.697 8z"/> </g></symbol> <symbol id="icon-caret-right" viewBox="0 0 32 32"><g> <path d="M11.303 8l11.394 7.997L11.303 24z"/> </g></symbol> <symbol id="icon-caret-top" viewBox="0 0 32 32"><g> <path d="M8 20.695l7.997-11.39L24 20.695z"/> </g></symbol> <symbol id="icon-check" viewBox="0 0 32 32"><g> <path d="M5 16.577l2.194-2.195 5.486 5.484L24.804 7.743 27 9.937l-14.32 14.32z"/> </g></symbol> <symbol id="icon-chevron-bottom" viewBox="0 0 32 32"><g> <path d="M16.003 18.626l7.081-7.081L25 13.46l-8.997 8.998-9.003-9 1.917-1.916z"/> </g></symbol> <symbol id="icon-chevron-left" viewBox="0 0 32 32"><g> <path d="M14.19 16.005l7.869 7.868-2.129 2.129-9.996-9.997L19.937 6.002l2.127 2.129z"/> </g></symbol> <symbol id="icon-chevron-right" viewBox="0 0 32 32"><g> <path d="M18.629 15.997l-7.083-7.081L13.462 7l8.997 8.997L13.457 25l-1.916-1.916z"/> </g></symbol> <symbol id="icon-chevron-top" viewBox="0 0 32 32"><g> <path d="M15.997 13.374l-7.081 7.081L7 18.54l8.997-8.998 9.003 9-1.916 1.916z"/> </g></symbol> <symbol id="icon-clear" viewBox="0 0 32 32"><g> <path d="M7.004 23.087l7.08-7.081-7.07-7.071L8.929 7.02l7.067 7.069L23.084 7l1.912 1.913-7.089 7.093 7.075 7.077-1.912 1.913-7.074-7.073L8.917 25z"/> </g></symbol> <symbol id="icon-clock" viewBox="0 0 32 32"><g> <path d="M16 5C9.935 5 5 9.935 5 16c0 6.066 4.935 11 11 11 6.066 0 11-4.934 11-11 0-6.065-4.934-11-11-11zm0 19.25c-4.549 0-8.25-3.701-8.25-8.25 0-4.549 3.701-8.25 8.25-8.25 4.548 0 8.25 3.701 8.25 8.25 0 4.549-3.702 8.25-8.25 8.25z"/> <path d="M14.969 14.969h-2.948v2.062l5.01-.003v-7.29h-2.062z"/> </g></symbol> <symbol id="icon-css3" viewBox="0 0 32 32"><g> <path d="M8.272 6.044L7.539 9.74H22.57l-.472 2.378H7.053l-.722 3.696h15.033l-.846 4.216-6.049 2.004-5.251-2.004.362-1.828H5.884L5 22.632l8.686 3.324 10.003-3.324L27 6.044z"/> </g></symbol> <symbol id="icon-dribbble" viewBox="0 0 32 32"><g> <path d="M16 27C9.935 27 5 22.067 5 16 5 9.935 9.935 5 16 5c6.066 0 11 4.935 11 11 0 6.067-4.934 11-11 11zm-5.362-3.836A8.859 8.859 0 0 0 16 24.953c1.075 0 2.13-.191 3.138-.568a42.956 42.956 0 0 0-1.792-6.675c-3.929 1.275-5.954 4.137-6.708 5.454zm8.718-5.93a45.7 45.7 0 0 1 1.673 6.167 8.924 8.924 0 0 0 3.814-6.022 18.372 18.372 0 0 0-3.283-.311 14.353 14.353 0 0 0-2.204.166zM7.045 16c0 2.098.741 4.128 2.088 5.739 1.096-1.711 3.428-4.538 7.475-5.916-.186-.433-.38-.864-.582-1.287-3.483 1.003-7.049 1.252-8.979 1.308L7.045 16zm14.58-.973c1.061 0 2.17.095 3.304.286a8.858 8.858 0 0 0-1.826-4.755c-1.179 1.345-2.895 2.46-5.106 3.319.209.451.419.928.623 1.421.96-.181 1.97-.271 3.005-.271zm-9.869-6.906a8.952 8.952 0 0 0-4.429 5.66c1.715-.073 4.774-.314 7.737-1.103-1.351-2.4-2.615-3.854-3.308-4.557zm2.062-.804c.848.948 2.041 2.487 3.256 4.724 2.058-.767 3.602-1.763 4.598-2.961A8.946 8.946 0 0 0 16 7.046c-.734 0-1.466.091-2.182.271z"/> </g></symbol> <symbol id="icon-dropbox" viewBox="0 0 32 32"><g> <path d="M11.478 21.367L16 17.601l-6.531-4.034L5 17.15zM16 17.6l4.535 3.767L27 17.15l-4.469-3.583z"/> <path d="M16.027 18.42v-.027l-.013.013-.014-.013v.027l-4.522 3.754-1.943-1.268v1.426L16 26.207v.012l.014-.012.013.012v-.012l6.477-3.875v-1.426l-1.942 1.268zM5 9.998l4.469 3.569L16 9.548l-4.522-3.767zM20.535 5.781L16 9.548l6.531 4.019L27 9.998z"/> </g></symbol> <symbol id="icon-externalLink" viewBox="0 0 32 32"><g> <path d="M23.5 23.5h-15v-15h4.791V6H6v20h20v-7.969h-2.5z"/> <path d="M17.979 6l3.016 3.018-6.829 6.829 1.988 1.987 6.83-6.828L26 14.02V6z"/> </g></symbol> <symbol id="icon-facebook" viewBox="0 0 32 32"><g> <path d="M21.95 5.005l-3.306-.004c-3.206 0-5.277 2.124-5.277 5.415v2.495H10.05v4.515h3.317l-.004 9.575h4.641l.004-9.575h3.806l-.003-4.514h-3.803v-2.117c0-1.018.241-1.533 1.566-1.533l2.366-.001.01-4.256z"/> </g></symbol> <symbol id="icon-file" viewBox="0 0 32 32"><g> <path d="M15.331 6H8.5v20h15V14.154h-8.169z"/> <path d="M18.153 6h-.009v5.342H23.5v-.002z"/> </g></symbol> <symbol id="icon-github" viewBox="0 0 32 32"><g> <path d="M24.92 12.183c0-1.586-.604-2.864-1.585-3.83.172-.547.398-1.763-.229-3.321 0 0-1.114-.348-3.628 1.315a12.695 12.695 0 0 0-3.081-.366c-1.154 0-2.322.143-3.409.44-2.596-1.747-3.74-1.391-3.74-1.391-.748 1.847-.287 3.215-.145 3.554-.883.936-1.414 2.133-1.414 3.594 0 1.111.128 2.099.44 2.964l.325.732c.879 1.614 2.606 2.655 5.677 2.983-.434.289-.885.779-1.062 1.612-.594.28-2.475.966-3.603-.944 0 0-.633-1.148-1.842-1.235 0 0-1.174-.017-.08.722 0 0 .782.367 1.326 1.738 0 0 .705 2.342 4.114 1.593v2.417s-.076.857-.867 1.143c0 0-.469.312.034.497 0 0 2.205.174 2.205-1.604v-2.643s-.09-1.047.429-1.404v4.332s-.032 1.031-.576 1.421c0 0-.362.646.433.468 0 0 1.517-.211 1.584-1.967l.035-4.383h.363l.033 4.383c.076 1.748 1.59 1.967 1.59 1.967.793.179.429-.468.429-.468-.54-.389-.579-1.421-.579-1.421v-4.297c.52.402.436 1.369.436 1.369v2.643c0 1.777 2.2 1.604 2.2 1.604.505-.186.036-.498.036-.498-.793-.286-.867-1.143-.867-1.143v-3.461c0-1.346-.574-2.056-1.137-2.435 3.277-.318 4.845-1.368 5.572-2.99-.015.027.26-.726.26-.726.25-.859.325-1.855.325-2.963h-.002z"/> </g></symbol> <symbol id="icon-googlePlus" viewBox="0 0 32 32"><g> <path d="M25.1 14.522v-2.883h-2.297v2.883h-2.901v2.298h2.901v2.884H25.1V16.82H28v-2.298zM18.389 15.057H11.34v2.558h4.667c-.375 2.466-2.563 3.346-4.365 3.346-2.746 0-4.896-2.171-4.896-4.942 0-2.792 2.153-4.978 4.903-4.978 2.054 0 3.318 1.313 3.33 1.328l.212.226 1.786-1.847-.185-.205c-.077-.084-1.916-2.065-5.213-2.065C7.471 8.477 4 11.913 4 15.981c0 3.627 2.937 7.542 7.684 7.542 4.121 0 6.999-2.824 6.999-6.867 0-.409-.052-1.357-.206-1.514l-.088-.085z"/> </g></symbol> <symbol id="icon-hamburger" viewBox="0 0 32 32"><g> <path d="M6.001 7.128L6 10.438l19.998-.005L26 7.124zM6.001 21.566L6 24.876l19.998-.006.002-3.308zM6.001 14.341L6 17.65l19.998-.004.002-3.309z"/> </g></symbol> <symbol id="icon-heart" viewBox="0 0 32 32"><g> <path d="M26.996 12.898c-.064-2.207-1.084-4.021-2.527-5.13-1.856-1.428-4.415-1.69-6.542-.132-.702.516-1.359 1.23-1.927 2.168-.568-.938-1.224-1.652-1.927-2.167-2.127-1.559-4.685-1.297-6.542.132-1.444 1.109-2.463 2.923-2.527 5.13-.035 1.172.145 2.48.788 3.803 1.01 2.077 5.755 6.695 10.171 10.683l.035.038.002-.002.002.002.036-.038c4.415-3.987 9.159-8.605 10.17-10.683.644-1.323.822-2.632.788-3.804z"/> </g></symbol> <symbol id="icon-home" viewBox="0 0 32 32"><g> <path d="M27 18.039L16 9.501 5 18.039V14.56l11-8.54 11 8.538v3.481zm-2.75-.31v8.251h-5.5v-5.5h-5.5v5.5h-5.5v-8.25L16 11.543l8.25 6.186z"/> </g></symbol> <symbol id="icon-html5" viewBox="0 0 32 32"><g> <path d="M6.32 5.5l1.759 19.774 7.893 2.226 7.948-2.226L25.68 5.5H6.32zm15.537 6.449H12.59l.207 2.488h8.854l-.687 7.479-4.937 1.361v.014h-.055l-4.978-1.375-.303-3.821h2.406l.179 1.925 2.695.728 2.708-.728.303-3.136h-8.415l-.645-7.341h12.155l-.22 2.406z"/> </g></symbol> <symbol id="icon-instagram" viewBox="0 0 32 32"><g> <path d="M20.445 5h-8.891A6.559 6.559 0 0 0 5 11.554v8.891A6.559 6.559 0 0 0 11.554 27h8.891a6.56 6.56 0 0 0 6.554-6.555v-8.891A6.557 6.557 0 0 0 20.445 5zm4.342 15.445a4.343 4.343 0 0 1-4.342 4.342h-8.891a4.341 4.341 0 0 1-4.341-4.342v-8.891a4.34 4.34 0 0 1 4.341-4.341h8.891a4.342 4.342 0 0 1 4.341 4.341l.001 8.891z"/> <path d="M16 10.312c-3.138 0-5.688 2.551-5.688 5.688s2.551 5.688 5.688 5.688 5.688-2.551 5.688-5.688-2.55-5.688-5.688-5.688zm0 9.163a3.475 3.475 0 1 1-.001-6.95 3.475 3.475 0 0 1 .001 6.95zM21.7 8.991a1.363 1.363 0 1 1-1.364 1.364c0-.752.51-1.364 1.364-1.364z"/> </g></symbol> <symbol id="icon-location" viewBox="0 0 32 32"><g> <path d="M25.497 6.503l.001-.003-.004.005L3.5 15.901l11.112 1.489 1.487 11.11 9.396-21.992.005-.006z"/> </g></symbol> <symbol id="icon-mail" viewBox="0 0 32 32"><g> <path d="M5 24.225V7.776h22v16.447H5v.002zm3.011-1.815h15.978l-5.111-5.115L16 20.179l-2.877-2.883-5.112 5.114zm-1.216-1.275l5.077-5.09-5.077-5.065v10.155zm13.332-5.09l5.079 5.09V10.979l-5.079 5.066zm-4.126 1.588l8.022-8.027-16.045-.001 8.023 8.028z"/> </g></symbol> <symbol id="icon-more" viewBox="0 0 32 32"><g> <path d="M10.429 16a2.715 2.715 0 1 1-5.43 0 2.715 2.715 0 0 1 5.43 0zM16 13.286a2.715 2.715 0 1 0 .001 5.429A2.715 2.715 0 0 0 16 13.286zm8.285 0a2.714 2.714 0 1 0 0 5.428 2.714 2.714 0 0 0 0-5.428z"/> </g></symbol> <symbol id="icon-pause" viewBox="0 0 32 32"><g> <path d="M18.432 7.5h4.547v17h-4.547zM9.022 7.5h4.545v17H9.022z"/> </g></symbol> <symbol id="icon-person" viewBox="0 0 32 32"><g> <path d="M16 15.503A5.041 5.041 0 1 0 16 5.42a5.041 5.041 0 0 0 0 10.083zm0 2.215c-6.703 0-11 3.699-11 5.5v3.363h22v-3.363c0-2.178-4.068-5.5-11-5.5z"/> </g></symbol> <symbol id="icon-phone" viewBox="0 0 32 32"><g> <path d="M11.748 5.773S11.418 5 10.914 5c-.496 0-.754.229-.926.387S6.938 7.91 6.938 7.91s-.837.731-.773 2.106c.054 1.375.323 3.332 1.719 6.058 1.386 2.72 4.855 6.876 7.047 8.337 0 0 2.031 1.558 3.921 2.191.549.173 1.647.398 1.903.398.26 0 .719 0 1.246-.385.536-.389 3.543-2.807 3.543-2.807s.736-.665-.119-1.438c-.859-.773-3.467-2.492-4.025-2.944-.559-.459-1.355-.257-1.699.054-.343.313-.956.828-1.031.893-.112.086-.419.365-.763.226-.438-.173-2.234-1.148-3.899-3.426-1.655-2.276-1.837-3.02-2.084-3.824a.56.56 0 0 1 .225-.657c.248-.172 1.161-.933 1.161-.933s.591-.583.344-1.27-1.906-4.716-1.906-4.716z"/> </g></symbol> <symbol id="icon-pin" viewBox="0 0 32 32"><g> <path d="M16.001 5c-4.216 0-7.714 3.418-7.634 7.634.029 1.578.719 2.824 1.351 4.024.242.461 6.264 10.332 6.264 10.332V27l.001-.007.002.007v-.01l6.531-10.377c.407-.703.793-1.771.793-1.771A7.631 7.631 0 0 0 16.001 5zM16 16.019a3.895 3.895 0 0 1-3.896-3.897A3.898 3.898 0 1 1 16 16.019z"/> </g></symbol> <symbol id="icon-pinterest" viewBox="0 0 32 32"><g> <path d="M16.292 5C10.536 5 7.48 8.866 7.48 13.077c0 1.955 1.039 4.392 2.707 5.168.253.118.387.064.443-.18.047-.185.273-1.089.373-1.511a.402.402 0 0 0-.095-.386c-.55-.667-.988-1.896-.988-3.041 0-2.942 2.228-5.787 6.021-5.787 3.28 0 5.571 2.23 5.571 5.426 0 3.61-1.82 6.108-4.191 6.108-1.309 0-2.291-1.081-1.978-2.413.378-1.584 1.106-3.298 1.106-4.438 0-1.026-.552-1.883-1.685-1.883-1.341 0-2.415 1.385-2.415 3.241 0 1.182.4 1.978.4 1.978s-1.323 5.593-1.563 6.634c-.413 1.765.051 4.625.094 4.876.021.134.172.18.252.066.129-.175 1.725-2.565 2.174-4.292l.828-3.171c.439.829 1.707 1.531 3.061 1.531 4.021 0 6.923-3.703 6.923-8.299C24.52 8.301 20.92 5 16.292 5z"/> </g></symbol> <symbol id="icon-play" viewBox="0 0 32 32"><g> <path d="M10.968 23V9l12.762 7-12.762 7z"/> </g></symbol> <symbol id="icon-refresh" viewBox="0 0 32 32"><g> <path d="M27.1 14.313V5.396L24.158 8.34c-2.33-2.325-5.033-3.503-8.11-3.503C9.902 4.837 4.901 9.847 4.899 16c.001 6.152 5.003 11.158 11.15 11.16 4.276 0 9.369-2.227 10.836-8.478l.028-.122h-3.23l-.022.068c-1.078 3.242-4.138 5.421-7.613 5.421a8 8 0 0 1-5.691-2.359A7.993 7.993 0 0 1 8 16.001c0-4.438 3.611-8.049 8.05-8.049 2.069 0 3.638.58 5.924 2.573l-3.792 3.789H27.1z"/> </g></symbol> <symbol id="icon-search-minus" viewBox="0 0 32 32"><g> <path d="M21.353 18.922a8.89 8.89 0 0 0 1.522-4.984C22.875 9.01 18.867 5 13.938 5 9.01 5 5 9.01 5 13.938c0 4.929 4.01 8.938 8.938 8.938a8.887 8.887 0 0 0 4.984-1.522L24.568 27 27 24.57l-5.647-5.648zm-7.415 1.203a6.194 6.194 0 0 1-6.188-6.188 6.195 6.195 0 0 1 6.188-6.188 6.195 6.195 0 0 1 6.188 6.188 6.195 6.195 0 0 1-6.188 6.188zm-3.758-7.264h7.513v2.062H10.18v-2.062z"/> </g></symbol> <symbol id="icon-search-plus" viewBox="0 0 32 32"><g> <path d="M27 24.57l-5.647-5.648a8.892 8.892 0 0 0 1.522-4.984C22.875 9.01 18.867 5 13.938 5 9.01 5 5 9.01 5 13.938c0 4.929 4.01 8.938 8.938 8.938a8.887 8.887 0 0 0 4.984-1.522L24.568 27 27 24.57zm-13.062-4.445a6.194 6.194 0 0 1-6.188-6.188 6.195 6.195 0 0 1 6.188-6.188 6.195 6.195 0 0 1 6.188 6.188 6.195 6.195 0 0 1-6.188 6.188zm3.755-7.217h-2.726v-2.725h-2.062v2.725H10.18v2.062h2.725v2.725h2.062V14.97h2.726v-2.062z"/> </g></symbol> <symbol id="icon-search" viewBox="0 0 32 32"><g> <path d="M27 24.57l-5.647-5.648a8.895 8.895 0 0 0 1.522-4.984C22.875 9.01 18.867 5 13.938 5 9.01 5 5 9.01 5 13.938c0 4.929 4.01 8.938 8.938 8.938a8.887 8.887 0 0 0 4.984-1.522L24.568 27 27 24.57zm-13.062-4.445a6.194 6.194 0 0 1-6.188-6.188 6.195 6.195 0 0 1 6.188-6.188 6.195 6.195 0 0 1 6.188 6.188 6.195 6.195 0 0 1-6.188 6.188z"/> </g></symbol> <symbol id="icon-skype" viewBox="0 0 32 32"><g> <path d="M26.922 21.014c-.106-1.321-.616-2.223-1.089-2.794.161-.716.254-1.458.254-2.223 0-5.57-4.515-10.085-10.085-10.085-.765 0-1.507.093-2.223.254-.503-.439-1.908-1.416-4.251-1.086C6.542 5.5 4.792 8.417 5 11c.111 1.379.659 2.295 1.148 2.861a10.158 10.158 0 0 0-.231 2.136c0 5.57 4.515 10.086 10.085 10.086.736 0 1.452-.084 2.143-.233.506.44 1.91 1.413 4.249 1.084 2.985-.42 4.736-3.336 4.528-5.92zm-5.938-.248c-.69.774-1.604 1.548-3.797 1.828-3.672.469-5.781-1.312-6.344-1.859s-.656-1.911-.031-2.406c.828-.656 1.512-.545 2.781.75 1.562 1.594 4.093 1.163 4.516.281.359-.75-.078-1.328-.891-1.562-.859-.248-4.05-1.047-4.609-1.266-2.873-1.123-2.219-3.859-2.094-4.297s.456-2.329 4.047-2.891c3.592-.562 5.812 1.188 5.812 1.188 1.312 1.047.797 2.406.078 2.781s-1.328.25-2.312-.656-2.312-.797-2.625-.766-1.281.109-1.515.768.172 1.043.922 1.341c1.469.583 3.362.316 5.484 1.75 2.266 1.531 1.219 4.297.578 5.016z"/> </g></symbol> <symbol id="icon-slack" viewBox="0 0 32 32"><g> <path d="M26.832 16.453a1.93 1.93 0 0 0-2.546-.974l-.927.416-2.377-5.312.928-.413c.972-.436 1.406-1.575.972-2.545a1.924 1.924 0 0 0-2.544-.972l-.926.415-.414-.928c-.436-.971-1.574-1.406-2.546-.971-.972.434-1.406 1.572-.972 2.543l.415.927-5.311 2.376-.414-.926a1.927 1.927 0 0 0-3.518 1.572l.415.926-.926.417a1.923 1.923 0 0 0-.972 2.542 1.924 1.924 0 0 0 2.544.973l.927-.415 2.374 5.311-.927.415a1.926 1.926 0 1 0 1.572 3.519l.927-.416.416.927c.435.972 1.573 1.406 2.545.972.971-.435 1.406-1.572.971-2.543l-.413-.928 5.311-2.375.414.925a1.925 1.925 0 1 0 3.517-1.569l-.414-.926.926-.417c.973-.437 1.408-1.573.973-2.546zm-12.3 3.389l-2.376-5.311 5.311-2.375 2.375 5.313-5.31 2.373z"/> </g></symbol> <symbol id="icon-smartPhone" viewBox="0 0 32 32"><g> <path d="M20.629 5h-9.257a1.6 1.6 0 0 0-1.601 1.603V25.4a1.6 1.6 0 0 0 1.601 1.601h9.257c.883 0 1.6-.718 1.6-1.601V6.603c0-.885-.717-1.603-1.6-1.603zm-6.247 1.023h3.302v.768h-3.302v-.768zm1.619 19.395a1.024 1.024 0 0 1-1.023-1.021 1.023 1.023 0 0 1 2.044 0c-.001.494-.46 1.021-1.021 1.021zm5.028-3.501H10.971V7.704h10.058v14.213z"/> </g></symbol> <symbol id="icon-star" viewBox="0 0 32 32"><g> <path d="M16 4.588l2.833 8.719H28l-7.416 5.387 2.832 8.719L16 22.023l-7.417 5.389 2.833-8.719L4 13.307h9.167L16 4.588z"/> </g></symbol> <symbol id="icon-stop" viewBox="0 0 32 32"><g> <path d="M8 8h16v16H8z"/> </g></symbol> <symbol id="icon-sumally" viewBox="0 0 32 32"><g> <path d="M21.633 13.739l3.75-2.904-3-3.748a8.118 8.118 0 0 0-5.476-3.032 8.076 8.076 0 0 0-6.017 1.724 8.123 8.123 0 0 0-3.031 5.477 8.134 8.134 0 0 0 1.727 6.019l.787.986-3.756 2.899 3.007 3.756C10.985 26.625 12.679 28 16.04 28a8.088 8.088 0 0 0 5.074-1.778 8.13 8.13 0 0 0 3.033-5.478 8.115 8.115 0 0 0-1.727-6.016l-.787-.989zM12.25 7.488a5.897 5.897 0 0 1 3.707-1.306c2.543 0 3.721 1.011 4.721 2.266l1.591 1.989-1.998 1.592-1.56-1.959a5.333 5.333 0 0 0-.301-.312 3.372 3.372 0 0 0-1.348-.828c-.433-.148-1.072-.15-1.072-.15-.582 0-1.53.176-2.144.737a3.427 3.427 0 0 0-1.262 2.221c-.174 1.155.132 1.918.709 2.644l3.708 4.658c.008.01.48.515.302 1.14-.085.205-.237.417-.509.632-.02.011-.393.332-.917.26-.654-.102-1.168-.876-1.168-.876l-3.417-4.276a5.964 5.964 0 0 1-1.27-4.378l.004-.04a5.942 5.942 0 0 1 2.224-4.014zm-.513 12.485l1.596 1.992c.524.611 1.574 1.192 2.296 1.273.044.006 1.269.275 2.538-.726a3.403 3.403 0 0 0 1.273-2.301c.137-1.52-.679-2.472-.727-2.532l-3.708-4.656c-.213-.269-.612-1.059.204-1.8.233-.184.497-.277.788-.277.673 0 .898.346 1.007.48l3.711 4.661a5.956 5.956 0 0 1 1.267 4.409l-.007.072a5.966 5.966 0 0 1-2.217 3.945c-1.072.852-2.793 1.437-4.413 1.265a5.956 5.956 0 0 1-4.014-2.224l-1.595-1.992 2.001-1.589z"/> </g></symbol> <symbol id="icon-tablet" viewBox="0 0 32 32"><g> <path d="M22.461 5H9.539a1.6 1.6 0 0 0-1.601 1.603V25.4A1.6 1.6 0 0 0 9.539 27h12.922c.885 0 1.602-.718 1.602-1.602V6.603A1.603 1.603 0 0 0 22.461 5zm-6.46 20.418a1.022 1.022 0 1 1 1.021-1.021c-.001.634-.46 1.021-1.021 1.021zm6.862-3.501H9.138V7.704h13.725v14.213z"/> </g></symbol> <symbol id="icon-twitter" viewBox="0 0 32 32"><g> <path d="M11.919 24.94c-2.548 0-4.921-.747-6.919-2.032a9.049 9.049 0 0 0 6.681-1.867 4.512 4.512 0 0 1-4.215-3.137c.276.054.559.082.848.082.412 0 .812-.056 1.193-.156a4.519 4.519 0 0 1-3.622-4.425v-.059a4.478 4.478 0 0 0 2.042.564 4.507 4.507 0 0 1-2.008-3.758c0-.824.225-1.602.612-2.268a12.811 12.811 0 0 0 9.303 4.715 4.517 4.517 0 0 1 7.692-4.115 9.107 9.107 0 0 0 2.866-1.094 4.542 4.542 0 0 1-1.983 2.498 9.08 9.08 0 0 0 2.592-.71 9.283 9.283 0 0 1-2.252 2.337c.008.193.014.388.014.583-.001 5.962-4.542 12.843-12.844 12.842"/> </g></symbol> <symbol id="icon-youtube-play" viewBox="0 0 32 32"><g> <path d="M24.325 8.309s-2.655-.334-8.357-.334c-5.517 0-8.294.334-8.294.334A2.675 2.675 0 0 0 5 10.984v10.034a2.675 2.675 0 0 0 2.674 2.676s2.582.332 8.294.332c5.709 0 8.357-.332 8.357-.332A2.673 2.673 0 0 0 27 21.018V10.982a2.673 2.673 0 0 0-2.675-2.673zM13.061 19.975V12.03L20.195 16l-7.134 3.975z"/> </g></symbol> <symbol id="icon-youtube" viewBox="0 0 32 32"><g> <path d="M22.396 21.104H21.2v-.707c0-.299.298-.597.596-.597h.103c.302 0 .603.298.603.597v.707h-.106zM17.795 19.6c-.298 0-.6.2-.6.498v3.405c0 .298.205.5.6.5.301 0 .602-.202.602-.5v-3.5c-.002-.203-.301-.403-.602-.403zm7.406-1.9v6.497c0 1.604-1.402 2.803-3.003 2.803H9.797c-1.6 0-2.998-1.3-2.998-2.803V17.7c0-1.599 1.301-2.802 2.998-2.802H22.1c1.699 0 3.101 1.204 3.101 2.802zm-14.502 7.204v-6.809H12.2v-.992H8.1v.992h1.299v6.899l1.3-.09zm4.501-5.8h-1.203v4.492c0 .204-.197.301-.397.301-.101 0-.302-.097-.302-.395v-4.506h-1.3V23.8c0 .298 0 .696.301.899.602.398 1.698-.096 1.901-.697v.795h1v-5.693zm4.098 4.098V20.2c0-1.203-.901-1.899-1.998-.902v-2.299h-1.302v7.799h1.001l.104-.495c1.4 1.295 2.195.397 2.195-1.101zm3.997-.402h-.99v.703c0 .298-.205.5-.509.5h-.198c-.302 0-.494-.202-.494-.5v-1.401h2.191v-2.396c-.193-1.104-1.697-1.309-2.492-.706-.203.202-.408.405-.5.706-.103.3-.207.691-.207 1.294v1.8c0 3.096 3.5 2.705 3.199 0zm-4.9-9.801c.107.203.201.3.303.399.104.104.301.104.501.104.204 0 .298-.104.504-.203.097-.097.3-.3.396-.498v.498H21.5V7.301h-1.104v4.698c0 .301-.192.502-.494.502-.301 0-.498-.201-.498-.502V7.4h-1.198v5.101c.093.197.093.3.189.498zm-4.297-3.397c0-.6 0-1 .103-1.401.097-.3.301-.599.499-.798a1.66 1.66 0 0 1 .999-.301c.3 0 .598.098.803.2.197.101.396.3.498.498.104.203.195.401.301.603 0 .199.102.5.102.998V11c0 .602 0 .999-.102 1.202 0 .299-.104.496-.301.698a1.237 1.237 0 0 1-.498.498 1.86 1.86 0 0 1-.803.201c-.298 0-.599 0-.8-.099-.199-.103-.397-.203-.5-.399a5.108 5.108 0 0 1-.299-.703c-.102-.299-.102-.7-.102-1.197l.1-1.599zm1.102 2.397c0 .301.301.603.601.603.301 0 .596-.302.596-.603V8.798c0-.301-.295-.599-.596-.599-.3 0-.601.298-.601.599v3.201zM11.3 13.6h1.3V9.001L14.2 5h-1.503L11.9 8.001 10.999 5H9.6l1.7 4.001V13.6z"/> </g></symbol></svg>