<svg xmlns="http://www.w3.org/2000/svg" style="display: none;"> <symbol id="fi-apple" viewBox="0 0 64 64"><g> <path d="M52.723 41.864c-1.78-2.538-2.643-5.39-2.643-8.582 0-2.878.812-5.547 2.485-7.954.89-1.31 2.355-2.8 4.396-4.527-1.334-1.647-2.668-2.93-4.003-3.845-2.407-1.675-5.154-2.512-8.202-2.512-1.818 0-4.043.445-6.646 1.308-2.525.89-4.357 1.31-5.51 1.31-.875 0-2.642-.367-5.31-1.152-2.683-.76-4.96-1.15-6.804-1.15-4.41 0-8.06 1.856-10.924 5.546-2.904 3.742-4.356 8.53-4.356 14.365 0 6.227 1.897 12.663 5.665 19.36C14.693 60.678 18.55 64 22.45 64c1.308 0 2.996-.444 5.076-1.31 2.08-.862 3.898-1.28 5.468-1.28 1.662 0 3.598.418 5.796 1.23 2.342.836 4.134 1.228 5.39 1.228 3.284 0 6.58-2.512 9.878-7.535 2.17-3.192 3.74-6.41 4.735-9.603-2.276-.706-4.29-2.328-6.07-4.866z"/> <path d="M39.64 12.14c1.623-1.62 2.813-3.374 3.585-5.31.732-1.91 1.112-3.664 1.112-5.234 0-.105-.013-.236-.026-.366C44.3 1.073 44.3.942 44.3.837c-.026-.08-.053-.21-.092-.42-.04-.208-.078-.365-.104-.417-4.514 1.046-7.72 2.93-9.616 5.678-1.923 2.773-2.917 6.07-2.996 9.89 1.713-.156 3.048-.365 4.003-.653 1.374-.472 2.76-1.388 4.148-2.774z"/> </g></symbol> <symbol id="fi-arrow-bottom" viewBox="0 0 64 64"><g> <path d="M48.27 16.853L32 33.12 15.732 16.853l-7.014 7.014L32 47.148l23.28-23.282"/> </g></symbol> <symbol id="fi-arrow-left" viewBox="0 0 64 64"><g> <path d="M47.15 15.73l-7.015-7.01L16.85 32l23.285 23.28 7.015-7.01L30.88 32"/> </g></symbol> <symbol id="fi-arrow-right" viewBox="0 0 64 64"><g> <path d="M23.866 8.72l-7.017 7.01L33.12 32 16.85 48.27l7.017 7.01L47.147 32"/> </g></symbol> <symbol id="fi-arrow-top" viewBox="0 0 64 64"><g> <path d="M32 16.852L8.717 40.135l7.014 7.013L32 30.88l16.27 16.268 7.01-7.013"/> </g></symbol> <symbol id="fi-bus" viewBox="0 0 64 64"><g> <path d="M62.848 31.99l-.625-13-4.612-.025c-.196-2.393-.378-4.466-.513-5.746-.61-5.755-1.935-8.45-5.98-10.358C45.308.122 38.804 0 31.954 0S18.597.122 12.786 2.865C8.743 4.773 7.416 7.467 6.81 13.22c-.13 1.23-.303 3.197-.492 5.47l-4.4-.022-.766 12.99 4.074 1.055c-.167 2.24-.275 3.73-.275 3.73v19.603l4.79 1.016s-.058 2.208-.058 3.313c0 2.002 2.638 3.625 4.636 3.625 2.006 0 4.643-1.627 4.643-3.625v-3.313h25.99v3.313c0 2.002 2.638 3.623 4.636 3.623 2.002 0 4.637-1.625 4.637-3.625 0-1.107-.056-3.313-.056-3.313l4.787-1.016v-19.6s-.098-1.36-.253-3.43l4.148-1.024zM16.038 6.065c0-.918.91-1.663 2.03-1.663h27.77c1.12 0 2.03.744 2.03 1.663V7.31c0 .92-.91 1.664-2.03 1.664h-27.77c-1.12 0-2.03-.744-2.03-1.663V6.066zM13.31 50.343h.004l-.003.003c-2.41 0-4.37-1.958-4.37-4.368 0-2.414 1.96-4.368 4.368-4.368 2.416 0 4.373 1.954 4.373 4.367 0 2.41-1.956 4.366-4.37 4.366zm26.697 1.07H23.99v-1.67h16.02v1.67zm0-3.556H23.99v-1.67h16.02v1.67zm0-3.555H23.99v-1.67h16.02v1.67zm-27.794-7.9c-1.48 0-2.562-1.192-2.46-2.642.424-5.777.762-13.85 1.467-19.645.15-1.235 1.22-2.123 2.82-2.123h35.88c1.598 0 2.66.987 2.817 2.222.774 6.102 1.045 13.6 1.48 19.51.124 1.67-.523 2.677-2.31 2.677H12.217zm38.387 13.94v.004c-2.41 0-4.365-1.958-4.365-4.368 0-2.414 1.954-4.368 4.365-4.368 2.414 0 4.37 1.954 4.37 4.367 0 2.41-1.956 4.366-4.37 4.366z"/> </g></symbol> <symbol id="fi-camera" viewBox="0 0 64 64"><g> <path d="M32 23c-7.18 0-13 5.82-13 13s5.82 13 13 13 13-5.82 13-13-5.82-13-13-13zm0 20.55c-4.142 0-7.5-3.357-7.5-7.5s3.357-7.5 7.5-7.5 7.5 3.357 7.5 7.5c0 4.14-3.357 7.5-7.5 7.5z"/> <path d="M60 14H46l-6-8H24l-6 8H4c-2.2 0-4 1.8-4 4v36c0 2.2 1.8 4 4 4h56c2.2 0 4-1.8 4-4V18c0-2.2-1.8-4-4-4zM32 53.75c-9.803 0-17.75-7.947-17.75-17.75S22.197 18.25 32 18.25 49.75 26.197 49.75 36 41.803 53.75 32 53.75zM60 23.5h-8v-4h8v4z"/> </g></symbol> <symbol id="fi-car" viewBox="0 0 64 64"><g> <path d="M58.382 24.73l4.408-.234-1.628-5.635-5.36-.014-3.437-8.177c-.864-2.08-2.587-3.53-4.972-3.53H16.33c-2.39 0-3.832 1.45-4.67 3.53l-3.444 8.176-5.444.015-1.628 5.636 4.47.24C2.375 25.68 0 28.675 0 32.215l2 16.51h3.14l-.01 3.083c0 2.79 2.7 5.05 6.04 5.05 3.286 0 6.03-2.258 6.03-5.047v-3.085h29.612L46.8 51.81c0 2.792 2.406 5.05 6.044 5.05 3.362 0 6.03-2.258 6.03-5.047V48.73H62l2-16.51c0-3.546-2.38-6.547-5.618-7.49zM10.04 38.77c-2.55 0-4.632-2.072-4.632-4.646 0-2.553 2.082-4.643 4.63-4.643 2.553 0 4.643 2.09 4.643 4.642 0 2.573-2.09 4.646-4.64 4.646zm32.304 6.72H21.657l-1.306-7.822h23.3l-1.306 7.82zM10.812 24.4l.066-.172 4.974-11.944c.225-.603.832-1.056 1.515-1.056h29.276c.703 0 1.282.453 1.502 1.056l3.933 9.41L53.12 24.4H10.812zm43.163 14.366c-2.56 0-4.643-2.072-4.643-4.646 0-2.553 2.083-4.643 4.643-4.643 2.545 0 4.616 2.09 4.616 4.643 0 2.573-2.07 4.646-4.615 4.646z"/> </g></symbol> <symbol id="fi-check" viewBox="0 0 64 64"><g> <path d="M26.097 51.1l31.186-31.185-7.015-7.014-24.17 24.17-12.37-12.366-7.01 7.014"/> </g></symbol> <symbol id="fi-cross" viewBox="0 0 64 64"><g> <path d="M55.28 15.725L48.27 8.71 32 24.98 15.73 8.71l-7.013 7.015L24.993 32 8.718 48.275l7.01 7.014L32 39.02l16.268 16.27 7.013-7.015L39.007 32"/> </g></symbol> <symbol id="fi-css3" viewBox="0 0 64 64"><g> <path d="M9.52 3.04L7.386 13.792h43.728l-1.375 6.914H5.973l-2.1 10.75h43.73L45.142 43.73 27.55 49.556 12.272 43.73l1.05-5.323H2.57L0 51.294l25.268 9.666 29.103-9.666L64 3.04"/> </g></symbol> <symbol id="fi-dribbble" viewBox="0 0 64 64"><g> <path d="M32 64C14.355 64 0 49.645 0 32S14.355 0 32 0s32 14.355 32 32-14.355 32-32 32zm3.764-27.493c-7.898 2.495-14.36 7.71-19.752 15.945l-.26.397.38.284c4.62 3.48 10.108 5.314 15.873 5.314 3.077 0 6.143-.55 9.11-1.637l.397-.145-.074-.42c-1.234-7.072-2.883-13.43-5.043-19.43l-.164-.46-.466.152zm13.09-1.827c-2.413 0-4.728.152-6.88.456l-.61.087.2.582c1.896 5.506 3.506 11.42 4.785 17.572l.155.756.633-.443c5.965-4.184 9.985-10.685 11.034-17.838l.074-.514-.515-.064c-3.13-.394-6.118-.592-8.878-.592v-.002h.003zM31.86 27.168c-6.9 2.036-15.1 3.222-25.806 3.733l-.452.023-.03.45c-.018.257-.03.44-.03.627 0 6.023 2.104 11.934 5.92 16.64l.425.526.386-.555c6-8.603 13.072-14.048 21.62-16.645l.542-.165-.226-.52c-.626-1.46-1.197-2.716-1.747-3.846l-.19-.387-.412.12zm20.215-11.533c-4.085 4.04-8.745 7.126-14.244 9.434l-.482.202.217.477c.636 1.395 1.267 2.877 1.93 4.532l.146.373.398-.06c2.565-.377 5.272-.56 8.27-.56 2.843 0 5.947.168 9.49.517l.603.06-.044-.603c-.393-5.258-2.303-10.21-5.525-14.325l-.35-.45-.407.4zM19.733 8.58c-6.77 3.55-11.67 9.83-13.447 17.227l-.158.66.676-.034c9.186-.444 16.396-1.506 22.69-3.344l.617-.18-.317-.56c-2.625-4.613-5.71-9.076-9.43-13.642l-.262-.322-.366.194zM32 5.55c-1.954 0-3.942.233-5.91.693l-.828.193.562.637c3.35 3.8 6.453 8.377 9.224 13.606l.218.41.428-.18c5.102-2.156 9.416-4.936 13.19-8.5l.418-.396-.44-.366C44.112 7.716 38.125 5.55 32 5.548z"/> </g></symbol> <symbol id="fi-dropbox" viewBox="0 0 64 64"><g> <path d="M18.847 47.615L32 36.655 13 24.924 0 35.347M32 36.653l13.19 10.962L64 35.347 51 24.923"/> <path d="M32.078 39.04v-.08l-.038.04-.04-.04v.08L18.847 49.964l-5.655-3.693v4.152L32 61.692v.04l.04-.04.038.04v-.04l18.846-11.27V46.27l-5.655 3.693M0 14.538l13 10.385L32 13.23 18.847 2.27M45.19 2.27L32 13.23l19 11.693 13-10.385"/> </g></symbol> <symbol id="fi-facebook" viewBox="0 0 64 64"><g> <path d="M48.453 1.613l-9.14-.013c-8.857 0-14.582 5.873-14.582 14.963v6.9h-9.167v12.475h9.168L24.72 62.4h12.827l.005-26.462h10.526l-.016-12.475H37.555v-5.85c0-2.81.668-4.236 4.33-4.236l6.537-.002.03-11.762z"/> </g></symbol> <symbol id="fi-github" viewBox="0 0 64 64"><g> <path d="M56.956 20.895c0-4.618-1.76-8.333-4.61-11.143.5-1.592 1.157-5.128-.67-9.66 0 0-3.24-1.014-10.555 3.822-2.862-.72-5.92-1.064-8.965-1.064-3.353 0-6.753.42-9.918 1.282C14.684-.953 11.357.086 11.357.086c-2.174 5.37-.834 9.35-.42 10.338-2.57 2.72-4.114 6.206-4.114 10.456 0 3.23.37 6.106 1.28 8.623l.943 2.13c2.558 4.692 7.582 7.73 16.515 8.68-1.262.843-2.575 2.266-3.086 4.688-1.73.817-7.2 2.813-10.48-2.75 0 0-1.843-3.336-5.36-3.587 0 0-3.416-.047-.232 2.095 0 0 2.275 1.07 3.86 5.056 0 0 2.05 6.817 11.968 4.636v7.034s-.22 2.49-2.524 3.322c0 0-1.364.913.1 1.448 0 0 6.414.508 6.414-4.664V49.9s-.26-3.045 1.248-4.088v12.604s-.095 3-1.676 4.13c0 0-1.053 1.88 1.26 1.363 0 0 4.41-.618 4.604-5.723l.103-12.752h1.06l.1 12.752c.216 5.088 4.623 5.72 4.623 5.72 2.306.518 1.246-1.36 1.246-1.36-1.576-1.13-1.682-4.132-1.682-4.132V45.913c1.51 1.172 1.263 3.985 1.263 3.985v7.688c0 5.172 6.4 4.664 6.4 4.664 1.47-.54.108-1.45.108-1.45-2.312-.83-2.522-3.32-2.522-3.32V47.414c0-3.918-1.674-5.985-3.308-7.087 9.533-.924 14.095-3.98 16.21-8.698-.042.082.756-2.11.756-2.11.725-2.503.945-5.4.945-8.623h-.004z"/> </g></symbol> <symbol id="fi-googlePlus" viewBox="0 0 64 64"><g> <path d="M56.266 28.06v-7.69H50.14v7.69h-7.733v6.127h7.733v7.69h6.126v-7.69H64V28.06M38.372 29.485H19.574v6.82H32.02c-1 6.574-6.837 8.924-11.64 8.924-7.32 0-13.057-5.792-13.057-13.184 0-7.443 5.743-13.273 13.075-13.273 5.478 0 8.847 3.505 8.88 3.54l.566.605 4.76-4.927-.493-.545c-.204-.225-5.107-5.507-13.9-5.507C9.257 11.938 0 21.103 0 31.95c0 9.673 7.833 20.112 20.49 20.112 10.99 0 18.665-7.53 18.665-18.312 0-1.09-.14-3.62-.552-4.036l-.23-.23z"/> </g></symbol> <symbol id="fi-heart" viewBox="0 0 64 64"><g> <path d="M32 57.772c-56.186-30.648-15.55-68.754 0-43.09 15.55-25.662 56.19 12.442 0 43.09z"/> </g></symbol> <symbol id="fi-home" viewBox="0 0 64 64"><g> <path d="M60.8 37.34L32 14.984 3.2 37.34v-9.11L32 5.87l28.8 22.356v9.114zm-7.2-.813V58.13H39.2v-14.4H24.8v14.4H10.4v-21.6L32 20.33l21.6 16.2v-.003z"/> </g></symbol> <symbol id="fi-html5" viewBox="0 0 64 64"><g> <path d="M3.84 0l5.12 57.52L31.92 64l23.12-6.48L60.16 0H3.84zm45.2 18.76H22.08l.6 7.24h25.76l-2 21.76-14.36 3.96v.04h-.16l-14.48-4-.88-11.12h7l.52 5.6 7.84 2.12 7.88-2.12.88-9.12H16.2l-1.88-21.36h35.36l-.64 7z"/> </g></symbol> <symbol id="fi-instagram" viewBox="0 0 64 64"><g> <path d="M54.307 27.533h-5.05c.368 1.43.59 2.926.59 4.467 0 9.854-8 17.846-17.848 17.846-9.855 0-17.85-7.992-17.85-17.846 0-1.54.214-3.036.59-4.467H9.69V52.08c0 1.23.997 2.227 2.228 2.227h40.16c1.23 0 2.227-.996 2.227-2.226V27.535h.002zm0-15.613c0-1.23-.998-2.227-2.228-2.227h-6.7c-1.23 0-2.23.998-2.23 2.227v6.693c0 1.23.998 2.232 2.23 2.232h6.697c1.23 0 2.227-1.004 2.227-2.232V11.92h.003zM32 20.848c-6.164 0-11.16 4.99-11.16 11.152 0 6.155 4.997 11.152 11.16 11.152 6.162 0 11.152-4.997 11.152-11.152 0-6.162-4.99-11.152-11.152-11.152M54.307 61H9.693C5.997 61 3 58.003 3 54.307V9.693C3 5.998 5.997 3 9.693 3h44.614C58.007 3 61 5.998 61 9.693v44.614C61 58.003 58.008 61 54.307 61"/> </g></symbol> <symbol id="fi-mail" viewBox="0 0 64 64"><g> <path d="M0 55.924V8.076h64v47.848H0zm8.758-5.278H55.24l-14.872-14.88-3.186 3.158c-1.55 1.55-3.293 2.333-5.182 2.333-1.888 0-3.63-.784-5.18-2.33l-3.19-3.16-14.872 14.88zm-3.536-3.708l14.77-14.807-14.77-14.736v29.544zM44.004 32.13L58.78 46.935l.002-29.545-14.778 14.74zm-13.3 3.374c.383.386.676.57 1.3.57.618 0 .91-.184 1.298-.57l22.036-22.106-46.678-.002s21.657 21.722 22.044 22.108z"/> </g></symbol> <symbol id="fi-phone" viewBox="0 0 64 64"><g> <path d="M21.736 5.225S20.876 3.2 19.562 3.2c-1.313 0-1.988.6-2.438 1.013-.45.413-7.987 6.6-7.987 6.6s-2.175 1.913-2.024 5.512c.15 3.6.862 8.738 4.5 15.863 3.64 7.125 12.713 18 18.45 21.824 0 0 5.326 4.09 10.277 5.74 1.434.477 4.312 1.05 4.986 1.05.676 0 1.875 0 3.263-1.013 1.387-1.015 9.262-7.352 9.262-7.352s1.95-1.725-.3-3.75c-2.25-2.024-9.075-6.525-10.538-7.726-1.463-1.2-3.562-.675-4.462.15-.9.826-2.487 2.158-2.7 2.325-.287.225-1.086.954-1.987.6-1.147-.45-5.85-3-10.2-8.962s-4.82-7.912-5.476-10.012c-.188-.6-.04-1.275.6-1.726.637-.45 3.037-2.438 3.037-2.438s1.538-1.538.9-3.338c-.64-1.798-4.99-12.337-4.99-12.337z"/> </g></symbol> <symbol id="fi-pin" viewBox="0 0 64 64"><g> <path d="M32 3.2c-10.003 0-18.113 8.11-18.113 18.112 0 1.822.31 3.593.81 5.25l17.257 34.212v.025l.005-.014.005.013v-.024L47.46 30.754c.456-.745 1.88-4.202 1.88-4.202.503-1.66.773-3.417.773-5.24C50.113 11.31 42.003 3.2 32 3.2zm0 24.03c-3.938 0-7.13-3.193-7.13-7.132s3.192-7.13 7.13-7.13 7.13 3.192 7.13 7.13-3.192 7.13-7.13 7.13z"/> </g></symbol> <symbol id="fi-pinterest" viewBox="0 0 64 64"><g> <path d="M32.77 3C17.594 3 9.54 13.192 9.54 24.292c0 5.154 2.74 11.577 7.136 13.622.67.312 1.02.174 1.17-.473.124-.484.718-2.872.983-3.983.08-.357.046-.662-.25-1.016-1.45-1.755-2.607-5-2.607-8.02 0-7.757 5.873-15.257 15.876-15.257 8.645 0 14.692 5.88 14.692 14.307 0 9.517-4.804 16.104-11.058 16.104-3.448 0-6.035-2.85-5.21-6.36.997-4.18 2.917-8.696 2.917-11.704 0-2.706-1.454-4.96-4.443-4.96-3.535 0-6.366 3.65-6.366 8.544 0 3.115 1.054 5.215 1.054 5.215s-3.49 14.745-4.124 17.49c-1.087 4.653.136 12.193.25 12.856.056.352.452.472.666.175.34-.458 4.55-6.757 5.732-11.314l2.185-8.36c1.158 2.187 4.5 4.038 8.066 4.038 10.6 0 18.256-9.762 18.256-21.88C54.462 11.7 44.972 3 32.772 3z"/> </g></symbol> <symbol id="fi-skype" viewBox="0 0 64 64"><g> <path d="M60.667 38.25c.443-2.14.667-4.224.667-6.25 0-3.972-.77-7.77-2.313-11.396-1.54-3.625-3.623-6.75-6.248-9.375-2.624-2.626-5.75-4.71-9.375-6.25C39.77 3.437 35.975 2.666 32 2.666c-2.027 0-4.11.222-6.25.667C22.86 1.11 19.61 0 16 0 11.583 0 7.813 1.56 4.688 4.686 1.562 7.81 0 11.583 0 16c0 3.61 1.11 6.86 3.333 9.75-.444 2.138-.666 4.22-.666 6.25 0 3.97.77 7.77 2.312 11.395 1.54 3.623 3.624 6.748 6.25 9.375 2.624 2.623 5.75 4.707 9.374 6.248C24.23 60.56 28.027 61.33 32 61.33c2.03 0 4.11-.223 6.25-.665C41.14 62.887 44.39 64 48 64c4.416 0 8.188-1.562 11.312-4.688S64 52.416 64 48c-.003-3.612-1.112-6.86-3.333-9.75zM47.5 44.437c-.916 1.626-2.147 2.925-3.688 3.896-1.54.97-3.242 1.714-5.104 2.23-1.86.512-3.805.77-5.834.77-4.694 0-8.735-.912-12.124-2.73-3.39-1.82-5.083-4.007-5.083-6.562 0-1.25.354-2.29 1.062-3.124.707-.833 1.756-1.25 3.145-1.25.807 0 1.555.223 2.25.666.693.444 1.333.98 1.916 1.606.585.625 1.216 1.247 1.897 1.875.68.625 1.584 1.157 2.708 1.602 1.125.446 2.396.67 3.813.67 1.805 0 3.262-.355 4.375-1.063 1.11-.71 1.665-1.605 1.665-2.688 0-1.11-.44-1.946-1.33-2.5-.61-.39-2.168-.892-4.668-1.502l-6.083-1.5c-1.667-.39-3.098-.84-4.293-1.354-1.195-.513-2.307-1.187-3.333-2.02-1.027-.834-1.805-1.882-2.333-3.147-.527-1.263-.79-2.742-.79-4.437 0-2.03.464-3.81 1.394-5.354.93-1.542 2.168-2.75 3.71-3.626 1.54-.875 3.202-1.528 4.98-1.958 1.776-.43 3.61-.646 5.5-.646 2.666 0 5.194.32 7.582.958 2.388.64 4.36 1.576 5.915 2.812 1.555 1.237 2.334 2.62 2.334 4.145 0 1.25-.394 2.32-1.188 3.208-.788.89-1.836 1.337-3.142 1.337-.723 0-1.39-.167-2-.5-.61-.332-1.167-.735-1.667-1.208-.5-.47-1.028-.938-1.585-1.395-.554-.458-1.306-.854-2.248-1.188-.946-.335-2.015-.5-3.208-.5-4 0-6 1.068-6 3.207 0 .473.105.89.312 1.25.21.36.44.653.688.875.25.223.666.444 1.25.667.583.222 1.07.38 1.46.478.388.098 1 .244 1.832.438l4.332 1c1.362.306 2.576.625 3.646.958 1.07.334 2.216.806 3.438 1.418 1.222.61 2.236 1.29 3.04 2.04.81.752 1.48 1.704 2.022 2.856.544 1.154.812 2.423.812 3.813 0 2.027-.458 3.853-1.373 5.477z"/> </g></symbol> <symbol id="fi-smartPhone" viewBox="0 0 64 64"><g> <path d="M45.464 0H18.536C15.96 0 13.88 2.09 13.88 4.662v54.682c0 2.57 2.08 4.656 4.656 4.656h26.928c2.572 0 4.657-2.087 4.657-4.656V4.662C50.12 2.09 48.037 0 45.465 0zM32.002 59.398c-1.64 0-2.974-1.334-2.974-2.975 0-1.643 1.334-2.973 2.974-2.973 1.634 0 2.97 1.33 2.97 2.973 0 1.64-1.335 2.975-2.97 2.975zm14.63-10.188H17.37V7.866h29.262V49.21zM36.896 5.212H27.29V2.975h9.606v2.237z"/> </g></symbol> <symbol id="fi-star" viewBox="0 0 64 64"><g> <path d="M32 1.134l7.555 23.25H64L44.225 38.75 51.777 62 32 47.63 12.223 62l7.554-23.25L0 24.384h24.447L32 1.134z"/> </g></symbol> <symbol id="fi-sumally" viewBox="0 0 64 64"><g> <path d="M47.02 25.97l10.003-7.745-8-9.992C45.403 3.676 40.215.803 34.42.143 33.59.05 32.743 0 31.91 0c-4.953 0-9.633 1.64-13.532 4.745-4.563 3.634-7.435 8.82-8.086 14.602-.657 5.79.98 11.49 4.605 16.05l2.1 2.633-10.017 7.732 8.02 10.014c3.63 4.557 8.812 7.425 14.59 8.078.823.096 1.67.146 2.52.146 4.943 0 9.623-1.64 13.53-4.742 4.56-3.635 7.433-8.822 8.09-14.607.66-5.782-.977-11.478-4.606-16.04l-2.1-2.64zM22 9.3c2.86-2.277 6.276-3.48 9.885-3.48.62 0 1.254.036 1.88.107 4.244.482 8.046 2.588 10.708 5.934l4.245 5.308-5.33 4.242-4.157-5.225c-.206-.257-.437-.483-.67-.708l-.13-.124c-1.066-1.045-2.277-1.788-3.595-2.207-.57-.183-1.17-.31-1.784-.38-.126-.016-.253-.02-.378-.02l-.697-.002c-1.552 0-3 .355-4.3 1.052-.532.28-.995.58-1.416.914-1.847 1.468-3.043 3.578-3.368 5.923-.024.09-.044.18-.05.253-.286 2.448.403 4.862 1.942 6.796l9.89 12.42c.02.027.035.058.053.085l.096.152c.455.685.648 1.457.56 2.236-.1.884-.538 1.68-1.264 2.253-.05.028-.1.06-.14.09-.573.402-1.216.604-1.922.604h-.1-.164c-.038 0-.076 0-.12-.004-.888-.1-1.68-.54-2.23-1.233l-.432-.545-.453-.556-5.196-6.49-3.917-4.916c-2.64-3.315-3.84-7.457-3.386-11.673l.014-.106c.474-4.236 2.58-8.037 5.926-10.7zm-1.367 33.294l4.253 5.312c.295.37.62.68.955.99 1.453 1.355 3.244 2.19 5.17 2.405.118.017.36.024.645.024.452 0 1.287-.02 1.5-.05.37-.04 1.396-.265 1.642-.34.4-.126.772-.288 1.093-.435.168-.078 1.397-.746 1.887-1.134 1.92-1.53 3.125-3.71 3.395-6.133.243-2.114-.268-4.205-1.48-6.05-.042-.067-.08-.136-.122-.2-.104-.172-.207-.342-.334-.502l-9.89-12.417c-.568-.717-.823-1.61-.718-2.52.008-.07.028-.14.045-.207l.036-.15c.173-.79.57-1.437 1.18-1.922.62-.49 1.327-.74 2.102-.74.136 0 .272.007.41.022.223.025.446.073.66.14.642.206 1.202.592 1.618 1.12l7.176 9.022.68.846 2.04 2.56c2.66 3.344 3.858 7.52 3.376 11.757l-.02.196c-.526 4.168-2.62 7.896-5.91 10.52-2.86 2.273-6.286 3.477-9.907 3.477-.615 0-1.242-.035-1.86-.104-4.24-.482-8.04-2.59-10.705-5.932l-4.252-5.31 5.335-4.244z"/> </g></symbol> <symbol id="fi-twitter" viewBox="0 0 64 64"><g> <path d="M20.127 58.007C12.715 58.007 5.81 55.83 0 52.102c1.026.12 2.067.19 3.134.19 6.15 0 11.81-2.103 16.3-5.62-5.745-.11-10.598-3.91-12.26-9.124.798.147 1.623.236 2.46.236 1.203 0 2.365-.162 3.473-.46C7.093 36.114 2.57 30.81 2.57 24.452v-.168c1.77.98 3.796 1.573 5.945 1.642-3.527-2.352-5.84-6.378-5.84-10.933 0-2.404.65-4.662 1.778-6.6 6.48 7.95 16.155 13.173 27.06 13.72-.216-.958-.337-1.963-.337-2.99 0-7.25 5.88-13.13 13.137-13.13 3.77 0 7.19 1.595 9.58 4.143 2.985-.588 5.812-1.683 8.338-3.183-.98 3.06-3.06 5.636-5.77 7.264 2.647-.316 5.185-1.02 7.54-2.066-1.77 2.637-3.99 4.947-6.555 6.8.027.56.043 1.13.043 1.694 0 17.35-13.213 37.364-37.36 37.363"/> </g></symbol></svg>