<svg style="display: none;"> <symbol id="icon-ban" viewBox="0 0 32 32"><g> <path d="M16 4C9.383 4 4 9.382 4 16s5.383 12 12 12c6.616 0 12-5.382 12-12S22.616 4 16 4zm0 3c1.94 0 3.739.621 5.209 1.669L8.668 21.212A8.96 8.96 0 0 1 7 16c0-4.962 4.037-9 9-9zm0 18a8.954 8.954 0 0 1-5.21-1.669l12.54-12.543A8.947 8.947 0 0 1 25 16c0 4.961-4.037 9-9 9z"/> </g></symbol> <symbol id="icon-camera" viewBox="0 0 32 32"><g> <path d="M16 12.625a4.875 4.875 0 1 0 .001 9.751A4.875 4.875 0 0 0 16 12.625zm0 7.705a2.811 2.811 0 1 1-.001-5.623A2.811 2.811 0 0 1 16 20.33z"/> <path d="M26.5 9.25h-5.25l-2.25-3h-6l-2.25 3H5.5c-.826 0-1.5.674-1.5 1.5v13.5c0 .824.674 1.5 1.5 1.5h21c.825 0 1.5-.674 1.5-1.5v-13.5c0-.826-.675-1.5-1.5-1.5zM16 24.156a6.656 6.656 0 1 1 0-13.312 6.656 6.656 0 0 1 0 13.312zm10.5-11.344h-3v-1.5h3v1.5z"/> </g></symbol> <symbol id="icon-caret-bottom" viewBox="0 0 32 32"><g> <path d="M24 11.305l-7.997 11.39L8 11.305z"/> </g></symbol> <symbol id="icon-caret-left" viewBox="0 0 32 32"><g> <path d="M20.697 24L9.303 16.003 20.697 8z"/> </g></symbol> <symbol id="icon-caret-right" viewBox="0 0 32 32"><g> <path d="M11.303 8l11.394 7.997L11.303 24z"/> </g></symbol> <symbol id="icon-caret-top" viewBox="0 0 32 32"><g> <path d="M8 20.695l7.997-11.39L24 20.695z"/> </g></symbol> <symbol id="icon-check" viewBox="0 0 32 32"><g> <path d="M4 15.345l2.269-2.268 6.923 6.922L25.729 7.462 28 9.731 13.192 24.538z"/> </g></symbol> <symbol id="icon-chevron-bottom" viewBox="0 0 32 32"><g> <path d="M16.003 18.626l7.081-7.081L25 13.46l-8.997 8.998-9.003-9 1.917-1.916z"/> </g></symbol> <symbol id="icon-chevron-left" viewBox="0 0 32 32"><g> <path d="M14.19 16.005l7.869 7.868-2.129 2.129-9.996-9.997L19.937 6.002l2.127 2.129z"/> </g></symbol> <symbol id="icon-chevron-right" viewBox="0 0 32 32"><g> <path d="M18.629 15.997l-7.083-7.081L13.462 7l8.997 8.997L13.457 25l-1.916-1.916z"/> </g></symbol> <symbol id="icon-chevron-top" viewBox="0 0 32 32"><g> <path d="M15.997 13.374l-7.081 7.081L7 18.54l8.997-8.998 9.003 9-1.916 1.916z"/> </g></symbol> <symbol id="icon-clock" viewBox="0 0 32 32"><g> <path d="M16 4C9.383 4 4 9.383 4 16s5.383 12 12 12 12-5.383 12-12S22.617 4 16 4zm0 21c-4.963 0-9-4.037-9-9s4.037-9 9-9c4.962 0 9 4.037 9 9s-4.038 9-9 9z"/> <path d="M14.875 14.875H11.66v2.25l5.465-.003V9.169h-2.25z"/> </g></symbol> <symbol id="icon-cross" viewBox="0 0 32 32"><g> <path d="M7.004 23.087l7.08-7.081-7.07-7.071L8.929 7.02l7.067 7.069L23.084 7l1.912 1.913-7.089 7.093 7.075 7.077-1.912 1.913-7.074-7.073L8.917 25z"/> </g></symbol> <symbol id="icon-css3" viewBox="0 0 32 32"><g> <path d="M8.272 6.044L7.539 9.74H22.57l-.472 2.378H7.053l-.722 3.696h15.033l-.846 4.216-6.049 2.004-5.251-2.004.362-1.828H5.884L5 22.632l8.686 3.324 10.003-3.324L27 6.044z"/> </g></symbol> <symbol id="icon-dribbble" viewBox="0 0 32 32"><g> <path d="M16 28C9.383 28 4 22.618 4 16 4 9.383 9.383 4 16 4s12 5.383 12 12c0 6.618-5.383 12-12 12zm-5.849-4.185A9.657 9.657 0 0 0 16 25.768a9.699 9.699 0 0 0 3.423-.622 47.086 47.086 0 0 0-1.954-7.28c-4.286 1.391-6.496 4.512-7.318 5.949zm9.51-6.47a49.573 49.573 0 0 1 1.825 6.73 9.75 9.75 0 0 0 4.163-6.571 20.238 20.238 0 0 0-3.583-.338 15.803 15.803 0 0 0-2.405.179zM6.231 16c0 2.289.808 4.503 2.279 6.261 1.195-1.866 3.739-4.951 8.153-6.453a38.704 38.704 0 0 0-.633-1.404c-3.801 1.094-7.691 1.365-9.796 1.426l-.003.17zm15.906-1.062c1.156 0 2.367.104 3.604.312a9.683 9.683 0 0 0-1.992-5.188c-1.286 1.468-3.158 2.684-5.571 3.621.228.492.456 1.013.679 1.551a17.81 17.81 0 0 1 3.28-.296zM11.37 7.404a9.766 9.766 0 0 0-4.831 6.174c1.87-.079 5.208-.342 8.44-1.202-1.474-2.618-2.853-4.204-3.609-4.972zm2.25-.876c.925 1.034 2.226 2.712 3.552 5.152 2.245-.836 3.93-1.923 5.016-3.23A9.763 9.763 0 0 0 16 6.231c-.801.001-1.6.1-2.38.297z"/> </g></symbol> <symbol id="icon-dropbox" viewBox="0 0 32 32"><g> <path d="M11.067 21.856L16 17.746l-7.125-4.4L4 17.256zM16 17.744l4.947 4.112 7.053-4.6-4.875-3.91z"/> <path d="M16.029 18.64v-.03l-.014.015L16 18.61v.03l-4.933 4.095-2.12-1.383v1.556L16 27.135v.013l.015-.013.014.013v-.013l7.067-4.227v-1.556l-2.119 1.383zM4 9.452l4.875 3.894L16 8.961l-4.933-4.109zM20.947 4.852L16 8.961l7.125 4.385L28 9.452z"/> </g></symbol> <symbol id="icon-externalLink" viewBox="0 0 32 32"><g> <path d="M23.5 23.5h-15v-15h4.791V6H6v20h20v-7.969h-2.5z"/> <path d="M17.979 6l3.016 3.018-6.829 6.829 1.988 1.987 6.83-6.828L26 14.02V6z"/> </g></symbol> <symbol id="icon-facebook" viewBox="0 0 32 32"><g> <path d="M22.491 4.005l-3.606-.004c-3.497 0-5.757 2.317-5.757 5.907v2.722H9.509v4.924h3.619l-.004 10.447h5.062l.004-10.447h4.153l-.005-4.923H18.19v-2.309c0-1.11.264-1.672 1.709-1.672l2.582-.001c-.002 0 .01-4.614.01-4.644z"/> </g></symbol> <symbol id="icon-file" viewBox="0 0 32 32"><g> <path d="M15.331 6H8.5v20h15V14.154h-8.169z"/> <path d="M18.153 6h-.009v5.342H23.5v-.002z"/> </g></symbol> <symbol id="icon-github" viewBox="0 0 32 32"><g> <path d="M26.182 11.836c0-1.731-.66-3.125-1.729-4.179.188-.597.434-1.923-.251-3.623 0 0-1.216-.379-3.958 1.435a13.838 13.838 0 0 0-3.362-.399c-1.258 0-2.532.156-3.719.48-2.832-1.906-4.08-1.518-4.08-1.518-.815 2.015-.312 3.507-.158 3.877-.964 1.021-1.542 2.328-1.542 3.921 0 1.212.139 2.29.48 3.234l.354.799c.959 1.76 2.843 2.897 6.193 3.254-.474.316-.966.85-1.158 1.759-.648.305-2.7 1.054-3.93-1.031 0 0-.691-1.251-2.01-1.346 0 0-1.281-.018-.087.786 0 0 .853.4 1.447 1.896 0 0 .769 2.556 4.488 1.738v2.637s-.083.936-.946 1.247c0 0-.512.342.037.543 0 0 2.405.189 2.405-1.75v-2.884s-.098-1.141.468-1.532v4.726s-.035 1.125-.629 1.55c0 0-.395.705.473.511 0 0 1.654-.231 1.727-2.146l.039-4.782h.397l.037 4.782c.082 1.907 1.734 2.146 1.734 2.146.865.194.468-.511.468-.511-.591-.424-.631-1.55-.631-1.55v-4.687c.566.438.474 1.493.474 1.493v2.883c0 1.939 2.4 1.749 2.4 1.749.551-.202.04-.543.04-.543-.866-.312-.946-1.246-.946-1.246V21.78c0-1.47-.627-2.244-1.24-2.658 3.574-.347 5.285-1.491 6.078-3.261-.016.03.283-.792.283-.792.273-.938.355-2.024.355-3.233h-.001z"/> </g></symbol> <symbol id="icon-googlePlus" viewBox="0 0 32 32"><g> <path d="M25.1 14.522v-2.883h-2.297v2.883h-2.901v2.298h2.901v2.884H25.1V16.82H28v-2.298zM18.389 15.057H11.34v2.558h4.667c-.375 2.466-2.563 3.346-4.365 3.346-2.746 0-4.896-2.171-4.896-4.942 0-2.792 2.153-4.978 4.903-4.978 2.054 0 3.318 1.313 3.33 1.328l.212.226 1.786-1.847-.185-.205c-.077-.084-1.916-2.065-5.213-2.065C7.471 8.477 4 11.913 4 15.981c0 3.627 2.937 7.542 7.684 7.542 4.121 0 6.999-2.824 6.999-6.867 0-.409-.052-1.357-.206-1.514l-.088-.085z"/> </g></symbol> <symbol id="icon-hamburger" viewBox="0 0 32 32"><g> <path d="M5.001 7.128L5 10.438l21.998-.005L27 7.124zM5.001 21.566L5 24.876l21.998-.006.002-3.308zM5.001 14.341L5 17.651l21.998-.005.002-3.309z"/> </g></symbol> <symbol id="icon-heart" viewBox="0 0 32 32"><g> <path d="M26.996 12.898c-.064-2.207-1.084-4.021-2.527-5.13-1.856-1.428-4.415-1.69-6.542-.132-.702.516-1.359 1.23-1.927 2.168-.568-.938-1.224-1.652-1.927-2.167-2.127-1.559-4.685-1.297-6.542.132-1.444 1.109-2.463 2.923-2.527 5.13-.035 1.172.145 2.48.788 3.803 1.01 2.077 5.755 6.695 10.171 10.683l.035.038.002-.002.002.002.036-.038c4.415-3.987 9.159-8.605 10.17-10.683.644-1.323.822-2.632.788-3.804z"/> </g></symbol> <symbol id="icon-home" viewBox="0 0 32 32"><g> <path d="M28 18.225L16 8.91 4 18.225v-3.796l12-9.316 12 9.314v3.798zm-3-.339v9.002h-6v-6h-6v6H7v-9l9-6.75 9 6.75v-.002z"/> </g></symbol> <symbol id="icon-html5" viewBox="0 0 32 32"><g> <path d="M6.32 5.5l1.759 19.774 7.893 2.226 7.948-2.226L25.68 5.5H6.32zm15.537 6.449H12.59l.207 2.488h8.854l-.687 7.479-4.937 1.361v.014h-.055l-4.978-1.375-.303-3.821h2.406l.179 1.925 2.695.728 2.708-.728.303-3.136h-8.415l-.645-7.341h12.155l-.22 2.406z"/> </g></symbol> <symbol id="icon-instagram" viewBox="0 0 32 32"><g> <path d="M20.85 4h-9.7A7.156 7.156 0 0 0 4 11.15v9.7A7.156 7.156 0 0 0 11.15 28h9.7a7.156 7.156 0 0 0 7.149-7.15v-9.7A7.155 7.155 0 0 0 20.85 4zm4.736 16.85a4.736 4.736 0 0 1-4.736 4.736h-9.7a4.736 4.736 0 0 1-4.736-4.736v-9.7a4.736 4.736 0 0 1 4.736-4.736h9.7a4.735 4.735 0 0 1 4.735 4.736l.001 9.7z"/> <path d="M16 9.794c-3.423 0-6.206 2.783-6.206 6.206s2.783 6.206 6.206 6.206 6.206-2.783 6.206-6.206S19.423 9.794 16 9.794zm0 9.997a3.791 3.791 0 1 1-.001-7.583A3.791 3.791 0 0 1 16 19.791zM22.218 8.354a1.487 1.487 0 1 1-1.487 1.487c0-.821.556-1.487 1.487-1.487z"/> </g></symbol> <symbol id="icon-location" viewBox="0 0 32 32"><g> <path d="M25.497 6.503l.001-.003-.004.005L3.5 15.901l11.112 1.489 1.487 11.11 9.396-21.992.005-.006z"/> </g></symbol> <symbol id="icon-mail" viewBox="0 0 32 32"><g> <path d="M4 24.972V7.028h24v17.943H4zm3.284-1.98h17.431l-5.576-5.58L16 20.559l-3.139-3.146-5.577 5.579zm-1.326-1.39l5.539-5.553-5.539-5.525v11.078zm14.544-5.553l5.54 5.552.001-11.079-5.541 5.527zm-4.501 1.732l8.751-8.756-17.504-.001 8.753 8.757z"/> </g></symbol> <symbol id="icon-mobile" viewBox="0 0 32 32"><g> <path d="M21.049 4H10.951c-.967 0-1.746.783-1.746 1.748v20.506c0 .964.78 1.746 1.746 1.746h10.098c.965 0 1.746-.782 1.746-1.746V5.748c0-.965-.781-1.748-1.746-1.748zm-5.048 22.274a1.115 1.115 0 1 1 0 0zm5.485-3.82H10.514V6.95h10.973v15.504h-.001zm-3.65-16.5h-3.602v-.838h3.602v.838z"/> </g></symbol> <symbol id="icon-more" viewBox="0 0 32 32"><g> <path d="M9.922 16A2.96 2.96 0 1 1 4 16a2.96 2.96 0 0 1 5.922 0zM16 13.039a2.961 2.961 0 1 0 0 5.923 2.961 2.961 0 0 0 0-5.923zm9.039 0a2.962 2.962 0 1 0 0 5.923 2.962 2.962 0 0 0 0-5.923z"/> </g></symbol> <symbol id="icon-person" viewBox="0 0 32 32"><g> <path d="M16 15.458c3.038 0 5.5-2.461 5.5-5.5a5.5 5.5 0 0 0-5.5-5.5 5.499 5.499 0 0 0-5.5 5.5c0 3.039 2.461 5.5 5.5 5.5zm0 2.416c-7.312 0-12 4.035-12 6v3.668h24v-3.668c0-2.375-4.438-6-12-6z"/> </g></symbol> <symbol id="icon-phone" viewBox="0 0 32 32"><g> <path d="M11.748 5.773S11.418 5 10.914 5c-.496 0-.754.229-.926.387S6.938 7.91 6.938 7.91s-.837.731-.773 2.106c.054 1.375.323 3.332 1.719 6.058 1.386 2.72 4.855 6.876 7.047 8.337 0 0 2.031 1.558 3.921 2.191.549.173 1.647.398 1.903.398.26 0 .719 0 1.246-.385.536-.389 3.543-2.807 3.543-2.807s.736-.665-.119-1.438c-.859-.773-3.467-2.492-4.025-2.944-.559-.459-1.355-.257-1.699.054-.343.313-.956.828-1.031.893-.112.086-.419.365-.763.226-.438-.173-2.234-1.148-3.899-3.426-1.655-2.276-1.837-3.02-2.084-3.824a.56.56 0 0 1 .225-.657c.248-.172 1.161-.933 1.161-.933s.591-.583.344-1.27-1.906-4.716-1.906-4.716z"/> </g></symbol> <symbol id="icon-pin" viewBox="0 0 32 32"><g> <path d="M16.001 4c-4.599 0-8.415 3.729-8.328 8.328.032 1.721.784 3.08 1.474 4.391.264.501 6.833 11.271 6.833 11.271V28l.002-.007.002.007v-.01l7.124-11.32c.444-.767.865-1.933.865-1.933a8.295 8.295 0 0 0 .354-2.408A8.326 8.326 0 0 0 16.001 4zM16 16.021a4.25 4.25 0 1 1 0-8.503 4.251 4.251 0 1 1 0 8.503z"/> </g></symbol> <symbol id="icon-pinterest" viewBox="0 0 32 32"><g> <path d="M16.319 4c-6.281 0-9.614 4.217-9.614 8.811 0 2.133 1.134 4.791 2.953 5.638.276.129.422.07.483-.196.052-.2.298-1.188.407-1.648a.438.438 0 0 0-.104-.421c-.6-.727-1.078-2.069-1.078-3.318 0-3.21 2.43-6.313 6.569-6.313 3.578 0 6.079 2.433 6.079 5.92 0 3.938-1.987 6.664-4.575 6.664-1.427 0-2.497-1.18-2.156-2.633.413-1.729 1.207-3.598 1.207-4.842 0-1.12-.602-2.054-1.838-2.054-1.463 0-2.635 1.511-2.635 3.536 0 1.289.437 2.158.437 2.158s-1.444 6.102-1.706 7.237c-.45 1.926.056 5.046.103 5.32.023.146.188.195.275.072.141-.19 1.883-2.797 2.372-4.683l.904-3.458c.479.904 1.861 1.67 3.338 1.67 4.386 0 7.554-4.039 7.554-9.054C25.295 7.6 21.367 4 16.319 4z"/> </g></symbol> <symbol id="icon-search-minus" viewBox="0 0 32 32"><g> <path d="M21.839 19.188A9.694 9.694 0 0 0 23.5 13.75C23.5 8.374 19.127 4 13.75 4 8.374 4 4 8.374 4 13.75s4.374 9.75 9.75 9.75a9.686 9.686 0 0 0 5.438-1.661L25.348 28 28 25.35l-6.161-6.162zM13.75 20.5A6.757 6.757 0 0 1 7 13.75 6.758 6.758 0 0 1 13.75 7a6.757 6.757 0 0 1 6.75 6.75 6.756 6.756 0 0 1-6.75 6.75zm-4.099-7.924h8.197v2.25H9.651v-2.25z"/> </g></symbol> <symbol id="icon-search-plus" viewBox="0 0 32 32"><g> <path d="M28 25.35l-6.161-6.162A9.696 9.696 0 0 0 23.5 13.75C23.5 8.374 19.127 4 13.75 4 8.374 4 4 8.374 4 13.75s4.374 9.75 9.75 9.75a9.686 9.686 0 0 0 5.438-1.661L25.348 28 28 25.35zM13.75 20.5A6.757 6.757 0 0 1 7 13.75 6.758 6.758 0 0 1 13.75 7a6.757 6.757 0 0 1 6.75 6.75 6.756 6.756 0 0 1-6.75 6.75zm4.098-7.873h-2.974V9.654h-2.25v2.973H9.651v2.25h2.973v2.973h2.25v-2.973h2.974v-2.25z"/> </g></symbol> <symbol id="icon-search" viewBox="0 0 32 32"><g> <path d="M28 25.349l-6.161-6.161A9.699 9.699 0 0 0 23.5 13.75C23.5 8.374 19.127 4 13.75 4 8.374 4 4 8.374 4 13.75s4.374 9.75 9.75 9.75a9.693 9.693 0 0 0 5.438-1.661L25.348 28 28 25.349zM13.75 20.5A6.757 6.757 0 0 1 7 13.75C7 10.028 10.028 7 13.75 7s6.75 3.028 6.75 6.75a6.757 6.757 0 0 1-6.75 6.75z"/> </g></symbol> <symbol id="icon-skype" viewBox="0 0 32 32"><g> <path d="M26.75 18.344c.166-.803.25-1.585.25-2.344 0-1.49-.289-2.915-.867-4.274s-1.359-2.531-2.344-3.516-2.156-1.764-3.516-2.344A10.822 10.822 0 0 0 16 5c-.76 0-1.542.083-2.344.251A5.84 5.84 0 0 0 10 4c-1.657 0-3.07.585-4.242 1.757S4 8.344 4 10c0 1.354.417 2.572 1.25 3.656A11.48 11.48 0 0 0 5 16c0 1.489.289 2.914.867 4.273.578 1.358 1.359 2.53 2.344 3.516.984.983 2.156 1.765 3.516 2.343s2.783.867 4.273.867c.761 0 1.542-.084 2.344-.25A5.847 5.847 0 0 0 22 28c1.656 0 3.07-.586 4.242-1.758C27.413 25.069 28 23.655 28 22a5.854 5.854 0 0 0-1.25-3.656zm-4.938 2.32c-.344.609-.805 1.097-1.383 1.461s-1.216.643-1.914.836a8.211 8.211 0 0 1-2.188.289c-1.76 0-3.275-.342-4.546-1.024s-1.906-1.502-1.906-2.461c0-.469.132-.858.398-1.172.266-.312.659-.469 1.18-.469.303 0 .583.084.844.251.26.165.5.366.719.602.219.234.455.468.711.703.255.234.594.435 1.015.601a3.84 3.84 0 0 0 1.43.252c.677 0 1.224-.134 1.641-.398.416-.267.624-.603.624-1.008 0-.417-.165-.73-.499-.938-.229-.146-.812-.335-1.75-.563l-2.281-.563a9.567 9.567 0 0 1-1.61-.508 5.287 5.287 0 0 1-1.25-.757 2.94 2.94 0 0 1-.875-1.181c-.198-.474-.296-1.027-.296-1.664 0-.761.174-1.429.523-2.007a3.768 3.768 0 0 1 1.391-1.359 7.223 7.223 0 0 1 1.867-.735 8.755 8.755 0 0 1 2.062-.242c1 0 1.948.12 2.844.359.896.239 1.635.591 2.218 1.055s.875.982.875 1.555c0 .469-.148.869-.445 1.203-.296.334-.688.501-1.179.501-.271 0-.521-.062-.75-.188s-.438-.275-.625-.453a10.517 10.517 0 0 0-.595-.522c-.208-.172-.489-.321-.843-.445a3.578 3.578 0 0 0-1.203-.188c-1.5 0-2.25.399-2.25 1.202 0 .178.039.333.117.469.078.135.165.245.258.328.094.084.249.167.469.251.218.082.401.143.547.179.146.037.375.091.687.164l1.625.375c.51.114.966.234 1.367.36.4.124.83.302 1.289.531s.839.483 1.141.765c.303.282.555.639.758 1.071s.305.908.305 1.43c-.001.758-.173 1.443-.517 2.052z"/> </g></symbol> <symbol id="icon-slack" viewBox="0 0 32 32"><g> <path d="M27.816 16.494a2.103 2.103 0 0 0-2.776-1.062l-1.011.453-2.593-5.795 1.012-.451a2.102 2.102 0 0 0 1.06-2.777c-.473-1.06-1.716-1.535-2.775-1.06l-1.011.452-.452-1.011a2.102 2.102 0 0 0-2.777-1.059c-1.06.473-1.534 1.715-1.06 2.775l.452 1.011-5.794 2.592-.452-1.01a2.101 2.101 0 1 0-3.837 1.714l.452 1.01-1.01.454a2.1 2.1 0 1 0 1.716 3.835l1.011-.452 2.59 5.794-1.011.453c-1.06.474-1.534 1.717-1.06 2.775a2.1 2.1 0 0 0 2.775 1.062l1.011-.453.453 1.011a2.101 2.101 0 0 0 3.836-1.714l-.451-1.012 5.794-2.591.452 1.009c.474 1.062 1.716 1.536 2.775 1.062a2.099 2.099 0 0 0 1.061-2.775l-.452-1.01 1.01-.454c1.062-.475 1.537-1.716 1.062-2.776zm-13.418 3.698l-2.592-5.795 5.793-2.591 2.593 5.795-5.794 2.591z"/> </g></symbol> <symbol id="icon-star" viewBox="0 0 32 32"><g> <path d="M16 4.588l2.833 8.719H28l-7.416 5.387 2.832 8.719L16 22.023l-7.417 5.389 2.833-8.719L4 13.307h9.167L16 4.588z"/> </g></symbol> <symbol id="icon-sumally" viewBox="0 0 32 32"><g> <path d="M21.633 13.739l3.75-2.904-3-3.748a8.118 8.118 0 0 0-5.476-3.032 8.076 8.076 0 0 0-6.017 1.724 8.123 8.123 0 0 0-3.031 5.477 8.134 8.134 0 0 0 1.727 6.019l.787.986-3.756 2.899 3.007 3.756C10.985 26.625 12.679 28 16.04 28a8.088 8.088 0 0 0 5.074-1.778 8.13 8.13 0 0 0 3.033-5.478 8.115 8.115 0 0 0-1.727-6.016l-.787-.989zM12.25 7.488a5.897 5.897 0 0 1 3.707-1.306c2.543 0 3.721 1.011 4.721 2.266l1.591 1.989-1.998 1.592-1.56-1.959a5.333 5.333 0 0 0-.301-.312 3.372 3.372 0 0 0-1.348-.828c-.433-.148-1.072-.15-1.072-.15-.582 0-1.53.176-2.144.737a3.427 3.427 0 0 0-1.262 2.221c-.174 1.155.132 1.918.709 2.644l3.708 4.658c.008.01.48.515.302 1.14-.085.205-.237.417-.509.632-.02.011-.393.332-.917.26-.654-.102-1.168-.876-1.168-.876l-3.417-4.276a5.964 5.964 0 0 1-1.27-4.378l.004-.04a5.942 5.942 0 0 1 2.224-4.014zm-.513 12.485l1.596 1.992c.524.611 1.574 1.192 2.296 1.273.044.006 1.269.275 2.538-.726a3.403 3.403 0 0 0 1.273-2.301c.137-1.52-.679-2.472-.727-2.532l-3.708-4.656c-.213-.269-.612-1.059.204-1.8.233-.184.497-.277.788-.277.673 0 .898.346 1.007.48l3.711 4.661a5.956 5.956 0 0 1 1.267 4.409l-.007.072a5.966 5.966 0 0 1-2.217 3.945c-1.072.852-2.793 1.437-4.413 1.265a5.956 5.956 0 0 1-4.014-2.224l-1.595-1.992 2.001-1.589z"/> </g></symbol> <symbol id="icon-twitter" viewBox="0 0 32 32"><g> <path d="M11.548 25.753c-2.78 0-5.369-.815-7.548-2.216a9.87 9.87 0 0 0 7.288-2.036 4.925 4.925 0 0 1-4.598-3.422c.3.058.609.089.924.089.45 0 .886-.06 1.303-.171a4.927 4.927 0 0 1-3.952-4.826v-.065a4.9 4.9 0 0 0 2.229.616 4.917 4.917 0 0 1-2.191-4.1c0-.899.245-1.747.667-2.474a13.98 13.98 0 0 0 10.148 5.144 4.926 4.926 0 0 1 8.391-4.49 9.952 9.952 0 0 0 3.128-1.193 4.946 4.946 0 0 1-2.165 2.724A9.89 9.89 0 0 0 28 8.558a10.126 10.126 0 0 1-2.457 2.549c.01.211.015.424.015.637 0 6.503-4.955 14.01-14.01 14.009"/> </g></symbol></svg>