<?xml version="1.0" encoding="utf-8"?>
<!-- Generator: Adobe Illustrator 16.0.0, SVG Export Plug-In . SVG Version: 6.00 Build 0)  -->
<!DOCTYPE svg PUBLIC "-//W3C//DTD SVG 1.1//EN" "http://www.w3.org/Graphics/SVG/1.1/DTD/svg11.dtd">
<svg version="1.1" id="flexicon" xmlns="http://www.w3.org/2000/svg" xmlns:xlink="http://www.w3.org/1999/xlink" x="0px" y="0px"
	 width="64px" height="64px" viewBox="0 0 64 64" enable-background="new 0 0 64 64" xml:space="preserve">
<g>
	<g>
		<path d="M52.723,41.864c-1.779-2.538-2.643-5.39-2.643-8.582c0-2.878,0.812-5.547,2.485-7.954c0.89-1.309,2.355-2.8,4.396-4.527
			c-1.335-1.648-2.669-2.931-4.004-3.846c-2.407-1.675-5.154-2.512-8.202-2.512c-1.818,0-4.043,0.445-6.646,1.308
			c-2.524,0.89-4.356,1.308-5.508,1.308c-0.876,0-2.643-0.366-5.312-1.151c-2.682-0.759-4.958-1.151-6.803-1.151
			c-4.409,0-8.059,1.857-10.924,5.547c-2.904,3.742-4.356,8.53-4.356,14.365c0,6.228,1.897,12.664,5.665,19.362
			C14.692,60.677,18.551,64,22.45,64c1.308,0,2.996-0.444,5.076-1.309c2.08-0.863,3.898-1.282,5.468-1.282
			c1.662,0,3.598,0.419,5.796,1.23c2.342,0.837,4.134,1.229,5.39,1.229c3.284,0,6.581-2.512,9.878-7.535
			c2.171-3.192,3.741-6.411,4.735-9.603C56.517,46.024,54.502,44.402,52.723,41.864z"/>
		<path d="M39.641,12.141c1.622-1.622,2.812-3.375,3.584-5.312c0.732-1.91,1.112-3.663,1.112-5.233c0-0.105-0.013-0.236-0.026-0.366
			c-0.013-0.157-0.013-0.288-0.013-0.393c-0.026-0.079-0.053-0.209-0.092-0.419C44.167,0.209,44.128,0.052,44.102,0
			c-4.514,1.046-7.719,2.931-9.616,5.678c-1.923,2.773-2.917,6.07-2.996,9.891c1.713-0.157,3.048-0.366,4.003-0.654
			C36.867,14.443,38.254,13.527,39.641,12.141z"/>
	</g>
</g>
</svg>
