<?xml version="1.0" encoding="utf-8"?>
<!-- Generator: Adobe Illustrator 16.0.0, SVG Export Plug-In . SVG Version: 6.00 Build 0)  -->
<!DOCTYPE svg PUBLIC "-//W3C//DTD SVG 1.1//EN" "http://www.w3.org/Graphics/SVG/1.1/DTD/svg11.dtd">
<svg version="1.1" id="flexicon" xmlns="http://www.w3.org/2000/svg" xmlns:xlink="http://www.w3.org/1999/xlink" x="0px" y="0px"
	 width="64px" height="64px" viewBox="0 0 64 64" enable-background="new 0 0 64 64" xml:space="preserve">
<path d="M32,0C14.355,0,0,14.355,0,32c0,17.645,14.355,32,32,32s32-14.355,32-32C64,14.355,49.646,0,32,0z M32,8
	c5.175,0,9.969,1.652,13.893,4.449L12.449,45.894C9.652,41.969,8,37.176,8,32C8,18.766,18.767,8,32,8z M32,56
	c-5.176,0-9.97-1.652-13.895-4.449l33.445-33.445C54.348,22.03,56,26.824,56,32C56,45.233,45.233,56,32,56z"/>
</svg>
