<svg xmlns="http://www.w3.org/2000/svg" width="64" height="64" viewBox="0 0 64 64"><path d="M58.58 30.9S57.284 18.1 56.75 13.013c-.6-5.664-1.905-7.316-5.885-9.195C45.145 1.12 38.742 0 32 0S18.853 1.12 13.133 3.82c-3.98 1.878-5.287 3.53-5.884 9.194C6.714 18.102 5.42 30.9 5.42 30.9v25.27h4.713s-.056 3.174-.056 4.262c0 1.97 1.597 3.568 3.564 3.568 1.974 0 3.57-1.602 3.57-3.568V56.17h29.582v4.262c0 1.97 1.597 3.566 3.565 3.566 1.97 0 3.564-1.6 3.564-3.568 0-1.09-.055-4.262-.055-4.262h4.713v-25.27zM21.036 4.8H43.11c.897 0 1.62.726 1.62 1.62 0 .893-.724 1.618-1.62 1.618H21.037c-.896 0-1.618-.726-1.618-1.618 0-.896.722-1.62 1.617-1.62zm-7.384 43.012c-1.96 0-3.555-1.592-3.555-3.553 0-1.964 1.594-3.554 3.553-3.554 1.965 0 3.556 1.59 3.556 3.553 0 1.96-1.59 3.552-3.555 3.552h.003zm36.705 0c-1.96 0-3.55-1.592-3.55-3.553 0-1.964 1.59-3.554 3.55-3.554 1.965 0 3.555 1.59 3.555 3.553 0 1.96-1.59 3.552-3.555 3.552zm1.29-16.717H12.572c-1.458 0-2.522-1.173-2.422-2.6.417-5.687.75-8.894 1.444-14.6.147-1.216 1.2-2.09 2.775-2.09h35.32c1.573 0 2.618.972 2.774 2.187.762 6.007 1.028 8.65 1.456 14.467.123 1.645-1.002 2.634-2.276 2.634h.003z"/></svg>
