<?xml version="1.0" encoding="utf-8"?>
<!-- Generator: Adobe Illustrator 16.0.0, SVG Export Plug-In . SVG Version: 6.00 Build 0)  -->
<!DOCTYPE svg PUBLIC "-//W3C//DTD SVG 1.1//EN" "http://www.w3.org/Graphics/SVG/1.1/DTD/svg11.dtd">
<svg version="1.1" id="flexicon" xmlns="http://www.w3.org/2000/svg" xmlns:xlink="http://www.w3.org/1999/xlink" x="0px"
	 y="0px" width="64px" height="64px" viewBox="0 0 64 64" enable-background="new 0 0 64 64" xml:space="preserve">
<path d="M62.848,31.99l-0.625-13l-4.612-0.025c-0.197-2.393-0.379-4.466-0.514-5.746c-0.609-5.754-1.935-8.448-5.979-10.357
	C45.307,0.122,38.803,0,31.953,0S18.597,0.122,12.786,2.865C8.743,4.773,7.415,7.467,6.81,13.221c-0.13,1.23-0.303,3.196-0.492,5.47
	l-4.4-0.023L1.152,31.659l4.074,1.054c-0.167,2.241-0.275,3.731-0.275,3.731v19.602l4.788,1.016c0,0-0.057,2.208-0.057,3.313
	c0,2.002,2.638,3.625,4.636,3.625c2.006,0,4.643-1.627,4.643-3.625v-3.313h25.988v3.313c0,2.002,2.639,3.623,4.637,3.623
	c2.002,0,4.637-1.625,4.637-3.625c0-1.107-0.056-3.313-0.056-3.313l4.787-1.016l0.001-19.6c0,0-0.099-1.359-0.254-3.431
	L62.848,31.99z M16.037,6.065c0-0.918,0.91-1.663,2.032-1.663h27.768c1.122,0,2.032,0.744,2.032,1.663v1.246
	c0,0.918-0.91,1.663-2.032,1.663H18.069c-1.122,0-2.032-0.744-2.032-1.663V6.065z M13.312,50.343h0.004l-0.003,0.003
	c-2.409,0-4.37-1.958-4.37-4.368c0-2.414,1.96-4.368,4.368-4.368c2.415,0,4.372,1.954,4.372,4.367
	C17.683,48.386,15.727,50.343,13.312,50.343z M40.009,51.413H23.991v-1.669h16.018V51.413z M40.009,47.857H23.991v-1.669h16.018
	V47.857z M40.009,44.302H23.991v-1.669h16.018V44.302z M12.216,36.401c-1.48,0-2.562-1.191-2.46-2.641
	c0.424-5.777,0.762-13.849,1.467-19.645c0.15-1.235,1.22-2.123,2.819-2.123h35.882c1.597,0,2.658,0.987,2.816,2.222
	c0.774,6.102,1.045,13.601,1.479,19.51c0.125,1.67-0.522,2.677-2.308,2.677C50.502,36.401,12.216,36.401,12.216,36.401z
	 M50.603,50.343v0.003c-2.411,0-4.365-1.958-4.365-4.368c0-2.414,1.954-4.368,4.365-4.368c2.414,0,4.369,1.954,4.369,4.367
	C54.972,48.386,53.017,50.343,50.603,50.343z"/>
</svg>
