<?xml version="1.0" encoding="utf-8"?>
<!-- Generator: Adobe Illustrator 16.0.0, SVG Export Plug-In . SVG Version: 6.00 Build 0)  -->
<!DOCTYPE svg PUBLIC "-//W3C//DTD SVG 1.1//EN" "http://www.w3.org/Graphics/SVG/1.1/DTD/svg11.dtd">
<svg version="1.1" id="レイヤー_1" xmlns="http://www.w3.org/2000/svg" xmlns:xlink="http://www.w3.org/1999/xlink" x="0px"
	 y="0px" width="64px" height="64px" viewBox="0 0 64 64" enable-background="new 0 0 64 64" xml:space="preserve">
<path d="M58.58,30.9c0,0-1.296-12.8-1.83-17.887c-0.6-5.664-1.904-7.316-5.885-9.195C45.145,1.12,38.742,0,32,0
	S18.853,1.12,13.133,3.82c-3.98,1.878-5.287,3.53-5.884,9.194C6.714,18.102,5.42,30.9,5.42,30.9v25.27h4.713
	c0,0-0.056,3.174-0.056,4.262c0,1.971,1.597,3.568,3.564,3.568c1.974,0,3.57-1.602,3.57-3.568V56.17h29.582v4.262
	c0,1.971,1.598,3.566,3.564,3.566c1.971,0,3.564-1.6,3.564-3.568c0-1.09-0.055-4.262-0.055-4.262h4.713v-25.27V30.9z M21.036,4.8
	h22.073c0.897,0,1.621,0.726,1.621,1.62c0,0.893-0.725,1.618-1.621,1.618H21.037c-0.896,0-1.618-0.726-1.618-1.618
	C19.419,5.524,20.141,4.8,21.036,4.8z M13.651,48.559c-2.371,0-4.302-1.927-4.302-4.3c0-2.376,1.93-4.3,4.3-4.3
	c2.378,0,4.303,1.924,4.303,4.299c0,2.372-1.924,4.299-4.302,4.299h0.004L13.651,48.559z M50.357,48.559
	c-2.373,0-4.297-1.927-4.297-4.3c0-2.376,1.924-4.3,4.297-4.3c2.377,0,4.301,1.924,4.301,4.299c0,2.372-1.924,4.299-4.301,4.299
	V48.559z M51.646,31.095H12.572c-1.458,0-2.522-1.173-2.422-2.6c0.417-5.687,0.75-8.894,1.444-14.6c0.147-1.216,1.2-2.09,2.775-2.09
	h35.32c1.572,0,2.617,0.972,2.773,2.187c0.762,6.007,1.028,8.65,1.456,14.467c0.123,1.645-1.002,2.634-2.276,2.634h0.004V31.095z"/>
</svg>
