<svg xmlns="http://www.w3.org/2000/svg" width="64" height="64" viewBox="0 0 64 64"><path d="M32 23c-7.18 0-13 5.82-13 13s5.82 13 13 13 13-5.82 13-13-5.82-13-13-13zm0 20.55c-4.142 0-7.5-3.357-7.5-7.5s3.357-7.5 7.5-7.5 7.5 3.357 7.5 7.5c0 4.14-3.357 7.5-7.5 7.5z"/><path d="M60 14H46l-6-8H24l-6 8H4c-2.2 0-4 1.8-4 4v36c0 2.2 1.8 4 4 4h56c2.2 0 4-1.8 4-4V18c0-2.2-1.8-4-4-4zM32 53.75c-9.803 0-17.75-7.947-17.75-17.75S22.197 18.25 32 18.25 49.75 26.197 49.75 36 41.803 53.75 32 53.75zM60 23.5h-8v-4h8v4z"/></svg>
