<?xml version="1.0" encoding="utf-8"?>
<!-- Generator: Adobe Illustrator 16.0.0, SVG Export Plug-In . SVG Version: 6.00 Build 0)  -->
<!DOCTYPE svg PUBLIC "-//W3C//DTD SVG 1.1//EN" "http://www.w3.org/Graphics/SVG/1.1/DTD/svg11.dtd">
<svg version="1.1" id="flexicon" xmlns="http://www.w3.org/2000/svg" xmlns:xlink="http://www.w3.org/1999/xlink" x="0px" y="0px"
	 width="64px" height="64px" viewBox="0 0 64 64" enable-background="new 0 0 64 64" xml:space="preserve">
<g>
	<path d="M32,23c-7.18,0-13,5.82-13,12.999C19,43.182,24.82,49,32,49c7.18,0,13-5.818,13-13.001C45,28.82,39.18,23,32,23z M32,43.55
		c-4.142,0-7.5-3.356-7.5-7.5c0-4.142,3.356-7.5,7.5-7.5c4.143,0,7.5,3.357,7.5,7.5C39.5,40.189,36.143,43.55,32,43.55z"/>
	<path d="M60,14H45.999L40,6H24l-6,8H4c-2.2,0-4,1.8-4,4v36c0,2.199,1.8,4,4,4h56c2.199,0,4-1.8,4-4V18C64,15.8,62.199,14,60,14z
		 M32,53.75c-9.804,0-17.75-7.947-17.75-17.751c0-9.802,7.946-17.75,17.75-17.75c9.803,0,17.749,7.948,17.749,17.75
		C49.749,45.803,41.803,53.75,32,53.75z M60,23.5h-8v-4h8V23.5z"/>
</g>
</svg>
