<?xml version="1.0" encoding="utf-8"?>
<!-- Generator: Adobe Illustrator 16.0.0, SVG Export Plug-In . SVG Version: 6.00 Build 0)  -->
<!DOCTYPE svg PUBLIC "-//W3C//DTD SVG 1.1//EN" "http://www.w3.org/Graphics/SVG/1.1/DTD/svg11.dtd">
<svg version="1.1" id="camera" xmlns="http://www.w3.org/2000/svg" xmlns:xlink="http://www.w3.org/1999/xlink" x="0px"
	 y="0px" width="32px" height="32px" viewBox="0 0 32 32" enable-background="new 0 0 32 32" xml:space="preserve">
<path d="M16,12.625c-2.692,0-4.875,2.183-4.875,4.875c0,2.691,2.183,4.875,4.875,4.875
	c2.691,0,4.875-2.184,4.875-4.875C20.875,14.808,18.691,12.625,16,12.625z M16,20.33c-1.553,0-2.812-1.258-2.812-2.812
	c0-1.553,1.259-2.812,2.812-2.812c1.553,0,2.812,1.26,2.812,2.812S17.553,20.33,16,20.33z"/>
<path d="M26.5,9.25h-5.25l-2.25-3h-6l-2.25,3H5.5c-0.826,0-1.5,0.674-1.5,1.5v13.5c0,0.824,0.674,1.5,1.5,1.5h21
	c0.825,0,1.5-0.674,1.5-1.5v-13.5C28,9.924,27.325,9.25,26.5,9.25z M16,24.156c-3.676,0-6.656-2.98-6.656-6.656
	s2.98-6.657,6.656-6.657c3.676,0,6.656,2.981,6.656,6.657S19.676,24.156,16,24.156z M26.5,12.812h-3v-1.5h3V12.812z"/>
</svg>
