<?xml version="1.0" encoding="utf-8"?>
<!-- Generator: Adobe Illustrator 16.0.0, SVG Export Plug-In . SVG Version: 6.00 Build 0)  -->
<!DOCTYPE svg PUBLIC "-//W3C//DTD SVG 1.1//EN" "http://www.w3.org/Graphics/SVG/1.1/DTD/svg11.dtd">
<svg version="1.1" id="camera" xmlns="http://www.w3.org/2000/svg" xmlns:xlink="http://www.w3.org/1999/xlink" x="0px" y="0px"
	 width="32px" height="32px" viewBox="0 0 32 32" enable-background="new 0 0 32 32" xml:space="preserve">
<path d="M16,12.906c-2.467,0-4.469,2.001-4.469,4.469c0,2.467,2.001,4.469,4.469,4.469c2.467,0,4.469-2.002,4.469-4.469
	C20.469,14.908,18.467,12.906,16,12.906z M16,19.969c-1.423,0-2.578-1.152-2.578-2.578c0-1.423,1.154-2.577,2.578-2.577
	c1.424,0,2.578,1.155,2.578,2.577C18.578,18.814,17.424,19.969,16,19.969z"/>
<path d="M25.625,9.812h-4.812l-2.062-2.75h-5.5l-2.062,2.75H6.375C5.618,9.812,5,10.43,5,11.188v12.375
	c0,0.756,0.618,1.375,1.375,1.375h19.25c0.757,0,1.375-0.617,1.375-1.375V11.188C27,10.43,26.382,9.812,25.625,9.812z M16,23.477
	c-3.369,0-6.102-2.732-6.102-6.102s2.732-6.103,6.102-6.103s6.102,2.733,6.102,6.103S19.369,23.477,16,23.477z M25.625,13.078h-2.75
	v-1.375h2.75V13.078z"/>
</svg>
