<?xml version="1.0" encoding="utf-8"?>
<!-- Generator: Adobe Illustrator 16.0.0, SVG Export Plug-In . SVG Version: 6.00 Build 0)  -->
<!DOCTYPE svg PUBLIC "-//W3C//DTD SVG 1.1//EN" "http://www.w3.org/Graphics/SVG/1.1/DTD/svg11.dtd">
<svg version="1.1" id="car" xmlns="http://www.w3.org/2000/svg" xmlns:xlink="http://www.w3.org/1999/xlink" x="0px" y="0px"
	 width="64px" height="64px" viewBox="0 0 64 64" enable-background="new 0 0 64 64" xml:space="preserve">
<path d="M58.382,24.731l4.408-0.235l-1.628-5.635l-5.359-0.015l-3.438-8.177c-0.864-2.08-2.587-3.529-4.972-3.529H16.331
	c-2.39,0-3.833,1.449-4.671,3.529l-3.444,8.177l-5.444,0.015l-1.628,5.635l4.471,0.239C2.373,25.681,0,28.676,0,32.216l2,16.511
	h3.14l-0.01,3.082c0,2.791,2.701,5.051,6.04,5.051c3.286,0,6.03-2.258,6.03-5.047V48.73v-0.002h29.612L46.8,51.811
	c0,2.791,2.406,5.049,6.044,5.049c3.362,0,6.03-2.258,6.03-5.047V48.73H62l2-16.511C64,28.674,61.62,25.673,58.382,24.731z
	 M10.039,38.768c-2.549,0-4.631-2.072-4.631-4.646c0-2.553,2.082-4.643,4.631-4.643c2.552,0,4.642,2.09,4.642,4.643
	C14.681,36.695,12.591,38.768,10.039,38.768z M42.344,45.487H21.657l-1.306-7.821h23.299L42.344,45.487z M10.812,24.4l0.066-0.172
	l4.974-11.944c0.225-0.603,0.832-1.056,1.515-1.056h29.276c0.703,0,1.282,0.453,1.502,1.056l3.933,9.409l1.042,2.707H10.812z
	 M53.975,38.766c-2.56,0-4.643-2.072-4.643-4.646c0-2.553,2.083-4.643,4.643-4.643c2.545,0,4.616,2.09,4.616,4.643
	C58.591,36.693,56.52,38.766,53.975,38.766z"/>
</svg>
