<?xml version="1.0" encoding="utf-8"?>
<!-- Generator: Adobe Illustrator 16.0.0, SVG Export Plug-In . SVG Version: 6.00 Build 0)  -->
<!DOCTYPE svg PUBLIC "-//W3C//DTD SVG 1.1//EN" "http://www.w3.org/Graphics/SVG/1.1/DTD/svg11.dtd">
<svg version="1.1" id="car" xmlns="http://www.w3.org/2000/svg" xmlns:xlink="http://www.w3.org/1999/xlink" x="0px" y="0px"
	 width="64px" height="64px" viewBox="0 0 64 64" enable-background="new 0 0 64 64" xml:space="preserve">
<path d="M15.2,47.73v5.082c0,2.789-2.253,5.047-5.03,5.047c-2.773,0-5.04-2.26-5.04-5.051l0.01-5.082H0v-16.51
	c0-3.592,2.44-6.627,5.754-7.525L11.66,9.67c0.838-2.08,2.86-3.53,5.25-3.53h30.195c2.385,0,4.396,1.45,5.26,3.53l5.895,14.023
	c3.301,0.9,5.74,3.936,5.74,7.527V47.73h-5.126v5.082c0,2.789-2.255,5.047-5.03,5.047c-2.789,0-5.044-2.258-5.044-5.049l0.013-5.082
	H15.2 M53.21,23.4l-5.063-12.116c-0.22-0.603-0.799-1.056-1.502-1.056H17.368c-0.683,0-1.29,0.453-1.515,1.056L10.807,23.4H53.21
	 M58.591,33.12c0-2.553-2.071-4.643-4.617-4.643c-2.559,0-4.642,2.09-4.642,4.643c0,2.573,2.083,4.646,4.642,4.646
	C56.52,37.766,58.591,35.694,58.591,33.12 M10.039,37.767c2.552,0,4.642-2.071,4.642-4.645c0-2.553-2.09-4.643-4.642-4.643
	c-2.549,0-4.631,2.09-4.631,4.643C5.408,35.695,7.49,37.768,10.039,37.767"/>
</svg>
