<svg xmlns="http://www.w3.org/2000/svg" width="64" height="64" viewBox="0 0 64 64"><path d="M15.2 47.73v5.082c0 2.79-2.253 5.047-5.03 5.047-2.773 0-5.04-2.26-5.04-5.05l.01-5.082H0v-16.51c0-3.592 2.44-6.627 5.754-7.525L11.66 9.67c.838-2.08 2.86-3.53 5.25-3.53h30.195c2.385 0 4.396 1.45 5.26 3.53l5.895 14.023c3.3.9 5.74 3.936 5.74 7.527v16.51h-5.126v5.082c0 2.79-2.255 5.047-5.03 5.047-2.79 0-5.044-2.257-5.044-5.048l.013-5.082H15.2M53.21 23.4l-5.063-12.116c-.22-.603-.8-1.056-1.502-1.056H17.368c-.683 0-1.29.453-1.515 1.056L10.807 23.4H53.21m4.96 9.72c0-2.32-1.883-4.22-4.197-4.22-2.326 0-4.22 1.9-4.22 4.22 0 2.34 1.894 4.224 4.22 4.224 2.314 0 4.197-1.883 4.196-4.224m-48.13 4.225c2.32 0 4.22-1.883 4.22-4.223 0-2.32-1.9-4.22-4.22-4.22-2.317 0-4.21 1.9-4.21 4.22 0 2.34 1.893 4.224 4.21 4.223"/></svg>
