<?xml version="1.0" encoding="utf-8"?>
<!-- Generator: Adobe Illustrator 16.0.0, SVG Export Plug-In . SVG Version: 6.00 Build 0)  -->
<!DOCTYPE svg PUBLIC "-//W3C//DTD SVG 1.1//EN" "http://www.w3.org/Graphics/SVG/1.1/DTD/svg11.dtd">
<svg version="1.1" id="cart" xmlns="http://www.w3.org/2000/svg" xmlns:xlink="http://www.w3.org/1999/xlink" x="0px"
	 y="0px" width="32px" height="32px" viewBox="0 0 32 32" enable-background="new 0 0 32 32" xml:space="preserve">
<path d="M11.262,23.201c-1.32,0-2.389,1.078-2.389,2.397C8.874,26.92,9.941,28,11.262,28c1.32,0,2.4-1.079,2.4-2.401
	C13.662,24.279,12.582,23.201,11.262,23.201z M4.062,4v2.4h2.4l4.32,9.108l-3.595,6.491h18.476V19.6H11.25l1.333-2.399h10.35
	l4.986-9.027l0.02-1.773H9.114L7.986,4H4.062z M23.264,23.201c-1.32,0-2.391,1.078-2.391,2.397c0,1.321,1.069,2.399,2.391,2.399
	c1.318,0,2.399-1.078,2.399-2.399C25.663,24.279,24.582,23.201,23.264,23.201z"/>
</svg>
