<?xml version="1.0" encoding="utf-8"?>
<!-- Generator: Adobe Illustrator 16.0.0, SVG Export Plug-In . SVG Version: 6.00 Build 0)  -->
<!DOCTYPE svg PUBLIC "-//W3C//DTD SVG 1.1//EN" "http://www.w3.org/Graphics/SVG/1.1/DTD/svg11.dtd">
<svg version="1.1" id="flexicon" xmlns="http://www.w3.org/2000/svg" xmlns:xlink="http://www.w3.org/1999/xlink" x="0px" y="0px"
	 width="64px" height="64px" viewBox="0 0 64 64" enable-background="new 0 0 64 64" xml:space="preserve">
<g>
	<path d="M31.66-0.283c-17.645,0-32,14.355-32,32c0,17.645,14.355,32,32,32s32-14.355,32-32C63.659,14.072,49.305-0.283,31.66-0.283
		z M31.66,55.717c-13.234,0-24-10.767-24-24c0-13.234,10.766-24,24-24c13.233,0,24,10.766,24,24
		C55.659,44.95,44.893,55.717,31.66,55.717z"/>
	<polygon points="28.66,28.717 20.087,28.717 20.087,34.717 34.66,34.711 34.66,13.5 28.66,13.5 	"/>
</g>
</svg>
