<?xml version="1.0" encoding="utf-8"?>
<!-- Generator: Adobe Illustrator 16.0.0, SVG Export Plug-In . SVG Version: 6.00 Build 0)  -->
<!DOCTYPE svg PUBLIC "-//W3C//DTD SVG 1.1//EN" "http://www.w3.org/Graphics/SVG/1.1/DTD/svg11.dtd">
<svg version="1.1" id="dog" xmlns="http://www.w3.org/2000/svg" xmlns:xlink="http://www.w3.org/1999/xlink" x="0px" y="0px"
	 width="64px" height="64px" viewBox="0 0 64 64" enable-background="new 0 0 64 64" xml:space="preserve">
<path d="M62.464,13.482L40.896,3.208c-1.332-0.635-2.42,0.052-2.42,1.526V22.09L7.606,22.1l-3.81-2.164
	c-1.223-0.69-2.77-0.265-3.466,0.955c-0.69,1.224-0.265,2.772,0.957,3.466l6.01,3.45v28.83c0,2.426,1.964,4.395,4.392,4.395
	c2.42,0,4.388-1.971,4.388-4.393l-0.004-14.83h26.14v14.83c0,2.424,1.969,4.393,4.387,4.393c2.426,0,4.395-1.971,4.395-4.393V22.68
	l7.473-0.006c1.477-0.004,3.188-1.098,3.811-2.436l1.475-3.17c0.62-1.34,0.04-2.95-1.29-3.586H62.464z"/>
</svg>
