<?xml version="1.0" encoding="utf-8"?>
<!-- Generator: Adobe Illustrator 16.0.0, SVG Export Plug-In . SVG Version: 6.00 Build 0)  -->
<!DOCTYPE svg PUBLIC "-//W3C//DTD SVG 1.1//EN" "http://www.w3.org/Graphics/SVG/1.1/DTD/svg11.dtd">
<svg version="1.1" id="flexicon" xmlns="http://www.w3.org/2000/svg" xmlns:xlink="http://www.w3.org/1999/xlink" x="0px" y="0px"
	 width="64px" height="64px" viewBox="0 0 64 64" enable-background="new 0 0 64 64" xml:space="preserve">
<path d="M32,64C14.355,64,0,49.645,0,32C0,14.355,14.355,0,32,0c17.645,0,32,14.355,32,32C64,49.645,49.645,64,32,64z
	 M35.764,36.507c-7.898,2.495-14.36,7.711-19.752,15.945l-0.26,0.397l0.38,0.285c4.619,3.479,10.108,5.314,15.873,5.314
	c3.077,0,6.143-0.551,9.109-1.637l0.398-0.146l-0.074-0.419c-1.234-7.073-2.883-13.43-5.043-19.432l-0.164-0.459L35.764,36.507z
	 M48.855,34.68c-2.414,0-4.729,0.152-6.881,0.456l-0.609,0.087l0.199,0.582c1.896,5.506,3.506,11.42,4.785,17.572l0.156,0.756
	l0.633-0.443c5.965-4.184,9.985-10.685,11.034-17.838l0.074-0.514l-0.515-0.064c-3.131-0.394-6.119-0.592-8.879-0.592V34.68H48.855z
	 M31.858,27.168c-6.899,2.036-15.1,3.222-25.806,3.733L5.6,30.923l-0.031,0.451C5.552,31.63,5.541,31.814,5.541,32
	c0,6.023,2.103,11.934,5.919,16.641l0.425,0.525l0.386-0.555c6-8.604,13.071-14.049,21.618-16.646l0.543-0.165l-0.226-0.521
	c-0.626-1.458-1.197-2.715-1.747-3.845l-0.188-0.387L31.858,27.168z M52.073,15.635c-4.085,4.041-8.745,7.126-14.244,9.434
	l-0.481,0.203l0.217,0.477c0.636,1.396,1.267,2.878,1.929,4.533l0.147,0.373l0.397-0.059c2.565-0.378,5.272-0.562,8.271-0.562
	c2.842,0,5.946,0.169,9.49,0.518l0.602,0.059l-0.045-0.602c-0.393-5.257-2.303-10.21-5.525-14.324l-0.352-0.449L52.073,15.635z
	 M19.734,8.58c-6.771,3.551-11.672,9.83-13.448,17.227l-0.158,0.659l0.676-0.033c9.186-0.444,16.396-1.506,22.69-3.344l0.617-0.18
	l-0.318-0.559c-2.625-4.613-5.709-9.076-9.429-13.642l-0.263-0.322L19.734,8.58z M32,5.549c-1.954,0.001-3.942,0.234-5.91,0.694
	l-0.828,0.193l0.562,0.637c3.35,3.799,6.453,8.377,9.224,13.606l0.218,0.411l0.428-0.181c5.102-2.155,9.416-4.935,13.19-8.5
	l0.418-0.395l-0.44-0.366C44.111,7.716,38.125,5.55,32,5.549L32,5.549z"/>
</svg>
