<svg xmlns="http://www.w3.org/2000/svg" width="64" height="64" viewBox="0 0 64 64"><path d="M32 64C14.325 64 0 49.68 0 32 0 14.33 14.325 0 32 0s32 14.33 32 32c0 17.672-14.324 32-32 32zm26.2-28.645c-6.286-.823-11.85-.883-16.81-.113 2.047 5.855 3.77 12.17 5.12 18.826 6.28-4.156 10.693-10.896 11.69-18.713zm-16.722 21.28c-1.276-7.422-3.017-14.083-5.267-20.246-8.396 2.527-14.935 7.93-20.413 16.438 4.475 3.486 10.084 5.582 16.207 5.582 3.34 0 6.52-.646 9.474-1.774zM5.584 32c0 6.536 2.393 12.498 6.32 17.11 6.703-9.825 14.252-14.943 22.494-17.322-.677-1.594-1.382-3.172-2.142-4.712-7.36 2.224-16.08 3.386-26.62 3.87-.012.355-.052.697-.052 1.054zm.597-5.555c8.32-.374 16.45-1.295 23.893-3.546-2.836-5.065-6.164-9.82-9.968-14.462-7.013 3.548-12.228 10.11-13.924 18.007zM32 5.592c-2.32 0-4.55.32-6.688.887 3.668 4.036 7.012 8.955 9.96 14.588 5.142-2.12 9.853-5.042 13.978-9.037C44.61 8.028 38.595 5.593 32 5.593zm20.453 9.69c-4.315 4.37-9.25 7.625-15.086 10.006.8 1.723 1.555 3.517 2.28 5.342 5.923-.92 12.173-.712 18.7-.045-.308-5.792-2.455-11.09-5.894-15.303z"/></svg>
