<svg xmlns="http://www.w3.org/2000/svg" width="64" height="64" viewBox="0 0 64 64"><path d="M32 64C14.355 64 0 49.645 0 32S14.355 0 32 0s32 14.355 32 32-14.355 32-32 32zm4.13-28.027c-8.454 2.544-15.33 8.076-21.016 16.91l-.25.39.365.286c4.853 3.778 10.653 5.776 16.775 5.776 3.32 0 6.618-.618 9.806-1.836l.39-.148-.07-.412c-1.298-7.55-3.056-14.305-5.374-20.655l-.165-.45-.46.138zm12.982-1.738c-2.694 0-5.27.187-7.65.557l-.603.093.2.576c2.082 5.958 3.825 12.37 5.182 19.06l.15.738.628-.416c6.683-4.422 11.094-11.482 12.1-19.368l.063-.502-.502-.067c-3.394-.445-6.615-.67-9.568-.67zm-17-7.723c-7.12 2.15-15.673 3.394-26.918 3.91l-.468.02-.016.47c-.005.143-.015.283-.024.424-.015.22-.03.44-.03.664 0 6.467 2.324 12.757 6.542 17.71l.432.507.375-.55c6.22-9.115 13.604-14.806 22.573-17.394l.55-.16-.224-.527c-.79-1.858-1.484-3.387-2.188-4.812l-.19-.386-.413.124zM52.418 14.66c-4.304 4.36-9.263 7.646-15.156 10.05l-.492.202.225.483c.742 1.6 1.496 3.365 2.304 5.4l.15.377.4-.062c2.698-.42 5.547-.623 8.708-.623 3.013 0 6.336.19 10.16.58l.59.06-.032-.59c-.312-5.856-2.42-11.334-6.1-15.84l-.36-.44-.396.403zm-32.73-7.05c-7.42 3.754-12.674 10.548-14.41 18.64l-.14.643.658-.03c9.947-.445 17.7-1.596 24.396-3.622l.606-.182-.31-.55C27.695 17.52 24.367 12.69 20.31 7.74l-.258-.315-.364.183zM32 4.665c-2.296 0-4.626.31-6.924.918l-.808.214.562.618c3.667 4.036 7.046 8.986 10.043 14.713l.215.41.43-.175c5.59-2.305 10.288-5.342 14.36-9.285l.398-.387-.42-.36C44.873 7.03 38.532 4.665 32 4.664z"/></svg>
