<?xml version="1.0" encoding="utf-8"?>
<!-- Generator: Adobe Illustrator 16.0.0, SVG Export Plug-In . SVG Version: 6.00 Build 0)  -->
<!DOCTYPE svg PUBLIC "-//W3C//DTD SVG 1.1//EN" "http://www.w3.org/Graphics/SVG/1.1/DTD/svg11.dtd">
<svg version="1.1" id="flexicon" xmlns="http://www.w3.org/2000/svg" xmlns:xlink="http://www.w3.org/1999/xlink" x="0px" y="0px"
	 width="64px" height="64px" viewBox="0 0 64 64" enable-background="new 0 0 64 64" xml:space="preserve">
<path d="M32.002,64c-17.645,0-32-14.354-32-32c0-17.645,14.355-32,32-32c17.646,0,32,14.355,32,32
	C64.002,49.646,49.647,64,32.002,64z M16.405,52.841c4.536,3.408,9.919,5.208,15.597,5.208c3.127,0,6.195-0.558,9.127-1.659
	c-1.284-6.855-3.035-13.383-5.209-19.416C24.49,40.686,18.597,49.006,16.405,52.841z M41.766,35.584
	c1.968,5.597,3.603,11.629,4.864,17.95c5.987-4.075,9.999-10.402,11.104-17.523c-3.304-0.599-6.518-0.902-9.557-0.902
	C45.973,35.108,43.819,35.269,41.766,35.584z M5.953,31.999c0,6.107,2.153,12.009,6.078,16.695
	c3.186-4.976,9.97-13.204,21.74-17.208c-0.538-1.26-1.104-2.515-1.689-3.742c-10.136,2.914-20.509,3.637-26.122,3.801
	C5.956,31.706,5.953,31.852,5.953,31.999z M48.366,29.167c3.084,0,6.314,0.28,9.608,0.832c-0.385-5.044-2.211-9.802-5.309-13.833
	c-3.431,3.911-8.424,7.155-14.859,9.652c0.609,1.313,1.218,2.701,1.812,4.138C42.417,29.433,45.357,29.167,48.366,29.167z
	 M19.654,9.078C13.227,12.55,8.571,18.506,6.771,25.542c4.987-0.211,13.889-0.912,22.509-3.206
	C25.35,15.354,21.672,11.124,19.654,9.078z M25.654,6.743c2.466,2.756,5.935,7.229,9.474,13.74
	c5.986-2.231,10.479-5.127,13.373-8.617c-4.651-3.818-10.49-5.915-16.499-5.915C29.867,5.952,27.736,6.217,25.654,6.743z"/>
</svg>
