<?xml version="1.0" encoding="utf-8"?>
<!-- Generator: Adobe Illustrator 16.0.0, SVG Export Plug-In . SVG Version: 6.00 Build 0)  -->
<!DOCTYPE svg PUBLIC "-//W3C//DTD SVG 1.1//EN" "http://www.w3.org/Graphics/SVG/1.1/DTD/svg11.dtd">
<svg version="1.1" id="dribbble" xmlns="http://www.w3.org/2000/svg" xmlns:xlink="http://www.w3.org/1999/xlink" x="0px"
	 y="0px" width="32px" height="32px" viewBox="0 0 32 32" enable-background="new 0 0 32 32" xml:space="preserve">
<path d="M16,28C9.383,28,4,22.618,4,16C4,9.383,9.383,4,16,4c6.617,0,12,5.383,12,12C28,22.618,22.617,28,16,28z
	 M10.151,23.815c1.701,1.278,3.72,1.953,5.849,1.953c1.173,0,2.323-0.209,3.423-0.622c-0.481-2.57-1.139-5.019-1.954-7.28
	C13.183,19.257,10.973,22.378,10.151,23.815z M19.661,17.345c0.738,2.098,1.352,4.359,1.825,6.73c2.244-1.527,3.749-3.9,4.163-6.571
	c-1.239-0.224-2.444-0.338-3.583-0.338C21.239,17.165,20.432,17.227,19.661,17.345z M6.231,16c0,2.289,0.808,4.503,2.279,6.261
	c1.195-1.866,3.739-4.951,8.153-6.453c-0.202-0.473-0.414-0.943-0.633-1.404c-3.801,1.094-7.691,1.365-9.796,1.426
	C6.233,15.89,6.231,15.944,6.231,16z M22.137,14.938c1.156,0,2.367,0.104,3.604,0.312c-0.145-1.892-0.83-3.677-1.992-5.188
	c-1.286,1.468-3.158,2.684-5.571,3.621c0.228,0.492,0.456,1.013,0.679,1.551C19.906,15.037,21.008,14.938,22.137,14.938z
	 M11.37,7.404c-2.41,1.302-4.156,3.536-4.831,6.174c1.87-0.079,5.208-0.342,8.44-1.202C13.505,9.758,12.126,8.172,11.37,7.404z
	 M13.62,6.528c0.925,1.034,2.226,2.712,3.552,5.152c2.245-0.836,3.93-1.923,5.016-3.23C20.443,7.018,18.254,6.231,16,6.231
	C15.199,6.232,14.4,6.331,13.62,6.528z"/>
</svg>
