<?xml version="1.0" encoding="utf-8"?>
<!-- Generator: Adobe Illustrator 16.0.0, SVG Export Plug-In . SVG Version: 6.00 Build 0)  -->
<!DOCTYPE svg PUBLIC "-//W3C//DTD SVG 1.1//EN" "http://www.w3.org/Graphics/SVG/1.1/DTD/svg11.dtd">
<svg version="1.1" id="dribbble" xmlns="http://www.w3.org/2000/svg" xmlns:xlink="http://www.w3.org/1999/xlink" x="0px" y="0px"
	 width="32px" height="32px" viewBox="0 0 32 32" enable-background="new 0 0 32 32" xml:space="preserve">
<path d="M16,27C9.935,27,5,22.067,5,16C5,9.935,9.935,5,16,5c6.066,0,11,4.935,11,11C27,22.067,22.066,27,16,27z M10.638,23.164
	c1.56,1.171,3.411,1.789,5.362,1.789c1.075,0,2.13-0.191,3.138-0.568c-0.441-2.357-1.043-4.602-1.792-6.675
	C13.417,18.985,11.392,21.847,10.638,23.164z M19.356,17.234c0.675,1.922,1.239,3.995,1.673,6.167
	c2.057-1.398,3.436-3.574,3.814-6.022c-1.135-0.207-2.238-0.311-3.283-0.311C20.802,17.067,20.062,17.125,19.356,17.234z M7.045,16
	c0,2.098,0.741,4.128,2.088,5.739c1.096-1.711,3.428-4.538,7.475-5.916c-0.186-0.433-0.38-0.864-0.582-1.287
	c-3.483,1.003-7.049,1.252-8.979,1.308C7.046,15.899,7.045,15.949,7.045,16z M21.625,15.027c1.061,0,2.17,0.095,3.304,0.286
	c-0.132-1.735-0.76-3.37-1.826-4.755c-1.179,1.345-2.895,2.46-5.106,3.319c0.209,0.451,0.419,0.928,0.623,1.421
	C19.58,15.117,20.59,15.027,21.625,15.027z M11.756,8.121c-2.209,1.193-3.81,3.241-4.429,5.66c1.715-0.073,4.774-0.314,7.737-1.103
	C13.713,10.278,12.449,8.824,11.756,8.121z M13.818,7.317c0.848,0.948,2.041,2.487,3.256,4.724c2.058-0.767,3.602-1.763,4.598-2.961
	c-1.6-1.313-3.605-2.034-5.672-2.034C15.266,7.046,14.534,7.137,13.818,7.317z"/>
</svg>
