<?xml version="1.0" encoding="utf-8"?>
<!-- Generator: Adobe Illustrator 16.0.0, SVG Export Plug-In . SVG Version: 6.00 Build 0)  -->
<!DOCTYPE svg PUBLIC "-//W3C//DTD SVG 1.1//EN" "http://www.w3.org/Graphics/SVG/1.1/DTD/svg11.dtd">
<svg version="1.1" id="flexicon" xmlns="http://www.w3.org/2000/svg" xmlns:xlink="http://www.w3.org/1999/xlink" x="0px" y="0px"
	 width="64px" height="64px" viewBox="0 0 64 64" enable-background="new 0 0 64 64" xml:space="preserve">
<g>
	<g>
		<polygon points="18.847,47.615 32,36.656 13,24.923 0.001,35.347 		"/>
		<polygon points="32,36.653 45.191,47.615 64.001,35.347 51.001,24.923 		"/>
		<polygon points="32.078,39.041 32.078,38.961 32.04,39.001 32,38.961 32,39.041 18.847,49.963 13.192,46.27 13.192,50.422 
			32,61.692 32,61.731 32.04,61.692 32.078,61.731 32.078,61.692 50.924,50.422 50.924,46.27 45.269,49.963 		"/>
		<polygon points="0.001,14.538 13,24.923 32,13.23 18.847,2.269 		"/>
		<polygon points="45.191,2.269 32,13.23 51.001,24.923 64.001,14.538 		"/>
	</g>
</g>
</svg>
