<?xml version="1.0" encoding="utf-8"?>
<!-- Generator: Adobe Illustrator 16.0.0, SVG Export Plug-In . SVG Version: 6.00 Build 0)  -->
<!DOCTYPE svg PUBLIC "-//W3C//DTD SVG 1.1//EN" "http://www.w3.org/Graphics/SVG/1.1/DTD/svg11.dtd">
<svg version="1.1" id="dropbox" xmlns="http://www.w3.org/2000/svg" xmlns:xlink="http://www.w3.org/1999/xlink" x="0px"
	 y="0px" width="32px" height="32px" viewBox="0 0 32 32" enable-background="new 0 0 32 32" xml:space="preserve">
	<polygon points="11.067,21.856 16,17.746 8.875,13.346 4,17.256 		"/>
	<polygon points="16,17.744 20.947,21.856 28,17.256 23.125,13.346 		"/>
	<polygon points="16.029,18.64 16.029,18.61 16.015,18.625 16,18.61 16,18.64 11.067,22.735 8.947,21.352
		8.947,22.908 16,27.135 16,27.148 16.015,27.135 16.029,27.148 16.029,27.135 23.096,22.908 23.096,21.352 20.977,22.735 		"/>
	<polygon points="4,9.452 8.875,13.346 16,8.961 11.067,4.852 		"/>
	<polygon points="20.947,4.852 16,8.961 23.125,13.346 28,9.452 		"/>
</svg>
