<?xml version="1.0" encoding="utf-8"?>
<!-- Generator: Adobe Illustrator 16.0.0, SVG Export Plug-In . SVG Version: 6.00 Build 0)  -->
<!DOCTYPE svg PUBLIC "-//W3C//DTD SVG 1.1//EN" "http://www.w3.org/Graphics/SVG/1.1/DTD/svg11.dtd">
<svg version="1.1" id="dropbox" xmlns="http://www.w3.org/2000/svg" xmlns:xlink="http://www.w3.org/1999/xlink" x="0px" y="0px"
	 width="32px" height="32px" viewBox="0 0 32 32" enable-background="new 0 0 32 32" xml:space="preserve">
<polygon points="11.478,21.367 16,17.601 9.469,13.567 5,17.15 "/>
<polygon points="16,17.6 20.535,21.367 27,17.15 22.531,13.567 "/>
<polygon points="16.027,18.42 16.027,18.393 16.014,18.406 16,18.393 16,18.42 11.478,22.174 9.535,20.906 9.535,22.332 16,26.207 
	16,26.219 16.014,26.207 16.027,26.219 16.027,26.207 22.504,22.332 22.504,20.906 20.562,22.174 "/>
<polygon points="5,9.998 9.469,13.567 16,9.548 11.478,5.781 "/>
<polygon points="20.535,5.781 16,9.548 22.531,13.567 27,9.998 "/>
</svg>
