<?xml version="1.0" encoding="utf-8"?>
<!-- Generator: Adobe Illustrator 16.0.0, SVG Export Plug-In . SVG Version: 6.00 Build 0)  -->
<!DOCTYPE svg PUBLIC "-//W3C//DTD SVG 1.1//EN" "http://www.w3.org/Graphics/SVG/1.1/DTD/svg11.dtd">
<svg version="1.1" id="cross" xmlns="http://www.w3.org/2000/svg" xmlns:xlink="http://www.w3.org/1999/xlink" x="0px" y="0px"
	 width="64px" height="64px" viewBox="0 0 64 64" enable-background="new 0 0 64 64" xml:space="preserve">
<g>
	<path d="M47.199,1.613l-7.885-0.013c-8.858,0-14.583,5.873-14.583,14.963v6.899h-7.928c-0.685,0-1.24,0.555-1.24,1.24v9.995
		c0,0.686,0.555,1.241,1.24,1.241h7.928V61.16c0,0.686,0.555,1.24,1.239,1.24h10.344c0.684,0,1.239-0.557,1.239-1.24V35.938h9.27
		c0.686,0,1.241-0.556,1.241-1.241l0.002-9.995c0-0.451-0.242-1.24-1.24-1.24h-9.272v-5.849c0-2.811,0.669-4.237,4.331-4.237
		l5.312-0.002c0.685,0,1.238-0.556,1.238-1.24V2.853C48.436,2.169,47.882,1.614,47.199,1.613z"/>
</g>
</svg>
