<?xml version="1.0" encoding="utf-8"?>
<!-- Generator: Adobe Illustrator 16.0.0, SVG Export Plug-In . SVG Version: 6.00 Build 0)  -->
<!DOCTYPE svg PUBLIC "-//W3C//DTD SVG 1.1//EN" "http://www.w3.org/Graphics/SVG/1.1/DTD/svg11.dtd">
<svg version="1.1" id="github" xmlns="http://www.w3.org/2000/svg" xmlns:xlink="http://www.w3.org/1999/xlink" x="0px"
	 y="0px" width="32px" height="32px" viewBox="0 0 32 32" enable-background="new 0 0 32 32" xml:space="preserve">
<path d="M26.182,11.836c0-1.731-0.66-3.125-1.729-4.179c0.188-0.597,0.434-1.923-0.251-3.623
	c0,0-1.216-0.379-3.958,1.435c-1.073-0.271-2.221-0.399-3.362-0.399c-1.258,0-2.532,0.156-3.719,0.48
	c-2.832-1.906-4.08-1.518-4.08-1.518C8.268,6.047,8.771,7.539,8.925,7.909C7.961,8.93,7.383,10.237,7.383,11.83
	c0,1.212,0.139,2.29,0.48,3.234l0.354,0.799c0.959,1.76,2.843,2.897,6.193,3.254c-0.474,0.316-0.966,0.85-1.158,1.759
	c-0.648,0.305-2.7,1.054-3.93-1.031c0,0-0.691-1.251-2.01-1.346c0,0-1.281-0.018-0.087,0.786c0,0,0.853,0.4,1.447,1.896
	c0,0,0.769,2.556,4.488,1.738v2.637c0,0-0.083,0.936-0.946,1.247c0,0-0.512,0.342,0.037,0.543c0,0,2.405,0.189,2.405-1.75v-2.884
	c0,0-0.098-1.141,0.468-1.532v4.726c0,0-0.035,1.125-0.629,1.55c0,0-0.395,0.705,0.473,0.511c0,0,1.654-0.231,1.727-2.146
	l0.039-4.782h0.397l0.037,4.782c0.082,1.907,1.734,2.146,1.734,2.146c0.865,0.194,0.468-0.511,0.468-0.511
	c-0.591-0.424-0.631-1.55-0.631-1.55v-4.687c0.566,0.438,0.474,1.493,0.474,1.493v2.883c0,1.939,2.4,1.749,2.4,1.749
	c0.551-0.202,0.04-0.543,0.04-0.543c-0.866-0.312-0.946-1.246-0.946-1.246V21.78c0-1.47-0.627-2.244-1.24-2.658
	c3.574-0.347,5.285-1.491,6.078-3.261c-0.016,0.03,0.283-0.792,0.283-0.792c0.273-0.938,0.355-2.024,0.355-3.233H26.182z"/>
</svg>
