<?xml version="1.0" encoding="utf-8"?>
<!-- Generator: Adobe Illustrator 16.0.0, SVG Export Plug-In . SVG Version: 6.00 Build 0)  -->
<!DOCTYPE svg PUBLIC "-//W3C//DTD SVG 1.1//EN" "http://www.w3.org/Graphics/SVG/1.1/DTD/svg11.dtd">
<svg version="1.1" id="github" xmlns="http://www.w3.org/2000/svg" xmlns:xlink="http://www.w3.org/1999/xlink" x="0px" y="0px"
	 width="32px" height="32px" viewBox="0 0 32 32" enable-background="new 0 0 32 32" xml:space="preserve">
<path d="M24.92,12.183c0-1.586-0.604-2.864-1.585-3.83c0.172-0.547,0.398-1.763-0.229-3.321c0,0-1.114-0.348-3.628,1.315
	c-0.983-0.248-2.035-0.366-3.081-0.366c-1.154,0-2.322,0.143-3.409,0.44c-2.596-1.747-3.74-1.391-3.74-1.391
	C8.5,6.877,8.961,8.245,9.103,8.584c-0.883,0.936-1.414,2.133-1.414,3.594c0,1.111,0.128,2.099,0.44,2.964l0.325,0.732
	c0.879,1.614,2.606,2.655,5.677,2.983c-0.434,0.289-0.885,0.779-1.062,1.612c-0.594,0.28-2.475,0.966-3.603-0.944
	c0,0-0.633-1.148-1.842-1.235c0,0-1.174-0.017-0.08,0.722c0,0,0.782,0.367,1.326,1.738c0,0,0.705,2.342,4.114,1.593v2.417
	c0,0-0.076,0.857-0.867,1.143c0,0-0.469,0.312,0.034,0.497c0,0,2.205,0.174,2.205-1.604v-2.643c0,0-0.09-1.047,0.429-1.404v4.332
	c0,0-0.032,1.031-0.576,1.421c0,0-0.362,0.646,0.433,0.468c0,0,1.517-0.211,1.584-1.967l0.035-4.383h0.363l0.033,4.383
	c0.076,1.748,1.59,1.967,1.59,1.967c0.793,0.179,0.429-0.468,0.429-0.468c-0.54-0.389-0.579-1.421-0.579-1.421v-4.297
	c0.52,0.402,0.436,1.369,0.436,1.369v2.643c0,1.777,2.2,1.604,2.2,1.604c0.505-0.186,0.036-0.498,0.036-0.498
	c-0.793-0.286-0.867-1.143-0.867-1.143v-3.461c0-1.346-0.574-2.056-1.137-2.435c3.277-0.318,4.845-1.368,5.572-2.99
	c-0.015,0.027,0.26-0.726,0.26-0.726c0.25-0.859,0.325-1.855,0.325-2.963H24.92z"/>
</svg>
