<?xml version="1.0" encoding="utf-8"?>
<!-- Generator: Adobe Illustrator 16.0.0, SVG Export Plug-In . SVG Version: 6.00 Build 0)  -->
<!DOCTYPE svg PUBLIC "-//W3C//DTD SVG 1.1//EN" "http://www.w3.org/Graphics/SVG/1.1/DTD/svg11.dtd">
<svg version="1.1" id="flexicon" xmlns="http://www.w3.org/2000/svg" xmlns:xlink="http://www.w3.org/1999/xlink" x="0px" y="0px"
	 width="64px" height="64px" viewBox="0 0 64 64" enable-background="new 0 0 64 64" xml:space="preserve">
<path d="M56.956,20.895c0-4.618-1.761-8.333-4.61-11.143c0.5-1.592,1.157-5.128-0.67-9.66c0,0-3.24-1.014-10.555,3.822
	c-2.863-0.72-5.92-1.064-8.966-1.064c-3.353,0-6.753,0.42-9.918,1.282c-7.553-5.085-10.881-4.046-10.881-4.046
	c-2.173,5.37-0.833,9.35-0.42,10.338c-2.57,2.72-4.113,6.206-4.113,10.456c0,3.23,0.37,6.106,1.28,8.623l0.943,2.13
	c2.558,4.692,7.582,7.729,16.515,8.68c-1.263,0.843-2.576,2.266-3.087,4.688c-1.73,0.816-7.2,2.812-10.48-2.75
	c0,0-1.843-3.337-5.36-3.588c0,0-3.416-0.047-0.232,2.095c0,0,2.275,1.07,3.86,5.056c0,0,2.05,6.817,11.968,4.636v7.034
	c0,0-0.22,2.49-2.524,3.322c0,0-1.364,0.913,0.1,1.448c0,0,6.414,0.508,6.414-4.664V49.9c0,0-0.26-3.045,1.248-4.088v12.604
	c0,0-0.095,3-1.676,4.13c0,0-1.053,1.88,1.26,1.363c0,0,4.41-0.617,4.604-5.722l0.103-12.752h1.06l0.101,12.752
	c0.216,5.088,4.623,5.72,4.623,5.72c2.306,0.518,1.246-1.36,1.246-1.36c-1.575-1.13-1.681-4.132-1.681-4.132V45.913
	c1.509,1.172,1.263,3.985,1.263,3.985v7.688c0,5.172,6.399,4.664,6.399,4.664c1.469-0.54,0.108-1.45,0.108-1.45
	c-2.312-0.83-2.522-3.319-2.522-3.319V47.413c0-3.918-1.674-5.985-3.308-7.087c9.533-0.924,14.095-3.98,16.21-8.698
	c-0.042,0.082,0.756-2.11,0.756-2.11c0.725-2.503,0.945-5.4,0.945-8.623H56.956z"/>
</svg>
