<?xml version="1.0" encoding="utf-8"?>
<!-- Generator: Adobe Illustrator 16.0.0, SVG Export Plug-In . SVG Version: 6.00 Build 0)  -->
<!DOCTYPE svg PUBLIC "-//W3C//DTD SVG 1.1//EN" "http://www.w3.org/Graphics/SVG/1.1/DTD/svg11.dtd">
<svg version="1.1" id="googlePlus" xmlns="http://www.w3.org/2000/svg" xmlns:xlink="http://www.w3.org/1999/xlink" x="0px"
	 y="0px" width="32px" height="32px" viewBox="0 0 32 32" enable-background="new 0 0 32 32" xml:space="preserve">
	<polygon points="25.1,14.522 25.1,11.639 22.803,11.639 22.803,14.522 19.902,14.522 19.902,16.82 22.803,16.82
		22.803,19.704 25.1,19.704 25.1,16.82 28,16.82 28,14.522 	"/>
	<path d="M18.389,15.057H11.34v2.558h4.667c-0.375,2.466-2.563,3.346-4.365,3.346c-2.746,0-4.896-2.171-4.896-4.942
		c0-2.792,2.153-4.978,4.903-4.978c2.054,0,3.318,1.313,3.33,1.328l0.212,0.226l1.786-1.847l-0.185-0.205
		c-0.077-0.084-1.916-2.065-5.213-2.065C7.471,8.477,4,11.913,4,15.981c0,3.627,2.937,7.542,7.684,7.542
		c4.121,0,6.999-2.824,6.999-6.867c0-0.409-0.052-1.357-0.206-1.514L18.389,15.057z"/>
</svg>
