<?xml version="1.0" encoding="utf-8"?>
<!-- Generator: Adobe Illustrator 16.0.0, SVG Export Plug-In . SVG Version: 6.00 Build 0)  -->
<!DOCTYPE svg PUBLIC "-//W3C//DTD SVG 1.1//EN" "http://www.w3.org/Graphics/SVG/1.1/DTD/svg11.dtd">
<svg version="1.1" id="google-plus" xmlns="http://www.w3.org/2000/svg" xmlns:xlink="http://www.w3.org/1999/xlink" x="0px"
	 y="0px" width="64px" height="64px" viewBox="0 0 64 64" enable-background="new 0 0 64 64" xml:space="preserve">
<g>
	<polygon points="56.266,28.06 56.266,20.37 50.14,20.37 50.14,28.06 42.407,28.06 42.407,34.187 50.14,34.187 50.14,41.877 
		56.266,41.877 56.266,34.187 64,34.187 64,28.06 	"/>
	<path d="M38.372,29.485H19.574v6.82h12.446c-0.999,6.574-6.837,8.924-11.639,8.924c-7.322,0-13.058-5.791-13.058-13.183
		c0-7.443,5.743-13.273,13.075-13.273c5.478,0,8.847,3.505,8.88,3.541l0.566,0.604l4.761-4.927l-0.494-0.546
		c-0.205-0.225-5.108-5.507-13.9-5.507C9.256,11.938,0,21.103,0,31.951c0,9.672,7.833,20.111,20.49,20.111
		c10.989,0,18.665-7.531,18.665-18.312c0-1.091-0.139-3.62-0.552-4.036L38.372,29.485z"/>
</g>
</svg>
