<?xml version="1.0" encoding="utf-8"?>
<!-- Generator: Adobe Illustrator 16.0.0, SVG Export Plug-In . SVG Version: 6.00 Build 0)  -->
<!DOCTYPE svg PUBLIC "-//W3C//DTD SVG 1.1//EN" "http://www.w3.org/Graphics/SVG/1.1/DTD/svg11.dtd">
<svg version="1.1" id="レイヤー_1" xmlns="http://www.w3.org/2000/svg" xmlns:xlink="http://www.w3.org/1999/xlink" x="0px"
	 y="0px" width="64px" height="64px" viewBox="0 0 64 64" enable-background="new 0 0 64 64" xml:space="preserve">
<g>
	<path d="M36.827,40.752L36.827,40.752c-0.679-0.911-1.429-1.758-2.249-2.539c-0.82-0.78-1.643-1.494-2.46-2.135
		c-0.82-0.64-1.57-1.257-2.25-1.847c-0.681-0.59-1.232-1.205-1.655-1.847c-0.423-0.641-0.634-1.294-0.634-1.96
		c0-0.924,0.295-1.79,0.884-2.598c0.59-0.807,1.309-1.588,2.154-2.346s1.689-1.584,2.537-2.48c0.846-0.898,1.562-2.083,2.154-3.561
		c0.59-1.473,0.885-3.16,0.885-5.056c0-2.257-0.5-4.424-1.5-6.5c-1-2.077-2.41-3.692-4.23-4.847h5.189l5.191-3.037H24.038
		c-2.384,0-4.783,0.255-7.19,0.77c-3.563,0.795-6.563,2.608-9,5.44c-2.436,2.835-3.654,6.046-3.654,9.636
		c0,3.795,1.367,6.948,4.097,9.461c2.729,2.512,6.006,3.77,9.827,3.77c0.768,0,1.666-0.064,2.689-0.192
		c-0.05,0.206-0.14,0.48-0.268,0.827c-0.128,0.348-0.23,0.623-0.309,0.828c-0.076,0.206-0.142,0.455-0.192,0.75
		c-0.05,0.295-0.076,0.597-0.076,0.904c0,1.69,0.819,3.604,2.462,5.73c-1.949,0.053-3.869,0.227-5.77,0.52
		c-1.896,0.296-3.883,0.758-5.961,1.386c-2.076,0.628-3.936,1.537-5.576,2.729s-2.872,2.606-3.692,4.25
		c-0.95,1.896-1.423,3.627-1.423,5.191c0,1.716,0.384,3.275,1.152,4.673c0.771,1.396,1.757,2.538,2.961,3.422
		c1.203,0.884,2.597,1.628,4.174,2.233c1.576,0.6,3.141,1.029,4.691,1.287c1.551,0.255,3.082,0.383,4.596,0.383
		c6.869,0,12.256-1.68,16.152-5.036c3.59-3.13,5.385-6.744,5.385-10.848c0-1.462-0.211-2.827-0.635-4.097
		C38.059,42.749,37.509,41.659,36.827,40.752z M22.003,26.769l-0.001,0.002c-1.309,0-2.55-0.332-3.73-1
		c-1.18-0.666-2.18-1.531-3-2.596c-0.819-1.064-1.537-2.264-2.153-3.597c-0.615-1.333-1.07-2.666-1.365-4
		c-0.294-1.333-0.442-2.603-0.442-3.808c0-2.463,0.654-4.578,1.963-6.348c1.308-1.77,3.153-2.654,5.539-2.654
		c1.69,0,3.225,0.524,4.596,1.576c1.371,1.051,2.449,2.385,3.23,4c0.779,1.615,1.385,3.287,1.807,5.021
		c0.423,1.729,0.635,3.364,0.635,4.903c0,2.562-0.559,4.621-1.672,6.174C26.291,25.992,24.49,26.769,22.003,26.769z M32.636,55.649
		v0.004c-0.704,1.207-1.659,2.147-2.864,2.826c-1.207,0.681-2.496,1.179-3.867,1.498c-1.371,0.32-2.813,0.482-4.327,0.482
		c-1.64,0-3.271-0.193-4.884-0.578c-1.615-0.385-3.16-0.968-4.635-1.75c-1.475-0.779-2.668-1.859-3.578-3.23
		c-0.91-1.369-1.365-2.93-1.365-4.672c0-1.541,0.347-2.91,1.041-4.117c0.691-1.204,1.576-2.166,2.652-2.883
		c1.076-0.721,2.334-1.311,3.77-1.771c1.436-0.462,2.82-0.78,4.152-0.96c1.334-0.182,2.693-0.27,4.078-0.27
		c0.846,0,1.486,0.024,1.922,0.075c0.153,0.104,0.545,0.37,1.174,0.808c0.627,0.436,1.05,0.73,1.27,0.886
		c0.217,0.149,0.614,0.444,1.189,0.882c0.578,0.436,0.988,0.764,1.23,0.98c0.243,0.218,0.596,0.545,1.061,0.979
		c0.459,0.437,0.8,0.813,1.018,1.136c0.221,0.319,0.488,0.709,0.811,1.172c0.319,0.463,0.543,0.903,0.672,1.326
		c0.127,0.424,0.25,0.885,0.365,1.385c0.114,0.5,0.172,1.021,0.172,1.561C33.691,53.035,33.342,54.444,32.636,55.649z"/>
	<polygon points="54.154,9.847 54.154,0.001 49.23,0.001 49.23,9.847 39.386,9.847 39.386,14.771 49.23,14.771 49.23,24.616 
		54.152,24.616 54.152,14.771 63.998,14.771 63.998,9.847 	"/>
</g>
</svg>
