<?xml version="1.0" encoding="utf-8"?>
<!-- Generator: Adobe Illustrator 16.0.0, SVG Export Plug-In . SVG Version: 6.00 Build 0)  -->
<!DOCTYPE svg PUBLIC "-//W3C//DTD SVG 1.1//EN" "http://www.w3.org/Graphics/SVG/1.1/DTD/svg11.dtd">
<svg version="1.1" id="flexicon" xmlns="http://www.w3.org/2000/svg" xmlns:xlink="http://www.w3.org/1999/xlink" x="0px" y="0px"
	 width="64px" height="64px" viewBox="0 0 64 64" enable-background="new 0 0 64 64" xml:space="preserve">
<path d="M57.29,50.35v-0.002c-0.007-0.006-0.013-0.008-0.017-0.016l-9.983-16.51c-0.583-0.988-1.646-1.64-2.873-1.637l-14.74-0.09
	V28.78l10.107,0.032c1.432,0.004,2.592-1.154,2.598-2.588c0.002-1.43-1.157-2.593-2.59-2.597l-10.114-0.032V18.54
	c0-3.27-2.68-5.924-5.953-5.924c-3.25,0-5.89,2.62-5.922,5.862l-0.008,0.004L17.73,32.6c0.032,4.98,3.352,7.918,9.143,7.726h16.686
	l7.969,13.38l0.007-0.003c0.01,0.016,0.021,0.037,0.026,0.055c0.942,1.582,2.987,2.104,4.565,1.16
	C57.706,53.977,58.23,51.932,57.29,50.35L57.29,50.35z M23.72,11.494h0.003c3.172,0,5.744-2.573,5.744-5.747
	C29.467,2.575,26.893,0,23.72,0c-3.177,0-5.75,2.575-5.75,5.747C17.97,8.92,20.542,11.494,23.72,11.494z"/>
<path d="M27.076,59.625c-9.09,0-16.46-7.367-16.46-16.457c0-4.758,2.023-9.053,5.254-12.057l0.025-5.522
	c-5.806,3.695-9.652,10.19-9.652,17.58C6.243,54.675,15.57,64,27.076,64c9.02,0,16.708-5.736,19.6-13.762l-3.23-5.34
	C42.576,53.174,35.578,59.625,27.076,59.625z"/>
</svg>
