<?xml version="1.0" encoding="utf-8"?>
<!-- Generator: Adobe Illustrator 16.0.0, SVG Export Plug-In . SVG Version: 6.00 Build 0)  -->
<!DOCTYPE svg PUBLIC "-//W3C//DTD SVG 1.1//EN" "http://www.w3.org/Graphics/SVG/1.1/DTD/svg11.dtd">
<svg version="1.1" id="flexicon" xmlns="http://www.w3.org/2000/svg" xmlns:xlink="http://www.w3.org/1999/xlink" x="0px" y="0px"
	 width="64px" height="64px" viewBox="0 0 64 64" enable-background="new 0 0 64 64" xml:space="preserve">
<path d="M63.988,20.07c-0.185-6.42-3.152-11.695-7.352-14.926c-5.399-4.15-12.841-4.92-19.031-0.382
	C35.562,6.262,33.652,8.339,32,11.066c-1.654-2.728-3.562-4.805-5.606-6.304c-6.19-4.538-13.631-3.769-19.031,0.382
	c-4.2,3.23-7.167,8.506-7.352,14.926c-0.099,3.41,0.421,7.219,2.291,11.061c2.941,6.044,16.743,19.48,29.586,31.081
	c0.036,0.034,0.069,0.072,0.105,0.106c0.002-0.002,0.004-0.004,0.007-0.006c0.002,0.002,0.004,0.004,0.006,0.006
	c0.036-0.034,0.069-0.072,0.105-0.106c12.843-11.601,26.645-25.037,29.586-31.081C63.567,27.289,64.087,23.48,63.988,20.07z"/>
</svg>
