<?xml version="1.0" encoding="utf-8"?>
<!-- Generator: Adobe Illustrator 16.0.0, SVG Export Plug-In . SVG Version: 6.00 Build 0)  -->
<!DOCTYPE svg PUBLIC "-//W3C//DTD SVG 1.1//EN" "http://www.w3.org/Graphics/SVG/1.1/DTD/svg11.dtd">
<svg version="1.1" id="heart" xmlns="http://www.w3.org/2000/svg" xmlns:xlink="http://www.w3.org/1999/xlink" x="0px"
	 y="0px" width="32px" height="32px" viewBox="0 0 32 32" enable-background="new 0 0 32 32" xml:space="preserve">
<path d="M26.996,12.898c-0.064-2.207-1.084-4.021-2.527-5.13c-1.856-1.428-4.415-1.69-6.542-0.132
	C17.225,8.152,16.568,8.866,16,9.804c-0.568-0.938-1.224-1.652-1.927-2.167C11.946,6.078,9.388,6.34,7.531,7.769
	c-1.444,1.109-2.463,2.923-2.527,5.13c-0.035,1.172,0.145,2.48,0.788,3.803c1.01,2.077,5.755,6.695,10.171,10.683
	c0.011,0.013,0.022,0.024,0.035,0.038c0-0.001,0.001-0.002,0.002-0.002s0.001,0.001,0.002,0.002
	c0.013-0.014,0.025-0.025,0.036-0.038c4.415-3.987,9.159-8.605,10.17-10.683C26.852,15.379,27.03,14.07,26.996,12.898z"/>
</svg>
