<?xml version="1.0" encoding="utf-8"?>
<!-- Generator: Adobe Illustrator 16.0.0, SVG Export Plug-In . SVG Version: 6.00 Build 0)  -->
<!DOCTYPE svg PUBLIC "-//W3C//DTD SVG 1.1//EN" "http://www.w3.org/Graphics/SVG/1.1/DTD/svg11.dtd">
<svg version="1.1" id="instagram" xmlns="http://www.w3.org/2000/svg" xmlns:xlink="http://www.w3.org/1999/xlink" x="0px" y="0px"
	 width="32px" height="32px" viewBox="0 0 32 32" enable-background="new 0 0 32 32" xml:space="preserve">
<g id="XMLID_13_">
	<path id="XMLID_17_" d="M20.85,4h-9.7C7.206,4,4,7.206,4,11.15v9.7C4,24.794,7.206,28,11.15,28h9.7c3.943,0,7.149-3.206,7.149-7.15
		v-9.7C28,7.206,24.794,4,20.85,4z M25.586,20.85c0,2.616-2.12,4.736-4.736,4.736h-9.7c-2.616,0-4.736-2.12-4.736-4.736v-9.7
		c0-2.616,2.12-4.736,4.736-4.736h9.7c2.615,0,4.735,2.12,4.735,4.736L25.586,20.85L25.586,20.85z"/>
	<path id="XMLID_81_" d="M16,9.794c-3.423,0-6.206,2.783-6.206,6.206s2.783,6.206,6.206,6.206s6.206-2.783,6.206-6.206
		S19.423,9.794,16,9.794z M16,19.791c-2.094,0-3.792-1.697-3.792-3.791s1.698-3.792,3.792-3.792s3.791,1.698,3.791,3.792
		S18.094,19.791,16,19.791z"/>
	<path id="XMLID_83_" d="M22.218,8.354c0.821,0,1.487,0.666,1.487,1.487s-0.666,1.487-1.487,1.487s-1.487-0.666-1.487-1.487
		S21.287,8.354,22.218,8.354z"/>
</g>
</svg>
