<?xml version="1.0" encoding="utf-8"?>
<!-- Generator: Adobe Illustrator 16.0.0, SVG Export Plug-In . SVG Version: 6.00 Build 0)  -->
<!DOCTYPE svg PUBLIC "-//W3C//DTD SVG 1.1//EN" "http://www.w3.org/Graphics/SVG/1.1/DTD/svg11.dtd">
<svg version="1.1" id="instagram" xmlns="http://www.w3.org/2000/svg" xmlns:xlink="http://www.w3.org/1999/xlink" x="0px"
	 y="0px" width="32px" height="32px" viewBox="0 0 32 32" enable-background="new 0 0 32 32" xml:space="preserve">
<path d="M25.23,14.151h-2.09c0.152,0.592,0.244,1.211,0.244,1.849c0,4.077-3.311,7.385-7.385,7.385
	c-4.078,0-7.385-3.308-7.385-7.385c0-0.637,0.088-1.257,0.245-1.849H6.768v10.157c0,0.509,0.413,0.922,0.922,0.922h16.618
	c0.509,0,0.922-0.413,0.922-0.921L25.23,14.151L25.23,14.151z M25.23,7.691c0-0.509-0.414-0.923-0.922-0.923h-2.773
	c-0.509,0-0.922,0.414-0.922,0.923v2.769c0,0.51,0.413,0.925,0.923,0.925h2.771c0.509,0,0.922-0.416,0.922-0.925L25.23,7.691
	L25.23,7.691z M16,11.386c-2.55,0-4.618,2.064-4.618,4.614c0,2.547,2.067,4.614,4.618,4.614c2.551,0,4.615-2.067,4.615-4.614
	C20.615,13.45,18.551,11.386,16,11.386 M25.23,28H6.77C5.24,28,4,26.761,4,25.23V6.769C4,5.24,5.24,4,6.77,4H25.23
	C26.762,4,28,5.24,28,6.769V25.23C28,26.761,26.762,28,25.23,28"/>
</svg>
