<?xml version="1.0" encoding="utf-8"?>
<!-- Generator: Adobe Illustrator 16.0.0, SVG Export Plug-In . SVG Version: 6.00 Build 0)  -->
<!DOCTYPE svg PUBLIC "-//W3C//DTD SVG 1.1//EN" "http://www.w3.org/Graphics/SVG/1.1/DTD/svg11.dtd">
<svg version="1.1" id="flexicon" xmlns="http://www.w3.org/2000/svg" xmlns:xlink="http://www.w3.org/1999/xlink" x="0px" y="0px"
	 width="64px" height="64px" viewBox="0 0 64 64" enable-background="new 0 0 64 64" xml:space="preserve">
<path d="M56.614,27.071h-5.572c0.406,1.578,0.652,3.229,0.652,4.929c0,10.873-8.828,19.691-19.695,19.691
	c-10.874,0-19.695-8.818-19.695-19.691c0-1.699,0.235-3.35,0.652-4.929H7.382v27.086c0,1.357,1.101,2.457,2.458,2.457h44.315
	c1.355,0,2.457-1.1,2.457-2.456V27.072L56.614,27.071z M56.614,9.843c0-1.357-1.102-2.458-2.458-2.458h-7.394
	c-1.357,0-2.459,1.101-2.459,2.458v7.385c0,1.357,1.102,2.463,2.46,2.463h7.391c1.356,0,2.458-1.108,2.458-2.463V9.843H56.614z
	 M32,19.694c-6.802,0-12.314,5.506-12.314,12.306c0,6.792,5.514,12.306,12.314,12.306c6.8,0,12.306-5.514,12.306-12.306
	C44.306,25.2,38.8,19.694,32,19.694 M56.614,64H7.385C3.307,64,0,60.693,0,56.614V7.385C0,3.308,3.307,0,7.385,0h49.229
	C60.698,0,64,3.308,64,7.385v49.229C64,60.693,60.698,64,56.614,64"/>
</svg>
