<?xml version="1.0" encoding="utf-8"?>
<!-- Generator: Adobe Illustrator 16.0.0, SVG Export Plug-In . SVG Version: 6.00 Build 0)  -->
<!DOCTYPE svg PUBLIC "-//W3C//DTD SVG 1.1//EN" "http://www.w3.org/Graphics/SVG/1.1/DTD/svg11.dtd">
<svg version="1.1" id="flexicon" xmlns="http://www.w3.org/2000/svg" xmlns:xlink="http://www.w3.org/1999/xlink" x="0px" y="0px"
	 width="64px" height="64px" viewBox="0 0 64 64" enable-background="new 0 0 64 64" xml:space="preserve">
<path d="M54.307,27.533h-5.05c0.368,1.43,0.591,2.926,0.591,4.467c0,9.854-8,17.846-17.849,17.846
	c-9.854,0-17.848-7.992-17.848-17.846c0-1.54,0.213-3.036,0.59-4.467H9.69V52.08c0,1.23,0.997,2.227,2.228,2.227h40.16
	c1.229,0,2.227-0.996,2.227-2.226V27.534L54.307,27.533z M54.307,11.92c0-1.23-0.998-2.227-2.228-2.227h-6.7
	c-1.23,0-2.229,0.998-2.229,2.227v6.693c0,1.23,0.998,2.232,2.23,2.232h6.697c1.229,0,2.227-1.004,2.227-2.232V11.92H54.307z
	 M32,20.848c-6.164,0-11.16,4.99-11.16,11.152c0,6.155,4.997,11.152,11.16,11.152c6.162,0,11.152-4.997,11.152-11.152
	C43.152,25.838,38.162,20.848,32,20.848 M54.307,61H9.693C5.997,61,3,58.003,3,54.307V9.693C3,5.998,5.997,3,9.693,3h44.614
	C58.008,3,61,5.998,61,9.693v44.614C61,58.003,58.008,61,54.307,61"/>
</svg>
