<?xml version="1.0" encoding="utf-8"?>
<!-- Generator: Adobe Illustrator 16.0.0, SVG Export Plug-In . SVG Version: 6.00 Build 0)  -->
<!DOCTYPE svg PUBLIC "-//W3C//DTD SVG 1.1//EN" "http://www.w3.org/Graphics/SVG/1.1/DTD/svg11.dtd">
<svg version="1.1" id="instagram" xmlns="http://www.w3.org/2000/svg" xmlns:xlink="http://www.w3.org/1999/xlink" x="0px" y="0px"
	 width="32px" height="32px" viewBox="0 0 32 32" enable-background="new 0 0 32 32" xml:space="preserve">
<g id="XMLID_13_">
	<path id="XMLID_17_" d="M20.445,5h-8.891C7.938,5,5,7.938,5,11.554v8.891C5,24.062,7.938,27,11.554,27h8.891
		c3.615,0,6.554-2.938,6.554-6.555v-8.891C27,7.938,24.062,5,20.445,5z M24.787,20.445c0,2.397-1.944,4.342-4.342,4.342h-8.891
		c-2.398,0-4.341-1.944-4.341-4.342v-8.891c0-2.398,1.943-4.341,4.341-4.341h8.891c2.396,0,4.341,1.943,4.341,4.341L24.787,20.445
		L24.787,20.445z"/>
	<path id="XMLID_81_" d="M16,10.312c-3.138,0-5.688,2.551-5.688,5.688s2.551,5.688,5.688,5.688s5.688-2.551,5.688-5.688
		S19.138,10.312,16,10.312z M16,19.475c-1.919,0-3.476-1.555-3.476-3.475c0-1.919,1.557-3.476,3.476-3.476
		c1.92,0,3.475,1.557,3.475,3.476C19.475,17.92,17.92,19.475,16,19.475z"/>
	<path id="XMLID_83_" d="M21.7,8.991c0.753,0,1.362,0.611,1.362,1.364s-0.609,1.363-1.362,1.363s-1.364-0.611-1.364-1.363
		S20.846,8.991,21.7,8.991z"/>
</g>
</svg>
