<?xml version="1.0" encoding="utf-8"?>
<!-- Generator: Adobe Illustrator 16.0.0, SVG Export Plug-In . SVG Version: 6.00 Build 0)  -->
<!DOCTYPE svg PUBLIC "-//W3C//DTD SVG 1.1//EN" "http://www.w3.org/Graphics/SVG/1.1/DTD/svg11.dtd">
<svg version="1.1" id="mail" xmlns="http://www.w3.org/2000/svg" xmlns:xlink="http://www.w3.org/1999/xlink" x="0px" y="0px"
	 width="64px" height="64px" viewBox="0 0 64 64" enable-background="new 0 0 64 64" xml:space="preserve">
<path d="M0,55.924V8.076l64-0.001v47.849H0z M8.758,50.646H55.24l-14.872-14.88l-3.186,3.158c-1.55,1.549-3.293,2.333-5.182,2.333
	c-1.888,0-3.631-0.784-5.181-2.331l-3.19-3.159L8.758,50.646z M5.222,46.938l14.771-14.807L5.222,17.394V46.938z M44.004,32.13
	l14.775,14.805l0.003-29.545L44.004,32.13z M30.704,35.504c0.383,0.386,0.676,0.57,1.299,0.57c0.619,0,0.912-0.184,1.299-0.57
	l22.036-22.106L8.66,13.396C8.66,13.396,30.317,35.118,30.704,35.504z"/>
</svg>
