<?xml version="1.0" encoding="utf-8"?>
<!-- Generator: Adobe Illustrator 16.0.0, SVG Export Plug-In . SVG Version: 6.00 Build 0)  -->
<!DOCTYPE svg PUBLIC "-//W3C//DTD SVG 1.1//EN" "http://www.w3.org/Graphics/SVG/1.1/DTD/svg11.dtd">
<svg version="1.1" id="mobile" xmlns="http://www.w3.org/2000/svg" xmlns:xlink="http://www.w3.org/1999/xlink" x="0px"
	 y="0px" width="32px" height="32px" viewBox="0 0 32 32" enable-background="new 0 0 32 32" xml:space="preserve">
<path d="M21.049,4H10.951C9.984,4,9.205,4.783,9.205,5.748v20.506c0,0.964,0.78,1.746,1.746,1.746h10.098
	c0.965,0,1.746-0.782,1.746-1.746V5.748C22.795,4.783,22.014,4,21.049,4z M16.001,26.274c-0.615,0-1.116-0.5-1.116-1.115
	c0-0.617,0.5-1.115,1.116-1.115c0.613,0,1.113,0.498,1.113,1.115C17.115,25.774,16.614,26.274,16.001,26.274z M21.486,22.454H10.514
	V6.95h10.973V22.454L21.486,22.454z M17.836,5.954h-3.602V5.116h3.602V5.954z"/>
</svg>
