<?xml version="1.0" encoding="utf-8"?>
<!-- Generator: Adobe Illustrator 16.0.0, SVG Export Plug-In . SVG Version: 6.00 Build 0)  -->
<!DOCTYPE svg PUBLIC "-//W3C//DTD SVG 1.1//EN" "http://www.w3.org/Graphics/SVG/1.1/DTD/svg11.dtd">
<svg version="1.1" id="flexicon" xmlns="http://www.w3.org/2000/svg" xmlns:xlink="http://www.w3.org/1999/xlink" x="0px" y="0px"
	 width="64px" height="64px" viewBox="0 0 64 64" enable-background="new 0 0 64 64" xml:space="preserve">
<path d="M45.464,0H18.536c-2.577,0-4.657,2.089-4.657,4.662v54.682c0,2.569,2.08,4.656,4.657,4.656h26.928
	c2.572,0,4.657-2.087,4.657-4.656V4.662C50.121,2.089,48.036,0,45.464,0z M32.002,59.398c-1.64,0-2.974-1.334-2.974-2.975
	c0-1.643,1.334-2.973,2.974-2.973c1.634,0,2.969,1.33,2.969,2.973C34.972,58.064,33.637,59.398,32.002,59.398z M46.632,49.21H17.37
	V7.866h29.262V49.21L46.632,49.21z M36.896,5.212h-9.605V2.975h9.605V5.212z"/>
</svg>
