<?xml version="1.0" encoding="utf-8"?>
<!-- Generator: Adobe Illustrator 16.0.0, SVG Export Plug-In . SVG Version: 6.00 Build 0)  -->
<!DOCTYPE svg PUBLIC "-//W3C//DTD SVG 1.1//EN" "http://www.w3.org/Graphics/SVG/1.1/DTD/svg11.dtd">
<svg version="1.1" id="more" xmlns="http://www.w3.org/2000/svg" xmlns:xlink="http://www.w3.org/1999/xlink" x="0px" y="0px"
	 width="32px" height="32px" viewBox="0 0 32 32" enable-background="new 0 0 32 32" xml:space="preserve">
<path d="M10.429,16c0,1.499-1.215,2.715-2.715,2.715C6.216,18.715,5,17.499,5,16s1.216-2.714,2.714-2.714
	C9.213,13.286,10.429,14.501,10.429,16z M16,13.286c-1.499,0-2.714,1.216-2.714,2.714s1.215,2.715,2.714,2.715
	c1.499,0,2.715-1.216,2.715-2.715S17.499,13.286,16,13.286z M24.285,13.286c-1.5,0-2.714,1.216-2.714,2.714s1.214,2.715,2.714,2.715
	S27,17.499,27,16S25.785,13.286,24.285,13.286z"/>
</svg>
