<?xml version="1.0" encoding="utf-8"?>
<!-- Generator: Adobe Illustrator 16.0.0, SVG Export Plug-In . SVG Version: 6.00 Build 0)  -->
<!DOCTYPE svg PUBLIC "-//W3C//DTD SVG 1.1//EN" "http://www.w3.org/Graphics/SVG/1.1/DTD/svg11.dtd">
<svg version="1.1" id="more" xmlns="http://www.w3.org/2000/svg" xmlns:xlink="http://www.w3.org/1999/xlink" x="0px" y="0px"
	 width="32px" height="32px" viewBox="0 0 32 32" enable-background="new 0 0 32 32" xml:space="preserve">
<path d="M9.922,16c0,1.636-1.326,2.961-2.961,2.961S4,17.636,4,16s1.326-2.961,2.961-2.961S9.922,14.364,9.922,16z M16,13.039
	c-1.635,0-2.961,1.326-2.961,2.961s1.326,2.961,2.961,2.961c1.636,0,2.961-1.325,2.961-2.961S17.636,13.039,16,13.039z
	 M25.039,13.039c-1.636,0-2.962,1.326-2.962,2.961s1.326,2.961,2.962,2.961C26.674,18.961,28,17.636,28,16
	S26.674,13.039,25.039,13.039z"/>
</svg>
