<?xml version="1.0" encoding="utf-8"?>
<!-- Generator: Adobe Illustrator 16.0.0, SVG Export Plug-In . SVG Version: 6.00 Build 0)  -->
<!DOCTYPE svg PUBLIC "-//W3C//DTD SVG 1.1//EN" "http://www.w3.org/Graphics/SVG/1.1/DTD/svg11.dtd">
<svg version="1.1" id="phone" xmlns="http://www.w3.org/2000/svg" xmlns:xlink="http://www.w3.org/1999/xlink" x="0px"
	 y="0px" width="32px" height="32px" viewBox="0 0 32 32" enable-background="new 0 0 32 32" xml:space="preserve">
<path d="M11.363,4.844c0,0-0.359-0.844-0.91-0.844C9.911,4,9.63,4.25,9.442,4.422S6.115,7.175,6.115,7.175
	S5.203,7.972,5.272,9.472c0.059,1.5,0.353,3.635,1.875,6.609c1.512,2.967,5.297,7.5,7.688,9.094c0,0,2.216,1.7,4.278,2.391
	C19.711,27.756,20.908,28,21.188,28c0.282,0,0.785,0,1.359-0.42c0.585-0.424,3.865-3.062,3.865-3.062s0.805-0.725-0.129-1.568
	c-0.938-0.844-3.783-2.719-4.393-3.213c-0.609-0.501-1.478-0.281-1.853,0.059c-0.374,0.342-1.042,0.904-1.125,0.973
	c-0.122,0.094-0.456,0.4-0.831,0.246c-0.48-0.188-2.438-1.252-4.253-3.736c-1.806-2.484-2.005-3.295-2.275-4.172
	c-0.082-0.247-0.022-0.529,0.246-0.717c0.27-0.188,1.266-1.018,1.266-1.018s0.645-0.635,0.375-1.385S11.363,4.844,11.363,4.844z"/>
</svg>
