<?xml version="1.0" encoding="utf-8"?>
<!-- Generator: Adobe Illustrator 16.0.0, SVG Export Plug-In . SVG Version: 6.00 Build 0)  -->
<!DOCTYPE svg PUBLIC "-//W3C//DTD SVG 1.1//EN" "http://www.w3.org/Graphics/SVG/1.1/DTD/svg11.dtd">
<svg version="1.1" id="phone" xmlns="http://www.w3.org/2000/svg" xmlns:xlink="http://www.w3.org/1999/xlink" x="0px" y="0px"
	 width="32px" height="32px" viewBox="0 0 32 32" enable-background="new 0 0 32 32" xml:space="preserve">
<path d="M11.748,5.773c0,0-0.33-0.773-0.834-0.773c-0.496,0-0.754,0.229-0.926,0.387S6.938,7.91,6.938,7.91
	s-0.837,0.731-0.773,2.106c0.054,1.375,0.323,3.332,1.719,6.058c1.386,2.72,4.855,6.876,7.047,8.337c0,0,2.031,1.558,3.921,2.191
	C19.401,26.775,20.499,27,20.755,27c0.26,0,0.719,0,1.246-0.385c0.536-0.389,3.543-2.807,3.543-2.807s0.736-0.665-0.119-1.438
	c-0.859-0.773-3.467-2.492-4.025-2.944c-0.559-0.459-1.355-0.257-1.699,0.054c-0.343,0.313-0.956,0.828-1.031,0.893
	c-0.112,0.086-0.419,0.365-0.763,0.226c-0.438-0.173-2.234-1.148-3.899-3.426c-1.655-2.276-1.837-3.02-2.084-3.824
	c-0.075-0.227-0.021-0.485,0.225-0.657c0.248-0.172,1.161-0.933,1.161-0.933s0.591-0.583,0.344-1.27S11.748,5.773,11.748,5.773z"/>
</svg>
