<?xml version="1.0" encoding="utf-8"?>
<!-- Generator: Adobe Illustrator 16.0.0, SVG Export Plug-In . SVG Version: 6.00 Build 0)  -->
<!DOCTYPE svg PUBLIC "-//W3C//DTD SVG 1.1//EN" "http://www.w3.org/Graphics/SVG/1.1/DTD/svg11.dtd">
<svg version="1.1" id="cross" xmlns="http://www.w3.org/2000/svg" xmlns:xlink="http://www.w3.org/1999/xlink" x="0px" y="0px"
	 width="64px" height="64px" viewBox="0 0 64 64" enable-background="new 0 0 64 64" xml:space="preserve">
<path fill="#010002" d="M19.629,2.25c0,0-0.957-2.25-2.416-2.25c-1.458,0-2.208,0.667-2.708,1.125
	c-0.5,0.459-8.874,7.333-8.874,7.333s-2.417,2.126-2.249,6.125c0.167,4,0.958,9.708,5,17.625c4.043,7.917,14.126,20,20.5,24.248
	c0,0,5.916,4.545,11.418,6.376C41.893,63.364,45.092,64,45.84,64c0.751,0,2.083,0,3.625-1.124
	c1.542-1.126,10.291-8.169,10.291-8.169s2.166-1.915-0.333-4.163c-2.501-2.251-10.083-7.253-11.708-8.588
	c-1.626-1.33-3.957-0.749-4.957,0.168s-2.764,2.397-3.001,2.584c-0.318,0.25-1.206,1.059-2.207,0.666
	c-1.275-0.501-6.501-3.333-11.334-9.958c-4.833-6.624-5.354-8.791-6.083-11.124c-0.208-0.668-0.042-1.417,0.668-1.918
	c0.708-0.5,3.374-2.709,3.374-2.709s1.709-1.708,1-3.708C24.463,13.96,19.629,2.25,19.629,2.25z"/>
</svg>
