<?xml version="1.0" encoding="utf-8"?>
<!-- Generator: Adobe Illustrator 16.0.0, SVG Export Plug-In . SVG Version: 6.00 Build 0)  -->
<!DOCTYPE svg PUBLIC "-//W3C//DTD SVG 1.1//EN" "http://www.w3.org/Graphics/SVG/1.1/DTD/svg11.dtd">
<svg version="1.1" id="cross" xmlns="http://www.w3.org/2000/svg" xmlns:xlink="http://www.w3.org/1999/xlink" x="0px" y="0px"
	 width="64px" height="64px" viewBox="0 0 64 64" enable-background="new 0 0 64 64" xml:space="preserve">
<path fill="#010002" d="M21.736,5.225c0,0-0.861-2.025-2.174-2.025c-1.313,0-1.988,0.6-2.438,1.013c-0.45,0.413-7.987,6.6-7.987,6.6
	s-2.175,1.913-2.024,5.512c0.15,3.6,0.862,8.738,4.5,15.863c3.639,7.125,12.713,18,18.451,21.824c0,0,5.325,4.09,10.276,5.739
	c1.434,0.478,4.312,1.05,4.986,1.05c0.676,0,1.875,0,3.263-1.012c1.388-1.014,9.263-7.351,9.263-7.351s1.949-1.725-0.301-3.749
	c-2.25-2.025-9.074-6.526-10.537-7.727c-1.463-1.199-3.562-0.675-4.462,0.15c-0.9,0.826-2.487,2.158-2.7,2.325
	c-0.287,0.225-1.086,0.954-1.987,0.601c-1.147-0.451-5.851-3-10.201-8.963c-4.35-5.962-4.818-7.912-5.475-10.012
	c-0.187-0.601-0.038-1.275,0.601-1.726c0.637-0.45,3.037-2.438,3.037-2.438s1.538-1.537,0.9-3.337
	C26.087,15.764,21.736,5.225,21.736,5.225z"/>
<path fill="#010002" d="M39.578,62.516"/>
</svg>
