<?xml version="1.0" encoding="utf-8"?>
<!-- Generator: Adobe Illustrator 16.0.0, SVG Export Plug-In . SVG Version: 6.00 Build 0)  -->
<!DOCTYPE svg PUBLIC "-//W3C//DTD SVG 1.1//EN" "http://www.w3.org/Graphics/SVG/1.1/DTD/svg11.dtd">
<svg version="1.1" id="pin" xmlns="http://www.w3.org/2000/svg" xmlns:xlink="http://www.w3.org/1999/xlink" x="0px" y="0px"
	 width="32px" height="32px" viewBox="0 0 32 32" enable-background="new 0 0 32 32" xml:space="preserve">
<path d="M16.001,5c-4.216,0-7.714,3.418-7.634,7.634c0.029,1.578,0.719,2.824,1.351,4.024c0.242,0.461,6.264,10.332,6.264,10.332V27
	l0.001-0.007L15.985,27v-0.01l6.531-10.377c0.407-0.703,0.793-1.771,0.793-1.771c0.212-0.699,0.325-1.44,0.325-2.208
	C23.635,8.418,20.219,5,16.001,5z M16,16.019c-2.153,0-3.896-1.744-3.896-3.897c0-2.153,1.745-3.896,3.896-3.896
	c2.152,0,3.898,1.744,3.898,3.897C19.898,14.274,18.154,16.019,16,16.019z"/>
</svg>
