<?xml version="1.0" encoding="utf-8"?>
<!-- Generator: Adobe Illustrator 16.0.0, SVG Export Plug-In . SVG Version: 6.00 Build 0)  -->
<!DOCTYPE svg PUBLIC "-//W3C//DTD SVG 1.1//EN" "http://www.w3.org/Graphics/SVG/1.1/DTD/svg11.dtd">
<svg version="1.1" id="flexicon" xmlns="http://www.w3.org/2000/svg" xmlns:xlink="http://www.w3.org/1999/xlink" x="0px" y="0px"
	 width="64px" height="64px" viewBox="0 0 64 64" enable-background="new 0 0 64 64" xml:space="preserve">
<path d="M32,0C20.885,0,11.874,9.011,11.874,20.124c0,2.024,0.346,3.993,0.901,5.835l19.174,38.013v0.027l0.005-0.014l0.006,0.014
	v-0.025l17.217-33.358c0.507-0.828,2.09-4.669,2.09-4.669c0.559-1.844,0.858-3.797,0.858-5.821C52.124,9.011,43.115,0,32,0z
	 M32,26.699c-4.375,0-7.922-3.546-7.922-7.923c0-4.376,3.547-7.923,7.922-7.923c4.375,0,7.924,3.547,7.924,7.923
	S36.375,26.699,32,26.699z"/>
</svg>
