<?xml version="1.0" encoding="utf-8"?>
<!-- Generator: Adobe Illustrator 16.0.0, SVG Export Plug-In . SVG Version: 6.00 Build 0)  -->
<!DOCTYPE svg PUBLIC "-//W3C//DTD SVG 1.1//EN" "http://www.w3.org/Graphics/SVG/1.1/DTD/svg11.dtd">
<svg version="1.1" id="flexicon" xmlns="http://www.w3.org/2000/svg" xmlns:xlink="http://www.w3.org/1999/xlink" x="0px" y="0px"
	 width="64px" height="64px" viewBox="0 0 64 64" enable-background="new 0 0 64 64" xml:space="preserve">
<path d="M32,0C20.885,0,11.874,9.011,11.874,20.125c0,2.024,0.345,3.992,0.901,5.835l19.173,38.013V64l0.006-0.013L31.961,64v-0.026
	l17.217-33.358c0.506-0.827,2.089-4.669,2.089-4.669c0.557-1.844,0.858-3.797,0.858-5.821C52.125,9.011,43.116,0,32,0z M32,26.698
	c-4.376,0-7.923-3.547-7.923-7.923s3.547-7.923,7.923-7.923c4.375,0,7.923,3.547,7.923,7.923S36.375,26.698,32,26.698z"/>
</svg>
