<?xml version="1.0" encoding="utf-8"?>
<!-- Generator: Adobe Illustrator 16.0.0, SVG Export Plug-In . SVG Version: 6.00 Build 0)  -->
<!DOCTYPE svg PUBLIC "-//W3C//DTD SVG 1.1//EN" "http://www.w3.org/Graphics/SVG/1.1/DTD/svg11.dtd">
<svg version="1.1" id="pin" xmlns="http://www.w3.org/2000/svg" xmlns:xlink="http://www.w3.org/1999/xlink" x="0px"
	 y="0px" width="32px" height="32px" viewBox="0 0 32 32" enable-background="new 0 0 32 32" xml:space="preserve">
<path d="M16.001,4c-4.599,0-8.415,3.729-8.328,8.328c0.032,1.721,0.784,3.08,1.474,4.391
	c0.264,0.501,6.833,11.271,6.833,11.271V28l0.002-0.007L15.984,28v-0.01l7.124-11.32c0.444-0.767,0.865-1.933,0.865-1.933
	c0.231-0.763,0.354-1.571,0.354-2.408C24.328,7.729,20.601,4,16.001,4z M16,16.021c-2.348,0-4.251-1.903-4.251-4.252
	S13.653,7.518,16,7.518c2.347,0,4.253,1.903,4.253,4.252C20.254,14.117,18.35,16.021,16,16.021z"/>
</svg>
