<?xml version="1.0" encoding="utf-8"?>
<!-- Generator: Adobe Illustrator 16.0.0, SVG Export Plug-In . SVG Version: 6.00 Build 0)  -->
<!DOCTYPE svg PUBLIC "-//W3C//DTD SVG 1.1//EN" "http://www.w3.org/Graphics/SVG/1.1/DTD/svg11.dtd">
<svg version="1.1" id="flexicon" xmlns="http://www.w3.org/2000/svg" xmlns:xlink="http://www.w3.org/1999/xlink" x="0px" y="0px"
	 width="64px" height="64px" viewBox="0 0 64 64" enable-background="new 0 0 64 64" xml:space="preserve">
<path d="M32.002,0C19.738,0,9.564,9.945,9.794,22.207c0.086,4.589,2.091,8.216,3.93,11.71c0.704,1.336,18.223,30.054,18.223,30.054
	V64l0.005-0.018L31.958,64v-0.027l18.998-30.188c1.185-2.042,2.308-5.152,2.308-5.152c0.616-2.035,0.945-4.191,0.945-6.423
	C54.208,9.943,44.268,0,32.002,0z M32.001,32.058c-6.261,0-11.336-5.076-11.336-11.339s5.075-11.34,11.336-11.34
	c6.261,0,11.341,5.077,11.341,11.34C43.343,26.98,38.263,32.058,32.001,32.058z"/>
</svg>
