<?xml version="1.0" encoding="utf-8"?>
<!-- Generator: Adobe Illustrator 16.0.0, SVG Export Plug-In . SVG Version: 6.00 Build 0)  -->
<!DOCTYPE svg PUBLIC "-//W3C//DTD SVG 1.1//EN" "http://www.w3.org/Graphics/SVG/1.1/DTD/svg11.dtd">
<svg version="1.1" id="pinterest" xmlns="http://www.w3.org/2000/svg" xmlns:xlink="http://www.w3.org/1999/xlink" x="0px" y="0px"
	 width="32px" height="32px" viewBox="0 0 32 32" enable-background="new 0 0 32 32" xml:space="preserve">
<path d="M16.292,5C10.536,5,7.48,8.866,7.48,13.077c0,1.955,1.039,4.392,2.707,5.168c0.253,0.118,0.387,0.064,0.443-0.18
	c0.047-0.185,0.273-1.089,0.373-1.511c0.03-0.136,0.019-0.25-0.095-0.386c-0.55-0.667-0.988-1.896-0.988-3.041
	c0-2.942,2.228-5.787,6.021-5.787c3.28,0,5.571,2.23,5.571,5.426c0,3.61-1.82,6.108-4.191,6.108c-1.309,0-2.291-1.081-1.978-2.413
	c0.378-1.584,1.106-3.298,1.106-4.438c0-1.026-0.552-1.883-1.685-1.883c-1.341,0-2.415,1.385-2.415,3.241
	c0,1.182,0.4,1.978,0.4,1.978s-1.323,5.593-1.563,6.634c-0.413,1.765,0.051,4.625,0.094,4.876c0.021,0.134,0.172,0.18,0.252,0.066
	c0.129-0.175,1.725-2.565,2.174-4.292l0.828-3.171c0.439,0.829,1.707,1.531,3.061,1.531c4.021,0,6.923-3.703,6.923-8.299
	C24.52,8.301,20.92,5,16.292,5L16.292,5z"/>
</svg>
