<?xml version="1.0" encoding="utf-8"?>
<!-- Generator: Adobe Illustrator 16.0.0, SVG Export Plug-In . SVG Version: 6.00 Build 0)  -->
<!DOCTYPE svg PUBLIC "-//W3C//DTD SVG 1.1//EN" "http://www.w3.org/Graphics/SVG/1.1/DTD/svg11.dtd">
<svg version="1.1" id="flexicon" xmlns="http://www.w3.org/2000/svg" xmlns:xlink="http://www.w3.org/1999/xlink" x="0px" y="0px"
	 width="64px" height="64px" viewBox="0 0 64 64" enable-background="new 0 0 64 64" xml:space="preserve">
<path d="M32.771,3C17.593,3,9.538,13.192,9.538,24.292c0,5.154,2.741,11.577,7.136,13.622c0.669,0.312,1.021,0.174,1.169-0.473
	c0.125-0.485,0.719-2.873,0.984-3.984c0.08-0.357,0.046-0.662-0.249-1.016c-1.45-1.756-2.608-5.001-2.608-8.02
	c0-7.758,5.873-15.258,15.876-15.258c8.645,0,14.692,5.879,14.692,14.307c0,9.517-4.804,16.104-11.058,16.104
	c-3.448,0-6.035-2.85-5.21-6.361c0.997-4.18,2.917-8.695,2.917-11.703c0-2.706-1.454-4.961-4.443-4.961
	c-3.535,0-6.366,3.65-6.366,8.545c0,3.115,1.054,5.215,1.054,5.215S19.943,45.055,19.308,47.8
	c-1.087,4.653,0.136,12.193,0.249,12.856c0.057,0.352,0.453,0.472,0.667,0.175c0.34-0.459,4.55-6.758,5.732-11.315l2.185-8.359
	c1.157,2.186,4.498,4.037,8.065,4.037c10.601,0,18.256-9.762,18.256-21.88C54.461,11.7,44.971,3,32.773,3H32.771z"/>
</svg>
