<?xml version="1.0" encoding="utf-8"?>
<!-- Generator: Adobe Illustrator 16.0.0, SVG Export Plug-In . SVG Version: 6.00 Build 0)  -->
<!DOCTYPE svg PUBLIC "-//W3C//DTD SVG 1.1//EN" "http://www.w3.org/Graphics/SVG/1.1/DTD/svg11.dtd">
<svg version="1.1" id="レイヤー_1" xmlns="http://www.w3.org/2000/svg" xmlns:xlink="http://www.w3.org/1999/xlink" x="0px"
	 y="0px" width="64px" height="64px" viewBox="0 0 64 64" enable-background="new 0 0 64 64" xml:space="preserve">
<path d="M32.853,0.001c-16.75,0-25.637,11.244-25.637,23.493c0,5.687,3.024,12.774,7.874,15.03c0.738,0.345,1.126,0.193,1.29-0.521
	c0.137-0.535,0.793-3.168,1.086-4.397c0.088-0.395,0.051-0.73-0.275-1.121c-1.6-1.936-2.879-5.517-2.879-8.85
	c0-8.56,6.479-16.835,17.518-16.835c9.538,0,16.212,6.487,16.212,15.787c0,10.5-5.3,17.771-12.2,17.771
	c-3.806,0-6.66-3.146-5.75-7.021c1.1-4.612,3.221-9.594,3.221-12.913c0-2.986-1.606-5.475-4.906-5.475
	c-3.9,0-7.024,4.029-7.024,9.43c0,3.438,1.162,5.756,1.162,5.756s-3.851,16.271-4.55,19.301c-1.2,5.135,0.15,13.455,0.275,14.186
	c0.062,0.388,0.5,0.52,0.736,0.193c0.375-0.506,5.02-7.457,6.325-12.486l2.41-9.225c1.276,2.412,4.963,4.455,8.899,4.455
	c11.697,0,20.145-10.77,20.145-24.143C56.784,9.601,46.313,0,32.854,0L32.853,0.001z"/>
</svg>
