<?xml version="1.0" encoding="utf-8"?>
<!-- Generator: Adobe Illustrator 16.0.0, SVG Export Plug-In . SVG Version: 6.00 Build 0)  -->
<!DOCTYPE svg PUBLIC "-//W3C//DTD SVG 1.1//EN" "http://www.w3.org/Graphics/SVG/1.1/DTD/svg11.dtd">
<svg version="1.1" id="flexicon" xmlns="http://www.w3.org/2000/svg" xmlns:xlink="http://www.w3.org/1999/xlink" x="0px" y="0px"
	 width="64px" height="64px" viewBox="0 0 64 64" enable-background="new 0 0 64 64" xml:space="preserve">
<path d="M32.852,0C16.102,0,7.214,11.246,7.214,23.495c0,5.687,3.024,12.775,7.874,15.032c0.738,0.345,1.127,0.191,1.29-0.521
	c0.138-0.536,0.793-3.171,1.086-4.397c0.088-0.394,0.05-0.73-0.275-1.121c-1.6-1.938-2.878-5.519-2.878-8.85
	c0-8.561,6.48-16.836,17.519-16.836c9.54,0,16.212,6.487,16.212,15.787c0,10.501-5.301,17.771-12.201,17.771
	c-3.805,0-6.66-3.145-5.75-7.02c1.101-4.613,3.22-9.595,3.22-12.915c0-2.985-1.605-5.474-4.903-5.474
	c-3.901,0-7.025,4.028-7.025,9.429c0,3.438,1.163,5.755,1.163,5.755s-3.85,16.271-4.55,19.3c-1.2,5.135,0.149,13.455,0.274,14.187
	c0.062,0.388,0.5,0.521,0.736,0.193c0.375-0.507,5.021-7.457,6.325-12.486l2.411-9.224c1.276,2.412,4.963,4.454,8.9,4.454
	c11.697,0,20.145-10.771,20.145-24.143C56.785,9.6,46.312,0,32.854,0H32.852z"/>
</svg>
