<?xml version="1.0" encoding="utf-8"?>
<!-- Generator: Adobe Illustrator 16.0.0, SVG Export Plug-In . SVG Version: 6.00 Build 0)  -->
<!DOCTYPE svg PUBLIC "-//W3C//DTD SVG 1.1//EN" "http://www.w3.org/Graphics/SVG/1.1/DTD/svg11.dtd">
<svg version="1.1" id="pinterest" xmlns="http://www.w3.org/2000/svg" xmlns:xlink="http://www.w3.org/1999/xlink" x="0px"
	 y="0px" width="32px" height="32px" viewBox="0 0 32 32" enable-background="new 0 0 32 32" xml:space="preserve">
<path d="M16.319,4c-6.281,0-9.614,4.217-9.614,8.811c0,2.133,1.134,4.791,2.953,5.638
	c0.276,0.129,0.422,0.07,0.483-0.196c0.052-0.2,0.298-1.188,0.407-1.648c0.033-0.148,0.02-0.273-0.104-0.421
	c-0.6-0.727-1.078-2.069-1.078-3.318c0-3.21,2.43-6.313,6.569-6.313c3.578,0,6.079,2.433,6.079,5.92
	c0,3.938-1.987,6.664-4.575,6.664c-1.427,0-2.497-1.18-2.156-2.633c0.413-1.729,1.207-3.598,1.207-4.842
	c0-1.12-0.602-2.054-1.838-2.054c-1.463,0-2.635,1.511-2.635,3.536c0,1.289,0.437,2.158,0.437,2.158s-1.444,6.102-1.706,7.237
	c-0.45,1.926,0.056,5.046,0.103,5.32c0.023,0.146,0.188,0.195,0.275,0.072c0.141-0.19,1.883-2.797,2.372-4.683l0.904-3.458
	c0.479,0.904,1.861,1.67,3.338,1.67c4.386,0,7.554-4.039,7.554-9.054C25.295,7.6,21.367,4,16.319,4L16.319,4z"/>
</svg>
