<?xml version="1.0" encoding="utf-8"?>
<!-- Generator: Adobe Illustrator 16.0.0, SVG Export Plug-In . SVG Version: 6.00 Build 0)  -->
<!DOCTYPE svg PUBLIC "-//W3C//DTD SVG 1.1//EN" "http://www.w3.org/Graphics/SVG/1.1/DTD/svg11.dtd">
<svg version="1.1" id="refresh" xmlns="http://www.w3.org/2000/svg" xmlns:xlink="http://www.w3.org/1999/xlink" x="0px" y="0px"
	 width="32px" height="32px" viewBox="0 0 32 32" enable-background="new 0 0 32 32" xml:space="preserve">
<path d="M27.1,14.313V5.396L24.158,8.34l0,0c-2.33-2.325-5.033-3.503-8.11-3.503C9.902,4.837,4.901,9.847,4.899,16
	c0.001,6.152,5.003,11.158,11.15,11.16c4.276,0,9.369-2.227,10.836-8.478l0.028-0.122h-3.23l-0.022,0.068
	c-1.078,3.242-4.138,5.421-7.613,5.421c-2.148,0-4.169-0.838-5.691-2.359C8.836,20.169,8,18.148,8,16.001
	c0-4.438,3.611-8.049,8.05-8.049c2.069,0,3.638,0.58,5.924,2.573l0,0l-3.792,3.789H27.1z"/>
</svg>
