<?xml version="1.0" encoding="utf-8"?>
<!-- Generator: Adobe Illustrator 16.0.0, SVG Export Plug-In . SVG Version: 6.00 Build 0)  -->
<!DOCTYPE svg PUBLIC "-//W3C//DTD SVG 1.1//EN" "http://www.w3.org/Graphics/SVG/1.1/DTD/svg11.dtd">
<svg version="1.1" id="search-plus" xmlns="http://www.w3.org/2000/svg" xmlns:xlink="http://www.w3.org/1999/xlink" x="0px"
	 y="0px" width="32px" height="32px" viewBox="0 0 32 32" enable-background="new 0 0 32 32" xml:space="preserve">
<path d="M28,25.35l-6.161-6.162c1.048-1.555,1.661-3.425,1.661-5.438C23.5,8.374,19.127,4,13.75,4C8.374,4,4,8.374,4,13.75
	s4.374,9.75,9.75,9.75c2.011,0,3.883-0.611,5.438-1.661L25.348,28L28,25.35z M13.75,20.5C10.028,20.5,7,17.473,7,13.75
	C7,10.028,10.028,7,13.75,7c3.723,0,6.75,3.028,6.75,6.75C20.5,17.473,17.473,20.5,13.75,20.5z M17.848,12.627h-2.974V9.654h-2.25
	v2.973H9.651v2.25h2.973v2.973h2.25v-2.973h2.974V12.627z"/>
</svg>
