<?xml version="1.0" encoding="utf-8"?>
<!-- Generator: Adobe Illustrator 16.0.0, SVG Export Plug-In . SVG Version: 6.00 Build 0)  -->
<!DOCTYPE svg PUBLIC "-//W3C//DTD SVG 1.1//EN" "http://www.w3.org/Graphics/SVG/1.1/DTD/svg11.dtd">
<svg version="1.1" id="flexicon" xmlns="http://www.w3.org/2000/svg" xmlns:xlink="http://www.w3.org/1999/xlink" x="0px" y="0px"
	 width="64px" height="64px" viewBox="0 0 64 64" enable-background="new 0 0 64 64" xml:space="preserve">
<path d="M64,56.93L47.57,40.5C50.366,36.355,52,31.365,52,26C52,11.664,40.337,0,26,0C11.664,0,0,11.664,0,26s11.664,26,26,26
	c5.364,0,10.354-1.634,14.499-4.43L56.928,64L64,56.93z M26,44c-9.925,0-18-8.074-18-18c0-9.925,8.075-18,18-18s18,8.075,18,18
	C44,35.926,35.925,44,26,44z"/>
<polygon points="36.926,23.005 28.998,23.005 28.998,15.077 22.998,15.077 22.998,23.005 15.069,23.005 15.069,29.005 
	22.998,29.005 22.998,36.934 28.998,36.934 28.998,29.005 36.926,29.005 "/>
</svg>
