<?xml version="1.0" encoding="utf-8"?>
<!-- Generator: Adobe Illustrator 16.0.0, SVG Export Plug-In . SVG Version: 6.00 Build 0)  -->
<!DOCTYPE svg PUBLIC "-//W3C//DTD SVG 1.1//EN" "http://www.w3.org/Graphics/SVG/1.1/DTD/svg11.dtd">
<svg version="1.1" id="search-minus" xmlns="http://www.w3.org/2000/svg" xmlns:xlink="http://www.w3.org/1999/xlink" x="0px"
	 y="0px" width="32px" height="32px" viewBox="0 0 32 32" enable-background="new 0 0 32 32" xml:space="preserve">
<path d="M21.353,18.922c0.96-1.426,1.522-3.138,1.522-4.984C22.875,9.01,18.867,5,13.938,5C9.01,5,5,9.01,5,13.938
	c0,4.929,4.01,8.938,8.938,8.938c1.843,0,3.559-0.561,4.984-1.522L24.568,27L27,24.57L21.353,18.922z M13.938,20.125
	c-3.412,0-6.188-2.775-6.188-6.188c0-3.412,2.776-6.188,6.188-6.188c3.412,0,6.188,2.776,6.188,6.188
	C20.125,17.35,17.35,20.125,13.938,20.125z M10.18,12.861h7.513v2.062H10.18V12.861z"/>
</svg>
