<?xml version="1.0" encoding="utf-8"?>
<!-- Generator: Adobe Illustrator 16.0.0, SVG Export Plug-In . SVG Version: 6.00 Build 0)  -->
<!DOCTYPE svg PUBLIC "-//W3C//DTD SVG 1.1//EN" "http://www.w3.org/Graphics/SVG/1.1/DTD/svg11.dtd">
<svg version="1.1" id="search-minus" xmlns="http://www.w3.org/2000/svg" xmlns:xlink="http://www.w3.org/1999/xlink" x="0px"
	 y="0px" width="32px" height="32px" viewBox="0 0 32 32" enable-background="new 0 0 32 32" xml:space="preserve">
	<path d="M21.839,19.188c1.048-1.555,1.661-3.426,1.661-5.438C23.5,8.374,19.127,4,13.75,4C8.374,4,4,8.374,4,13.75
		s4.374,9.75,9.75,9.75c2.011,0,3.883-0.612,5.438-1.661L25.348,28L28,25.349L21.839,19.188z M13.75,20.5
		C10.028,20.5,7,17.473,7,13.75C7,10.028,10.028,7,13.75,7s6.75,3.028,6.75,6.75C20.5,17.473,17.472,20.5,13.75,20.5z"/>
	<rect x="9.651" y="12.576" fill="#040000" width="8.196" height="2.25"/>
</svg>
