<?xml version="1.0" encoding="utf-8"?>
<!-- Generator: Adobe Illustrator 16.0.0, SVG Export Plug-In . SVG Version: 6.00 Build 0)  -->
<!DOCTYPE svg PUBLIC "-//W3C//DTD SVG 1.1//EN" "http://www.w3.org/Graphics/SVG/1.1/DTD/svg11.dtd">
<svg version="1.1" id="skype" xmlns="http://www.w3.org/2000/svg" xmlns:xlink="http://www.w3.org/1999/xlink" x="0px" y="0px"
	 width="32px" height="32px" viewBox="0 0 32 32" enable-background="new 0 0 32 32" xml:space="preserve">
<path d="M26.922,21.014c-0.106-1.321-0.616-2.223-1.089-2.794c0.161-0.716,0.254-1.458,0.254-2.223
	c0-5.57-4.515-10.085-10.085-10.085c-0.765,0-1.507,0.093-2.223,0.254C13.276,5.727,11.871,4.75,9.528,5.08
	C6.542,5.5,4.792,8.417,5,11c0.111,1.379,0.659,2.295,1.148,2.861C6,14.55,5.917,15.264,5.917,15.997
	c0,5.57,4.515,10.086,10.085,10.086c0.736,0,1.452-0.084,2.143-0.233c0.506,0.44,1.91,1.413,4.249,1.084
	C25.379,26.514,27.13,23.598,26.922,21.014z M20.984,20.766c-0.69,0.774-1.604,1.548-3.797,1.828
	c-3.672,0.469-5.781-1.312-6.344-1.859s-0.656-1.911-0.031-2.406c0.828-0.656,1.512-0.545,2.781,0.75
	c1.562,1.594,4.093,1.163,4.516,0.281c0.359-0.75-0.078-1.328-0.891-1.562c-0.859-0.248-4.05-1.047-4.609-1.266
	c-2.873-1.123-2.219-3.859-2.094-4.297s0.456-2.329,4.047-2.891c3.592-0.562,5.812,1.188,5.812,1.188
	c1.312,1.047,0.797,2.406,0.078,2.781s-1.328,0.25-2.312-0.656s-2.312-0.797-2.625-0.766S14.234,12,14,12.659
	s0.172,1.043,0.922,1.341c1.469,0.583,3.362,0.316,5.484,1.75C22.672,17.281,21.625,20.047,20.984,20.766z"/>
</svg>
