<?xml version="1.0" encoding="utf-8"?>
<!-- Generator: Adobe Illustrator 16.0.0, SVG Export Plug-In . SVG Version: 6.00 Build 0)  -->
<!DOCTYPE svg PUBLIC "-//W3C//DTD SVG 1.1//EN" "http://www.w3.org/Graphics/SVG/1.1/DTD/svg11.dtd">
<svg version="1.1" id="flexicon" xmlns="http://www.w3.org/2000/svg" xmlns:xlink="http://www.w3.org/1999/xlink" x="0px" y="0px"
	 width="64px" height="64px" viewBox="0 0 64 64" enable-background="new 0 0 64 64" xml:space="preserve">
<g>
	<path d="M60.667,38.25c0.443-2.14,0.667-4.224,0.667-6.25c0-3.972-0.771-7.771-2.313-11.396c-1.542-3.625-3.624-6.75-6.249-9.375
		c-2.624-2.625-5.749-4.708-9.375-6.25C39.771,3.438,35.975,2.667,32,2.667c-2.027,0-4.111,0.222-6.25,0.667
		C22.861,1.111,19.611,0,16,0C11.583,0,7.813,1.561,4.688,4.686C1.562,7.811,0,11.583,0,15.999c0,3.611,1.111,6.86,3.333,9.75
		c-0.444,2.139-0.666,4.222-0.666,6.25c0,3.972,0.77,7.771,2.312,11.396c1.542,3.623,3.625,6.748,6.25,9.375
		c2.625,2.623,5.75,4.707,9.375,6.248C24.229,60.56,28.027,61.33,32,61.33c2.029,0,4.111-0.223,6.251-0.665
		C41.139,62.887,44.389,64,48,64c4.416,0,8.188-1.562,11.312-4.688S64,52.416,64,47.999C63.997,44.388,62.888,41.141,60.667,38.25z
		 M47.501,44.437c-0.917,1.626-2.148,2.925-3.689,3.896c-1.54,0.971-3.242,1.714-5.104,2.229c-1.86,0.513-3.805,0.77-5.834,0.77
		c-4.694,0-8.735-0.911-12.124-2.729c-3.389-1.821-5.083-4.007-5.083-6.562c0-1.25,0.354-2.292,1.062-3.125
		c0.708-0.833,1.757-1.25,3.146-1.25c0.807,0,1.555,0.223,2.25,0.666c0.693,0.444,1.333,0.979,1.916,1.606
		c0.584,0.625,1.215,1.247,1.896,1.875c0.68,0.625,1.584,1.157,2.708,1.602c1.125,0.446,2.396,0.669,3.813,0.669
		c1.805,0,3.262-0.354,4.375-1.062c1.111-0.71,1.665-1.605,1.665-2.688c0-1.111-0.441-1.946-1.33-2.5
		c-0.61-0.391-2.168-0.892-4.668-1.502l-6.083-1.501c-1.667-0.389-3.098-0.84-4.293-1.353c-1.195-0.513-2.307-1.187-3.333-2.021
		c-1.028-0.833-1.806-1.881-2.334-3.146c-0.527-1.264-0.791-2.743-0.791-4.438c0-2.029,0.465-3.811,1.395-5.354
		c0.93-1.541,2.167-2.75,3.709-3.625c1.54-0.875,3.202-1.528,4.979-1.958c1.777-0.431,3.611-0.646,5.5-0.646
		c2.667,0,5.195,0.32,7.583,0.958c2.388,0.639,4.36,1.576,5.915,2.812c1.555,1.237,2.334,2.619,2.334,4.145
		c0,1.25-0.395,2.319-1.189,3.208c-0.788,0.891-1.836,1.337-3.142,1.337c-0.723,0-1.39-0.167-2-0.5
		c-0.61-0.332-1.167-0.735-1.667-1.208c-0.501-0.471-1.028-0.938-1.585-1.395c-0.554-0.458-1.306-0.854-2.248-1.188
		c-0.946-0.334-2.015-0.5-3.208-0.5c-4,0-6,1.069-6,3.208c0,0.473,0.105,0.889,0.312,1.25c0.209,0.361,0.439,0.653,0.688,0.875
		c0.25,0.223,0.666,0.444,1.25,0.667c0.583,0.223,1.07,0.382,1.459,0.479c0.389,0.098,1,0.244,1.833,0.438l4.332,1
		c1.362,0.306,2.576,0.625,3.646,0.958c1.07,0.334,2.216,0.806,3.438,1.418c1.222,0.611,2.236,1.291,3.041,2.041
		c0.808,0.751,1.48,1.703,2.021,2.855c0.544,1.154,0.812,2.423,0.812,3.813C48.875,40.987,48.416,42.813,47.501,44.437z"/>
</g>
</svg>
