<?xml version="1.0" encoding="utf-8"?>
<!-- Generator: Adobe Illustrator 16.0.0, SVG Export Plug-In . SVG Version: 6.00 Build 0)  -->
<!DOCTYPE svg PUBLIC "-//W3C//DTD SVG 1.1//EN" "http://www.w3.org/Graphics/SVG/1.1/DTD/svg11.dtd">
<svg version="1.1" id="skype" xmlns="http://www.w3.org/2000/svg" xmlns:xlink="http://www.w3.org/1999/xlink" x="0px"
	 y="0px" width="32px" height="32px" viewBox="0 0 32 32" enable-background="new 0 0 32 32" xml:space="preserve">
	<path d="M26.75,18.344C26.916,17.541,27,16.759,27,16c0-1.49-0.289-2.915-0.867-4.274s-1.359-2.531-2.344-3.516
		s-2.156-1.764-3.516-2.344C18.914,5.289,17.49,5,16,5c-0.76,0-1.542,0.083-2.344,0.251C12.573,4.417,11.354,4,10,4
		C8.343,4,6.93,4.585,5.758,5.757S4,8.344,4,10c0,1.354,0.417,2.572,1.25,3.656C5.083,14.458,5,15.239,5,16
		c0,1.489,0.289,2.914,0.867,4.273c0.578,1.358,1.359,2.53,2.344,3.516c0.984,0.983,2.156,1.765,3.516,2.343S14.51,26.999,16,26.999
		c0.761,0,1.542-0.084,2.344-0.25C19.427,27.582,20.646,28,22,28c1.656,0,3.07-0.586,4.242-1.758C27.413,25.069,28,23.655,28,22
		C27.999,20.646,27.583,19.428,26.75,18.344z M21.812,20.664c-0.344,0.609-0.805,1.097-1.383,1.461s-1.216,0.643-1.914,0.836
		c-0.697,0.192-1.428,0.289-2.188,0.289c-1.76,0-3.275-0.342-4.546-1.024s-1.906-1.502-1.906-2.461c0-0.469,0.132-0.858,0.398-1.172
		c0.266-0.312,0.659-0.469,1.18-0.469c0.303,0,0.583,0.084,0.844,0.251c0.26,0.165,0.5,0.366,0.719,0.602
		c0.219,0.234,0.455,0.468,0.711,0.703c0.255,0.234,0.594,0.435,1.015,0.601c0.422,0.168,0.899,0.252,1.43,0.252
		c0.677,0,1.224-0.134,1.641-0.398c0.416-0.267,0.624-0.603,0.624-1.008c0-0.417-0.165-0.73-0.499-0.938
		c-0.229-0.146-0.812-0.335-1.75-0.563l-2.281-0.563c-0.625-0.146-1.162-0.314-1.61-0.508c-0.448-0.192-0.865-0.445-1.25-0.757
		c-0.386-0.312-0.678-0.706-0.875-1.181c-0.198-0.474-0.296-1.027-0.296-1.664c0-0.761,0.174-1.429,0.523-2.007
		c0.349-0.579,0.812-1.031,1.391-1.359c0.578-0.328,1.201-0.573,1.867-0.735c0.667-0.161,1.354-0.242,2.062-0.242
		c1,0,1.948,0.12,2.844,0.359c0.896,0.239,1.635,0.591,2.218,1.055s0.875,0.982,0.875,1.555c0,0.469-0.148,0.869-0.445,1.203
		c-0.296,0.334-0.688,0.501-1.179,0.501c-0.271,0-0.521-0.062-0.75-0.188s-0.438-0.275-0.625-0.453
		c-0.188-0.177-0.386-0.353-0.595-0.522c-0.208-0.172-0.489-0.321-0.843-0.445c-0.354-0.126-0.756-0.188-1.203-0.188
		c-1.5,0-2.25,0.399-2.25,1.202c0,0.178,0.039,0.333,0.117,0.469c0.078,0.135,0.165,0.245,0.258,0.328
		c0.094,0.084,0.249,0.167,0.469,0.251c0.218,0.082,0.401,0.143,0.547,0.179c0.146,0.037,0.375,0.091,0.687,0.164l1.625,0.375
		c0.51,0.114,0.966,0.234,1.367,0.36c0.4,0.124,0.83,0.302,1.289,0.531s0.839,0.483,1.141,0.765
		c0.303,0.282,0.555,0.639,0.758,1.071s0.305,0.908,0.305,1.43C22.328,19.37,22.156,20.055,21.812,20.664z"/>
</svg>
