<?xml version="1.0" encoding="utf-8"?>
<!-- Generator: Adobe Illustrator 16.0.0, SVG Export Plug-In . SVG Version: 6.00 Build 0)  -->
<!DOCTYPE svg PUBLIC "-//W3C//DTD SVG 1.1//EN" "http://www.w3.org/Graphics/SVG/1.1/DTD/svg11.dtd">
<svg version="1.1" id="slack" xmlns="http://www.w3.org/2000/svg" xmlns:xlink="http://www.w3.org/1999/xlink" x="0px" y="0px"
	 width="32px" height="32px" viewBox="0 0 32 32" enable-background="new 0 0 32 32" xml:space="preserve">
<path d="M26.832,16.453c-0.436-0.972-1.574-1.406-2.546-0.974l-0.927,0.416l-2.377-5.312l0.928-0.413
	c0.972-0.436,1.406-1.575,0.972-2.545c-0.434-0.972-1.573-1.407-2.544-0.972l-0.926,0.415L18.998,6.14
	c-0.436-0.971-1.574-1.406-2.546-0.971c-0.972,0.434-1.406,1.572-0.972,2.543l0.415,0.927l-5.311,2.376l-0.414-0.926
	C9.734,9.116,8.595,8.683,7.625,9.116C6.653,9.55,6.219,10.69,6.652,11.661l0.415,0.926l-0.926,0.417
	c-0.971,0.435-1.407,1.571-0.972,2.542c0.434,0.973,1.574,1.408,2.544,0.973l0.927-0.415l2.374,5.311l-0.927,0.415
	c-0.971,0.435-1.406,1.574-0.971,2.544c0.434,0.973,1.574,1.407,2.543,0.975l0.927-0.416l0.416,0.927
	c0.435,0.972,1.573,1.406,2.545,0.972c0.971-0.435,1.406-1.572,0.971-2.543l-0.413-0.928l5.311-2.375l0.414,0.925
	c0.435,0.974,1.573,1.407,2.544,0.974c0.973-0.433,1.407-1.572,0.973-2.543l-0.414-0.926l0.926-0.417
	C26.832,18.562,27.267,17.426,26.832,16.453z M14.532,19.842l-2.376-5.311l5.311-2.375l2.375,5.313L14.532,19.842z"/>
</svg>
