<?xml version="1.0" encoding="utf-8"?>
<!-- Generator: Adobe Illustrator 16.0.0, SVG Export Plug-In . SVG Version: 6.00 Build 0)  -->
<!DOCTYPE svg PUBLIC "-//W3C//DTD SVG 1.1//EN" "http://www.w3.org/Graphics/SVG/1.1/DTD/svg11.dtd">
<svg version="1.1" id="flexicon" xmlns="http://www.w3.org/2000/svg" xmlns:xlink="http://www.w3.org/1999/xlink" x="0px" y="0px"
	 width="64px" height="64px" viewBox="0 0 64 64" enable-background="new 0 0 64 64" xml:space="preserve">
<g>
	<path d="M63.51,33.317c-1.263-2.825-4.577-4.093-7.404-2.831l-2.695,1.208l-6.913-15.45l2.697-1.205
		c2.824-1.266,4.091-4.58,2.826-7.404c-1.262-2.826-4.575-4.094-7.402-2.828l-2.695,1.207l-1.206-2.699
		c-1.265-2.825-4.578-4.089-7.403-2.825c-2.826,1.262-4.09,4.574-2.828,7.402l1.207,2.698l-15.451,6.911l-1.205-2.697
		c-1.265-2.831-4.578-4.089-7.403-2.831c-2.827,1.264-4.089,4.578-2.829,7.404l1.207,2.693l-2.695,1.211
		c-2.825,1.264-4.091,4.573-2.827,7.4c1.26,2.824,4.578,4.091,7.403,2.828l2.697-1.208l6.907,15.452L14.8,48.96
		c-2.825,1.263-4.089,4.58-2.827,7.402c1.264,2.827,4.578,4.093,7.402,2.831l2.696-1.207l1.207,2.697
		c1.264,2.826,4.578,4.09,7.404,2.826c2.823-1.263,4.088-4.575,2.825-7.399l-1.203-2.699l15.451-6.908l1.205,2.688
		c1.264,2.833,4.575,4.099,7.402,2.835c2.826-1.261,4.093-4.576,2.828-7.404l-1.206-2.692l2.693-1.211
		C63.508,39.453,64.774,36.142,63.51,33.317z M27.729,43.18l-6.912-15.454l15.451-6.907L43.18,36.27L27.729,43.18z"/>
</g>
</svg>
