<?xml version="1.0" encoding="utf-8"?>
<!-- Generator: Adobe Illustrator 16.0.0, SVG Export Plug-In . SVG Version: 6.00 Build 0)  -->
<!DOCTYPE svg PUBLIC "-//W3C//DTD SVG 1.1//EN" "http://www.w3.org/Graphics/SVG/1.1/DTD/svg11.dtd">
<svg version="1.1" id="smartPhone" xmlns="http://www.w3.org/2000/svg" xmlns:xlink="http://www.w3.org/1999/xlink" x="0px" y="0px"
	 width="32px" height="32px" viewBox="0 0 32 32" enable-background="new 0 0 32 32" xml:space="preserve">
<path d="M20.629,5h-9.257c-0.887,0-1.601,0.718-1.601,1.603V25.4c0,0.883,0.714,1.601,1.601,1.601h9.257
	c0.883,0,1.6-0.718,1.6-1.601V6.603C22.229,5.718,21.512,5,20.629,5z M14.382,6.023h3.302v0.768h-3.302V6.023z M16.001,25.418
	c-0.564,0-1.023-0.459-1.023-1.021c0-0.563,0.458-1.021,1.023-1.021c0.562,0,1.021,0.457,1.021,1.021
	C17.021,24.891,16.562,25.418,16.001,25.418z M21.029,21.917H10.971V7.704h10.058V21.917z"/>
</svg>
