<?xml version="1.0" encoding="utf-8"?>
<!-- Generator: Adobe Illustrator 16.0.0, SVG Export Plug-In . SVG Version: 6.00 Build 0)  -->
<!DOCTYPE svg PUBLIC "-//W3C//DTD SVG 1.1//EN" "http://www.w3.org/Graphics/SVG/1.1/DTD/svg11.dtd">
<svg version="1.1" id="flexicon" xmlns="http://www.w3.org/2000/svg" xmlns:xlink="http://www.w3.org/1999/xlink" x="0px" y="0px"
	 width="64px" height="64px" viewBox="0 0 64 64" enable-background="new 0 0 64 64" xml:space="preserve">
<path d="M47.021,25.97l10.002-7.745l-8-9.992c-3.621-4.557-8.808-7.43-14.602-8.089C33.588,0.048,32.742,0,31.908,0
	c-4.953,0-9.633,1.641-13.532,4.745c-4.563,3.634-7.435,8.819-8.086,14.602c-0.657,5.79,0.979,11.49,4.605,16.049l2.099,2.634
	L6.978,45.762l8.02,10.014c3.63,4.557,8.812,7.425,14.59,8.078C30.411,63.95,31.259,64,32.107,64c4.944,0,9.624-1.641,13.53-4.742
	c4.561-3.635,7.434-8.822,8.09-14.607c0.662-5.783-0.976-11.479-4.605-16.042L47.021,25.97z M22,9.301
	c2.859-2.278,6.276-3.482,9.885-3.482c0.621,0,1.254,0.037,1.879,0.108c4.245,0.482,8.047,2.588,10.709,5.934l4.245,5.307
	l-5.329,4.242l-4.158-5.225c-0.207-0.257-0.438-0.483-0.672-0.708l-0.129-0.124c-1.066-1.045-2.277-1.788-3.595-2.207
	c-0.569-0.183-1.17-0.311-1.784-0.381c-0.127-0.015-0.254-0.02-0.379-0.02l-0.697-0.001c-1.552,0-3,0.355-4.301,1.052
	c-0.531,0.28-0.994,0.579-1.415,0.914c-1.846,1.468-3.042,3.578-3.367,5.923c-0.024,0.089-0.044,0.179-0.051,0.253
	c-0.285,2.448,0.404,4.862,1.943,6.796l9.89,12.421c0.021,0.026,0.035,0.057,0.053,0.084l0.096,0.152
	c0.455,0.686,0.648,1.458,0.559,2.237c-0.098,0.884-0.537,1.679-1.263,2.253c-0.05,0.029-0.099,0.062-0.14,0.091
	c-0.572,0.402-1.215,0.604-1.921,0.604h-0.101c0,0-0.16,0-0.163,0c-0.038,0-0.076,0-0.12-0.004
	c-0.888-0.101-1.681-0.539-2.231-1.233l-0.431-0.545l-0.453-0.556l-5.195-6.49l-3.917-4.916c-2.639-3.315-3.84-7.457-3.386-11.673
	l0.013-0.106C16.548,15.764,18.653,11.963,22,9.301z M20.633,42.594l4.253,5.312c0.295,0.37,0.62,0.681,0.955,0.991
	c1.452,1.354,3.243,2.188,5.169,2.404c0.118,0.016,0.359,0.023,0.645,0.023c0.452,0,1.287-0.02,1.5-0.049
	c0.369-0.041,1.396-0.266,1.642-0.342c0.399-0.125,0.772-0.287,1.093-0.434c0.168-0.077,1.397-0.745,1.887-1.133
	c1.92-1.53,3.125-3.71,3.395-6.133c0.243-2.114-0.268-4.205-1.479-6.051c-0.043-0.066-0.082-0.135-0.123-0.199
	c-0.104-0.172-0.207-0.342-0.334-0.502l-9.89-12.418c-0.568-0.717-0.823-1.609-0.718-2.519c0.008-0.072,0.028-0.14,0.045-0.208
	l0.036-0.149c0.174-0.791,0.571-1.438,1.182-1.923c0.62-0.491,1.326-0.741,2.101-0.741c0.136,0,0.272,0.008,0.409,0.023
	c0.224,0.025,0.447,0.073,0.66,0.141c0.643,0.205,1.203,0.591,1.619,1.118l7.176,9.023l0.681,0.846l2.038,2.56
	c2.66,3.344,3.859,7.52,3.377,11.757l-0.021,0.195c-0.525,4.168-2.619,7.896-5.908,10.519c-2.861,2.274-6.287,3.478-9.908,3.478
	c-0.615,0-1.242-0.035-1.86-0.104c-4.239-0.481-8.041-2.588-10.705-5.931l-4.252-5.311L20.633,42.594z"/>
</svg>
