<?xml version="1.0" encoding="utf-8"?>
<!-- Generator: Adobe Illustrator 16.0.0, SVG Export Plug-In . SVG Version: 6.00 Build 0)  -->
<!DOCTYPE svg PUBLIC "-//W3C//DTD SVG 1.1//EN" "http://www.w3.org/Graphics/SVG/1.1/DTD/svg11.dtd">
<svg version="1.1" id="sumally" xmlns="http://www.w3.org/2000/svg" xmlns:xlink="http://www.w3.org/1999/xlink" x="0px"
	 y="0px" width="32px" height="32px" viewBox="0 0 32 32" enable-background="new 0 0 32 32" xml:space="preserve">
<path d="M21.633,13.739l3.75-2.904l-3-3.748c-1.357-1.708-3.303-2.785-5.476-3.032C16.595,4.019,16.278,4,15.965,4
	c-1.857,0-3.612,0.615-5.075,1.779C9.18,7.143,8.103,9.087,7.859,11.256c-0.247,2.17,0.367,4.308,1.727,6.019l0.787,0.986
	L6.617,21.16l3.007,3.756C10.985,26.625,12.679,28,16.04,28c1.854,0,3.609-0.615,5.074-1.778c1.711-1.363,2.787-3.309,3.033-5.478
	c0.248-2.169-0.365-4.305-1.727-6.016L21.633,13.739z M12.25,7.488c1.072-0.854,2.354-1.306,3.707-1.306
	c2.543,0,3.721,1.011,4.721,2.266l1.591,1.989l-1.998,1.592l-1.56-1.959c-0.078-0.097-0.301-0.312-0.301-0.312
	c-0.399-0.393-0.854-0.671-1.348-0.828c-0.433-0.148-1.072-0.15-1.072-0.15c-0.582,0-1.53,0.176-2.144,0.737
	c-0.692,0.551-1.141,1.342-1.262,2.221c-0.174,1.155,0.132,1.918,0.709,2.644l3.708,4.658c0.008,0.01,0.48,0.515,0.302,1.14
	c-0.085,0.205-0.237,0.417-0.509,0.632c-0.02,0.011-0.393,0.332-0.917,0.26c-0.654-0.102-1.168-0.876-1.168-0.876l-3.417-4.276
	c-0.989-1.243-1.44-2.797-1.27-4.378l0.004-0.04C10.205,9.911,10.995,8.485,12.25,7.488z M11.737,19.973l1.596,1.992
	c0.524,0.611,1.574,1.192,2.296,1.273c0.044,0.006,1.269,0.275,2.538-0.726c0.721-0.574,1.172-1.392,1.273-2.301
	c0.137-1.52-0.679-2.472-0.727-2.532l-3.708-4.656c-0.213-0.269-0.612-1.059,0.204-1.8c0.233-0.184,0.497-0.277,0.788-0.277
	c0.673,0,0.898,0.346,1.007,0.48l3.711,4.661c0.998,1.254,1.447,2.819,1.267,4.409l-0.007,0.072
	c-0.197,1.562-0.982,2.962-2.217,3.945c-1.072,0.852-2.793,1.437-4.413,1.265c-1.589-0.18-3.016-0.97-4.014-2.224l-1.595-1.992
	L11.737,19.973z"/>
</svg>
