<?xml version="1.0" encoding="utf-8"?>
<!-- Generator: Adobe Illustrator 16.0.0, SVG Export Plug-In . SVG Version: 6.00 Build 0)  -->
<!DOCTYPE svg PUBLIC "-//W3C//DTD SVG 1.1//EN" "http://www.w3.org/Graphics/SVG/1.1/DTD/svg11.dtd">
<svg version="1.1" id="tablet" xmlns="http://www.w3.org/2000/svg" xmlns:xlink="http://www.w3.org/1999/xlink" x="0px" y="0px"
	 width="32px" height="32px" viewBox="0 0 32 32" enable-background="new 0 0 32 32" xml:space="preserve">
<path d="M22.461,5H9.539C8.652,5,7.938,5.718,7.938,6.603V25.4c0,0.882,0.715,1.6,1.601,1.6h12.922c0.885,0,1.602-0.718,1.602-1.602
	V6.603C24.062,5.718,23.346,5,22.461,5z M16.001,25.418c-0.564,0-1.023-0.459-1.023-1.021c0-0.564,0.458-1.021,1.023-1.021
	c0.562,0,1.021,0.457,1.021,1.021C17.021,25.031,16.562,25.418,16.001,25.418z M22.863,21.917H9.138V7.704h13.725V21.917
	L22.863,21.917z"/>
</svg>
