<?xml version="1.0" encoding="utf-8"?>
<!-- Generator: Adobe Illustrator 16.0.0, SVG Export Plug-In . SVG Version: 6.00 Build 0)  -->
<!DOCTYPE svg PUBLIC "-//W3C//DTD SVG 1.1//EN" "http://www.w3.org/Graphics/SVG/1.1/DTD/svg11.dtd">
<svg version="1.1" id="flexicon" xmlns="http://www.w3.org/2000/svg" xmlns:xlink="http://www.w3.org/1999/xlink" x="0px" y="0px"
	 width="64px" height="64px" viewBox="0 0 64 64" enable-background="new 0 0 64 64" xml:space="preserve">
<path d="M19.95,49.555c-3.593-0.503-6.49-3.859-6.49-7.646V13.44c0-4.25,3.438-7.725,7.726-7.725h21.63
	c4.246,0,7.725,3.478,7.725,7.726v28.466c0,3.862-2.818,7.067-6.488,7.61L53.822,64H48.26l-6.682-9.85H22.382L15.702,64h-5.524
	l9.77-14.445 M28.833,4.557c1.235,0,2.278-1.004,2.278-2.28C31.11,1.005,30.07,0,28.834,0c-1.274,0-2.278,1.004-2.278,2.277
	C26.556,3.517,27.56,4.557,28.833,4.557 M37.445,2.277C37.445,1.004,36.439,0,35.167,0s-2.276,1.004-2.276,2.277
	c0,1.236,1.002,2.28,2.276,2.28S37.445,3.517,37.445,2.277 M21.533,45.77c1.97,0,3.592-1.584,3.592-3.554s-1.583-3.592-3.592-3.592
	c-1.97,0-3.592,1.583-3.592,3.592C17.941,44.186,19.563,45.77,21.533,45.77 M46.062,42.216c0-1.97-1.623-3.592-3.594-3.592
	c-1.97,0-3.553,1.583-3.553,3.592c0,1.97,1.583,3.554,3.553,3.554C44.439,45.77,46.062,44.186,46.062,42.216 M42.275,26.843
	c2.011,0,3.631-1.622,3.631-3.63v-5.947c0-2.01-1.62-3.632-3.631-3.632H21.766c-2.01,0-3.632,1.623-3.632,3.632v5.986
	c0,2.008,1.622,3.63,3.632,3.63h20.507 M36.52,11.972c0.502,0,0.929-0.385,0.929-0.926v-3.09c0-0.502-0.427-0.89-0.929-0.89h-9.04
	c-0.502,0-0.926,0.387-0.926,0.89v3.09c0,0.502,0.424,0.927,0.926,0.927L36.52,11.972"/>
</svg>
