<?xml version="1.0" encoding="utf-8"?>
<!-- Generator: Adobe Illustrator 16.0.0, SVG Export Plug-In . SVG Version: 6.00 Build 0)  -->
<!DOCTYPE svg PUBLIC "-//W3C//DTD SVG 1.1//EN" "http://www.w3.org/Graphics/SVG/1.1/DTD/svg11.dtd">
<svg version="1.1" id="twitter" xmlns="http://www.w3.org/2000/svg" xmlns:xlink="http://www.w3.org/1999/xlink" x="0px" y="0px"
	 width="32px" height="32px" viewBox="0 0 32 32" enable-background="new 0 0 32 32" xml:space="preserve">
<path d="M11.548,25.753c-2.78,0-5.369-0.815-7.548-2.216c0.384,0.045,0.775,0.071,1.176,0.071
	c2.306,0,4.429-0.787,6.112-2.107c-2.154-0.04-3.975-1.465-4.598-3.422c0.3,0.058,0.609,0.089,0.924,0.089
	c0.45,0,0.886-0.06,1.303-0.171c-2.256-0.455-3.952-2.443-3.952-4.826v-0.065c0.663,0.369,1.422,0.59,2.229,0.616
	c-1.324-0.881-2.191-2.393-2.191-4.1c0-0.899,0.245-1.747,0.667-2.474c2.43,2.98,6.059,4.939,10.148,5.144
	c-0.082-0.358-0.128-0.734-0.128-1.121c0-2.719,2.206-4.924,4.927-4.924c1.413,0,2.696,0.6,3.592,1.555
	c1.12-0.223,2.18-0.631,3.128-1.193c-0.368,1.147-1.147,2.114-2.165,2.724C26.166,9.214,27.116,8.949,28,8.558
	c-0.663,0.986-1.496,1.853-2.457,2.549c0.01,0.211,0.015,0.424,0.015,0.637C25.558,18.247,20.603,25.754,11.548,25.753"/>
</svg>
