<?xml version="1.0" encoding="utf-8"?>
<!-- Generator: Adobe Illustrator 16.0.0, SVG Export Plug-In . SVG Version: 6.00 Build 0)  -->
<!DOCTYPE svg PUBLIC "-//W3C//DTD SVG 1.1//EN" "http://www.w3.org/Graphics/SVG/1.1/DTD/svg11.dtd">
<svg version="1.1" id="twitter" xmlns="http://www.w3.org/2000/svg" xmlns:xlink="http://www.w3.org/1999/xlink" x="0px" y="0px"
	 width="32px" height="32px" viewBox="0 0 32 32" enable-background="new 0 0 32 32" xml:space="preserve">
<path d="M11.919,24.94c-2.548,0-4.921-0.747-6.919-2.032c0.352,0.042,0.71,0.064,1.078,0.064c2.114,0,4.06-0.721,5.603-1.931
	c-1.975-0.036-3.644-1.342-4.215-3.137c0.276,0.054,0.559,0.082,0.848,0.082c0.412,0,0.812-0.056,1.193-0.156
	c-2.067-0.418-3.622-2.24-3.622-4.425v-0.059c0.607,0.338,1.303,0.541,2.042,0.564c-1.213-0.807-2.008-2.193-2.008-3.758
	c0-0.824,0.225-1.602,0.612-2.268c2.228,2.732,5.554,4.528,9.303,4.715c-0.075-0.328-0.118-0.672-0.118-1.027
	c0-2.492,2.023-4.514,4.517-4.514c1.295,0,2.471,0.55,3.293,1.426c1.026-0.204,1.998-0.579,2.866-1.094
	c-0.337,1.052-1.052,1.938-1.983,2.498c0.91-0.109,1.782-0.352,2.592-0.71c-0.608,0.904-1.371,1.699-2.252,2.337
	c0.008,0.193,0.014,0.388,0.014,0.583C24.762,18.06,20.221,24.941,11.919,24.94"/>
</svg>
