<?xml version="1.0" encoding="utf-8"?>
<!-- Generator: Adobe Illustrator 16.0.0, SVG Export Plug-In . SVG Version: 6.00 Build 0)  -->
<!DOCTYPE svg PUBLIC "-//W3C//DTD SVG 1.1//EN" "http://www.w3.org/Graphics/SVG/1.1/DTD/svg11.dtd">
<svg version="1.1" id="flexicon" xmlns="http://www.w3.org/2000/svg" xmlns:xlink="http://www.w3.org/1999/xlink" x="0px" y="0px"
	 width="64px" height="64px" viewBox="0 0 64 64" enable-background="new 0 0 64 64" xml:space="preserve">
<path d="M20.127,58.007C12.715,58.007,5.81,55.83,0,52.102c1.026,0.121,2.067,0.19,3.134,0.19c6.15,0,11.81-2.103,16.3-5.62
	c-5.745-0.109-10.598-3.91-12.26-9.124c0.798,0.147,1.623,0.236,2.46,0.236c1.203,0,2.365-0.162,3.473-0.46
	C7.093,36.114,2.57,30.81,2.57,24.452v-0.168c1.77,0.98,3.796,1.573,5.945,1.642c-3.527-2.352-5.84-6.378-5.84-10.933
	c0-2.404,0.65-4.662,1.778-6.6c6.48,7.95,16.155,13.173,27.06,13.72c-0.216-0.958-0.337-1.963-0.337-2.99
	c0-7.25,5.881-13.13,13.137-13.13c3.77,0,7.189,1.595,9.58,4.143c2.985-0.588,5.812-1.683,8.338-3.183
	c-0.98,3.06-3.061,5.636-5.771,7.264c2.647-0.316,5.185-1.02,7.54-2.066c-1.77,2.636-3.99,4.946-6.555,6.798
	c0.027,0.562,0.043,1.13,0.043,1.695C57.488,37.994,44.275,58.008,20.127,58.007"/>
</svg>
