<?xml version="1.0" encoding="utf-8"?>
<!-- Generator: Adobe Illustrator 16.0.0, SVG Export Plug-In . SVG Version: 6.00 Build 0)  -->
<!DOCTYPE svg PUBLIC "-//W3C//DTD SVG 1.1//EN" "http://www.w3.org/Graphics/SVG/1.1/DTD/svg11.dtd">
<svg version="1.1" id="youtube" xmlns="http://www.w3.org/2000/svg" xmlns:xlink="http://www.w3.org/1999/xlink" x="0px" y="0px"
	 width="32px" height="32px" viewBox="0 0 32 32" enable-background="new 0 0 32 32" xml:space="preserve">
<g>
	<path id="YouTube" d="M22.396,21.104H21.2v-0.707c0-0.299,0.298-0.597,0.596-0.597h0.103c0.302,0,0.603,0.298,0.603,0.597v0.707
		H22.396z M17.795,19.6c-0.298,0-0.6,0.2-0.6,0.498v3.405c0,0.298,0.205,0.5,0.6,0.5c0.301,0,0.602-0.202,0.602-0.5v-3.5
		C18.395,19.8,18.096,19.6,17.795,19.6z M25.201,17.7v6.497c0,1.604-1.402,2.803-3.003,2.803H9.797c-1.6,0-2.998-1.3-2.998-2.803
		V17.7c0-1.599,1.301-2.802,2.998-2.802H22.1C23.799,14.898,25.201,16.102,25.201,17.7z M10.699,24.904v-6.809H12.2v-0.992H8.1
		v0.992h1.299v6.899L10.699,24.904L10.699,24.904z M15.2,19.104h-1.203c0,0,0,4.398,0,4.492c0,0.204-0.197,0.301-0.397,0.301
		c-0.101,0-0.302-0.097-0.302-0.395c0-0.102,0-4.506,0-4.506h-1.3c0,0,0,4.6,0,4.804c0,0.298,0,0.696,0.301,0.899
		c0.602,0.398,1.698-0.096,1.901-0.697v0.795h1V19.104L15.2,19.104z M19.298,23.202V20.2c0-1.203-0.901-1.899-1.998-0.902v-2.299
		h-1.302v7.799h1.001l0.104-0.495C18.503,25.598,19.298,24.7,19.298,23.202z M23.295,22.8h-0.99v0.703c0,0.298-0.205,0.5-0.509,0.5
		h-0.198c-0.302,0-0.494-0.202-0.494-0.5v-1.401h2.191c0,0,0-2.004,0-2.396c-0.193-1.104-1.697-1.309-2.492-0.706
		c-0.203,0.202-0.408,0.405-0.5,0.706c-0.103,0.3-0.207,0.691-0.207,1.294V22.8C20.096,25.896,23.596,25.505,23.295,22.8z
		 M18.395,12.999c0.107,0.203,0.201,0.3,0.303,0.399c0.104,0.104,0.301,0.104,0.501,0.104c0.204,0,0.298-0.104,0.504-0.203
		c0.097-0.097,0.3-0.3,0.396-0.498v0.498h1.401V7.301h-1.104v4.698c0,0.301-0.192,0.502-0.494,0.502
		c-0.301,0-0.498-0.201-0.498-0.502V7.4h-1.198v4.102c0,0.497,0,0.896,0,0.999C18.299,12.698,18.299,12.801,18.395,12.999z
		 M14.098,9.602c0-0.6,0-1,0.103-1.401c0.097-0.3,0.301-0.599,0.499-0.798c0.298-0.203,0.598-0.301,0.999-0.301
		c0.3,0,0.598,0.098,0.803,0.2C16.699,7.403,16.898,7.602,17,7.8c0.104,0.203,0.195,0.401,0.301,0.603
		c0,0.199,0.102,0.5,0.102,0.998V11c0,0.602,0,0.999-0.102,1.202c0,0.299-0.104,0.496-0.301,0.698
		c-0.104,0.201-0.301,0.397-0.498,0.498c-0.205,0.104-0.503,0.201-0.803,0.201c-0.298,0-0.599,0-0.8-0.099
		c-0.199-0.103-0.397-0.203-0.5-0.399c-0.101-0.201-0.197-0.403-0.299-0.703c-0.102-0.299-0.102-0.7-0.102-1.197L14.098,9.602
		L14.098,9.602z M15.2,11.999c0,0.301,0.301,0.603,0.601,0.603c0.301,0,0.596-0.302,0.596-0.603V8.798
		c0-0.301-0.295-0.599-0.596-0.599c-0.3,0-0.601,0.298-0.601,0.599V11.999z M11.3,13.6h1.3V9.001L14.2,5h-1.503L11.9,8.001L10.999,5
		H9.6l1.7,4.001V13.6z"/>
</g>
</svg>
