<?xml version="1.0" encoding="utf-8"?>
<!-- Generator: Adobe Illustrator 16.0.0, SVG Export Plug-In . SVG Version: 6.00 Build 0)  -->
<!DOCTYPE svg PUBLIC "-//W3C//DTD SVG 1.1//EN" "http://www.w3.org/Graphics/SVG/1.1/DTD/svg11.dtd">
<svg version="1.1" id="youtube-play" xmlns="http://www.w3.org/2000/svg" xmlns:xlink="http://www.w3.org/1999/xlink" x="0px"
	 y="0px" width="32px" height="32px" viewBox="0 0 32 32" enable-background="new 0 0 32 32" xml:space="preserve">
<path d="M24.325,8.309c0,0-2.655-0.334-8.357-0.334c-5.517,0-8.294,0.334-8.294,0.334C6.198,8.309,5,9.507,5,10.984v10.034
	c0,1.479,1.198,2.676,2.674,2.676c0,0,2.582,0.332,8.294,0.332c5.709,0,8.357-0.332,8.357-0.332c1.479,0,2.675-1.196,2.675-2.676
	V10.982C27,9.507,25.805,8.309,24.325,8.309z M13.061,19.975V12.03L20.195,16L13.061,19.975z"/>
</svg>
